<svg width="1862" height="2191" viewBox="0 0 1862 2191" fill="none" xmlns="http://www.w3.org/2000/svg">
<path fill-rule="evenodd" clip-rule="evenodd" d="M930.498 9.63647C1219.49 9.63647 1499.27 69.0899 1762.26 186.246C1816.93 408.703 1851.38 640.745 1852.17 792.803C1852.19 795.539 1852.19 798.289 1852.19 801.039C1852.19 950.891 1830.64 1097.29 1788.11 1236.34C1746.19 1373.19 1683.84 1502.92 1603.19 1621.16C1523.64 1737.9 1425.57 1845.03 1311.64 1939.58C1190.74 2039.95 1048.58 2130.19 930.498 2181.68C812.422 2130.19 670.26 2039.95 549.317 1939.58C435.416 1845.03 337.313 1737.9 257.796 1621.16C177.145 1502.92 114.806 1373.19 72.8856 1236.34C30.3448 1097.28 8.78906 950.878 8.78906 801L8.81499 792.803C9.60614 640.771 44.0279 408.716 98.7084 186.246C361.683 69.0899 641.506 9.63647 930.498 9.63647Z" fill="white"/>
<path fill-rule="evenodd" clip-rule="evenodd" d="M930.537 865.446C994.491 865.446 1054.81 881.931 1106.91 911.126H1643.94C1645.03 873.578 1644.37 831.414 1643.61 791.545C1640.48 627.101 1592.67 349.509 1545.81 156.947C1355.34 95.3018 1150.95 59.2069 930.641 59.2069L930.537 865.446Z" fill="#C42333"/>
<path fill-rule="evenodd" clip-rule="evenodd" d="M930.654 59.8424C715.265 59.8424 516.932 91.9815 315.926 156.688C266.485 356.24 225.592 620.473 219.457 747.318C210.482 933.084 223.932 1067.33 261.129 1214.31C282.023 1296.91 309.778 1374.59 345.134 1453.24C383.304 1433.15 423.004 1408.01 463.003 1378.14C505.064 1346.77 541.574 1306.7 571.469 1268.66C567.388 1233.53 568.459 1197.99 574.647 1163.17C500.356 1165.76 458.153 1166.72 425.028 1166.72C385.068 1166.72 348.623 1138.9 330.945 1096.31H312.243C298.132 1096.31 274.215 1084.26 274.215 1039.06C274.215 993.886 298.132 981.824 312.243 981.824H330.893C348.571 939.102 385.055 911.191 425.041 911.191H754.33C808.192 881.059 868.898 865.284 930.615 865.381L930.654 59.8424Z" fill="#C9222E"/>
<path fill-rule="evenodd" clip-rule="evenodd" d="M603.583 1868.81C502.068 1767.71 418.232 1655.98 351.891 1536.71C284.565 1415.65 236.759 1280.83 208.524 1146.06C179.484 1007.43 170.354 867.379 180.107 718.966C189.276 579.217 226.15 367.563 271.699 171.746C227.931 187.119 184.711 204.011 142.118 222.393C94.2081 414.773 60.5645 658.838 59.8772 792.271C59.099 940.995 80.2656 1085.09 121.704 1220.6C165.179 1362.67 222.803 1478.29 299.986 1591.58C376.819 1704.36 471.68 1807.93 581.923 1899.43C684.929 1984.96 802.409 2060.16 930.382 2123.57C930.395 2123.55 930.369 2123.58 930.382 2123.57C808.674 2048.85 698.444 1963.29 603.583 1868.81ZM1257.26 1868.87C1358.76 1767.77 1442.61 1656.02 1508.92 1536.75C1576.25 1415.69 1624.06 1280.87 1652.3 1146.11C1681.33 1007.48 1690.47 867.431 1680.72 719.018C1671.55 579.256 1634.56 367.395 1589.03 171.59C1632.87 187.001 1676.16 203.932 1718.83 222.354C1766.75 414.721 1800.26 658.89 1800.95 792.323C1801.74 941.06 1780.56 1085.15 1739.11 1220.65C1698.69 1352.58 1638.59 1477.65 1560.83 1591.64C1484 1704.4 1389.14 1808 1278.89 1899.5C1175.9 1985 1058.43 2060.21 930.447 2123.62C930.447 2123.63 930.434 2123.6 930.447 2123.62C1052.18 2048.89 1162.4 1963.34 1257.26 1868.87Z" fill="#3B5694"/>
<path fill-rule="evenodd" clip-rule="evenodd" d="M930.239 883.5C740.517 883.5 586.709 1037.3 586.709 1226.99C586.709 1416.73 740.517 1570.52 930.239 1570.52C1119.93 1570.52 1273.76 1416.73 1273.76 1226.99C1273.76 1037.3 1119.93 883.5 930.239 883.5Z" fill="#B9A75B"/>
<path fill-rule="evenodd" clip-rule="evenodd" d="M930.498 1588.46C813.771 1588.46 709.766 1533.09 643.659 1447.23C562.935 1493.31 478.191 1529.65 397.039 1554.54C461.071 1667.11 540.679 1772.33 636.331 1868.63C722.645 1955.55 821.436 2034.96 930.498 2105.62V1588.46Z" fill="#C9222E"/>
<path fill-rule="evenodd" clip-rule="evenodd" d="M424.704 1148.82C387.545 1148.82 355.756 1119.55 343.15 1078.41H311.918C303.838 1078.41 291.867 1068.63 291.867 1039.14C291.867 1009.64 303.838 999.865 311.918 999.865H343.111C355.717 958.647 387.519 929.232 424.704 929.232H725.122C652.193 979.58 598.68 1056.05 578.058 1145.07C511.523 1147.38 460.487 1148.82 424.704 1148.82Z" fill="#B9A75B"/>
<path fill-rule="evenodd" clip-rule="evenodd" d="M1769.8 179.087C1514.66 64.784 1233.89 0 930.511 0C627.136 0 346.327 64.784 91.199 179.087C32.3552 417.224 0.760856 648.229 0.0215796 791.921C-0.782546 945.561 20.8899 1095.63 64.4683 1238.05C106.655 1375.75 169.378 1506.28 250.52 1625.25C330.517 1742.64 429.165 1850.4 543.714 1945.48C651.467 2034.92 797.403 2133.05 930.511 2190.45C1063.61 2133.05 1209.54 2034.92 1317.28 1945.48C1431.86 1850.4 1530.49 1742.63 1610.49 1625.25C1691.63 1506.28 1754.35 1375.75 1796.53 1238.05C1840.12 1095.65 1861.81 945.561 1861 791.921C1860.22 648.229 1828.64 417.224 1769.8 179.087ZM1560.96 1591.51C1484.13 1704.29 1389.26 1807.87 1279.02 1899.37C1176 1984.88 1058.38 2060.13 930.408 2123.54C802.435 2060.12 684.994 1984.88 581.975 1899.37C471.732 1807.86 376.871 1704.29 300.025 1591.51C293.942 1582.58 288.002 1573.56 282.14 1564.49C394.393 1545.54 518.475 1497.9 633.024 1432.61C603.889 1390.71 584.015 1343.08 574.725 1292.89C546.023 1328.16 511.808 1363.94 472.77 1393.08C409.438 1440.37 332.955 1487.29 250.234 1512.74C196.145 1420.69 153.025 1322.62 121.756 1220.53C80.3174 1085.09 59.1507 940.982 59.9289 792.258C60.6293 658.825 94.2599 414.747 142.157 222.367C391.618 114.679 656.694 59.9462 930.498 59.9462C1204.29 59.9462 1469.38 114.692 1718.83 222.367C1766.75 414.747 1800.37 658.825 1801.08 792.258C1801.32 838.003 1799.46 883.735 1795.5 929.31L1135.08 929.284C1216.78 985.65 1274.11 1074.77 1288.14 1177.71L1414.06 1147.71C1442.18 1141.38 1453.8 1122.4 1456.72 1105.04L1773.57 1083.6C1764.44 1129.79 1752.98 1175.5 1739.25 1220.55C1698.82 1352.46 1638.71 1477.52 1560.96 1591.51Z" fill="#B9A75B"/>
<path fill-rule="evenodd" clip-rule="evenodd" d="M953.053 1321.98V1507.07C1039.43 1500.15 1114.77 1454.16 1161.45 1386.78L1001.18 1294.24C988.166 1307.95 971.445 1317.59 953.053 1321.98ZM907.542 946.91C821.099 953.836 745.705 999.865 699.04 1067.29L859.009 1159.6C872.092 1145.7 888.968 1135.95 907.542 1131.56V946.91ZM930.2 1176.97C916.954 1176.97 904.249 1182.23 894.883 1191.6C885.516 1200.96 880.254 1213.67 880.254 1226.91C880.254 1240.16 885.516 1252.86 894.883 1262.23C904.249 1271.6 916.954 1276.86 930.2 1276.86C936.758 1276.86 943.25 1275.56 949.307 1273.05C955.364 1270.54 960.867 1266.86 965.501 1262.22C970.135 1257.58 973.811 1252.07 976.317 1246.01C978.823 1239.95 980.111 1233.46 980.108 1226.9C980.11 1220.35 978.82 1213.85 976.313 1207.8C973.806 1201.74 970.13 1196.23 965.496 1191.6C960.861 1186.96 955.359 1183.28 949.303 1180.77C943.247 1178.26 936.756 1176.97 930.2 1176.97ZM953.053 946.91V1131.56C971.608 1135.96 988.464 1145.71 1001.53 1159.6L1161.5 1067.31C1114.85 999.878 1039.48 953.861 953.053 946.91ZM907.542 1322C889.127 1317.63 872.387 1307.98 859.372 1294.24L699.105 1386.78C702.775 1392.07 706.653 1397.25 710.661 1402.25C757.728 1461.13 827.947 1500.69 907.555 1507.07L907.542 1322ZM1024.09 1254.89L1184.26 1347.38C1215.81 1282.7 1224.59 1190.18 1184.32 1106.71L1024.22 1199.05C1029.63 1217.28 1029.59 1236.69 1024.09 1254.89Z" fill="white"/>
<path fill-rule="evenodd" clip-rule="evenodd" d="M725.654 1062.08L856.182 1137.32C866.131 1129.04 877.439 1122.56 889.605 1118.15L889.54 967.441C824.909 977.128 766.349 1010.94 725.654 1062.08ZM971.289 967.583L971.029 1118.63C983.208 1123.09 994.077 1128.98 1004.04 1137.29L1134.88 1062.09C1094.29 1011 1035.82 977.223 971.289 967.583ZM1192.09 1199.73C1189.67 1176.71 1184.15 1154.13 1175.67 1132.6L1044.65 1207.93C1046.27 1216.65 1046.72 1225.55 1045.99 1234.4C1084.23 1223.92 1122.75 1214.55 1161.53 1206.3C1171.72 1204.15 1181.91 1201.96 1192.09 1199.73Z" fill="#B9A75B"/>
<path fill-rule="evenodd" clip-rule="evenodd" d="M930.499 2105.63C1039.59 2034.97 1138.57 1955.32 1224.89 1868.41C1326.04 1766.55 1409.45 1654.14 1475.24 1534.26C1542.04 1412.55 1589.21 1277.24 1616.74 1142.04C1618.87 1131.59 1620.87 1121.61 1622.75 1111.17L1470.59 1122.07C1462.53 1143.41 1444.35 1159.21 1418.78 1164.96L1419.04 1164.91C1418.01 1165.15 1362.25 1179.02 1290.31 1195.58C1291.19 1205.92 1291.65 1216.38 1291.65 1226.94C1291.65 1426.62 1130.04 1588.46 930.524 1588.46V2105.63H930.499Z" fill="#C42333"/>
<path fill-rule="evenodd" clip-rule="evenodd" d="M962.352 1226.89C962.338 1218.36 958.947 1210.19 952.92 1204.17C946.893 1198.14 938.723 1194.75 930.2 1194.74C921.675 1194.75 913.502 1198.14 907.472 1204.16C901.443 1210.19 898.049 1218.36 898.035 1226.89C898.042 1235.42 901.432 1243.6 907.462 1249.63C913.492 1255.67 921.669 1259.07 930.2 1259.08C938.729 1259.06 946.903 1255.66 952.93 1249.63C958.957 1243.59 962.345 1235.42 962.352 1226.89Z" fill="#B9A75B"/>
<path fill-rule="evenodd" clip-rule="evenodd" d="M970.99 1486.53C1035.64 1476.88 1094.23 1443.12 1135.01 1392.03L1003.58 1316.42C993.889 1324.59 982.859 1331.02 970.977 1335.44C970.99 1335.43 971.223 1486.54 970.99 1486.53Z" fill="#C42333"/>
<path fill-rule="evenodd" clip-rule="evenodd" d="M725.732 1392.06L856.584 1316.31C866.428 1324.45 877.592 1330.84 889.592 1335.21L889.281 1486.48C824.781 1476.83 766.336 1443.09 725.732 1392.06Z" fill="#C9222E"/>
<path fill-rule="evenodd" clip-rule="evenodd" d="M1193.33 1227.17C1193.33 1223.63 1193.25 1220.05 1193.1 1216.51C1183.21 1218.68 1173.72 1220.71 1164.77 1222.61C1126.8 1230.71 1089.07 1239.92 1051.64 1250.23L1175.46 1321.71C1187.32 1291.6 1193.38 1259.53 1193.33 1227.17Z" fill="#C42333"/>
<path fill-rule="evenodd" clip-rule="evenodd" d="M676.097 1106.96C639.029 1185.36 641.377 1273.67 676.615 1347.73L836.338 1255.01C830.811 1236.74 830.761 1217.25 836.195 1198.95L676.097 1106.96Z" fill="white"/>
<path fill-rule="evenodd" clip-rule="evenodd" d="M685.357 1322.06L815.625 1246.36C813.397 1233.61 813.405 1220.58 815.651 1207.84L684.929 1132.81C661.131 1193.67 661.284 1261.3 685.357 1322.06ZM1061.12 638.67C1060.77 645.752 1058.96 669.421 1058.35 676.49H1162.44C1156.35 648.618 1153.88 610.059 1152.79 581.266L1151.19 521.203C1150.98 515.457 1152.61 510.71 1155.9 507.26C1157.36 505.714 1159.11 504.474 1161.06 503.614C1163 502.754 1165.1 502.292 1167.22 502.254C1172.09 502.189 1180.24 502.099 1180.88 519.063L1183.14 582.939C1184.2 611.693 1184.6 652.029 1180.8 676.49H1282.28C1280.6 667.761 1277.71 646.815 1277.04 641.057C1289.77 668.047 1317.04 681.872 1353.59 681.872C1375.22 681.872 1392.09 674.091 1404.43 666.399L1409.67 676.49H1597.09C1588.75 648.294 1583.62 609.19 1580.32 580.112C1580.32 579.969 1554.68 370.131 1554.68 370.131L1458.12 354.554C1465.9 380.779 1471.7 420.986 1474.97 449.908L1489.43 584.067C1492.19 608.528 1494.7 634.714 1494.48 661.056L1494.45 664.311L1490.6 654.83C1483.93 638.476 1479.6 615.48 1477.36 584.521L1473.32 541.449C1468.25 473.293 1430.72 442.191 1349.31 442.191C1335.45 442.191 1300.88 445.654 1279.89 451.659L1285.55 529.309L1307.23 515.976C1325.01 505.069 1339.33 500.412 1355.1 500.412C1368.02 500.412 1376.44 505.263 1380.35 514.07C1362.36 516.84 1344.81 522 1328.18 529.413C1299.4 542.305 1280.58 560.865 1273.03 583.147L1272.95 581.266L1269.63 510.101C1267.91 464.11 1239.26 435.434 1194.87 435.434C1174.41 435.434 1156.22 441.296 1140.41 452.632C1139.62 449.991 1138.65 447.408 1137.5 444.902L1133.57 436.653L1050.2 432.827C1053.97 447.82 1059.12 489.661 1060.22 506.067C1055.79 483.435 1043.98 459.311 1021.57 443.696C1004.57 431.854 983.221 425.59 959.81 425.59C928.838 425.59 897.62 438.573 876.259 460.349C855.157 481.853 843.549 511.307 842.356 545.936C834.483 537.311 824.056 529.945 811.021 523.875L772.708 505.626L770.802 504.705C761.606 500.412 761.282 498.921 761.489 496.457C761.801 492.527 770.633 488.312 783.24 488.312C798.972 488.312 821.76 496.249 840.203 508.052L841.746 439.506C828.115 433.32 809.05 428.301 781.813 428.301C767.611 428.301 740.258 430.285 716.705 443.618C710.207 447.301 704.306 451.529 699.118 456.173L700.168 436.031C678.003 433.527 654.217 432.866 625.19 459.752C624.229 454.117 622.855 448.559 621.079 443.125L531.043 448.637C537.748 472.748 538.552 509.323 536.736 541.929C536.083 554.686 535.434 567.444 534.791 580.202C533.779 598.166 532.755 616.505 530.939 633.677C523.442 610.422 515.168 578.685 508.929 552.279L464.469 352.142L337.495 370.3C338.584 372.855 340.387 379.34 341.23 385.669C342.333 394.047 341.995 411.388 329.908 446.575C309.532 505.925 280.181 593.574 252.193 654.091C248.276 662.56 241.583 676.477 241.583 676.477H340.491C341.762 660.991 348.286 635.402 354.654 616.803L420.722 615.065C423.809 629.423 427.894 649.798 428.763 661.679L429.84 676.477H628.848C624.14 645.246 625.955 602.056 627.33 577.57C628.874 549.736 634.697 531.968 646.214 519.984C655.137 510.71 665.786 508.48 673.23 508.259C672.206 545.495 696.705 562.849 718.482 573.782L757.378 593.587C771.372 600.902 771.074 604.663 770.893 607.141C770.322 614.611 759.077 617.516 748.74 617.283C728.468 616.842 700.441 602.848 668.821 570.164L667.134 658.799C692.192 672.884 722.541 677.956 750.167 677.956C795.263 677.956 843.666 658.345 856.714 616.297C878.931 658.773 923.352 678.384 967.112 678.384C1006.28 678.371 1035.54 665.777 1061.12 638.67ZM378.946 549.918L396.922 498.169C402.214 523.278 404.977 536.442 407.596 548.971L378.946 549.918ZM934.753 527.675L934.74 526.949C934.74 496.781 946.023 484.952 956.658 483.98C959.849 483.681 968.357 482.89 972.261 497.04C973.753 502.539 974.414 506.664 974.414 509.803C974.414 517.999 970.004 519.582 964.791 521.436L964.492 521.553L934.96 532.889C934.882 531.151 934.753 529.426 934.753 527.675ZM1038.25 589.268C1019.54 605.273 1005.57 615.921 982.857 615.467C964.998 615.104 953.974 603.081 947.191 589.593L1060.91 546.883L1061.47 582.796V582.978C1061.92 595.105 1062.05 606.985 1061.84 618.723V619.164L1038.25 589.268ZM1377.06 617.724C1359.76 618.359 1356.01 606.609 1355.75 598.088C1355.83 589.165 1358.79 575.884 1386.35 568.439L1387.71 587.323L1388.29 595.87C1388.69 601.953 1389.08 607.478 1389.68 613.496C1386.07 615.947 1381.9 617.542 1377.06 617.724Z" fill="#B9A75B"/>
<path fill-rule="evenodd" clip-rule="evenodd" d="M826.248 450.245C817.48 447.016 803.356 443.89 782.034 443.89C764.486 443.89 742.191 447.223 724.526 457.21C704.371 468.624 690.208 486.872 688.924 506.171C687.004 534.886 702.905 548.569 725.408 559.866C740.725 567.557 755.316 574.963 764.525 579.787C776.885 586.259 787.559 594.171 786.483 608.49C785.393 623.029 771.969 632.86 748.948 632.86C729.908 632.86 702.452 621.68 683.788 604.638L682.971 649.344C699.274 657.515 725.927 662.379 750.064 662.379C791.943 662.379 843.705 643.21 844.626 594.275C845.288 559.451 819.737 545.041 804.627 538.012C791.739 531.987 778.895 525.869 766.094 519.66C759.181 516.3 744.72 510.918 745.991 495.056C747.223 479.946 764.46 472.761 783.123 472.761C798.83 472.761 813.991 477.093 825.638 483.396L826.248 450.245ZM452.524 369.677L356.639 383.399C359.012 397.147 355.342 421.012 344.875 451.503C324.668 510.373 292.218 605.001 266.421 660.913H326.886C329.856 643.054 334.953 624.87 343.487 601.525L433.16 599.164C437.116 616.816 443.186 644.973 444.34 660.913H524.39C514.558 637.931 501.744 589.087 493.82 555.547L452.524 369.677ZM356.639 566.26L400.541 439.96L426.585 563.925L356.639 566.26ZM683.879 450.583L681.791 493.123C667.693 491.295 649.159 494.407 634.996 509.154C621.896 522.798 613.738 542.655 611.832 576.571C610.275 604.534 609.277 635.129 611.598 660.9H543.014C547.528 635.506 549.058 605.182 550.627 577.193L552.339 542.927C553.909 515.042 554.012 488.61 549.719 463.137L609.536 459.454C612.312 469.441 613.686 482.955 613.051 497.844C639.211 458.572 664.787 449.701 683.879 450.583ZM1540.62 383.672L1478.83 373.685C1484.92 399.547 1487.32 420.078 1490.46 447.924L1504.94 582.122C1508.08 610.098 1510.29 635.531 1510.07 660.913H1576.96C1571.01 635.518 1568 610.098 1564.85 582.122L1540.62 383.672ZM1264 660.913C1259.96 635.518 1258.45 610.098 1257.41 582.122L1254.07 511.1C1252.68 473.396 1230.97 451.024 1194.64 451.024C1174.73 451.024 1151.1 457.444 1130.88 482.994C1130.27 477.612 1127.19 459.7 1123.44 451.802L1069.03 449.299C1073.71 475.627 1075.19 502.034 1076.23 529.893L1077.03 582.122C1078.09 608.397 1077.5 634.711 1075.28 660.913H1143.83C1139.78 635.518 1138.27 610.098 1137.24 582.122L1135.62 521.877C1134.82 500.477 1150.82 486.885 1167.3 486.677C1186.35 486.418 1195.74 499.038 1196.46 518.207L1198.69 582.122C1199.75 610.098 1200.15 635.531 1198 660.913H1264ZM1476.15 660.913C1467.94 640.719 1463.87 613.898 1461.82 585.935L1457.84 543.057C1454.04 492.449 1432.75 457.768 1349.06 457.768C1334.6 457.768 1313.39 460.089 1296.41 463.89L1299.23 502.76C1316.23 492.345 1333.78 484.836 1355.36 484.836C1377.66 484.836 1397.01 493.979 1398.86 527.286C1377.23 529.685 1356.98 533.472 1334.34 543.628C1308.83 555.041 1282.54 575.637 1285.04 610.668C1287.8 649.409 1317.04 666.309 1353.87 666.309C1381.61 666.309 1401.02 651.912 1411.5 641.134C1413.39 648.281 1416.13 655.466 1419.25 660.926H1476.15V660.913ZM1376.96 633.093C1357.66 633.962 1340.89 623.716 1340.2 598.905C1339.59 576.636 1354.84 556.948 1400.59 549.412L1403.25 585.935C1404.15 598.503 1404.52 607.387 1406.09 619.449C1399.5 627.335 1388.71 632.561 1376.96 633.093ZM1012.71 456.484C997.54 445.927 979.226 441.18 959.849 441.18C915.532 441.18 856.325 472.631 857.868 554.95C859.438 637.568 922.626 662.781 967.19 662.781C1006.31 662.781 1030.02 648.955 1049.34 628.463L1035.61 611.083C1025.14 619.28 1009.06 631.563 982.534 631.018C954.467 630.473 935.998 609.566 926.841 580.566L1049.94 534.341C1046.12 493.668 1032.22 470.063 1012.71 456.484ZM970.057 536.105L921.109 554.885C919.859 545.899 919.209 536.839 919.163 527.766C918.878 476.924 946.244 469.298 955.206 468.468C970.355 467.067 982.469 475.381 987.28 492.929C992.702 512.76 991.353 528.479 970.057 536.105Z" fill="white"/>
</svg>
