
<svg xmlns="http://www.w3.org/2000/svg" xml:space="preserve" width="3.49609in" height="3.46173in" version="1.1" fill="currentColor" style="shape-rendering:geometricPrecision; text-rendering:geometricPrecision; image-rendering:optimizeQuality; fill-rule:evenodd; clip-rule:evenodd"
viewBox="0 0 487.54 482.75"
 xmlns:xlink="http://www.w3.org/1999/xlink"
 xmlns:xodm="http://www.corel.com/coreldraw/odm/2003">
 <defs>
  <style type="text/css">
    .fil0 {fill: var(--color-fg-1)}

  </style>
 </defs>
 <g id="Layer_x0020_1">
  <g id="_2086556950560">
   <path fill="currentColor" d="M172.01 80.36c-28.08,5.73 -57.94,18.31 -57.94,18.31 14.79,-20.14 44.81,-44.82 44.81,-44.82 -8.26,-15.52 -15.57,-38.49 -15.57,-38.49 0,0 34.71,1.91 61.89,10.73 0,0 46.16,-25.3 94,-26.08 0,0 -34.87,20.13 -49.68,38.87 3.93,2.07 31.81,10.41 53.53,23.21 0,0 -39.26,1.11 -75.29,6.04 0,0 -12.68,17.89 -23.41,58.62 -0.01,0 -18.48,-20.35 -32.33,-46.39l-0 -0z"/>
   <path fill="currentColor" d="M358.52 114.08c-23.77,-26.44 -55.5,-51.99 -55.5,-51.99 29.18,0.42 72.48,17.63 72.48,17.63 8.46,-16 14.39,-38.02 14.39,-38.02 0,0 16.57,28.04 24.09,59.05 0,0 34.39,20.59 60.35,55.06 0,0 -27.08,-5.65 -47.02,-5.55 -0.06,4.45 7.31,41.03 5.71,66.18 0,0 -22.08,-35.88 -42.79,-65.76 0,0 -33.3,0.6 -68.28,10.16 0.01,0 19.6,-22.63 36.56,-46.77l0 0zm38.1 172.36c17.53,-29.56 36.42,-69.99 36.42,-69.99 5.79,27.04 6.31,61.54 6.31,61.54 17.39,-3.67 48.18,-18.44 48.18,-18.44 0,0 -13.72,36.53 -44.46,64.55 0,0 3.11,21.89 3.47,50.78 0,0 -21.75,-9.69 -39.78,-20.52 -3.84,2.24 -25.64,17.06 -62.45,24.68 0,0 15.59,-24.36 28.49,-48.15 0,0 -25.67,-16.91 -46.01,-44.63 0,-0.01 39.54,4.99 69.83,0.17l-0 0z"/>
   <path fill="currentColor" d="M272.6 226.12c26.9,33.32 54.19,60.14 54.19,60.14 -44.59,-6.63 -80.79,-19.13 -80.79,-19.13 -18.11,29.04 -37.87,62.79 -37.87,62.79 0,0 -11.05,-36.62 -12.92,-78.18 0,0 -22.4,-7.84 -63.68,-24.09 0,0 28.47,-17.68 62.94,-27.32 -2.01,-3.97 3.27,-53.39 9.88,-73.58 0,0 20.09,32.57 36.46,56.52 0,0 32.02,-10.86 81.18,-22.43 -0.01,0 -26.9,34.13 -49.37,65.27l-0 -0zm-244.83 126.02c-2.68,-5.09 -5.23,-10.29 -7.56,-15.55 0.47,-17.67 2.05,-40.43 6.57,-58.08 0,0 -12.96,-8.99 -26.35,-20.67 -0.15,-2.03 -0.33,-4.08 -0.44,-6.14 7.69,-2.87 24.03,-8.64 38.29,-11.94 1.63,-4.15 10.51,-32.77 27.68,-52.52 0,0 1.16,19.46 5.82,45.36 0,0 27.09,-6.14 59.74,-4.94 0,0 -30.25,23.83 -49.3,48.03 6.91,27.91 20.81,54.69 20.81,54.69 -20.78,-11.76 -42.75,-27.33 -42.75,-27.33 -7.72,9.18 -23.23,33.93 -32.5,49.1l-0.01 -0.01zm172.83 126.72c-3.33,-0.61 -6.72,-1.31 -10.03,-2.06 -11.34,-12.16 -28.64,-32.01 -41.85,-52.88 0,0 -48.73,-3.93 -83.06,-18.97 0,0 28.4,-5.34 59.58,-21.41 -2.01,-3.97 -13.9,-25.89 -22.22,-53.15 0,0 29.78,24.06 51.85,38.14 0,0 28.04,-16.13 53.25,-38.6 0,0 -6.39,31.05 -9.93,66.51 16.02,9.22 32.95,18.39 49.18,27.09 -25.42,3.7 -50.45,2.92 -50.45,2.92 -0.99,19.69 1.66,40.39 3.61,52.31l0.07 0.09zm211.98 -63.32c0,0 -33.6,8.88 -66.4,10.11 0,0 -0.25,-22.37 -1.87,-46.62 0,0 -17.42,24.72 -40.15,48.49 -26.85,-0.39 -56.71,-3.9 -56.71,-3.9 10.13,10.37 20.85,20.63 31.57,30.41 -20.22,17.19 -38.91,28.67 -38.91,28.67 2.65,0.04 5.35,0.05 8.02,0.02 63.83,-1.04 121.51,-26.45 164.43,-67.16l0.02 -0.03z"/>
   <path fill="currentColor" d="M2.94 197.63c0,0 17.95,-22.39 38.91,-40.57 0,0 7.01,12.94 24.1,30.17 0,0 0.13,-21.06 2.57,-54.12 19.15,-16.93 45.54,-34.44 45.54,-34.44 -21.88,-1.39 -38.22,-0.33 -38.22,-0.33 5.08,-25.08 16.54,-51.99 16.54,-51.99 -46.53,36.9 -79.28,90.38 -89.45,151.28l0 0z"/>
  </g>
 </g>
</svg>
