<?xml version="1.0" encoding="UTF-8"?>
<!DOCTYPE svg PUBLIC "-//W3C//DTD SVG 1.1//EN" "http://www.w3.org/Graphics/SVG/1.1/DTD/svg11.dtd">
<!-- Creator: CorelDRAW 2021 (64-Bit) -->
<svg xmlns="http://www.w3.org/2000/svg" xml:space="preserve" width="26.0423in" height="26.0415in" version="1.1" style="shape-rendering:geometricPrecision; text-rendering:geometricPrecision; image-rendering:optimizeQuality; fill-rule:evenodd; clip-rule:evenodd"
viewBox="0 0 37279.44 37278.37"
 xmlns:xlink="http://www.w3.org/1999/xlink"
 xmlns:xodm="http://www.corel.com/coreldraw/odm/2003">
 <defs>
  <style type="text/css">
   <![CDATA[
    .fil1 {fill:#373435;fill-rule:nonzero}
    .fil5 {fill:#6A7AB5;fill-rule:nonzero}
    .fil3 {fill:#D1D3D4;fill-rule:nonzero}
    .fil0 {fill:#DBA111;fill-rule:nonzero}
    .fil4 {fill:#ED1C24;fill-rule:nonzero}
    .fil2 {fill:white;fill-rule:nonzero}
   ]]>
  </style>
 </defs>
 <g id="Layer_x0020_1">
  <metadata id="CorelCorpID_0Corel-Layer"/>
  <g id="_2077287474240">
   <g>
    <path class="fil0" d="M37279.44 18639.18c0,10295.17 -8345.44,18639.19 -18639.01,18639.19 -10294.63,0.17 -18639.54,-8344.19 -18639.54,-18639.19 0,-10293.74 8344.91,-18639.18 18639.18,-18639.18 10293.92,0 18639.36,8345.44 18639.36,18639.18l0.01 0zm0 0l0 0 0 0z"/>
   </g>
   <path class="fil1" d="M36657.46 18639.18c0,9951 -8066.4,18017.39 -18017.57,18017.39 -9951.17,0 -18017.74,-8066.22 -18017.74,-18017.39 0,-9951.16 8066.76,-18017.74 18017.92,-18017.74 9950.82,0 18017.39,8066.58 18017.39,18017.74z"/>
   <path class="fil0" d="M31480.07 18639.18c0,7091.53 -5748.82,12839.11 -12840,12839.11 -7091.71,0 -12840.35,-5747.76 -12840.35,-12839.11 0,-7092.06 5748.82,-12840.35 12840.35,-12840.35 7091.36,-0.18 12840,5748.47 12840,12840.35z"/>
   <path class="fil2" d="M31091.41 18639.18c0,6877.09 -5575.49,12451.51 -12451.51,12451.51 -6876.91,0 -12451.33,-5574.6 -12451.33,-12451.51 0,-6876.73 5574.6,-12451.5 12451.33,-12451.5 6876.2,0.18 12451.51,5574.78 12451.51,12451.5z"/>
   <g>
    <path class="fil0" d="M7971.19 29381.39c137.56,131.51 476.76,454.33 476.76,454.33l324.96 -342.22 -969.17 -923.61 -124.75 130.45 -1301.25 1364.24 493.84 470.53c0,0 417.5,-437.6 570.01,-597.06l433.87 413.04 325.14 -341.33 -433.33 -413.76c80.97,-85.6 122.08,-128.67 203.94,-214.62l-0.01 0zm2337.15 1557.86c-43.78,-261.78 -190.77,-492.95 -412.87,-650.45 -170.64,-123.15 -376.07,-189.51 -586.64,-189.51 -54.12,0 -108.47,4.41 -161.85,13.1 -281.71,47.87 -534.95,211.95 -713.26,461.8 -177.78,251.1 -249.5,544.02 -201.63,826.8 44.13,260.89 189.71,490.46 411.44,648.48 221.74,157.67 489.21,220.67 750.63,176.72 281.71,-47.7 534.95,-211.77 712.55,-462.52 142.19,-198.25 216.4,-425.86 216.4,-653.11 0,-56.77 -4.81,-114.96 -14.77,-171.37l-0.01 0.06zm-1391.65 724.65c-226.19,-160.16 -39.51,-495.08 92.71,-679.27 131.34,-185.61 386.71,-472.48 612.89,-312.5 236.33,168.88 15.48,534.24 -90.4,682.65 -106.6,149.66 -378.34,478.18 -615.21,309.12zm2914.98 -207.32c-521.6,-263.74 -1124.53,-47.7 -1401.79,501.49 -138.63,274.41 -165.86,575.52 -76.52,846.91 82.58,251.81 261.6,457.54 504.34,579.62 141.66,73.26 299.01,111.53 458.56,111.53 105.06,0 209.88,-16.7 309.71,-49.24 270.86,-88.09 497.04,-288.47 634.78,-562.71 278.33,-550.61 93.43,-1163.86 -429.06,-1427.6l-0.02 -0.01zm-576.77 1526.01c-61.22,19.93 -119.23,13.7 -184.9,-18.86 -103.57,-52.85 -139.88,-146.99 -139.88,-252.17 0,-145.39 70.12,-316.95 129.38,-434.04 102.86,-203.59 311.78,-524.63 559.86,-399.52 65.31,33.45 104.46,76.7 124.22,137.21 41.46,125.1 -0.18,330.83 -111.94,551.14 -111.4,219.24 -252.17,374.96 -376.74,416.25l0 -0.01zm1653.78 -770.92l-96.1 275.13c0,0 245.41,86.13 319.97,110.69l-526.94 1504.83 642.79 225.48c0,0 433.87,-1234.69 527.47,-1503.58l320.68 111.58 155.72 -443.83 -1283.98 -450.42 -59.62 170.13 -0.01 -0.01zm2669.76 596.52l-869.15 -183.3 -37.2 176.54 -388.31 1844.02 884.28 187.75c282.6,58.37 468.75,-11.03 574.81,-79.55 134.71,-87.73 229.21,-232.24 265.51,-404.32 9.96,-46.98 14.77,-92.36 14.77,-137.03 0,-124.39 -39.69,-236.69 -110.87,-333.14 99.66,-79.01 170.66,-190.6 200.21,-329.94 7.47,-36.13 11.75,-76.88 11.75,-119.23 0.54,-236.33 -134.36,-535.84 -545.8,-621.79l0 0.01zm-239.35 1408.02c-9.25,42.18 -25.98,97.88 -58.02,118.7 -29.54,19.04 -85.96,21.53 -159.45,5.69 0,0 -33.45,-7.47 -72.96,-15.13 28.12,-133.11 47.16,-221.74 74.57,-354.85 37.73,8.9 86.13,18.51 86.13,18.51 114.07,24.03 135.96,108.2 135.96,169.42 0,24.74 -3.03,45.56 -6.23,57.66l-0.01 0zm-59.26 -986.97c76.52,17.44 132.4,45.2 153.94,77.95 9.75,16.98 14.88,36.23 14.88,55.81 0,1.67 -0.04,3.38 -0.11,5.04 0,14.95 -1.96,32.39 -5.87,53.21 -11.56,54.1 -27.41,129.02 -177.96,98.23 0,0 -18.51,-4.81 -44.49,-10.5 23.85,-111.94 35.24,-167.46 59.62,-279.76l-0.01 0.02zm1902.74 -120.66l-943.9 1932.47 538.86 41.29 204.12 -430.49c114.07,9.43 228.32,17.44 340.08,26.34l147.17 456.47 716.82 55.7 -801.18 -2483.61 -201.99 401.83 0.01 0.01zm2128.05 1542.74l-66.02 -1568.18 -681.05 28.65 86.13 2063.8 1364.77 -56.59 -20.46 -495.26c0,-0.18 -487.61,20.46 -683.36,27.58l0 0zm1868.23 -197.54c-44.13,-279.22 -243.27,-1550.56 -243.27,-1550.56l-178.49 28.47 -495.44 77.23 319.79 2041.56 1350.01 -211.95 -77.23 -489.75c0,-0.36 -481.74,75.46 -675.36,105l-0.01 0.01zm3908.18 -1372.96c-5.52,176.89 -109.8,329.4 -272.46,393.65 -90.22,35.95 -176.18,35.95 -262.67,-0.71 -132.22,-56.59 -255.2,-200.03 -328.87,-384.22 -86.31,-217.29 -104.29,-402.01 -47.52,-531.39 39.15,-91.11 115.49,-158.92 232.77,-205.54 127.07,-50.36 247.37,-3.92 412.16,92.9l151.27 89.33 251.46 -396.5 -149.31 -98.06c-274.06,-180.45 -613.43,-216.93 -907.24,-99.84 -272.46,108.56 -483.87,311.78 -595.63,571.79 -113.36,263.38 -113.36,565.38 1.96,851.18 216.93,542.24 829.65,809.54 1365.66,594.74 387.42,-154.47 606.49,-448.64 634.25,-850.65l12.64 -179.38 -493.13 -36.48 -5.34 189.17 0.01 0zm1589.72 -563.78c-139.52,-247.9 -766.48,-1372.25 -766.48,-1372.25l-156.78 88.62 -438.67 244.87 1007.96 1803.27 1191.26 -665.57 -240.96 -432.98c0.18,0 -426.21,237.75 -596.34,334.03l0 0.01zm1325.45 -2780.98l-145.93 106.78 -255.91 188.46 836.59 1140.19c38.26,51.43 38.26,85.78 34.52,106.07 -8.01,58.91 -69.22,122.44 -123.15,161.59 -35.05,22.92 -76.07,35.17 -117.97,35.17 -9.1,0 -18.24,-0.6 -27.26,-1.74 -43.07,-6.23 -77.23,-29.9 -107.49,-70.65l-826.8 -1127.2 -550.96 403.26 822.71 1121.86c122.08,166.22 273.52,264.09 450.42,291.32 198.43,30.96 424.26,-36.48 633.89,-191.48 431.38,-315.17 424.26,-734.09 235.98,-990.7l-858.66 -1172.94 0 0.01zm2509.77 -414.65c-127.07,-131.34 -283.49,-190.6 -447.57,-181.7 -9.1,-132.3 -65.15,-257.08 -157.85,-351.82 -172.44,-177.78 -557.55,-316.24 -912.22,28.65l-637.99 617.17 1437.56 1484.01 648.84 -628.91c207.5,-201.1 253.06,-395.78 255.38,-521.43 3.56,-161.41 -62.64,-319.08 -186.15,-445.97l0 -0.01zm-1085.91 -50.18c21.35,22.95 47.87,49.65 47.87,86.67 0,30.43 -16.73,67.98 -66.38,115.49l-31.85 32.03c-80.44,-83.64 -118.7,-122.61 -200.38,-206.79 143.79,-131.69 203.59,-75.28 250.75,-27.41l-0.01 0zm340.44 511.1c116.39,-112.29 228.68,-13.53 260.71,19.93 30.96,31.14 66.02,74.92 66.02,112.83l0 1.43c-0.71,35.06 -30.25,83.82 -83.82,135.6 0,0 -24.92,24.2 -54.45,51.79 -93.61,-97.17 -157.49,-162.47 -251.46,-259.11 27.76,-28.12 63,-62.46 63,-62.46l0 -0.01z"/>
   </g>
   <g>
    <path class="fil2" d="M7966.56 29189.9c56.23,54.1 476.05,454.51 476.05,454.51l138.45 -145.93 -773.41 -737.64 -31.32 32.74 -1206.93 1266.19 297.37 284.02c0,0 514.31,-539.04 569.65,-597.95l434.4 413.76 138.63 -145.39 -434.58 -413.4c50.54,-53.03 342.04,-359.13 391.69,-410.91l-0.01 0zm1849.89 1208.88c-191.66,-136.67 -421.05,-190.95 -646.35,-153.23 -247.19,42.35 -468.92,186.86 -625.89,407.53 -157.32,221.56 -220.49,478.36 -178.49,724.48 37.73,226.01 164.61,425.32 356.45,560.93 147.66,106.85 325.56,164.49 507.89,164.49 47.38,0 94.87,-3.91 141.51,-11.63 245.76,-41.11 467.86,-186.15 624.46,-405.4 125.28,-177.07 191.48,-377.28 191.48,-575.7 0,-49.3 -4.27,-99.84 -12.28,-149.13 -38.26,-225.3 -165.5,-425.15 -358.77,-562.35l-0.02 0zm-174.57 1034.84c-129.73,181.52 -467.32,580.15 -803.31,340.97 -335.1,-237.58 -69.22,-686.93 60.15,-869.69 129.56,-182.41 467.32,-580.69 801.71,-342.93 336.16,240.07 71.01,689.6 -58.55,871.65zm2128.76 144.32c-452.55,-228.68 -976.82,-38.44 -1219.74,442.23 -122.44,241.67 -146.64,504.69 -69.05,743.34 71.36,216.93 226.37,393.82 436.89,499.89 211.06,107.49 447.21,126.88 665.04,55.34 236.87,-77.95 434.4,-253.77 557.02,-495.26 242.56,-481.03 83.64,-1016.86 -370.15,-1245.54l-0.01 0zm-761.85 1505.9c-366.42,-184.36 -171.37,-669.31 -70.3,-868.44 100.72,-200.03 374.96,-644.21 741.02,-458.25 97.34,48.41 162.47,121.19 193.26,216.04 71.9,219.24 -44.67,503.09 -120.84,654 -75.81,149.48 -235.44,411.62 -455.4,483.87 -93.61,31.85 -190.95,22.24 -287.76,-27.23l0.01 0zm2028.21 -827.87l-51.96 146.99 320.15 112.65c-28.47,80.26 -527.47,1503.41 -527.47,1503.41l387.95 136.49c0,0 499.71,-1423.15 527.3,-1503.76l320.15 111.76 67.09 -188.99 -1028.96 -361.08 -14.24 42.53 0 0zm2514.05 684.44l-736.58 -155.36 -9.96 44.49 -359.84 1712.69 751.52 157.85c191.13,40.22 350.05,19.93 473.02,-60.51 106.42,-69.41 177.78,-180.27 206.96,-318.01 7.47,-37.73 11.75,-73.32 11.75,-108.38 0,-149.84 -74.21,-276.9 -206.96,-367.31 153.58,-44.13 263.55,-157.14 299.14,-324.96 6.05,-25.98 9.61,-56.95 9.61,-92.18 -0.18,-171.73 -90.4,-415 -438.66,-488.32l0 -0.01zm-257.51 151.45c123.86,25.98 209.46,73.5 253.06,140.95 25.27,38.26 37.55,83.11 37.55,135.07 0,25.45 -3.38,51.79 -9.25,80.44 -47.87,227.79 -232.06,225.65 -337.77,202.52 0,0 -112.29,-23.14 -177.07,-36.84 15.13,-70.3 100.37,-476.76 115.14,-546.69 46.98,9.43 118.34,24.56 118.34,24.56l0 -0.01zm-56.59 764.51c209.28,43.95 242.02,209.11 242.02,309.12 0,42.89 -6.76,73.85 -7.47,78.83 -21.18,98.95 -58.91,166.04 -116.74,203.23 -61.22,40.93 -149.48,48.76 -261.07,25.98 0,0 -134,-28.65 -205.72,-42.89l130.8 -620.01c61.22,12.46 218.18,45.73 218.18,45.73zm2067.71 -688.35l-856.34 1753.62 246.65 18.51c0,0 181.52,-381.54 205.36,-429.95l522.85 40.75c16.55,50.19 147.17,456.65 147.17,456.65l425.15 32.92 -636.38 -1972.51 -54.45 100.01 0 0zm-93.97 705.08c41.11,132.4 121.01,387.78 147.53,470.88 -84.89,-6.05 -279.58,-21.18 -363.4,-27.58l215.86 -443.3 0.01 -0.01zm1969.84 919.52l-66.38 -1568.18 -43.6 1.78 -366.77 14.95 75.28 1794.01 1094.28 -46.81 -9.79 -223.87c0.36,0 -603.82,25.45 -683.01,28.12l-0.01 0zm1885.67 -182.59c-13.53,-84.71 -243.81,-1552.53 -243.81,-1552.53l-43.95 7.12 -361.79 57.12 277.98 1773.37 1081.82 -170.84 -34.52 -221.56c0,0.36 -598.12,94.14 -675.72,107.31l0 0.01zm4155.72 -1526.18c-6.41,233.49 -143.61,431.38 -357.34,517.33 -124.39,49.3 -247.19,47.87 -365.89,-3.38 -167.28,-70.65 -313.57,-238.29 -402.19,-458.25 -99.84,-251.1 -115.49,-470.88 -46.09,-635.67 54.1,-124.04 157.14,-217.29 307.69,-277.08 196.64,-78.83 377.81,11.03 530.5,101.79l38.26 22.24 110.16 -173.15 -36.84 -24.92c-237.4,-155.54 -530.68,-188.11 -783.2,-86.84 -239.36,95.92 -425.32,272.81 -521.6,499.54 -99.12,229.57 -98.23,495.62 3.38,746.54 188.82,473.73 721.98,706.68 1190.2,520 339.55,-136.32 523.92,-382.43 548.47,-734.44l3.56 -45.2 -217.11 -14.95 -1.96 46.45 -0.01 -0.01zm1402.5 -382.62c-42.18,-74.03 -766.48,-1371.36 -766.48,-1371.36l-39.86 22.24 -319.08 178.49 874.5 1566.23 956.18 -533.88 -108.56 -196.11c0.18,0.36 -529.25,295.06 -596.7,334.39l0.01 0zm1348.23 -2776.35l-36.84 27.05 -146.64 107.49 756.69 1030.93c50.72,69.58 70.47,138.45 59.8,206.43 -18.15,122.61 -129.73,217.29 -176.72,250.39 -57.74,40.44 -126.67,62.19 -197.23,62.19 -16.29,0 -32.57,-1.22 -48.69,-3.48 -79.72,-11.56 -145.04,-53.92 -197.54,-124.22l-746.9 -1019 -330.83 243.99 742.27 1011.88c100.01,136.49 221.56,217.11 361.79,237.58 220.85,33.45 428.35,-89.51 532.63,-165.68 358.05,-263.2 362.86,-592.61 208.22,-802.25l-780 -1063.31 -0.02 0.03zm2441.97 -509.33c-138.81,-143.79 -316.41,-176.36 -500.6,-105.53 14.83,-41.87 22.76,-86.06 23.3,-130.45 0,-106.78 -42.35,-210.71 -127.96,-298.44 -115.32,-118.88 -414.65,-265.69 -720.56,31.85l-540.64 523.74 1248.39 1288.61 552.74 -536.02c138.98,-133.83 211.95,-277.98 213.73,-424.08 2.14,-127.24 -49.65,-247.9 -148.42,-349.69l0.02 0zm-806.16 -55.88c0,90.4 -58.73,164.44 -106.42,210.88 0,0 -82.93,80.61 -129.73,126.71 -50.36,-51.61 -339.73,-349.87 -389.38,-402.9 33.63,-32.57 86.49,-82.75 86.49,-82.75 168.88,-164.79 317.13,-175.29 453.27,-34.17 62.82,64.24 85.78,125.46 85.78,182.23l0 0.01zm343.99 935.18c-51.25,-52.85 -388.66,-401.83 -440.45,-454.69 44.67,-42.71 159.98,-155.18 159.98,-155.18 220.13,-211.95 443.48,12.64 452.91,23.14 69.76,71.54 103.57,139.52 103.57,206.97l0 2.85c-0.89,74.03 -43.78,151.62 -125.28,232.24 0.36,-0.18 -107.13,103.21 -150.73,144.68l-0.01 -0.01z"/>
   </g>
   <g>
    <path class="fil0" d="M10359.06 6360.3l-753.31 203.23 86.49 269.79c104.1,327.27 9.96,670.02 -245.05,893.54 -141.84,124.39 -305.91,181.52 -486.36,169.06 -274.59,-18.51 -584.6,-196.29 -828.76,-475.69 -287.58,-329.76 -431.38,-647.06 -412.87,-915.78 12.46,-196.47 107.84,-368.38 290.97,-528.72 202.16,-177.07 458.42,-170.13 805.98,-101.08l257.69 50.9 166.93 -721.63 -259.47 -63.18c-558.26,-138.09 -1140.19,-2.49 -1555.55,361.08 -813.28,711.66 -879.48,1873.56 -154.29,2703.04 674.11,770.57 1843.49,854.74 2606.05,187.93 549.01,-479.6 740.31,-1093.39 553.63,-1772.48l-72.08 -260 0 -0.01zm2045.83 -3778.98l-769.5 362.33c0,0 429.6,910.44 577.3,1224.19 -219.42,103.21 -432.27,203.59 -651.87,307.34l-578.01 -1224.19 -1013.3 478.36 1543.09 3273.4 1014.19 -478.18c0,0 -478.18,-1012.42 -631.94,-1340.75 219.42,-102.86 432.09,-203.41 652.22,-307.16l631.76 1340.04 1013.84 -478.36 -1542.74 -3272.69 -245.05 115.68 0 0zm3431.07 2027.86c-49.3,-243.62 -99.65,-491.7 -148.41,-735.15l1145.17 -230.99 -146.28 -726.97 -1145.7 231.52c-45.02,-222.81 -82.4,-410.02 -127.78,-632.65l1215.46 -245.41 -146.82 -726.79 -266.59 53.57 -2047.78 414.11 715.93 3547.64 2332.7 -471.42 -146.28 -726.61c0,0 -906.35,182.59 -1233.62,249.14l0 -0.01zm3308.81 -3150.6l-1122.04 -23.32 -5.52 270.68 -70.12 3347.6 2354.95 49.3 17.08 -783.74c0,0 -904.22,-19.22 -1234.69,-25.98l60.33 -2834.55 0.01 0.01zm3635.72 1825.16c-291.14,-213.73 -376.21,-299.68 -346.84,-416.42 14.59,-60.51 80.44,-253.77 289.54,-201.99 125.82,32.39 250.92,98.77 306.98,369.27l61.22 300.39 740.85 -250.39 -46.45 -233.49c-91.11,-457.89 -478.36,-847.98 -964.9,-969.35 -348.27,-86.49 -697.25,-40.4 -983.58,131.69 -260.45,154.15 -448.76,406.9 -521.47,700.76 -185.97,741.92 314.46,1099.08 644.75,1335.77 338.84,242.38 425.32,337.24 373.72,539.75 -15.74,62.51 -56.09,116.13 -111.72,148.66 -68.16,39.86 -153.05,54.28 -222.45,36.31 -177.96,-43.95 -255.38,-128.13 -330.12,-358.59l-90.94 -276.01 -743.34 303.96 71.72 235.98c139.35,458.6 471.95,747.61 1016.51,883.93 611.83,153.05 1353.92,-128.31 1538.82,-863.11 192.91,-773.41 -333.85,-1161.19 -682.3,-1417.1l0.02 -0.01zm2676.34 1930.15l1042.13 526.94 334.74 -661.66c0,0 -757.4,-382.62 -1041.78,-526.58 101.79,-203.05 188.46,-373.72 289.89,-576.06l1107.27 559.33 333.85 -661.66 -2106.69 -1064.38 -121.72 240.96 -1511.06 2988.66 2124.49 1072.74 334.92 -661.3 -1123.46 -567.33c111.05,-221.92 225.83,-447.57 337.41,-669.66l-0.01 0.01zm4195.41 338.13l-3375.73 1746.32 645.82 561.64c0,0 557.37,-296.3 759.89,-402.72l520.71 453.09c-72.61,215.33 -278.69,820.75 -278.69,820.75l889.44 774.3 1443.08 -4255.56 -604.53 302.18 0.01 0zm0 0l0 0 0 0z"/>
   </g>
   <g>
    <path class="fil2" d="M10232.53 6580.43l-397.92 108.02 29.19 90.05c126.35,397.21 12.28,812.57 -298.62,1084.49 -178.49,156.6 -386.89,228.5 -616.99,213.73 -326.2,-21.89 -672.69,-217.64 -952.8,-537.8 -319.97,-366.42 -478.71,-728.57 -457.71,-1047.65 16.55,-242.02 135.25,-461.63 352.9,-652.05 285.63,-249.68 645.82,-203.94 960.09,-142.01l86.31 16.73 87.02 -376.92 -86.49 -21.53c-501.49,-123.15 -1022.03,-3.03 -1393.61,322.46 -735.15,643.86 -794.24,1695.43 -136.85,2447.66 608.27,695.65 1662.86,771.81 2351.21,170.66 499.18,-437.78 666.99,-971.48 497.75,-1588.12l-23.49 -87.73 -0.02 0zm2249.24 -3836.64l-605.42 285.98 576.77 1223.65c-129.56,61.58 -848.69,400.77 -979.14,461.8 -66.73,-142.55 -576.23,-1223.83 -576.23,-1223.83l-687.99 324.06 1389.33 2946.13 687.64 -323.71 -632.11 -1340.22c130.45,-61.4 848.87,-399.88 979.14,-461.63 67.8,144.33 632.11,1340.57 632.11,1340.57l686.57 -324.6 -1389.33 -2946.13 -81.33 37.91 0 0.01zm3212.36 2078.22c-28.3,-141.48 -191.13,-947.46 -219.07,-1089.12l1144.81 -231.17 -75.1 -372.12 -1145.52 230.63c-27.41,-138.81 -171.02,-847.98 -198.25,-986.61 151.8,-31.14 1214.39,-245.05 1214.39,-245.05l-75.28 -372.29 -1960.05 395.25 644.75 3193.14 1978.55 -399.52 -75.1 -372.47 -1234.15 249.32 0 0zm3266.1 -3186.38l-760.07 -16.37 -1.6 89.69 -67.09 3167.16 1994.58 42.35 9.07 -422.83 -1234.69 -25.98c4.27,-168.88 59.8,-2833.84 59.8,-2834.01l0 -0.01zm3806.74 855.1c241.49,60.51 381.19,221.92 440.28,507.72l20.64 100.01 396.5 -133.83 -14.95 -78.12c-78.3,-390.27 -412.16,-723.76 -831.96,-829.29 -301.28,-75.1 -601.86,-35.77 -846.74,111.22 -219.3,130.08 -377.76,342.76 -439.44,590.32 -156.07,622.33 249.5,912.04 574.81,1144.64 329.23,235.44 527.65,396.5 442.94,730.35 -26.3,109.62 -96.78,203.85 -194.48,260.15 -75.23,45.03 -161.52,68.91 -249.3,68.91 -36.81,0 -73.61,-4.21 -109.47,-12.51 -240.42,-60.15 -363.75,-189.17 -457.54,-477.47l-30.61 -92.18 -411.44 167.64 24.2 78.83c119.41,392.93 410.02,641.9 888.02,761.85 525.16,130.98 1161.72,-106.6 1318.68,-732.13 163.37,-656.14 -267.3,-973.27 -615.57,-1227.93 -295.77,-218.36 -474.44,-364.28 -413.58,-605.24 53.57,-215.51 232.24,-402.37 508.96,-332.96l0.03 0.01zm3235.31 1243.41l1106.2 558.8 172.09 -339.37 -1784.05 -901.19 -40.75 80.44 -1428.49 2827.43 1800.78 909.91 171.55 -339.02 -1122.57 -567.7c64.78,-129.02 435.82,-862.04 500.43,-991.24 137.21,69.58 1041.95,526.58 1041.95,526.58l172.44 -339.19c0,0 -905.82,-456.82 -1043.03,-526.58l453.44 -898.88 0.01 0.01zm3733.07 1978.56l-3139.04 1624.42 350.94 305.02 759.89 -402.72 706.5 614.68c-33.45,99.3 -279.76,820.04 -279.76,820.04l595.81 517.68 1212.62 -3576.28 -206.97 97.17 0.01 0zm-1664.99 1339.69c148.6,-76.88 527.83,-273.88 759.53,-394.18 -86.13,245.94 -228.14,650.98 -282.6,808.47 -161.56,-125.3 -316.99,-298 -472.42,-418.89l-4.51 4.6z"/>
   </g>
   <g>
    <path class="fil3" d="M27545.01 18150.14c-257.33,-681.94 -1143.93,-978.07 -1981.94,-662.01 -349.34,131.51 -635.67,351.47 -830.72,610.76 553.28,-1579.22 2806.97,-1914.32 2806.97,-3383.55 0,-2462.43 -3496.91,-1772.66 -2988.13,0.36 0,-804.56 1280.07,-951.91 1280.07,0 0,952.27 -2232.33,1576.36 -2232.33,3184.77 0,1773.2 1773.37,1937.27 1593.63,3558.67 -30.43,279.76 -330.83,647.24 -766.48,647.24 -2716.03,0 -1746.5,-3343.69 -2695.38,-4361.27l49.47 -686.93c548.65,336.7 2004.37,-451.67 1046.05,-1653.07 0,590.82 -1230.24,558.26 -1230.24,-558.26 0,-1510.35 1412.29,-722.34 1480.63,-388.66 -67.62,-550.25 -93.25,-899.41 -2.67,-1216.18 -761.13,245.41 -832.5,-194.69 -736.22,-365 110.34,-196.64 257.69,-426.75 554.34,-426.75 160.16,0 256.44,22.24 313.21,61.4 94.85,64.95 164.26,-83.29 150.73,54.63 81.33,-123.86 48.58,30.96 127.59,-93.43 79.9,-123.5 187.93,-263.2 377.28,-449.35l-8.19 -278.33 221.74 81.33 212.66 -344.53c-229.74,-476.4 -541.53,-247.01 -771.1,-837.66 -192.02,-49.65 -3183.35,275.48 -3096.33,-917.74 -243.81,0 -821.46,133.83 -463.94,619.48 -277.98,33.45 -478.36,-282.25 -897.45,571.61 524.98,-98.41 253.24,488.5 253.24,655.6 0,1081.64 -1440.23,1063.67 -1440.23,556.84 -347.2,337.41 -150.2,1074.88 374.61,1256.58 0,0 -199.67,788.9 -692.44,1289.14 -731.6,-29.19 -1905.24,-156.25 -2580.42,-794.41 -291.14,-274.95 -522.31,-425.15 -719.32,-501.85l0 -357.52c288.29,-141.12 604.35,-390.8 932.87,-808.12 256.09,-313.03 395.07,-714.33 357.7,-1140.55 -4.7,-50 -12.23,-100.84 -21.44,-150.22 -2.85,-15.66 -6.58,-30.79 -10.32,-46.27 -6.86,-33.87 -15.68,-68 -25.54,-101.24 -4.63,-16.37 -9.25,-33.45 -14.42,-49.3 -10.84,-33.23 -23.31,-66.65 -36.61,-98.91 -5.52,-13.53 -9.61,-28.12 -16.02,-40.75 -18.14,-42.65 -38.67,-85.2 -60.69,-125.9 -9.43,-16.73 -19.4,-32.21 -28.65,-47.7 -15.13,-24.74 -29.54,-49.83 -45.38,-73.85 -12.97,-18.71 -26.94,-38.61 -40.21,-57.12 -13.88,-18.33 -28.65,-37.02 -43.07,-55.34 -15.84,-19.57 -31.68,-40.57 -48.58,-59.8 -11.05,-12.91 -22.97,-25.28 -35.11,-37.11 -71.07,-77.65 -149.92,-148.57 -234.99,-210.57l-22.78 -16.55c-30.25,-21.35 -61.22,-42 -93.61,-62.11 -1.96,-1.25 -3.74,-2.14 -5.16,-3.74 -279.29,-170.84 -600.85,-261.44 -928.48,-261.44 -47.58,0 -95.38,1.96 -142.74,5.65 -944.61,75.28 -1646.84,864.35 -1568.01,1763.23 61.4,700.1 577.48,1259.24 1249.1,1437.56 -235.44,131.16 -434.4,207.32 -479.43,207.32 7.47,4.63 17.26,10.32 27.76,17.26l9.25 4.63c9.25,5.87 19.93,11.93 30.96,17.97l8.9 4.81 48.23 24.03 8.9 3.56c20.56,10 41.92,19.27 63.38,27.16 40.93,17.08 87.38,32.57 137.92,46.98 7.3,2.14 14.77,3.74 20.82,5.52 20.46,5.16 41.29,9.96 63,15.13l21.89 4.27c26.87,4.63 55.52,9.61 84,12.99 2.49,0 4.81,1.43 7.12,1.43l0 203.41c-10.68,2.31 -20.29,3.56 -30.25,4.98 -307.34,50.36 -507.01,144.86 -597.23,418.74 -89.69,274.59 2.67,374.07 146.46,566.62 -121.55,217.29 -440.09,298.62 -24.38,778.58 -30.25,181.34 8.01,470.17 271.92,557.73 85.96,29.19 157.85,44.67 233.49,57.83l-0.36 3599.24c-263.2,139.35 -392.93,313.57 -464.83,475.51 0,0 -211.24,-468.92 -197,460.2 240.07,-186.33 145.39,215.69 145.39,215.69 -326.91,423.54 88.27,400.59 88.27,400.59 281.53,-281.36 224.05,127.24 224.05,127.24 0,498.65 202.7,693.33 204.12,694.22l0 2742.01 -239 0.89 2.31 756.51 418.39 -0.71c-234.55,97.52 -389.38,329.23 -366.95,585.13 28.47,322.64 326.56,562.89 666.28,536.73 339.37,-27.23 591.54,-310.36 562.53,-633.89 -19.22,-223.34 -167.1,-405.57 -368.38,-489.39l385.82 -1.07 -1.6 -756.87 -230.1 1.25 0.36 -2432.72c47.52,25.98 98.77,43.95 154.47,56.06 22.24,4.09 44.31,7.12 66.73,8.72 9.96,1.43 20.11,1.43 30.25,1.96 -62.11,-319.97 129.2,-531.74 129.2,-531.74 98.06,-147.71 240.24,-263.02 401.48,-344.35 482.8,-241.85 1141.79,-180.98 1338.61,213.37 1247.86,-328.87 2320.07,-1583.13 2320.07,-1583.13l614.14 1045.34c-1302.13,435.29 -4138.81,2901.28 -2169.69,3755.32 -0.71,248.43 -33.99,2093.7 -1217.07,1947.06 -1703.78,-210.17 -2128.75,494.73 -1801.66,1287.19 -153.76,668.42 360.9,900.48 360.9,900.48 -77.41,-386 108.2,-705.79 812.21,-701.7 -3.56,704.19 451.3,831.07 451.3,831.07 3.2,-602.93 422.29,-826.27 794.41,-824.49 -2.85,496.68 574.63,685.68 574.63,685.68 0,0 -146.28,-572.68 506.12,-685.68 1652,-287.94 100.37,-1986.92 2612.63,-2455.14 0,0 -1250.71,-188.82 -1250.71,-872.36 0,-622.33 1132.18,-1048.19 1522.09,-1048.19 799.58,1527.61 1668.38,1539.71 1895.81,1550.56 353.78,395.61 235.26,1728.71 -276.01,1702.36 -1871.07,-100.37 -1802.74,1037.86 -1592.92,1270.63 -24.03,441.88 319.97,697.07 319.97,697.07 0,-473.55 450.42,-606.84 1028.25,-575.52 -30.25,578.72 338.13,665.04 338.13,665.04 10.14,-582.11 440.99,-681.05 746.9,-665.04 -22.42,408.06 382.43,528.54 382.43,528.54 0,0 -40.04,-517.86 505.41,-517.86 1034.31,-0.71 -467.86,-2217.21 1550.56,-4409.32 -1773.02,820.93 -2716.38,-1230.77 -2716.38,-1624.6 911.33,1066.34 3866.36,1279.36 3866.36,-542.42 0,-1740.27 -1912.72,-2388.76 -1018.11,-3054.51 520.53,-387.06 1544.16,394.9 958.67,1202.47 839.79,-311.07 1307.83,-1124.35 1050.5,-1805.58l1.75 -0.54zm-11333.92 54.81c-668.41,392.93 -1116.7,890.15 -1726.03,1107.8 -92.54,32.74 -166.39,41.64 -230.46,37.55l0.01 -3396.91c161.41,15.13 580.51,72.43 1070.43,274.95 485.29,264.8 485.29,812.03 -127.07,941.77 386.89,741.02 1727.63,378.16 2020.02,-225.3 143.08,-12.64 269.61,242.91 388.66,484.41 -188.64,97.7 -573.57,291.86 -1395.56,775.73l-0.01 -0.01zm7482.15 -5631.37c-73.32,100.01 -145.93,198.96 -209.46,284.2 159.35,266.29 446.86,429.38 757.19,429.38 26.82,0 54.08,-1.29 80.68,-3.66 452.22,-43.09 797.86,-423.06 797.86,-877.5 0,-26.79 -1.29,-53.7 -3.66,-80.28 -3.03,-17.62 -5.16,-33.45 -7.47,-50.54 -51.61,250.39 -346.66,462.52 -722.34,496.86 -283.67,26.52 -541,-55.17 -692.8,-198.43l-0.01 -0.03z"/>
   </g>
   <g>
    <path class="fil1" d="M12892.68 10529.37c0,0.54 -1.25,1.78 -1.25,3.03l-0.36 0c0.46,-0.86 1.17,-2.18 1.61,-3.06l-0.01 0.03zm30.79 14247.83c0.71,-0.54 1.96,-0.54 2.31,-1.43l-0.17 0.01c-0.54,1.25 -1.25,1.25 -2.14,1.43l0 -0.01zm-21.17 -15698.03l0.88 0 -12903.17 0 12902.29 0zm-255.55 15614.57l418.39 -0.54c-49.93,20.86 -96.96,48.91 -139.18,82.77 41.29,-15.84 85.42,-25.63 132.4,-25.63 209.62,-0.02 379.6,169.96 379.6,379.57 0,209.61 -169.98,379.59 -379.59,379.59 -0.06,0.01 -0.1,0.01 -0.15,0.01 -165.15,0 -311.09,-107.71 -359.71,-265.51l0 34.34c28.65,323.35 326.2,563.78 666.28,535.84 339.02,-26.34 591.19,-310.18 563.24,-633.18 -19.93,-222.45 -167.46,-404.86 -368.73,-488.68l385.64 -1.6 -1.78 -756.87 -230.1 1.43 0 -2433.07c-193.69,-101.05 -315.24,-301.62 -315.24,-520.17 0,-37.53 3.65,-75.14 10.74,-111.96 143.97,0 272.81,37.37 358.94,96.28 -132.94,292.75 197.72,602.58 197.72,602.58 -61.93,-319.97 128.84,-531.03 128.84,-531.03 99.12,-148.06 240.96,-263.38 401.66,-344.89 483.52,-242.2 1141.97,-181.16 1338.61,213.02 1247.86,-328.52 2320.24,-1583.13 2320.24,-1583.13l614.5 1044.81c1440.41,0 938.74,-1078.8 844.95,-1172.94 331.18,0 797.62,243.99 797.62,784.09 0,1326.69 -3856.39,1515.86 -3856.39,3125.87 0,676.07 670.37,933.22 670.37,933.22 0,1467.99 -1008.15,2339.99 -1697.73,2339.99 -1102.64,0 -1947.06,-223.34 -1947.06,978.96l384.42 0.02c-365.17,365.35 -24.38,900.83 -24.38,900.83 -77.06,-385.64 109.09,-704.9 813.1,-701.34l439.38 0c-279.04,278.87 -116.03,702.41 12.28,831.78 2.67,-603.82 421.05,-826.8 793.7,-824.85l318.91 0.01c-86.67,85.42 52.5,482.45 255.91,685.15 0,0 -146.99,-572.14 506.3,-685.15 1651.29,-287.76 99.84,-1986.75 2611.92,-2455.67 0,0 -1249.99,-188.28 -1249.99,-872.72 0,-621.26 1131.65,-1048.01 1520.85,-1048.01 306.98,-43.78 599.19,-32.92 849.05,20.82 101.61,986.43 1234.15,938.2 1480.63,938.2 960.45,960.63 -244.16,2502.66 -244.16,2502.66 -1474.22,0 -2057.57,203.59 -2057.57,1062.06l278.85 0c-156.43,157.14 -67.8,589.22 40.22,696.89 0,-473.73 451.3,-606.13 1029.14,-575.52l303.78 0c-148.06,148.06 -122.26,508.43 34.88,664.86 8.54,-582.29 440.09,-681.23 746.19,-664.86l253.41 0c-94.85,95.57 0,399.34 129.91,529.61 0,0 -40.22,-518.4 504.87,-518.93 1034.31,0 -468.57,-2217.21 1551.45,-4409.32 -1773.02,821.28 -2717.45,-1231.13 -2717.45,-1624.95 911.51,1066.87 3866.89,1279.71 3866.89,-541.53 0,-1469.59 -1363.17,-2160.26 -1250.17,-2740.23 40.08,-448.27 415.86,-792.1 866.07,-792.1 0.11,0 0.32,0 0.42,0 480.22,0.22 869.52,389.83 869.52,870.05 0,0.11 0,0.21 0,0.32 0.01,0.48 0.01,0.91 0.01,1.33 0,354.64 -215.86,673.89 -544.97,805.89 0.71,0 0.71,-0.71 0.71,-0.71 -0.71,0.71 -1.78,1.78 -1.78,3.2 839.08,-311.07 1307.65,-1124.53 1051.74,-1805.76 -258.22,-681.76 -1144.99,-978.78 -1982.3,-662.72 -350.94,132.4 -635.67,351.47 -830.89,611.29 552.39,-1579.04 2806.61,-1913.6 2806.61,-3383.55 0,-2462.26 -3497.09,-1772.31 -2988.3,0.71 0,-26.52 1.6,-53.03 4.63,-78.48 89.16,-1002.27 1880.68,-1207.1 1880.68,99.48 0,1116.17 -2294.62,1734.93 -2294.62,3236.73 0,1542.38 1694.71,1928.02 1694.71,3551.19 0,193.26 -102.15,1025.58 -1228.11,1025.58 -1086.27,0 -1608.58,-607.2 -1905.24,-1399.83 -553.28,-1069.19 -350.23,-2738.09 -973.44,-3405.45l49.3 -686.39c549.01,337.06 2005.26,-452.02 1048.72,-1653.42 0,591.54 -1231.31,558.08 -1231.31,-557.91 0,-1510.35 1411.58,-722.34 1479.74,-389.02 -67.8,-549.72 -94.14,-899.94 -1.43,-1215.64 -762.2,244.7 -832.5,-195.04 -737.82,-365.71 111.58,-197.18 258.93,-426.75 555.06,-426.75 427.81,0 400.77,157.14 378.16,378.34 163.55,-247.19 209.99,-433.16 590.11,-804.91l-8.01 -279.22 220.49 82.04 214.44 -344.89c-229.39,-476.4 -541.35,-246.12 -771.99,-837.3 -191.13,-50.01 -2705.88,-282.25 -2619.04,-1475.82 -222.45,0 -828.23,767.37 -418.74,1178.09l-522.07 0.05c-279.22,33.28 -930.73,-161.76 -1349.29,691.73 1029.85,-1029.5 1698.09,1426.89 -198.43,1426.89l-0.01 -0.71c-279.76,0.71 -519.82,-116.03 -536.19,-313.38 -188.99,828.94 1005.83,1086.98 1005.83,1086.98 0,246.3 -598.48,1579.75 -889.44,1870.36 196.11,196.29 256.8,1380.08 -649.56,1380.08 326.91,-883.92 -634.25,-1632.78 -1568.18,-2128.22l1.25 -0.01c-169.06,-64.07 -329.94,-142.37 -479.25,-236.33 -573.21,-262.13 -1039.29,-409.49 -1039.29,-409.49l0 -692.97c288.29,-141.3 604.35,-391.15 932.87,-808.29 256.44,-312.67 394.72,-713.98 357.16,-1140.55 -3.93,-50.32 -11.34,-100.91 -21.67,-150.35 -2.31,-15.48 -5.87,-30.25 -9.07,-45.73 -7.29,-33.94 -16.12,-68 -26.06,-101.12 -14.51,-50.37 -31.88,-100.35 -50.94,-149.06 -5.52,-13.7 -10.32,-26.87 -16.02,-40.57 -18.46,-42.16 -39.25,-84.35 -61.06,-124.89 -8.72,-17.26 -19.22,-32.74 -28.3,-48.94 -15.13,-24.56 -29.72,-48.94 -45.56,-72.96 -13.17,-18.86 -25.98,-38.8 -40.22,-57.83 -13.88,-18.33 -27.94,-37.02 -42.71,-54.63 -15.43,-20.55 -31.97,-40.92 -48.9,-60.37 -11.03,-12.82 -22.83,-25.46 -34.81,-37.44 -42.84,-46.33 -89.06,-90.79 -137.23,-131.75 -4.81,-3.74 -8.9,-9.25 -13.7,-12.64 -27.02,-22.75 -55.71,-44.92 -84.57,-65.46 -7.65,-4.81 -14.77,-11.21 -22.42,-16.73 -30.23,-21.49 -61.92,-42.32 -93.6,-62.03 -1.96,-0.89 -3.74,-2.49 -5.69,-3.38 -279,-171.13 -600.46,-261.74 -927.77,-261.74 -47.69,0 -95.81,2.17 -143.28,5.85 -84.53,6.76 -166.75,21.89 -247.01,39.15 -544.02,208.39 -939.63,845.14 -939.63,1598.62 0,710.06 352.01,1315.48 847.09,1557.15 6.76,1.78 13.88,4.45 21,6.41 -235.98,131.16 -434.93,207.32 -480.14,207.32 7.65,4.63 17.8,10.32 28.47,17.62 3.03,1.25 5.69,2.85 8.72,4.45 9.61,5.34 19.4,11.03 31.5,17.44 3.03,1.6 5.52,3.2 8.9,4.27 14.06,7.47 30.61,16.37 47.7,24.74 3.05,0.74 6.01,2.07 8.66,3.85 14.95,7.12 31.32,13.35 48.58,20.64 49.74,20.57 101.36,38.5 153.32,53.06l21 5.69c19.75,5.16 40.75,9.96 62.29,14.42 7.3,1.96 14.77,3.2 22.42,4.81 27.05,4.98 54.99,9.96 84.18,13.53 0.24,-0.04 0.4,-0.05 0.56,-0.05 2.11,0 4.17,0.63 5.92,1.79 180.1,14.77 393.11,-29.9 393.11,-29.9l0 402.01c-32.39,0 -315.17,-91.29 -393.11,-168.88 -9.61,1.43 -19.93,3.38 -30.25,5.16 -306.63,50.19 -506.47,144.5 -596.52,418.56 -89.87,274.59 2.49,373.9 146.1,566.62 -122.44,216.58 -440.09,298.26 -25.09,778.58 -29.54,180.98 8.36,470.35 271.92,558.08 86.13,29.19 158.21,43.95 233.49,57.3 156.25,0 393.11,130.27 393.11,454.69l0 3093.29c142.19,8.19 296.66,27.41 436.89,39.69l-0.01 -3397.61c161.59,15.48 580.86,72.96 1070.07,274.77 5.13,2.71 10.11,5.83 14.78,9.26 -0.36,-0.36 -0.89,-0.36 -0.89,-0.89 44.67,5.52 90.05,15.31 135.07,28.65 325.85,100.01 528.72,382.78 452.38,633.35 -75.99,249.68 -403.08,371.58 -728.21,271.57 386.17,741.56 1727.63,378.7 2020.02,-224.76 142.37,-12.64 269.08,242.91 388.31,484.05 0,0 335.99,128.84 1167.77,128.84 0,0 -3368.6,2150.65 -4342.58,2150.65 -416.25,0 -1339.5,0 -1339.5,314.81 -253.77,0 -619.3,431.2 -619.3,677.85 239.89,-187.39 435.11,-187.39 435.11,-187.39 204.48,0 319.62,61.22 319.62,61.22 -74.92,74.03 -411.09,453.62 -411.09,747.79 281.53,-281.89 404.32,-280.64 404.32,-280.64 0,0 293.99,-38.08 398.81,67.62 -70.65,70.47 -194.86,325.31 -194.86,626.78 0,0 174.58,-337.06 392.93,-337.06l0 3233.36c0,98.95 -446.15,193.62 -629.98,193.62l2.66 408.06zm137.2 -9782.28c-83.29,3.2 -122.44,-104.82 -123.15,-143.97 -1.96,-39.51 29.19,-149.48 111.94,-152.51 197.36,-6.76 592.08,87.91 593.5,126.71 1.6,38.44 -385.11,162.47 -582.29,169.77zm-127.24 -533.71c-114.6,-8.01 -152.16,-162.84 -148.24,-217.29 3.56,-53.21 63.53,-201.1 178.14,-192.55 272.99,20.29 802.6,210.88 797.97,264.45 -3.38,54.63 -555.23,165.5 -827.87,145.39zm-46.98 -683.72c-121.19,-32.03 -130.98,-205.36 -116.57,-262.85 15.31,-57.12 108.91,-203.41 230.63,-171.73 288.83,75.63 819.33,386.17 804.56,443.12 -14.95,57.12 -629.62,67.09 -918.63,-8.54l0.01 0zm894.6 -1926.6c50.19,-119.77 39.51,-283.13 8.36,-436.89l-15.48 0.36c-0.02,0.01 -0.17,0.01 -0.17,0.01 -347.21,0 -628.83,-281.55 -628.91,-628.76 -1,-11.32 -1.52,-22.79 -1.52,-34.17 0,-46.26 8.37,-92.29 24.63,-135.59l0.37 0.01c0,-1.25 0.71,-2.49 1.25,-2.85 76.91,-269.86 323.67,-456.41 604.38,-456.64 347.3,0.3 628.71,282.09 628.71,629.44 0,0 0,0 0,0 0,400.77 -282.25,769.86 -621.61,1065.09l-0.01 0z"/>
   </g>
   <g>
    <path class="fil4" d="M22943.15 12316.62c158.5,266.02 445.49,429.16 755.24,429.16 27.37,0 54.95,-1.4 82.11,-3.87 452.13,-42.53 797.78,-422.25 797.78,-876.46 0,-27.19 -1.29,-54.49 -3.76,-81.47 -1.78,-17.08 -4.98,-33.63 -7.12,-50.72 -51.43,250.03 -347.74,462.69 -722.52,497.22 -285.09,26.69 -541.71,-54.99 -693.33,-198.07 -72.79,100.19 -146.1,199.14 -208.39,284.2l-0.02 0.01zm0 0l0 0 0 0z"/>
   </g>
   <g>
    <path class="fil2" d="M21768.61 10685.62l303.78 16.02 -151.98 208.39c0,0.18 -202.87,64.24 -151.8,-224.41l0 0zm-724.48 0l437.6 0c0,0 -15.84,352.9 303.78,384.75l-67.98 112.47c0,0 -858.66,-224.41 -673.4,-497.22z"/>
   </g>
   <g>
    <path class="fil5" d="M13528.35 13702.75c15.13,-56.95 -515.55,-367.49 -804.56,-443.12 -121.9,-31.5 -215.33,114.78 -230.46,171.91 -14.77,57.3 -4.81,230.81 116.21,262.85 289.18,75.28 904.03,65.31 918.81,8.36l0 0zm-43.6 529.79c4.45,-53.74 -524.98,-244.16 -797.97,-264.45 -114.6,-8.54 -174.58,139.35 -178.14,192.55 -3.74,54.63 33.63,209.11 148.42,217.29 272.46,19.93 824.31,-90.76 827.69,-145.39zm-601.15 -1597.72l0 203.05c77.77,77.95 360.73,168.88 392.93,168.88l0 -402.01c0.18,0.18 -212.66,44.84 -392.93,30.07l0 0.01zm-110.69 1979.98c-82.93,3.38 -114.07,113.18 -111.94,152.51 0.71,39.15 40.4,146.99 123.15,143.97 197,-7.12 583.71,-131.16 582.11,-169.95 -1.43,-38.62 -396.14,-133.47 -593.32,-126.53l0.01 0zm-406.28 5357.66c-326.56,423.01 -91.47,809 -91.47,809 0,-294.35 336.16,-673.58 411.27,-747.61 -0.18,-0.18 -115.32,-61.4 -319.79,-61.4l-0.01 0.01zm1041.6 897.63c-7.13,36.81 -10.79,74.53 -10.79,112.1 0,278.97 196.31,519.51 469.62,575.37 23.32,5.34 45.2,8.19 67.98,10.85l29.9 0.89c0,0 -330.65,-309.47 -197.72,-602.4 -86.31,-59.44 -214.98,-96.81 -358.94,-96.81l-0.04 0zm-597.59 -8635.15c-494.91,-241.49 -847.09,-847.09 -847.09,-1557.15 0,-753.49 395.78,-1390.23 939.63,-1598.62 -816.48,181.16 -1392.54,906.53 -1320.47,1724.43 61.04,693.15 567.33,1247.14 1227.93,1431.33zm5256.22 -1737.78c525.52,-98.95 703.65,368.2 703.65,535.66 0,633.36 -493.13,888.38 -902.08,890.87l0 0.36c1896.88,-0.18 1228.46,-2456.39 198.43,-1426.89zm-1267.79 5450.73c906.53,0 845.49,-1183.96 649.56,-1380.43 290.79,-290.61 889.44,-1624.07 889.44,-1870.36 0,0 -1196.6,-258.04 -1005.3,-1088.22 -0.36,-0.54 -0.36,-0.89 -0.36,-1.6l-16.02 -2.85c-326.2,344 -127.78,1061.53 389.38,1240.56 0,0 -199.49,788.9 -692.44,1289.32 -490.64,-19.04 -1178.45,-83.64 -1782.44,-314.81 933.75,495.62 1895.09,1244.65 1568.18,2128.4l0.01 -0.01zm-3541.05 -5684.75c234.2,-18.69 440.81,147.53 460.74,371.4 19.22,222.81 -155.18,419.81 -389.91,438.49 -235.26,18.86 -441.88,-147.35 -460.74,-371.04 0.16,347.15 281.79,628.55 628.92,628.55 0,0 0.15,0 0.15,0l15.66 -0.36c31.14,153.76 41.82,317.3 -8.36,436.89 339.37,-295.06 621.61,-664.15 621.61,-1065.27 15.32,-54.99 23.16,-111.88 23.16,-169.01 0,-347.28 -281.63,-628.91 -628.91,-628.91 -346.97,0 -628.53,281.17 -628.91,628.15 54.81,-145.39 193.8,-254.84 366.6,-268.9l-0.01 0zm7548.35 -18.87c-410.2,-410.55 195.75,-1178.09 418.56,-1178.09 -243.62,0 -1299.11,691.02 -940.7,1178.09l522.14 0zm-6149.58 6384.5c325.14,100.01 652.22,-21.89 728.21,-271.57 76.34,-250.39 -126.71,-532.99 -452.38,-633.35 -44.07,-13.08 -89.46,-22.8 -135.07,-28.67 470.35,268.36 464.83,806.33 -140.77,933.57l0 0.02zm-667.35 -4360.02c0,0 466.08,147.53 1039.29,409.49 -114.46,-70.12 -221.76,-151.89 -320.14,-243.09 -290.97,-274.95 -522.49,-424.97 -719.14,-501.14l0 334.74 -0.01 -0.01zm1216.01 6403.18c974.32,0 4342.75,-2150.65 4342.75,-2150.65 -832.14,0 -1167.95,-128.84 -1167.95,-128.84 -187.93,98.06 -573.39,291.5 -1394.85,775.19 -668.59,393.47 -1116.7,891.04 -1726.21,1108.33 -92.71,33.63 -166.75,41.46 -230.28,38.08 -140.23,-11.93 -294.7,-31.32 -436.89,-39.69l0 -3092.94c0,-324.42 -236.87,-454.87 -392.93,-454.87l0 3599.59c-263.38,139.7 -393.11,313.38 -464.3,475.51 0,0 -502.2,-66.91 -487.97,862.93 0,-246.83 365.89,-678.03 619.3,-678.03 -0.18,-314.64 923.08,-314.64 1339.33,-314.64l0 0.01zm8402.56 4979.68c-246.83,0 -1379.19,48.05 -1480.63,-938.2 -250.03,-53.92 -542.6,-64.42 -849.05,-20.82 800.47,1527.61 1669.45,1539.71 1896.7,1551.63 353.61,394.72 235.09,1727.46 -276.01,1700.94 -1871.43,-100.01 -1802.74,1038.93 -1592.74,1271.7 0,-858.3 583.18,-1061.89 2057.57,-1061.89 -0.18,-0.71 1204.61,-1542.74 244.16,-2503.37l0 -0.01zm384.75 3685.91l-253.41 0c-21.35,409.13 383.33,529.61 383.33,529.61 -129.91,-130.09 -224.76,-433.87 -129.91,-529.61zm-2368.12 575.88c-107.49,-107.84 -196.47,-539.93 -40.22,-697.25l-278.69 0c-23.32,442.59 318.9,697.25 318.9,697.25zm5585.99 -14212.95c0,-1306.76 -1792.24,-1101.22 -1880.68,-98.06 79.01,-735.51 1276.51,-844.06 1276.51,77.23 0,952.27 -2233.22,1575.66 -2233.22,3184.77 0,1773.2 1772.84,1937.27 1593.45,3558.14 -30.25,280.64 -330.65,647.42 -766.3,647.42 -933.4,0 -1432.93,-396.32 -1723.19,-956 296.66,792.46 818.97,1399.83 1905.42,1399.83 1125.96,0 1228.11,-832.14 1228.11,-1025.41 0,-1623 -1695.07,-2008.99 -1695.07,-3551.37 0.54,-1501.62 2294.98,-2120.39 2294.98,-3236.56l0 0.01zm-13216.02 6304.94c0,500.43 203.94,694.22 203.94,694.22 0,-301.47 124.04,-556.66 194.86,-626.78 -104.64,-105.35 -398.81,-67.45 -398.81,-67.45zm12950.51 -2765.85c-0.24,0 -0.56,0 -0.77,0 -450.11,0 -826.04,343.76 -865.94,792.07 20.64,-106.6 92,-210.17 230.46,-313.92 521.43,-387.42 1542.74,392.93 960.27,1199.27 329.21,-132.09 544.95,-451.45 544.95,-806.14 0,-0.32 0,-0.74 0,-1.06 0,-0.11 0,-0.42 0,-0.53 0,-480.02 -388.92,-869.37 -868.95,-869.69l-0.03 0zm-5302.32 10593.43l-303.78 0c-31.32,578.01 338.66,664.86 338.66,664.86 -156.78,-156.25 -183.12,-516.8 -34.88,-664.86zm-8584.61 -3082.63c-47.16,0 -90.94,9.79 -132.58,25.81 -143.08,106.84 -227.43,274.93 -227.43,453.53 0,4.77 0.14,9.81 0.21,14.51 48.65,157.67 194.55,265.33 359.61,265.33 0.05,0 0.14,0 0.19,0 209.62,-0.01 379.61,-169.99 379.61,-379.59 0,-209.61 -169.98,-379.59 -379.59,-379.59l-0.01 0.01zm2134.81 3565.96l-439.2 0c-3.74,704.01 451.67,831.78 451.67,831.78 -128.67,-129.38 -291.5,-552.92 -12.46,-831.78l-0.01 0zm1362.1 -4452.03c0,-1610.19 3856.39,-1799.18 3856.39,-3125.87 0,-540.11 -466.26,-784.09 -797.62,-784.09 93.61,93.96 595.45,1172.94 -844.95,1172.94 -1302.49,435.65 -4138.99,2901.46 -2170.05,3755.85 -0.89,248.08 -34.17,2092.99 -1216.71,1947.95 -1703.44,-211.06 -2128.4,493.13 -1801.49,1285.94 0,-1202.47 844.42,-978.96 1947.06,-978.96 689.59,0 1697.73,-871.83 1697.73,-2340.18 -0.18,-0.36 -670.37,-257.33 -670.37,-933.58l0.01 0zm-3278.37 227.79l0 -3233.54c-218.53,0 -392.93,337.24 -392.93,337.24l0 2758.56 0 -17.8 -238.82 0.71 1.96 348.45c183.65,-0.18 629.8,-95.03 629.8,-193.62zm663.79 4166.4c0,0 -340.97,-535.66 24.38,-900.83l-384.4 0c-154.47,668.95 360.02,900.83 360.02,900.83zm2377.36 -694.4l-318.9 0c-2.49,497.04 574.81,685.33 574.81,685.33 -203.23,-202.7 -342.57,-599.9 -255.91,-685.33l-0.01 0z"/>
   </g>
   <g>
    <path class="fil2" d="M5594.36 22196.07l-21.18 -65.31 -9.07 -67.8c-31.14,-232.6 -87.38,-665.75 -421.77,-743.34 -89.33,-20.64 -181.7,-10.14 -280.47,30.43 26.87,-102.86 23.85,-196.11 -8.54,-281.36 -123.15,-320.68 -559.69,-316.41 -794.24,-313.57l-68.86 0 -67.98 -12.46c-230.28,-42.35 -659.87,-122.44 -836.24,171.55 -47.52,78.48 -66.2,169.6 -58.2,275.66 -89.16,-57.48 -179.21,-83.46 -269.97,-78.83 -343.46,18.33 -474.44,434.4 -544.74,658.81l-21.53 64.78 -31.85 60.69c-112.47,206.43 -321.04,589.4 -95.74,848.69 60.15,69.41 141.12,115.68 244.52,140.23 -81.69,67.62 -134.54,144.68 -157.49,233.49 -89.69,331.01 266.23,584.24 456.65,720.21l55.88 40.93 48.23 48.58c161.41,171.02 461.63,486.9 777.51,353.07 83.82,-35.95 152.87,-98.41 208.39,-188.99 39.69,98.77 96.46,172.09 173.15,222.45 287.58,186.5 638.17,-73.32 826.8,-211.95l55.7 -40.75 61.93 -30.43c211.77,-101.26 606.13,-288.65 576.41,-630.69 -7.83,-92 -46.27,-175.83 -114.96,-256.44 105.89,-6.23 192.91,-38.44 263.91,-95.92 267.48,-215.69 128.49,-629.27 53.74,-851.72l0.01 0zm0 0l0 0 0 0z"/>
   </g>
   <g>
    <path class="fil4" d="M4090.95 22473.33c1920.01,1134.85 1328.83,-113.36 1286.48,-297.9 -42.53,-183.65 -58.73,-1564.09 -1286.48,297.9l0 0zm-120.66 284.02c-485.65,2175.92 518.22,1228.64 680.16,1132 161.76,-97.34 1469.59,-539.4 -680.16,-1132l0 0zm-308.23 -26.51c-2220.59,209.82 -1008.68,872.18 -866.13,996.22 142.72,123.33 966.68,1230.95 866.13,-996.22l0 0zm-69.76 -302c-886.06,-2046.54 -1141.79,-689.42 -1215.64,-515.37 -73.68,172.98 -872.54,1299.82 1215.64,515.37z"/>
   </g>
   <g>
    <path class="fil2" d="M35306.04 21895.32l-31.85 -60.69 -21.53 -64.95c-70.47,-224.41 -201.63,-640.84 -543.67,-658.81 -92,-4.27 -181.7,21.18 -270.68,77.95 8.19,-105.35 -11.39,-196.29 -57.83,-274.77 -177.07,-294.17 -605.96,-214.09 -836.41,-171.73l-68.69 12.46 -68.69 -0.01c-233.49,-3.2 -670.37,-7.12 -793.17,313.57 -33.45,85.24 -35.95,178.67 -9.79,281.36 -97.17,-40.4 -189.53,-50.9 -279.58,-30.25 -334.03,77.23 -391.33,510.57 -420.88,743.16l-10.5 67.8 -20.64 65.31c-75.1,222.45 -213.55,636.03 53.57,852.25 70.83,57.3 157.67,89.33 263.91,95.74 -68.87,80.61 -107.31,164.97 -114.96,256.62 -29.54,342.04 364.28,529.25 576.41,630.51l61.4 30.43 55.52 40.75c188.99,138.81 539.93,398.28 826.8,211.95 77.77,-50.54 134,-123.68 173.34,-222.63 55.7,90.58 124.22,152.69 208.93,188.99 315.52,133.83 616.28,-182.05 777.51,-352.9l48.23 -48.58 55.34 -41.11c190.95,-135.78 546.52,-389.2 457.36,-720.03 -24.03,-88.62 -75.63,-166.22 -158.03,-233.49 102.86,-24.56 184.19,-70.83 243.99,-140.23 225.83,-259.47 17.62,-642.26 -95.39,-848.69l0.01 -0.01zm0 0l0 0 0 0z"/>
   </g>
   <g>
    <path class="fil4" d="M33608.65 22270.1c-1671.94,-1474.93 -302.89,-1298.93 -114.78,-1315.66 187.39,-15.66 1505.9,-427.28 114.78,1315.66l0 0zm-232.77 203.23c-1919.83,1134.85 -1330.07,-113.36 -1286.65,-297.9 42,-183.65 57.83,-1564.09 1286.65,297.9l0 0zm120.3 284.02c486.01,2175.92 -518.04,1228.64 -680.34,1132 -161.76,-97.34 -1468.88,-539.4 680.34,-1132l0 0zm307.87 -26.51c2220.41,209.82 1009.39,872.18 866.31,996.22 -141.66,123.33 -966.86,1230.95 -866.31,-996.22l0 0zm69.05 -302c886.42,-2046.54 1141.79,-689.42 1215.83,-515.37 73.5,172.98 872.36,1299.82 -1215.83,515.37z"/>
   </g>
   <g>
    <path class="fil2" d="M34304.48 22492.73c-2.14,-17.97 -7.83,-33.45 -10.32,-50.9 178.32,-130.8 370.87,-271.03 370.87,-271.03l-18.51 -41.46 -440.09 77.06c-108.4,-179.35 -295.13,-297.33 -503.64,-318.05 -44.31,-122.65 -95.6,-276.5 -134.07,-404.72l-45.2 3.74c0,0 -30.25,213.91 -61.04,423.54 -130.74,33.17 -247.71,107.81 -334.82,211.34 -45.71,56.44 -82.33,119.79 -108.21,187.67 -217.29,0 -446.68,0.89 -446.68,0.89l-9.61 44.84c0,0 213.73,104.1 411.44,200.92 0.71,18.15 -1.78,35.77 0,53.92 14.78,172.19 96.69,331.75 227.79,444.22l-147.35 459.49 38.26 22.95c0,0 180.27,-186.5 340.62,-351.12 83.82,27.23 172.98,38.26 263.2,30.25 90.76,-6.94 176.89,-33.99 255.2,-74.74 185.97,133.83 395.78,285.45 395.78,285.45l34.17 -29.72c0,0 -119.06,-224.76 -224.94,-425.86 96.68,-118.86 149.64,-267.8 149.64,-421.13 0,-19.14 -0.9,-38.54 -2.52,-57.6l0.04 0.03zm0 0l0 0 0 0z"/>
   </g>
   <g>
    <path class="fil4" d="M33605.27 22158.7c-104.45,7.98 -201.26,58.29 -267.83,139.16 -59.56,70.95 -92.25,160.79 -92.25,253.47 0,217.76 176.6,394.36 394.36,394.36 217.76,0 394.36,-176.6 394.36,-394.36 0,-11.6 -0.53,-23.21 -1.54,-34.76 -17.5,-203.31 -187.77,-359.46 -391.83,-359.46 -11.76,0 -23.57,0.57 -35.29,1.58l0.02 0.01zm-29747.63 111.4c1672.29,-1474.93 302.71,-1298.93 114.96,-1315.66 -188.11,-15.66 -1506.43,-427.28 -114.96,1315.66z"/>
   </g>
   <g>
    <path class="fil2" d="M4490.82 22555.73c198.96,-96.63 411.8,-201.1 411.8,-201.1l-10.14 -44.67c0,0 -228.86,-0.89 -446.5,-0.89 -25.63,-67.89 -62.17,-131.37 -107.84,-187.71 -87.13,-103.7 -204.11,-178.3 -334.9,-213.42l-60.33 -423.54 -45.91 -3.74c0,0 -66.56,205.01 -132.58,406.82 -208.91,20.37 -396.35,138.29 -505.08,317.84l-440.63 -76.88 -17.62 41.46c0,0 192.2,140.23 370.33,271.03 -2.85,17.62 -8.01,33.45 -9.96,50.72 -1.63,18.92 -2.44,38.08 -2.44,57.07 0,153.57 53.25,302.52 150.49,421.27 -106.96,201.1 -225.83,425.86 -225.83,425.86l35.06 29.54c0,0 209.46,-151.8 395.25,-285.45 77.95,40.75 164.08,67.09 254.84,74.74 19.34,1.66 38.8,2.62 58.17,2.62 69.61,0 139.06,-11.16 205.08,-33.01l339.9 351.29 39.69 -23.14 -148.06 -458.6c130.66,-113.09 212.49,-272.77 227.78,-444.89 2.31,-17.44 -0.54,-35.06 -0.54,-53.21l-0.02 -0.02zm0 0l0 0 0 0z"/>
   </g>
   <g>
    <path class="fil4" d="M4129.03 22297.87c-66.47,-81.05 -163.44,-131.38 -267.99,-139.15 -11.57,-1.03 -23.2,-1.56 -34.78,-1.56 -204.11,0 -374.43,156.15 -392.16,359.44 -8.9,105.71 23.67,206.79 90.76,288.12 75.01,88.7 185.46,139.92 301.65,139.92 204.41,0 375.1,-155.98 393.48,-359.53 0.92,-11.06 1.4,-22.3 1.4,-33.39 0,-92.8 -32.75,-182.75 -92.37,-253.85l0.01 0.01zm0 0l0 0 0 0z"/>
   </g>
   <g>
    <path class="fil2" d="M4102.16 12991.62c-934.65,-165.15 -1829.78,462.34 -1994.93,1397.16 -164.97,935.36 461.8,1830.31 1396.63,1995.28 935.53,165.15 1831.03,-462.16 1995.65,-1397.34 165.5,-934.82 -461.63,-1829.78 -1397.34,-1995.11l-0.01 0.01zm0 0l0 0 0 0z"/>
   </g>
   <g>
    <path class="fil4" d="M4492.07 14294.29c-24.65,-15.5 -49.12,-31.81 -73.2,-47.74 -141.3,-93.61 -418.39,-276.73 -426.04,-282.25 -38.26,-26.34 -75.63,-51.43 -112.47,-76.17 -109.11,-74.03 -223.52,-146.76 -337.16,-214.19 -37.69,-21.67 -77.53,-43.35 -116.78,-62.97 -164.61,-83.11 -322.46,-133.29 -508.61,-149.66 -144.28,104.5 -269.34,233.48 -369.2,380.75 428.17,154.47 846.38,402.37 1716.96,943.01 50.01,-114.6 216.58,-469.28 226.54,-490.81l-0.05 0.03zm-401.48 923.26c17.62,-43.42 93.96,-237.04 125.28,-311.61 -892.29,-554.17 -1306.58,-799.39 -1735.64,-951.2 -67.31,121.8 -117.71,253.21 -148.87,388.84 244.87,336.35 901.37,666.64 1759.31,873.96l-0.08 0.01zm-96.63 -1408.38c334.03,-197.54 713.8,-143.79 1006.72,-43.78 -109.19,-142.55 -243.55,-264.71 -395.45,-360.25 -276.9,-55.34 -658.98,-63.71 -963.3,178.14 110.69,64.78 224.94,140.59 352.01,225.83l0.02 0.06zm0 0l0 0 0 0z"/>
   </g>
   <g>
    <path class="fil4" d="M2661.04 15405.3c44.67,30.61 90.58,59.8 138.98,87.2 98.59,54.28 204.83,101.26 315.17,141.48 46.63,17.97 93.96,33.99 141.84,49.47 167.1,55.17 551.5,154.82 579.97,161.4l204.3 -505.93c-665.22,-164.97 -1393.61,-453.8 -1739.56,-829.12 -7.39,61.06 -11.41,122.99 -11.41,184.56 0,108.52 11.87,217.04 35.26,323.01 73.14,159.27 190.24,285.98 335.45,387.95l0.01 -0.02zm1198.38 578.72l-138.81 -35.59c-136.4,-33.65 -275.25,-72.52 -409.64,-112.51 69.22,147.53 177.96,262.49 293.99,351.47 65.6,8.14 132.52,12.75 199.25,12.75 85.91,0 171.99,-7.37 256.61,-21.94 -106.24,-83.11 -201.45,-194.15 -201.45,-194.15l0.05 -0.03zm1391.3 -1735.46c-31.03,-102.9 -73.28,-202.55 -125.25,-296.58 -262.49,-116.74 -661.66,-231.17 -1010.46,-60.51l480.85 317.66c100.37,-8.9 192.73,-11.75 277.26,-9.61 46.09,0.71 88.98,3.2 129.73,7.3 94.5,8.36 174.76,23.49 247.9,41.82l-0.03 -0.08zm-246.3 88.09c-14.06,790.68 -386.89,1400.54 -708.11,1782.26 502.74,-174.76 899.23,-608.08 998.18,-1167.77 14.69,-85.51 22.3,-172.46 22.3,-259.24 0,-100.31 -10.2,-200.98 -29.85,-299.26 -91.73,-28.03 -186.87,-47.03 -282.52,-56l0.01 0zm-1482.59 -820.57c225.12,-198.43 490.99,-265.51 736.4,-271.03 -62.38,-20.4 -127.05,-36.91 -191.89,-48.31 -86.22,-15.21 -174.23,-22.92 -262.06,-22.92 -251.54,0 -499.41,63.21 -720.26,183.55 154.65,30.43 294.52,84.71 437.78,158.74l0.02 -0.03zm0 0l0 0 0 0z"/>
   </g>
   <g>
    <path class="fil4" d="M4614.51 14337.36c-114.43,238.29 -181.7,384.22 -237.58,516.97 -17.26,40.22 -33.81,79.19 -50.72,119.95 -26.69,66.56 -108.91,273.52 -108.91,273.52l-48.76 121.72 -212.49 526.05c58.73,77.95 129.73,141.3 199.49,190.6 315.52,-359.83 708.46,-965.07 720.38,-1757.17 -79.72,-2.85 -167.1,0.18 -261.42,8.36l0.01 0zm-1463.19 1445.74c-105.96,-35.88 -210.61,-78.42 -311.54,-126.69 37.37,115.13 91.11,217.82 145.04,305.38 113.36,72.79 237.75,129.91 370.52,170.84 -85.78,-96.63 -159.98,-211.42 -203.94,-349.52l-0.07 -0.02zm-467.5 -211.77c-70.5,-42.02 -137.95,-90.52 -200.48,-143.75 69.96,125.17 158.17,240.07 260.47,340.69 -25.32,-63.72 -45.54,-129.91 -59.95,-196.87l-0.04 -0.07zm0 0l0 0 0 0z"/>
   </g>
   <g>
    <path class="fil2" d="M31780.11 14986.73c165.33,935.17 1059.93,1562.3 1994.93,1397.34 935.36,-164.97 1561.78,-1060.1 1397.7,-1995.28 -165.15,-934.65 -1060.11,-1561.95 -1995.47,-1397.16 -935.36,165.33 -1562.13,1060.29 -1397.16,1995.11l0 -0.01zm0 0l0 0 0 0z"/>
   </g>
   <g>
    <path class="fil4" d="M32787.37 14294.29l73.85 -47.7c157.41,-111.39 374.21,-252.3 536.8,-360.7 110.86,-72.94 224,-145.2 338.51,-211.99 40.04,-22.6 78.83,-43.95 116.92,-63 164.26,-83.11 322.64,-133.29 508.61,-149.66 144.05,103.99 268.9,233.05 367.98,380.76 -427.81,154.47 -844.77,402.37 -1716.6,943.01 -49.83,-114.6 -215.69,-469.28 -226.01,-490.81l-0.07 0.08zm401.65 923.26c-17.8,-43.42 -94.68,-237.04 -124.22,-311.61 890.51,-554.17 1306.05,-799.39 1734.93,-951.2 66.2,119.59 116.39,249.86 149.13,388.84 -245.41,336.35 -902.08,666.64 -1759.85,873.96l0.01 0zm96.63 -1408.38c-334.39,-197.54 -713.8,-143.79 -1006.9,-43.78 109.71,-142.39 244.04,-264.68 396.34,-360.28 276.55,-55.34 658.27,-63.71 962.23,178.14 -118.54,71.08 -237.89,147.43 -351.96,225.52l0.29 0.4zm0 0l0 0 0 0z"/>
   </g>
   <g>
    <path class="fil4" d="M34617.86 15405.3c-44.45,31.39 -91.04,60.78 -138.6,87.26 -98.06,54.28 -204.12,101.26 -314.28,141.48 -47.16,17.97 -94.85,33.99 -142.55,49.47 -166.57,55.17 -550.96,154.82 -579.8,161.4 -6.58,-14.77 -151.09,-370.68 -204.3,-505.93 664.86,-164.97 1392.72,-453.8 1739.92,-829.12 7.18,59.97 10.89,121.18 10.89,181.84 0,109.44 -11.87,218.89 -35.25,325.73 -72.96,159.27 -189.88,285.98 -335.99,387.95l-0.06 -0.08zm-1197.32 578.72l137.74 -35.59c137.19,-33.85 275.92,-72.08 411.38,-112.5 -70.47,147.53 -178.67,262.49 -294.35,351.47 -65.8,8.16 -132.79,12.75 -199.41,12.75 -85.93,0 -171.88,-7.36 -256.53,-21.9 105.35,-83.11 201.1,-194.15 201.1,-194.15l0.06 -0.08zm-1391.47 -1735.46c30.76,-102.97 73.37,-202.8 125.97,-296.58 261.6,-116.74 660.06,-231.17 1009.04,-60.51l-480.49 317.66c-73.61,-6.7 -148.87,-10.29 -223.23,-10.29 -17.92,0 -36.43,0.3 -54.05,0.6 -43.4,0.6 -87.21,3.3 -130.25,7.33 -83.21,7.32 -166.02,21.37 -246.9,41.79l-0.07 0zm246.3 88.09c13.7,790.68 387.6,1400.54 708.82,1782.26 -504.16,-174.76 -901.01,-608.08 -998.89,-1167.77 -14.94,-85.06 -22.59,-172.13 -22.59,-258.67 0,-100.56 10.39,-201.49 30.42,-299.86 91.86,-28.11 186.72,-47.01 282.27,-55.95l-0.02 -0.02zm1482.94 -820.57c-225.3,-198.43 -491.88,-265.51 -736.75,-271.03 62.68,-20.72 127,-36.89 192,-48.22 86.3,-15.29 174.23,-23 261.98,-23 251.49,0 499.11,63.33 719.76,183.56 -154.11,30.43 -294.17,84.71 -437.07,158.74l0.09 -0.05zm0 0l0 0 0 0z"/>
   </g>
   <g>
    <path class="fil4" d="M32665.47 14337.36c82.56,169.47 163.47,345.06 239.22,517.21l49.12 119.95c27.05,66.56 109.27,273.52 109.27,273.52l48.41 121.72 212.84 526.05c-56.85,73.01 -124.17,137.45 -199.9,190.38 -315.52,-359.83 -708.99,-965.07 -720.21,-1757.17 79.37,-2.85 167.1,0.18 261.25,8.36l0.01 -0.02zm1463.01 1445.74c105.99,-35.89 210.75,-78.55 311.76,-126.66 -36.24,106.87 -85.39,209.6 -145.66,305.28 -114.81,73.29 -239.57,131.06 -369.88,170.92 85.6,-96.63 159.81,-211.42 203.76,-349.52l0.02 -0.02zm467.86 -211.77c70.13,-42.42 137.51,-91.02 200.25,-143.88 -70.26,125.31 -158.1,240.59 -260.68,340.95 24.97,-63.92 45.36,-130.22 60.45,-197.03l-0.02 -0.05zm0 0l0 0 0 0z"/>
   </g>
  </g>
 </g>
</svg>
