<?xml version="1.0" encoding="UTF-8"?>
<!DOCTYPE svg PUBLIC "-//W3C//DTD SVG 1.1//EN" "http://www.w3.org/Graphics/SVG/1.1/DTD/svg11.dtd">
<!-- Creator: CorelDRAW 2021 (64-Bit) -->
<svg xmlns="http://www.w3.org/2000/svg" xml:space="preserve" width="26.0423in" height="26.0415in" version="1.1" style="shape-rendering:geometricPrecision; text-rendering:geometricPrecision; image-rendering:optimizeQuality; fill-rule:evenodd; clip-rule:evenodd"
viewBox="0 0 9764.79 9764.51"
 xmlns:xlink="http://www.w3.org/1999/xlink"
 xmlns:xodm="http://www.corel.com/coreldraw/odm/2003">
 <defs>
  <style type="text/css">
   <![CDATA[
    .fil1 {fill:#034694;fill-rule:nonzero}
    .fil5 {fill:#6A7AB5;fill-rule:nonzero}
    .fil3 {fill:#D1D3D4;fill-rule:nonzero}
    .fil0 {fill:#DBA111;fill-rule:nonzero}
    .fil4 {fill:#ED1C24;fill-rule:nonzero}
    .fil2 {fill:white;fill-rule:nonzero}
   ]]>
  </style>
 </defs>
 <g id="Layer_x0020_1">
  <metadata id="CorelCorpID_0Corel-Layer"/>
  <g id="_2077477913760">
   <g>
    <path class="fil0" d="M9764.79 4882.26c0,2696.67 -2185.96,4882.26 -4882.21,4882.26 -2696.53,0.05 -4882.35,-2185.64 -4882.35,-4882.26 0,-2696.29 2185.82,-4882.26 4882.26,-4882.26 2696.34,0 4882.3,2185.96 4882.3,4882.26l0 0zm0 0l0 0 0 0z"/>
   </g>
   <path class="fil1" d="M9601.88 4882.26c0,2606.52 -2112.87,4719.39 -4719.43,4719.39 -2606.56,0 -4719.48,-2112.83 -4719.48,-4719.39 0,-2606.56 2112.97,-4719.48 4719.53,-4719.48 2606.47,0 4719.39,2112.92 4719.39,4719.48z"/>
   <path class="fil0" d="M8245.74 4882.26c0,1857.52 -1505.82,3363.01 -3363.25,3363.01 -1857.57,0 -3363.34,-1505.54 -3363.34,-3363.01 0,-1857.66 1505.82,-3363.34 3363.34,-3363.34 1857.48,-0.05 3363.25,1505.73 3363.25,3363.34z"/>
   <path class="fil2" d="M8143.93 4882.26c0,1801.35 -1460.42,3261.49 -3261.49,3261.49 -1801.3,0 -3261.44,-1460.18 -3261.44,-3261.49 0,-1801.26 1460.18,-3261.49 3261.44,-3261.49 1801.12,0.05 3261.49,1460.23 3261.49,3261.49z"/>
   <g>
    <path class="fil0" d="M2087.93 7696.02c36.03,34.45 124.88,119.01 124.88,119.01l85.12 -89.64 -253.86 -241.93 -32.68 34.17 -340.84 357.34 129.35 123.25c0,0 109.36,-114.62 149.3,-156.39l113.65 108.19 85.16 -89.41 -113.5 -108.38c21.21,-22.42 31.98,-33.7 53.42,-56.22l-0 0zm612.18 408.06c-11.47,-68.57 -49.97,-129.12 -108.14,-170.37 -44.7,-32.26 -98.51,-49.64 -153.66,-49.64 -14.17,0 -28.41,1.15 -42.39,3.43 -73.79,12.54 -140.12,55.52 -186.83,120.96 -46.57,65.77 -65.35,142.5 -52.81,216.57 11.56,68.34 49.69,128.47 107.77,169.86 58.08,41.3 128.14,57.8 196.62,46.29 73.79,-12.49 140.12,-55.47 186.64,-121.15 37.24,-51.93 56.68,-111.55 56.68,-171.07 0,-14.87 -1.26,-30.11 -3.87,-44.89l-0 0.01zm-364.52 189.81c-59.25,-41.95 -10.35,-129.68 24.29,-177.93 34.4,-48.62 101.29,-123.76 160.54,-81.85 61.9,44.24 4.06,139.94 -23.68,178.81 -27.92,39.2 -99.1,125.25 -161.14,80.97zm763.54 -54.31c-136.63,-69.08 -294.55,-12.49 -367.18,131.36 -36.31,71.88 -43.44,150.75 -20.04,221.84 21.63,65.96 68.52,119.85 132.1,151.82 37.1,19.19 78.32,29.21 120.11,29.21 27.52,0 54.98,-4.37 81.12,-12.9 70.95,-23.07 130.19,-75.56 166.27,-147.39 72.9,-144.22 24.47,-304.86 -112.39,-373.94l-0 -0zm-151.08 399.72c-16.03,5.22 -31.23,3.59 -48.43,-4.94 -27.13,-13.84 -36.64,-38.5 -36.64,-66.05 0,-38.08 18.37,-83.02 33.89,-113.69 26.94,-53.33 81.67,-137.42 146.65,-104.65 17.11,8.76 27.36,20.09 32.54,35.94 10.86,32.77 -0.05,86.66 -29.32,144.36 -29.18,57.43 -66.05,98.22 -98.68,109.03l0 -0zm433.18 -201.93l-25.17 72.07c0,0 64.28,22.56 83.81,28.99l-138.02 394.17 168.37 59.06c0,0 113.65,-323.41 138.16,-393.84l84 29.23 40.79 -116.26 -336.32 -117.98 -15.62 44.56 -0 -0zm699.3 156.25l-227.66 -48.01 -9.74 46.24 -101.71 483.01 231.62 49.18c74.02,15.29 122.78,-2.89 150.56,-20.84 35.29,-22.98 60.04,-60.83 69.55,-105.91 2.61,-12.31 3.87,-24.19 3.87,-35.89 0,-32.58 -10.4,-62 -29.04,-87.26 26.1,-20.7 44.7,-49.92 52.44,-86.42 1.96,-9.46 3.08,-20.14 3.08,-31.23 0.14,-61.9 -35.19,-140.35 -142.96,-162.87l0 0zm-62.69 368.81c-2.42,11.05 -6.81,25.64 -15.2,31.09 -7.74,4.99 -22.52,5.64 -41.77,1.49 0,0 -8.76,-1.96 -19.11,-3.96 7.36,-34.87 12.35,-58.08 19.53,-92.95 9.88,2.33 22.56,4.85 22.56,4.85 29.88,6.29 35.61,28.34 35.61,44.38 0,6.48 -0.79,11.93 -1.63,15.1l-0 0zm-15.52 -258.52c20.04,4.57 34.68,11.84 40.32,20.42 2.55,4.45 3.9,9.49 3.9,14.62 0,0.44 -0.01,0.89 -0.03,1.32 0,3.91 -0.51,8.48 -1.54,13.94 -3.03,14.17 -7.18,33.8 -46.61,25.73 0,0 -4.85,-1.26 -11.65,-2.75 6.25,-29.32 9.23,-43.86 15.62,-73.28l-0 0zm498.39 -31.6l-247.24 506.18 141.15 10.81 53.47 -112.76c29.88,2.47 59.81,4.57 89.08,6.9l38.55 119.56 187.76 14.59 -209.86 -650.55 -52.91 105.25 0 0zm557.41 404.1l-17.29 -410.76 -178.39 7.51 22.56 540.58 357.48 -14.82 -5.36 -129.73c0,-0.05 -127.72,5.36 -179,7.22l0 0zm489.35 -51.74c-11.56,-73.14 -63.72,-406.15 -63.72,-406.15l-46.75 7.46 -129.77 20.23 83.76 534.76 353.61 -55.52 -20.23 -128.28c0,-0.09 -126.18,19.77 -176.9,27.5l-0 0zm1023.69 -359.63c-1.45,46.33 -28.76,86.28 -71.37,103.11 -23.63,9.42 -46.15,9.42 -68.8,-0.19 -34.63,-14.82 -66.84,-52.39 -86.14,-100.64 -22.61,-56.92 -27.32,-105.3 -12.45,-139.19 10.26,-23.87 30.25,-41.63 60.97,-53.84 33.28,-13.19 64.79,-1.03 107.96,24.33l39.62 23.4 65.87 -103.86 -39.11 -25.68c-71.79,-47.27 -160.68,-56.82 -237.64,-26.15 -71.37,28.43 -126.74,81.67 -156.02,149.77 -29.69,68.99 -29.69,148.09 0.51,222.95 56.82,142.03 217.31,212.05 357.72,155.78 101.48,-40.46 158.86,-117.51 166.13,-222.81l3.31 -46.99 -129.17 -9.56 -1.4 49.55 0 0zm416.4 -147.67c-36.55,-64.93 -200.77,-359.44 -200.77,-359.44l-41.07 23.21 -114.9 64.14 264.02 472.34 312.03 -174.34 -63.12 -113.41c0.05,0 -111.64,62.28 -156.2,87.49l0 0zm347.18 -728.44l-38.22 27.97 -67.03 49.36 219.13 298.66c10.02,13.47 10.02,22.47 9.04,27.78 -2.1,15.43 -18.13,32.07 -32.26,42.33 -9.18,6 -19.92,9.21 -30.9,9.21 -2.38,0 -4.78,-0.16 -7.14,-0.45 -11.28,-1.63 -20.23,-7.83 -28.15,-18.51l-216.57 -295.25 -144.32 105.63 215.5 293.85c31.98,43.54 71.65,69.18 117.98,76.31 51.97,8.11 111.13,-9.56 166.04,-50.16 112.99,-82.55 111.13,-192.28 61.81,-259.5l-224.91 -307.23 0 0zm657.4 -108.61c-33.28,-34.4 -74.26,-49.92 -117.23,-47.59 -2.38,-34.65 -17.07,-67.34 -41.35,-92.15 -45.17,-46.57 -146.04,-82.83 -238.94,7.51l-167.11 161.66 376.55 388.71 169.95 -164.73c54.35,-52.67 66.29,-103.67 66.89,-136.58 0.93,-42.28 -16.41,-83.58 -48.76,-116.81l0 -0zm-284.44 -13.14c5.59,6.01 12.54,13.01 12.54,22.7 0,7.97 -4.38,17.81 -17.39,30.25l-8.34 8.39c-21.07,-21.91 -31.09,-32.12 -52.49,-54.17 37.66,-34.49 53.33,-19.72 65.68,-7.18l-0 0zm89.17 133.88c30.49,-29.41 59.9,-3.54 68.29,5.22 8.11,8.16 17.29,19.62 17.29,29.55l0 0.37c-0.19,9.18 -7.92,21.96 -21.96,35.52 0,0 -6.53,6.34 -14.26,13.56 -24.52,-25.45 -41.25,-42.56 -65.87,-67.87 7.27,-7.36 16.5,-16.36 16.5,-16.36l0 -0z"/>
   </g>
   <g>
    <path class="fil2" d="M2086.72 7645.86c14.73,14.17 124.69,119.05 124.69,119.05l36.27 -38.22 -202.58 -193.21 -8.2 8.58 -316.14 331.66 77.89 74.4c0,0 134.72,-141.19 149.21,-156.62l113.79 108.38 36.31 -38.08 -113.83 -108.28c13.24,-13.89 89.59,-94.07 102.6,-107.63l-0 0zm484.55 316.65c-50.2,-35.8 -110.29,-50.02 -169.3,-40.14 -64.75,11.09 -122.83,48.94 -163.94,106.75 -41.21,58.03 -57.75,125.3 -46.75,189.77 9.88,59.2 43.12,111.41 93.37,146.93 38.68,27.99 85.28,43.09 133.04,43.09 12.41,0 24.85,-1.02 37.07,-3.05 64.37,-10.77 122.55,-48.76 163.57,-106.19 32.82,-46.38 50.16,-98.82 50.16,-150.8 0,-12.91 -1.12,-26.15 -3.22,-39.06 -10.02,-59.01 -43.35,-111.36 -93.97,-147.3l-0.01 0zm-45.73 271.06c-33.98,47.55 -122.41,151.96 -210.42,89.31 -87.77,-62.23 -18.13,-179.93 15.76,-227.8 33.94,-47.78 122.41,-152.1 210,-89.82 88.05,62.88 18.6,180.63 -15.34,228.31zm557.6 37.8c-118.54,-59.9 -255.86,-10.07 -319.49,115.84 -32.07,63.3 -38.41,132.2 -18.09,194.71 18.69,56.82 59.29,103.16 114.44,130.94 55.28,28.15 117.14,33.24 174.2,14.5 62.04,-20.42 113.79,-66.47 145.9,-129.73 63.53,-126 21.91,-266.35 -96.96,-326.25l-0 0zm-199.56 394.45c-95.98,-48.29 -44.89,-175.32 -18.41,-227.48 26.38,-52.39 98.22,-168.74 194.1,-120.03 25.5,12.68 42.56,31.74 50.62,56.59 18.83,57.43 -11.7,131.78 -31.65,171.31 -19.86,39.16 -61.67,107.82 -119.29,126.74 -24.52,8.34 -50.02,5.83 -75.37,-7.13l0 0zm531.26 -216.85l-13.61 38.5 83.86 29.51c-7.46,21.02 -138.16,393.8 -138.16,393.8l101.62 35.75c0,0 130.89,-372.77 138.12,-393.89l83.86 29.27 17.57 -49.5 -269.52 -94.58 -3.73 11.14 0 0zm658.52 179.28l-192.94 -40.69 -2.61 11.65 -94.25 448.61 196.85 41.35c50.06,10.53 91.69,5.22 123.9,-15.85 27.87,-18.18 46.57,-47.22 54.21,-83.3 1.96,-9.88 3.08,-19.21 3.08,-28.39 0,-39.25 -19.44,-72.53 -54.21,-96.21 40.23,-11.56 69.03,-41.16 78.36,-85.12 1.59,-6.81 2.52,-14.92 2.52,-24.15 -0.05,-44.98 -23.68,-108.7 -114.9,-127.91l0 -0zm-67.45 39.67c32.44,6.81 54.87,19.25 66.29,36.92 6.62,10.02 9.84,21.77 9.84,35.38 0,6.67 -0.89,13.56 -2.42,21.07 -12.54,59.67 -60.78,59.11 -88.47,53.05 0,0 -29.41,-6.06 -46.38,-9.65 3.96,-18.41 26.29,-124.88 30.16,-143.2 12.31,2.47 31,6.43 31,6.43l0 -0zm-14.82 200.25c54.82,11.51 63.39,54.77 63.39,80.97 0,11.23 -1.77,19.34 -1.96,20.65 -5.55,25.92 -15.43,43.49 -30.58,53.23 -16.03,10.72 -39.16,12.77 -68.38,6.81 0,0 -35.1,-7.51 -53.89,-11.23l34.26 -162.4c16.03,3.26 57.15,11.98 57.15,11.98zm541.61 -180.3l-224.31 459.33 64.61 4.85c0,0 47.55,-99.94 53.79,-112.62l136.95 10.67c4.34,13.15 38.55,119.61 38.55,119.61l111.36 8.62 -166.69 -516.67 -14.26 26.2 0 0zm-24.61 184.69c10.77,34.68 31.7,101.57 38.64,123.34 -22.23,-1.59 -73.23,-5.55 -95.19,-7.22l56.54 -116.11 0 -0zm515.97 240.85l-17.39 -410.76 -11.42 0.47 -96.07 3.91 19.72 469.92 286.63 -12.26 -2.56 -58.64c0.09,0 -158.16,6.67 -178.9,7.36l-0 0zm493.92 -47.83c-3.54,-22.19 -63.86,-406.66 -63.86,-406.66l-11.51 1.86 -94.77 14.96 72.81 464.51 283.37 -44.75 -9.04 -58.03c0,0.09 -156.67,24.66 -176.99,28.11l0 0zm1088.53 -399.76c-1.68,61.16 -37.62,112.99 -93.6,135.51 -32.58,12.91 -64.75,12.54 -95.84,-0.89 -43.82,-18.51 -82.13,-62.42 -105.35,-120.03 -26.15,-65.77 -30.25,-123.34 -12.07,-166.51 14.17,-32.49 41.16,-56.92 80.6,-72.58 51.51,-20.65 98.96,2.89 138.96,26.66l10.02 5.83 28.85 -45.36 -9.65 -6.53c-62.18,-40.74 -139,-49.27 -205.15,-22.75 -62.7,25.13 -111.41,71.46 -136.63,130.85 -25.96,60.13 -25.73,129.82 0.89,195.55 49.46,124.09 189.11,185.1 311.75,136.21 88.94,-35.71 137.23,-100.17 143.66,-192.38l0.93 -11.84 -56.87 -3.91 -0.51 12.17 -0 -0zm367.36 -100.22c-11.05,-19.39 -200.77,-359.21 -200.77,-359.21l-10.44 5.83 -83.58 46.75 229.06 410.25 250.46 -139.84 -28.43 -51.37c0.05,0.09 -138.63,77.29 -156.3,87.59l0 0zm353.15 -727.22l-9.65 7.09 -38.41 28.15 198.2 270.04c13.28,18.23 18.46,36.27 15.66,54.07 -4.75,32.12 -33.98,56.92 -46.29,65.59 -15.13,10.59 -33.18,16.29 -51.66,16.29 -4.27,0 -8.53,-0.32 -12.75,-0.91 -20.88,-3.03 -37.99,-14.12 -51.74,-32.54l-195.64 -266.91 -86.66 63.91 194.43 265.05c26.2,35.75 58.03,56.87 94.77,62.23 57.85,8.76 112.2,-23.45 139.52,-43.4 93.79,-68.94 95.05,-155.22 54.54,-210.14l-204.31 -278.52 -0.01 0.01zm639.64 -133.41c-36.36,-37.66 -82.88,-46.19 -131.12,-27.64 3.88,-10.97 5.96,-22.54 6.1,-34.17 0,-27.97 -11.09,-55.19 -33.52,-78.17 -30.21,-31.14 -108.61,-69.59 -188.74,8.34l-141.61 137.18 327 337.53 144.78 -140.4c36.4,-35.05 55.52,-72.81 55.98,-111.08 0.56,-33.33 -13.01,-64.93 -38.88,-91.6l0 0zm-211.16 -14.64c0,23.68 -15.38,43.07 -27.88,55.24 0,0 -21.72,21.12 -33.98,33.19 -13.19,-13.52 -88.99,-91.64 -101.99,-105.53 8.81,-8.53 22.65,-21.68 22.65,-21.68 44.24,-43.16 83.07,-45.91 118.73,-8.95 16.46,16.83 22.47,32.86 22.47,47.73l0 0zm90.1 244.96c-13.42,-13.84 -101.8,-105.25 -115.37,-119.1 11.7,-11.19 41.91,-40.65 41.91,-40.65 57.66,-55.52 116.16,3.31 118.63,6.06 18.27,18.74 27.13,36.55 27.13,54.21l0 0.75c-0.23,19.39 -11.47,39.71 -32.82,60.83 0.09,-0.05 -28.06,27.04 -39.48,37.9l-0 -0z"/>
   </g>
   <g>
    <path class="fil0" d="M2713.4 1665.98l-197.32 53.23 22.65 70.67c27.27,85.72 2.61,175.5 -64.19,234.05 -37.15,32.58 -80.13,47.55 -127.4,44.28 -71.93,-4.85 -153.13,-51.42 -217.08,-124.6 -75.33,-86.38 -112.99,-169.49 -108.14,-239.87 3.26,-51.46 28.25,-96.49 76.21,-138.49 52.95,-46.38 120.08,-44.56 211.12,-26.48l67.5 13.33 43.72 -189.02 -67.96 -16.55c-146.23,-36.17 -298.66,-0.65 -407.45,94.58 -213.03,186.41 -230.37,490.75 -40.41,708.02 176.57,201.84 482.88,223.89 682.62,49.22 143.8,-125.62 193.91,-286.4 145.02,-464.27l-18.88 -68.1 0 -0zm535.87 -989.85l-201.56 94.91c0,0 112.53,238.48 151.22,320.66 -57.48,27.04 -113.23,53.33 -170.75,80.5l-151.4 -320.66 -265.42 125.3 404.19 857.42 265.65 -125.25c0,0 -125.25,-265.19 -165.53,-351.19 57.48,-26.94 113.18,-53.28 170.84,-80.46l165.48 351 265.56 -125.3 -404.1 -857.23 -64.19 30.3 0 0zm898.72 531.17c-12.91,-63.81 -26.1,-128.79 -38.87,-192.56l299.96 -60.5 -38.32 -190.42 -300.1 60.64c-11.79,-58.36 -21.58,-107.4 -33.47,-165.71l318.37 -64.28 -38.46 -190.37 -69.83 14.03 -536.39 108.47 187.53 929.25 611.02 -123.48 -38.32 -190.32c0,0 -237.41,47.83 -323.13,65.26l0 -0zm866.69 -825.25l-293.9 -6.11 -1.45 70.9 -18.37 876.86 616.84 12.91 4.47 -205.29c0,0 -236.85,-5.03 -323.41,-6.81l15.8 -742.47 0 0zm952.32 478.07c-76.26,-55.98 -98.54,-78.5 -90.85,-109.08 3.82,-15.85 21.07,-66.47 75.84,-52.91 32.96,8.48 65.73,25.87 80.41,96.72l16.03 78.68 194.05 -65.59 -12.17 -61.16c-23.87,-119.94 -125.3,-222.12 -252.74,-253.91 -91.22,-22.65 -182.63,-10.58 -257.64,34.49 -68.22,40.38 -117.55,106.58 -136.59,183.55 -48.71,194.33 82.37,287.89 168.88,349.88 88.75,63.49 111.41,88.33 97.89,141.38 -4.12,16.37 -14.69,30.42 -29.26,38.94 -17.85,10.44 -40.09,14.22 -58.27,9.51 -46.61,-11.51 -66.89,-33.56 -86.47,-93.93l-23.82 -72.3 -194.71 79.62 18.78 61.81c36.5,120.12 123.62,195.83 266.26,231.53 160.26,40.09 354.64,-33.61 403.07,-226.08 50.53,-202.58 -87.45,-304.16 -178.72,-371.19l0.01 -0zm701.03 505.57l272.97 138.02 87.68 -173.31c0,0 -198.39,-100.22 -272.88,-137.93 26.66,-53.19 49.36,-97.89 75.93,-150.89l290.03 146.51 87.45 -173.31 -551.82 -278.8 -31.88 63.12 -395.8 782.83 556.48 280.99 87.73 -173.22 -294.27 -148.6c29.09,-58.13 59.15,-117.23 88.38,-175.41l-0 0zm1098.93 88.57l-884.22 457.42 169.16 147.11c0,0 145.99,-77.61 199.04,-105.49l136.39 118.68c-19.02,56.4 -73,214.98 -73,214.98l232.98 202.82 377.99 -1114.68 -158.35 79.15 0 0zm0 0l0 0 0 0z"/>
   </g>
   <g>
    <path class="fil2" d="M2680.26 1723.65l-104.23 28.29 7.65 23.59c33.1,104.04 3.22,212.84 -78.22,284.07 -46.75,41.02 -101.34,59.85 -161.61,55.98 -85.44,-5.73 -176.2,-57.01 -249.57,-140.87 -83.81,-95.98 -125.39,-190.84 -119.89,-274.42 4.34,-63.39 35.43,-120.92 92.44,-170.79 74.82,-65.4 169.16,-53.42 251.48,-37.2l22.61 4.38 22.79 -98.73 -22.65 -5.64c-131.36,-32.26 -267.7,-0.79 -365.03,84.46 -192.56,168.65 -208.04,444.09 -35.85,641.13 159.33,182.21 435.56,202.16 615.86,44.7 130.75,-114.67 174.71,-254.47 130.38,-415.98l-6.15 -22.98 -0 0zm589.15 -1004.95l-158.58 74.91 151.08 320.52c-33.94,16.13 -222.3,104.98 -256.47,120.96 -17.48,-37.34 -150.94,-320.56 -150.94,-320.56l-180.21 84.88 363.92 771.7 180.12 -84.79 -165.57 -351.05c34.17,-16.08 222.35,-104.74 256.47,-120.92 17.76,37.8 165.57,351.14 165.57,351.14l179.84 -85.02 -363.92 -771.7 -21.3 9.93 0 0zm841.43 544.36c-7.41,-37.06 -50.06,-248.17 -57.38,-285.28l299.87 -60.55 -19.67 -97.47 -300.05 60.41c-7.18,-36.36 -44.8,-222.12 -51.93,-258.43 39.76,-8.16 318.09,-64.19 318.09,-64.19l-19.72 -97.52 -513.41 103.53 168.88 836.4 518.25 -104.65 -19.67 -97.56 -323.27 65.31 0 0zm855.51 -834.62l-199.09 -4.29 -0.42 23.49 -17.57 829.59 522.45 11.09 2.38 -110.75 -323.41 -6.81c1.12,-44.24 15.66,-742.28 15.66,-742.33l0 -0zm997.12 223.98c63.26,15.85 99.85,58.13 115.32,132.99l5.41 26.2 103.86 -35.05 -3.91 -20.46c-20.51,-102.23 -107.96,-189.58 -217.92,-217.22 -78.92,-19.67 -157.65,-9.37 -221.79,29.13 -57.44,34.07 -98.95,89.78 -115.11,154.62 -40.88,163.01 65.35,238.9 150.56,299.82 86.24,61.67 138.21,103.86 116.02,191.3 -6.89,28.71 -25.35,53.39 -50.94,68.14 -19.7,11.79 -42.31,18.05 -65.3,18.05 -9.64,0 -19.28,-1.1 -28.67,-3.28 -62.98,-15.76 -95.28,-49.55 -119.85,-125.07l-8.02 -24.15 -107.77 43.91 6.34 20.65c31.28,102.92 107.4,168.14 232.6,199.56 137.56,34.31 304.3,-27.92 345.41,-191.77 42.79,-171.87 -70.01,-254.93 -161.24,-321.64 -77.47,-57.2 -124.27,-95.42 -108.33,-158.53 14.03,-56.45 60.83,-105.39 133.32,-87.21l0.01 0zm847.44 325.69l289.75 146.37 45.08 -88.89 -467.31 -236.05 -10.67 21.07 -374.17 740.6 471.69 238.34 44.94 -88.8 -294.04 -148.7c16.97,-33.8 114.16,-225.8 131.08,-259.64 35.94,18.23 272.92,137.93 272.92,137.93l45.17 -88.85c0,0 -237.26,-119.66 -273.2,-137.93l118.77 -235.45 0 0zm977.82 518.25l-822.22 425.49 91.92 79.9 199.04 -105.49 185.06 161.01c-8.76,26.01 -73.28,214.8 -73.28,214.8l156.06 135.6 317.63 -936.75 -54.21 25.45 0 0zm-436.12 350.91c38.92,-20.14 138.26,-71.74 198.95,-103.25 -22.56,64.42 -59.76,170.51 -74.02,211.77 -42.32,-32.82 -83.03,-78.06 -123.74,-109.72l-1.18 1.2z"/>
   </g>
   <g>
    <path class="fil3" d="M7215.01 4754.16c-67.4,-178.63 -299.64,-256.19 -519.14,-173.4 -91.5,34.45 -166.51,92.06 -217.59,159.98 144.92,-413.65 735.24,-501.43 735.24,-886.27 0,-645 -915.96,-464.32 -782.7,0.09 0,-210.74 335.29,-249.34 335.29,0 0,249.43 -584.73,412.91 -584.73,834.2 0,464.46 464.51,507.44 417.43,932.14 -7.97,73.28 -86.66,169.53 -200.77,169.53 -711.42,0 -457.47,-875.83 -706.02,-1142.37l12.96 -179.93c143.71,88.19 525.01,-118.31 274,-433 0,154.76 -322.24,146.23 -322.24,-146.23 0,-395.61 369.93,-189.21 387.83,-101.8 -17.71,-144.13 -24.43,-235.59 -0.7,-318.56 -199.37,64.28 -218.06,-51 -192.84,-95.61 28.9,-51.51 67.5,-111.78 145.2,-111.78 41.95,0 67.17,5.83 82.04,16.08 24.84,17.01 43.02,-21.82 39.48,14.31 21.3,-32.44 12.72,8.11 33.42,-24.47 20.93,-32.35 49.22,-68.94 98.82,-117.7l-2.14 -72.9 58.08 21.3 55.7 -90.24c-60.18,-124.79 -141.85,-64.7 -201.98,-219.41 -50.3,-13.01 -833.83,72.16 -811.04,-240.39 -63.86,0 -215.17,35.05 -121.52,162.26 -72.81,8.76 -125.3,-73.93 -235.07,149.72 137.51,-25.78 66.33,127.96 66.33,171.73 0,283.32 -377.25,278.61 -377.25,145.85 -90.94,88.38 -39.34,281.55 98.12,329.14 0,0 -52.3,206.64 -181.38,337.67 -191.63,-7.65 -499.05,-40.93 -675.9,-208.08 -76.26,-72.02 -136.81,-111.36 -188.41,-131.45l0 -93.65c75.51,-36.96 158.3,-102.36 244.35,-211.67 67.08,-81.99 103.48,-187.11 93.69,-298.75 -1.23,-13.1 -3.2,-26.41 -5.62,-39.35 -0.75,-4.1 -1.72,-8.06 -2.7,-12.12 -1.8,-8.87 -4.11,-17.81 -6.69,-26.52 -1.21,-4.29 -2.42,-8.76 -3.78,-12.91 -2.84,-8.7 -6.11,-17.46 -9.59,-25.91 -1.45,-3.54 -2.52,-7.36 -4.2,-10.67 -4.75,-11.17 -10.13,-22.32 -15.9,-32.98 -2.47,-4.38 -5.08,-8.44 -7.51,-12.49 -3.96,-6.48 -7.74,-13.05 -11.89,-19.34 -3.4,-4.9 -7.06,-10.11 -10.53,-14.96 -3.64,-4.8 -7.51,-9.7 -11.28,-14.5 -4.15,-5.13 -8.3,-10.63 -12.72,-15.66 -2.89,-3.38 -6.02,-6.62 -9.2,-9.72 -18.62,-20.34 -39.27,-38.91 -61.55,-55.16l-5.97 -4.34c-7.92,-5.59 -16.03,-11 -24.52,-16.27 -0.51,-0.33 -0.98,-0.56 -1.35,-0.98 -73.16,-44.75 -157.38,-68.48 -243.2,-68.48 -12.46,0 -24.98,0.51 -37.39,1.48 -247.43,19.72 -431.37,226.4 -410.72,461.85 16.08,183.38 151.26,329.84 327.18,376.55 -61.67,34.35 -113.79,54.31 -125.58,54.31 1.96,1.21 4.52,2.7 7.27,4.52l2.42 1.21c2.42,1.54 5.22,3.12 8.11,4.71l2.33 1.26 12.63 6.29 2.33 0.93c5.39,2.62 10.98,5.05 16.6,7.12 10.72,4.47 22.89,8.53 36.13,12.31 1.91,0.56 3.87,0.98 5.45,1.45 5.36,1.35 10.81,2.61 16.5,3.96l5.73 1.12c7.04,1.21 14.54,2.52 22,3.4 0.65,0 1.26,0.37 1.86,0.37l0 53.28c-2.8,0.61 -5.31,0.93 -7.92,1.3 -80.5,13.19 -132.8,37.94 -156.44,109.68 -23.49,71.93 0.7,97.98 38.36,148.42 -31.84,56.92 -115.28,78.22 -6.39,203.94 -7.92,47.5 2.1,123.15 71.23,146.09 22.52,7.65 41.35,11.7 61.16,15.15l-0.09 942.77c-68.94,36.5 -102.92,82.13 -121.76,124.55 0,0 -55.33,-122.83 -51.6,120.54 62.88,-48.81 38.08,56.5 38.08,56.5 -85.63,110.94 23.12,104.93 23.12,104.93 73.74,-73.7 58.69,33.33 58.69,33.33 0,130.61 53.09,181.61 53.47,181.84l0 718.23 -62.6 0.23 0.61 198.16 109.59 -0.19c-61.44,25.54 -101.99,86.24 -96.12,153.27 7.46,84.51 85.54,147.44 174.52,140.59 88.89,-7.13 154.95,-81.3 147.35,-166.04 -5.03,-58.5 -43.77,-106.23 -96.49,-128.19l101.06 -0.28 -0.42 -198.25 -60.27 0.33 0.09 -637.21c12.45,6.81 25.87,11.51 40.46,14.68 5.83,1.07 11.61,1.86 17.48,2.28 2.61,0.37 5.27,0.37 7.92,0.51 -16.27,-83.81 33.84,-139.28 33.84,-139.28 25.68,-38.69 62.93,-68.9 105.16,-90.2 126.46,-63.35 299.07,-47.41 350.63,55.89 326.86,-86.14 607.71,-414.68 607.71,-414.68l160.86 273.81c-341.07,114.02 -1084.1,759.95 -568.32,983.65 -0.19,65.07 -8.9,548.41 -318.79,510 -446.28,-55.05 -557.6,129.59 -471.92,337.16 -40.27,175.08 94.53,235.87 94.53,235.87 -20.28,-101.11 28.34,-184.87 212.75,-183.8 -0.93,184.45 118.21,217.69 118.21,217.69 0.84,-157.93 110.61,-216.43 208.08,-215.96 -0.75,130.1 150.52,179.6 150.52,179.6 0,0 -38.32,-150 132.57,-179.6 432.72,-75.42 26.29,-520.44 684.34,-643.09 0,0 -327.6,-49.46 -327.6,-228.5 0,-163.01 296.56,-274.56 398.69,-274.56 209.44,400.13 437.01,403.3 496.58,406.15 92.67,103.62 61.62,452.81 -72.3,445.91 -490.1,-26.29 -472.2,271.85 -417.24,332.82 -6.29,115.74 83.81,182.59 83.81,182.59 0,-124.04 117.98,-158.95 269.34,-150.75 -7.92,151.59 88.57,174.2 88.57,174.2 2.66,-152.47 115.51,-178.39 195.64,-174.2 -5.87,106.89 100.17,138.44 100.17,138.44 0,0 -10.49,-135.65 132.38,-135.65 270.92,-0.19 -122.55,-580.76 406.15,-1154.96 -464.41,215.03 -711.52,-322.38 -711.52,-425.54 238.71,279.31 1012.74,335.11 1012.74,-142.08 0,-455.84 -501.01,-625.7 -266.68,-800.08 136.35,-101.39 404.47,103.44 251.11,314.97 219.97,-81.48 342.57,-294.51 275.16,-472.95l0.46 -0.14zm-2968.75 14.36c-175.08,102.92 -292.5,233.16 -452.11,290.17 -24.24,8.58 -43.58,10.91 -60.37,9.84l0 -889.77c42.28,3.96 152.05,18.97 280.38,72.02 127.12,69.36 127.12,212.7 -33.28,246.68 101.34,194.1 452.53,99.05 529.11,-59.01 37.48,-3.31 70.62,63.63 101.8,126.88 -49.41,25.59 -150.24,76.45 -365.55,203.19l-0 -0zm1959.84 -1475.05c-19.21,26.2 -38.22,52.11 -54.87,74.44 41.74,69.75 117.05,112.47 198.34,112.47 7.03,0 14.16,-0.34 21.13,-0.96 118.45,-11.29 208.99,-110.82 208.99,-229.85 0,-7.02 -0.34,-14.07 -0.96,-21.03 -0.79,-4.61 -1.35,-8.76 -1.96,-13.24 -13.52,65.59 -90.8,121.15 -189.21,130.15 -74.3,6.95 -141.71,-14.45 -181.47,-51.97l-0 -0.01z"/>
   </g>
   <g>
    <path class="fil1" d="M3377.04 2758.01c0,0.14 -0.33,0.47 -0.33,0.79l-0.09 0c0.12,-0.22 0.31,-0.57 0.42,-0.8l-0 0.01zm8.06 3732.01c0.19,-0.14 0.51,-0.14 0.61,-0.37l-0.05 0c-0.14,0.33 -0.33,0.33 -0.56,0.37l0 -0zm-5.55 -4111.87l0.23 0 -3379.79 0 3379.56 0zm-66.94 4090l109.59 -0.14c-13.08,5.46 -25.4,12.81 -36.46,21.68 10.81,-4.15 22.38,-6.71 34.68,-6.71 54.91,-0.01 99.43,44.52 99.43,99.42 0,54.9 -44.52,99.43 -99.43,99.43 -0.01,0 -0.03,0 -0.04,0 -43.26,0 -81.49,-28.21 -94.22,-69.55l0 9c7.51,84.7 85.44,147.67 174.52,140.35 88.8,-6.9 154.85,-81.25 147.53,-165.85 -5.22,-58.27 -43.86,-106.05 -96.58,-128l101.01 -0.42 -0.47 -198.25 -60.27 0.37 0 -637.31c-50.73,-26.47 -82.57,-79.01 -82.57,-136.25 0,-9.83 0.96,-19.68 2.81,-29.33 37.71,0 71.46,9.79 94.02,25.22 -34.82,76.68 51.79,157.84 51.79,157.84 -16.22,-83.81 33.75,-139.1 33.75,-139.1 25.96,-38.78 63.12,-68.99 105.21,-90.34 126.65,-63.44 299.12,-47.45 350.63,55.8 326.86,-86.05 607.75,-414.68 607.75,-414.68l160.96 273.67c377.29,0 245.89,-282.57 221.32,-307.23 86.75,0 208.92,63.91 208.92,205.38 0,347.51 -1010.13,397.06 -1010.13,818.77 0,177.09 175.59,244.44 175.59,244.44 0,384.52 -264.07,612.93 -444.7,612.93 -288.82,0 -510,-58.5 -510,256.42l100.69 0c-95.65,95.7 -6.39,235.96 -6.39,235.96 -20.18,-101.01 28.57,-184.64 212.98,-183.71l115.09 0c-73.09,73.04 -30.39,183.99 3.22,217.87 0.7,-158.16 110.29,-216.57 207.9,-216.06l83.53 0c-22.7,22.38 13.75,126.37 67.03,179.46 0,0 -38.5,-149.86 132.62,-179.46 432.53,-75.37 26.15,-520.4 684.15,-643.23 0,0 -327.42,-49.32 -327.42,-228.6 0,-162.73 296.42,-274.51 398.36,-274.51 80.41,-11.47 156.95,-8.62 222.4,5.45 26.62,258.38 323.27,245.75 387.83,245.75 251.58,251.62 -63.95,655.53 -63.95,655.53 -386.15,0 -538.95,53.33 -538.95,278.19l73.04 0c-40.97,41.16 -17.76,154.34 10.53,182.54 0,-124.09 118.21,-158.77 269.57,-150.75l79.57 0c-38.78,38.78 -32.02,133.18 9.14,174.15 2.24,-152.52 115.28,-178.44 195.45,-174.15l66.38 0c-24.84,25.03 0,104.6 34.03,138.72 0,0 -10.53,-135.79 132.24,-135.93 270.92,0 -122.73,-580.76 406.38,-1154.96 -464.41,215.12 -711.8,-322.48 -711.8,-425.63 238.76,279.45 1012.88,335.2 1012.88,-141.85 0,-384.94 -357.06,-565.85 -327.46,-717.76 10.5,-117.42 108.93,-207.48 226.85,-207.48 0.03,0 0.08,0 0.11,0 125.79,0.06 227.76,102.11 227.76,227.9 0,0.03 0,0.06 0,0.08 0,0.13 0,0.24 0,0.35 0,92.89 -56.54,176.51 -142.75,211.09 0.19,0 0.19,-0.19 0.19,-0.19 -0.19,0.19 -0.47,0.47 -0.47,0.84 219.79,-81.48 342.52,-294.55 275.49,-472.99 -67.64,-178.58 -299.91,-256.38 -519.23,-173.59 -91.92,34.68 -166.51,92.06 -217.64,160.12 144.69,-413.61 735.15,-501.24 735.15,-886.27 0,-644.95 -916.01,-464.23 -782.74,0.19 0,-6.95 0.42,-13.89 1.21,-20.56 23.35,-262.53 492.62,-316.18 492.62,26.06 0,292.36 -601.04,454.44 -601.04,847.81 0,404 443.9,505.02 443.9,930.18 0,50.62 -26.76,268.64 -321.68,268.64 -284.53,0 -421.34,-159.05 -499.05,-366.67 -144.92,-280.06 -91.74,-717.2 -254.98,-892.01l12.91 -179.79c143.8,88.29 525.25,-118.4 274.7,-433.09 0,154.95 -322.52,146.18 -322.52,-146.14 0,-395.61 369.74,-189.21 387.6,-101.9 -17.76,-143.99 -24.66,-235.73 -0.37,-318.42 -199.65,64.09 -218.06,-51.09 -193.26,-95.79 29.23,-51.65 67.82,-111.78 145.39,-111.78 112.06,0 104.98,41.16 99.05,99.1 42.84,-64.75 55,-113.46 154.57,-210.83l-2.1 -73.14 57.75 21.49 56.17 -90.34c-60.08,-124.79 -141.8,-64.47 -202.21,-219.32 -50.06,-13.1 -708.77,-73.93 -686.02,-386.57 -58.27,0 -216.94,201 -109.68,308.58l-136.75 0.01c-73.14,8.72 -243.79,-42.37 -353.43,181.19 269.76,-269.66 444.79,373.75 -51.97,373.75l-0 -0.19c-73.28,0.19 -136.16,-30.39 -140.45,-82.09 -49.5,217.13 263.46,284.72 263.46,284.72 0,64.51 -156.76,413.79 -232.98,489.91 51.37,51.42 67.26,361.49 -170.14,361.49 85.63,-231.53 -166.13,-427.68 -410.76,-557.45l0.33 -0c-44.28,-16.78 -86.42,-37.29 -125.53,-61.9 -150.14,-68.66 -272.23,-107.26 -272.23,-107.26l0 -181.51c75.51,-37.01 158.3,-102.46 244.35,-211.72 67.17,-81.9 103.39,-187.02 93.55,-298.75 -1.03,-13.18 -2.97,-26.43 -5.68,-39.38 -0.61,-4.06 -1.54,-7.92 -2.38,-11.98 -1.91,-8.89 -4.22,-17.81 -6.83,-26.49 -3.8,-13.19 -8.35,-26.28 -13.34,-39.04 -1.45,-3.59 -2.7,-7.04 -4.2,-10.63 -4.84,-11.04 -10.28,-22.09 -15.99,-32.71 -2.28,-4.52 -5.03,-8.58 -7.41,-12.82 -3.96,-6.43 -7.78,-12.82 -11.93,-19.11 -3.45,-4.94 -6.81,-10.16 -10.53,-15.15 -3.64,-4.8 -7.32,-9.7 -11.19,-14.31 -4.04,-5.38 -8.37,-10.72 -12.81,-15.81 -2.89,-3.36 -5.98,-6.67 -9.12,-9.81 -11.22,-12.14 -23.33,-23.78 -35.94,-34.51 -1.26,-0.98 -2.33,-2.42 -3.59,-3.31 -7.08,-5.96 -14.59,-11.77 -22.15,-17.15 -2,-1.26 -3.87,-2.94 -5.87,-4.38 -7.92,-5.63 -16.22,-11.08 -24.52,-16.25 -0.51,-0.23 -0.98,-0.65 -1.49,-0.89 -73.08,-44.83 -157.28,-68.56 -243.02,-68.56 -12.49,0 -25.1,0.57 -37.53,1.53 -22.14,1.77 -43.68,5.73 -64.7,10.26 -142.5,54.58 -246.12,221.37 -246.12,418.73 0,185.99 92.2,344.57 221.88,407.87 1.77,0.47 3.64,1.16 5.5,1.68 -61.81,34.35 -113.92,54.31 -125.76,54.31 2,1.21 4.66,2.7 7.46,4.61 0.79,0.33 1.49,0.75 2.28,1.16 2.52,1.4 5.08,2.89 8.25,4.57 0.79,0.42 1.45,0.84 2.33,1.12 3.68,1.96 8.02,4.29 12.49,6.48 0.8,0.19 1.57,0.54 2.27,1.01 3.91,1.86 8.2,3.5 12.72,5.41 13.03,5.39 26.55,10.09 40.16,13.9l5.5 1.49c5.17,1.35 10.67,2.61 16.32,3.78 1.91,0.51 3.87,0.84 5.87,1.26 7.09,1.3 14.4,2.61 22.05,3.54 0.06,-0.01 0.1,-0.01 0.15,-0.01 0.55,0 1.09,0.16 1.55,0.47 47.17,3.87 102.97,-7.83 102.97,-7.83l0 105.3c-8.48,0 -82.55,-23.91 -102.97,-44.24 -2.52,0.37 -5.22,0.89 -7.92,1.35 -80.32,13.15 -132.66,37.85 -156.25,109.64 -23.54,71.93 0.65,97.94 38.27,148.42 -32.07,56.73 -115.28,78.12 -6.57,203.94 -7.74,47.41 2.19,123.2 71.23,146.18 22.56,7.65 41.44,11.51 61.16,15.01 40.93,0 102.97,34.12 102.97,119.1l0 810.24c37.24,2.14 77.71,7.18 114.44,10.4l-0 -889.95c42.33,4.06 152.15,19.11 280.29,71.97 1.34,0.71 2.65,1.53 3.87,2.43 -0.09,-0.09 -0.23,-0.09 -0.23,-0.23 11.7,1.45 23.59,4.01 35.38,7.51 85.35,26.2 138.49,100.26 118.49,165.9 -19.9,65.4 -105.58,97.33 -190.74,71.13 101.15,194.24 452.53,99.19 529.11,-58.87 37.29,-3.31 70.48,63.63 101.71,126.79 0,0 88.01,33.75 305.88,33.75 0,0 -882.36,563.33 -1137.47,563.33 -109.03,0 -350.86,0 -350.86,82.46 -66.47,0 -162.22,112.95 -162.22,177.55 62.84,-49.08 113.97,-49.08 113.97,-49.08 53.56,0 83.72,16.03 83.72,16.03 -19.62,19.39 -107.68,118.82 -107.68,195.87 73.74,-73.84 105.91,-73.51 105.91,-73.51 0,0 77.01,-9.97 104.46,17.71 -18.51,18.46 -51.04,85.21 -51.04,164.17 0,0 45.73,-88.29 102.92,-88.29l0 846.93c0,25.92 -116.86,50.72 -165.01,50.72l0.7 106.89zm35.94 -2562.32c-21.82,0.84 -32.07,-27.46 -32.26,-37.71 -0.51,-10.35 7.65,-39.16 29.32,-39.95 51.7,-1.77 155.09,23.03 155.46,33.19 0.42,10.07 -100.87,42.56 -152.52,44.47zm-33.33 -139.8c-30.02,-2.1 -39.85,-42.65 -38.83,-56.92 0.93,-13.94 16.64,-52.67 46.66,-50.44 71.51,5.31 210.23,55.24 209.02,69.27 -0.89,14.31 -145.44,43.35 -216.85,38.08zm-12.31 -179.09c-31.74,-8.39 -34.31,-53.79 -30.53,-68.85 4.01,-14.96 28.53,-53.28 60.41,-44.98 75.65,19.81 214.61,101.15 210.74,116.07 -3.91,14.96 -164.92,17.57 -240.62,-2.24l0 0zm234.33 -504.64c13.15,-31.37 10.35,-74.16 2.19,-114.44l-4.06 0.09c-0,0 -0.04,0 -0.04,0 -90.95,0 -164.71,-73.75 -164.73,-164.69 -0.26,-2.97 -0.4,-5.97 -0.4,-8.95 0,-12.12 2.19,-24.17 6.45,-35.52l0.1 0c0,-0.33 0.19,-0.65 0.33,-0.75 20.14,-70.69 84.78,-119.55 158.31,-119.61 90.97,0.08 164.68,73.89 164.68,164.87 0,0 0,0 0,0 0,104.98 -73.93,201.65 -162.82,278.98l-0 0z"/>
   </g>
   <g>
    <path class="fil4" d="M6009.62 3226.16c41.52,69.68 116.69,112.41 197.82,112.41 7.17,0 14.39,-0.37 21.51,-1.01 118.43,-11.14 208.97,-110.6 208.97,-229.58 0,-7.12 -0.34,-14.27 -0.98,-21.34 -0.47,-4.47 -1.3,-8.81 -1.86,-13.28 -13.47,65.49 -91.08,121.2 -189.25,130.24 -74.68,6.99 -141.89,-14.4 -181.61,-51.88 -19.07,26.24 -38.27,52.16 -54.58,74.44l-0 0zm0 0l0 0 0 0z"/>
   </g>
   <g>
    <path class="fil2" d="M5701.96 2798.94l79.57 4.2 -39.81 54.58c0,0.05 -53.14,16.83 -39.76,-58.78l0 0zm-189.77 0l114.62 0c0,0 -4.15,92.44 79.57,100.78l-17.81 29.46c0,0 -224.91,-58.78 -176.39,-130.24z"/>
   </g>
   <g>
    <path class="fil5" d="M3543.55 3589.23c3.96,-14.92 -135.04,-96.26 -210.74,-116.07 -31.93,-8.25 -56.4,30.07 -60.37,45.03 -3.87,15.01 -1.26,60.46 30.44,68.85 75.75,19.72 236.8,17.11 240.67,2.19l0 0zm-11.42 138.77c1.16,-14.08 -137.51,-63.95 -209.02,-69.27 -30.02,-2.24 -45.73,36.5 -46.66,50.44 -0.98,14.31 8.81,54.77 38.88,56.92 71.37,5.22 215.92,-23.77 216.8,-38.08zm-157.46 -418.5l0 53.19c20.37,20.42 94.49,44.24 102.92,44.24l0 -105.3c0.05,0.05 -55.7,11.75 -102.92,7.88l0 0zm-28.99 518.63c-21.72,0.89 -29.88,29.65 -29.32,39.95 0.19,10.26 10.58,38.5 32.26,37.71 51.6,-1.86 152.89,-34.35 152.47,-44.52 -0.37,-10.12 -103.76,-34.96 -155.41,-33.14l0 0zm-106.42 1403.36c-85.54,110.8 -23.96,211.91 -23.96,211.91 0,-77.1 88.05,-176.43 107.73,-195.83 -0.05,-0.05 -30.21,-16.08 -83.76,-16.08l-0 0zm272.83 235.12c-1.87,9.64 -2.83,19.52 -2.83,29.36 0,73.07 51.42,136.08 123.01,150.71 6.11,1.4 11.84,2.14 17.81,2.84l7.83 0.23c0,0 -86.61,-81.06 -51.79,-157.79 -22.61,-15.57 -56.31,-25.36 -94.02,-25.36l-0.01 0zm-156.53 -2261.85c-129.63,-63.26 -221.88,-221.88 -221.88,-407.87 0,-197.36 103.67,-364.15 246.12,-418.73 -213.87,47.45 -364.75,237.45 -345.88,451.69 15.99,181.56 148.6,326.67 321.64,374.92zm1376.79 -455.19c137.65,-25.92 184.31,96.44 184.31,140.31 0,165.9 -129.17,232.7 -236.29,233.35l0 0.09c496.86,-0.05 321.78,-643.41 51.97,-373.75zm-332.08 1427.74c237.45,0 221.46,-310.12 170.14,-361.58 76.17,-76.12 232.98,-425.4 232.98,-489.91 0,0 -313.43,-67.59 -263.32,-285.04 -0.09,-0.14 -0.09,-0.23 -0.09,-0.42l-4.2 -0.75c-85.44,90.11 -33.47,278.05 101.99,324.95 0,0 -52.25,206.64 -181.38,337.72 -128.52,-4.99 -308.68,-21.91 -466.88,-82.46 244.58,129.82 496.39,326.02 410.76,557.5l0 -0zm-927.52 -1489.04c61.34,-4.9 115.46,38.64 120.68,97.28 5.03,58.36 -40.65,109.96 -102.13,114.86 -61.62,4.94 -115.74,-38.6 -120.68,-97.19 0.04,90.93 73.81,164.64 164.74,164.64 0,0 0.04,0 0.04,0l4.1 -0.09c8.16,40.27 10.96,83.11 -2.19,114.44 88.89,-77.29 162.82,-173.96 162.82,-279.03 4.01,-14.4 6.07,-29.31 6.07,-44.27 0,-90.96 -73.77,-164.73 -164.73,-164.73 -90.88,0 -164.63,73.65 -164.73,164.53 14.36,-38.08 50.76,-66.75 96.02,-70.43l-0 0zm1977.18 -4.94c-107.44,-107.54 51.27,-308.58 109.64,-308.58 -63.81,0 -340.28,181 -246.4,308.58l136.77 0zm-1610.79 1672.32c85.16,26.2 170.84,-5.73 190.74,-71.13 20,-65.59 -33.19,-139.61 -118.49,-165.9 -11.54,-3.42 -23.43,-5.97 -35.38,-7.51 123.2,70.29 121.76,211.21 -36.87,244.54l0 0zm-174.8 -1142.04c0,0 122.08,38.64 272.23,107.26 -29.98,-18.37 -58.09,-39.79 -83.86,-63.67 -76.21,-72.02 -136.86,-111.31 -188.37,-131.27l0 87.68 -0 -0zm318.51 1677.22c255.21,0 1137.52,-563.33 1137.52,-563.33 -217.97,0 -305.93,-33.75 -305.93,-33.75 -49.22,25.68 -150.19,76.35 -365.36,203.05 -175.13,103.06 -292.5,233.4 -452.15,290.31 -24.29,8.81 -43.68,10.86 -60.32,9.97 -36.73,-3.12 -77.19,-8.2 -114.44,-10.4l0 -810.15c0,-84.98 -62.04,-119.15 -102.92,-119.15l0 942.86c-68.99,36.59 -102.97,82.09 -121.62,124.55 0,0 -131.54,-17.53 -127.82,226.03 0,-64.65 95.84,-177.6 162.22,-177.6 -0.05,-82.41 241.79,-82.41 350.82,-82.41l0 0zm2200.92 1304.35c-64.65,0 -361.26,12.59 -387.83,-245.75 -65.49,-14.12 -142.13,-16.87 -222.4,-5.45 209.67,400.13 437.29,403.3 496.81,406.43 92.62,103.39 61.58,452.48 -72.3,445.54 -490.19,-26.2 -472.2,272.13 -417.2,333.1 0,-224.82 152.75,-278.15 538.95,-278.15 -0.05,-0.19 315.53,-404.1 63.95,-655.72l0 -0zm100.78 965.47l-66.38 0c-5.59,107.17 100.41,138.72 100.41,138.72 -34.03,-34.08 -58.87,-113.65 -34.03,-138.72zm-620.29 150.84c-28.15,-28.25 -51.46,-141.43 -10.53,-182.63l-73 0c-6.11,115.93 83.53,182.63 83.53,182.63zm1463.17 -3722.87c0,-342.29 -469.45,-288.45 -492.62,-25.68 20.7,-192.66 334.36,-221.09 334.36,20.23 0,249.43 -584.96,412.72 -584.96,834.2 0,464.46 464.37,507.44 417.38,932 -7.92,73.51 -86.61,169.58 -200.72,169.58 -244.49,0 -375.34,-103.81 -451.36,-250.41 77.71,207.57 214.52,366.67 499.1,366.67 294.93,0 321.68,-217.97 321.68,-268.59 0,-425.12 -444,-526.23 -444,-930.23 0.14,-393.33 601.13,-555.4 601.13,-847.77l0 0zm-3461.74 1651.49c0,131.08 53.42,181.84 53.42,181.84 0,-78.96 32.49,-145.81 51.04,-164.17 -27.41,-27.59 -104.46,-17.67 -104.46,-17.67zm3392.19 -724.47c-0.06,0 -0.15,0 -0.2,0 -117.9,0 -216.37,90.04 -226.82,207.47 5.41,-27.92 24.1,-55.05 60.37,-82.23 136.58,-101.48 404.1,102.92 251.53,314.13 86.23,-34.6 142.74,-118.25 142.74,-211.16 0,-0.08 0,-0.19 0,-0.28 0,-0.03 0,-0.11 0,-0.14 0,-125.74 -101.87,-227.72 -227.61,-227.8l-0.01 0zm-1388.86 2774.79l-79.57 0c-8.2,151.4 88.71,174.15 88.71,174.15 -41.07,-40.93 -47.97,-135.37 -9.14,-174.15zm-2248.61 -807.45c-12.35,0 -23.82,2.56 -34.73,6.76 -37.48,27.98 -59.57,72.01 -59.57,118.8 0,1.25 0.04,2.57 0.05,3.8 12.74,41.3 50.96,69.5 94.19,69.5 0.01,0 0.04,0 0.05,0 54.91,-0 99.43,-44.53 99.43,-99.43 0,-54.9 -44.52,-99.43 -99.43,-99.43l-0 0zm559.18 934.05l-115.04 0c-0.98,184.4 118.31,217.87 118.31,217.87 -33.7,-33.89 -76.35,-144.83 -3.26,-217.87l-0 0zm356.78 -1166.14c0,-421.76 1010.13,-471.27 1010.13,-818.77 0,-141.47 -122.13,-205.38 -208.92,-205.38 24.52,24.61 155.97,307.23 -221.32,307.23 -341.17,114.11 -1084.15,759.99 -568.41,983.79 -0.23,64.98 -8.95,548.23 -318.7,510.24 -446.19,-55.28 -557.5,129.17 -471.87,336.83 0,-314.97 221.18,-256.42 510,-256.42 180.63,0 444.7,-228.36 444.7,-612.97 -0.05,-0.09 -175.59,-67.4 -175.59,-244.54l0 0zm-858.72 59.67l0 -846.98c-57.24,0 -102.92,88.33 -102.92,88.33l0 722.56 0 -4.66 -62.56 0.19 0.51 91.27c48.11,-0.05 164.97,-24.89 164.97,-50.72zm173.87 1091.33c0,0 -89.31,-140.31 6.39,-235.96l-100.69 0c-40.46,175.22 94.3,235.96 94.3,235.96zm622.71 -181.89l-83.53 0c-0.65,130.19 150.56,179.51 150.56,179.51 -53.23,-53.09 -89.73,-157.14 -67.03,-179.51l-0 0z"/>
   </g>
   <g>
    <path class="fil2" d="M1465.36 5813.93l-5.55 -17.11 -2.38 -17.76c-8.16,-60.92 -22.89,-174.38 -110.48,-194.71 -23.4,-5.41 -47.59,-2.66 -73.46,7.97 7.04,-26.94 6.25,-51.37 -2.24,-73.7 -32.26,-84 -146.6,-82.88 -208.04,-82.13l-18.04 0 -17.81 -3.26c-60.32,-11.09 -172.84,-32.07 -219.04,44.94 -12.45,20.56 -17.34,44.42 -15.24,72.2 -23.35,-15.06 -46.94,-21.86 -70.71,-20.65 -89.97,4.8 -124.27,113.79 -142.69,172.57l-5.64 16.97 -8.34 15.9c-29.46,54.07 -84.09,154.39 -25.08,222.3 15.76,18.18 36.96,30.3 64.05,36.73 -21.4,17.71 -35.24,37.9 -41.25,61.16 -23.49,86.7 69.74,153.03 119.61,188.65l14.64 10.72 12.63 12.72c42.28,44.8 120.92,127.54 203.66,92.48 21.96,-9.42 40.04,-25.78 54.58,-49.5 10.4,25.87 25.27,45.08 45.36,58.27 75.33,48.85 167.16,-19.21 216.57,-55.52l14.59 -10.67 16.22 -7.97c55.47,-26.52 158.77,-75.61 150.98,-165.2 -2.05,-24.1 -12.12,-46.06 -30.11,-67.17 27.74,-1.63 50.53,-10.07 69.13,-25.13 70.06,-56.5 33.65,-164.83 14.08,-223.09l0 0zm0 0l0 0 0 0z"/>
   </g>
   <g>
    <path class="fil4" d="M1071.56 5886.55c502.92,297.26 348.07,-29.69 336.97,-78.03 -11.14,-48.11 -15.38,-409.69 -336.97,78.03l0 0zm-31.6 74.4c-127.21,569.95 135.74,321.82 178.16,296.51 42.37,-25.5 384.94,-141.29 -178.16,-296.51l0 0zm-80.74 -6.94c-581.65,54.96 -264.21,228.45 -226.87,260.94 37.38,32.3 253.21,322.43 226.87,-260.94l0 0zm-18.27 -79.1c-232.09,-536.06 -299.08,-180.58 -318.42,-134.99 -19.3,45.31 -228.55,340.47 318.42,134.99z"/>
   </g>
   <g>
    <path class="fil2" d="M9247.89 5735.15l-8.34 -15.9 -5.64 -17.01c-18.46,-58.78 -52.81,-167.86 -142.41,-172.57 -24.1,-1.12 -47.59,5.55 -70.9,20.42 2.14,-27.59 -2.98,-51.42 -15.15,-71.97 -46.38,-77.05 -158.72,-56.08 -219.09,-44.98l-17.99 3.26 -17.99 -0c-61.16,-0.84 -175.59,-1.86 -207.76,82.13 -8.76,22.33 -9.42,46.8 -2.56,73.7 -25.45,-10.58 -49.64,-13.33 -73.23,-7.92 -87.49,20.23 -102.5,133.73 -110.24,194.66l-2.75 17.76 -5.41 17.11c-19.67,58.27 -55.94,166.6 14.03,223.24 18.55,15.01 41.3,23.4 69.13,25.08 -18.04,21.12 -28.11,43.21 -30.11,67.22 -7.74,89.59 95.42,138.63 150.98,165.15l16.08 7.97 14.54 10.67c49.5,36.36 141.43,104.32 216.57,55.52 20.37,-13.24 35.1,-32.4 45.4,-58.31 14.59,23.73 32.54,40 54.72,49.5 82.65,35.05 161.42,-47.69 203.66,-92.44l12.63 -12.72 14.5 -10.77c50.02,-35.57 143.15,-101.94 119.8,-188.6 -6.29,-23.21 -19.81,-43.54 -41.39,-61.16 26.94,-6.43 48.25,-18.55 63.91,-36.73 59.15,-67.96 4.61,-168.23 -24.98,-222.3l0 -0zm0 0l0 0 0 0z"/>
   </g>
   <g>
    <path class="fil4" d="M8803.29 5833.32c-437.94,-386.34 -79.34,-340.24 -30.07,-344.62 49.08,-4.1 394.45,-111.92 30.07,344.62l0 0zm-60.97 53.23c-502.87,297.26 -348.39,-29.69 -337.02,-78.03 11,-48.11 15.15,-409.69 337.02,78.03l0 0zm31.51 74.4c127.3,569.95 -135.69,321.82 -178.21,296.51 -42.37,-25.5 -384.75,-141.29 178.21,-296.51l0 0zm80.64 -6.94c581.6,54.96 264.39,228.45 226.92,260.94 -37.1,32.3 -253.25,322.43 -226.92,-260.94l0 0zm18.09 -79.1c232.18,-536.06 299.08,-180.58 318.47,-134.99 19.25,45.31 228.5,340.47 -318.47,134.99z"/>
   </g>
   <g>
    <path class="fil2" d="M8985.55 5891.64c-0.56,-4.71 -2.05,-8.76 -2.7,-13.33 46.71,-34.26 97.14,-70.99 97.14,-70.99l-4.85 -10.86 -115.28 20.18c-28.4,-46.98 -77.31,-77.88 -131.92,-83.31 -11.61,-32.13 -25.04,-72.43 -35.12,-106.01l-11.84 0.98c0,0 -7.92,56.03 -15.99,110.94 -34.25,8.69 -64.88,28.24 -87.7,55.36 -11.97,14.78 -21.57,31.38 -28.34,49.16 -56.92,0 -117,0.23 -117,0.23l-2.52 11.75c0,0 55.98,27.27 107.77,52.63 0.19,4.75 -0.47,9.37 0,14.12 3.87,45.1 25.33,86.9 59.67,116.36l-38.6 120.36 10.02 6.01c0,0 47.22,-48.85 89.22,-91.97 21.96,7.13 45.31,10.02 68.94,7.92 23.77,-1.82 46.33,-8.9 66.84,-19.58 48.71,35.05 103.67,74.77 103.67,74.77l8.95 -7.78c0,0 -31.19,-58.87 -58.92,-111.55 25.32,-31.13 39.2,-70.15 39.2,-110.31 0,-5.01 -0.23,-10.09 -0.66,-15.09l0.01 0.01zm0 0l0 0 0 0z"/>
   </g>
   <g>
    <path class="fil4" d="M8802.4 5804.14c-27.36,2.09 -52.72,15.27 -70.15,36.45 -15.6,18.58 -24.16,42.12 -24.16,66.39 0,57.04 46.26,103.3 103.3,103.3 57.04,0 103.3,-46.26 103.3,-103.3 0,-3.04 -0.14,-6.08 -0.4,-9.11 -4.59,-53.25 -49.18,-94.15 -102.63,-94.15 -3.08,0 -6.18,0.15 -9.24,0.41l0.01 0zm-7791.95 29.18c438.03,-386.34 79.29,-340.24 30.11,-344.62 -49.27,-4.1 -394.59,-111.92 -30.11,344.62z"/>
   </g>
   <g>
    <path class="fil2" d="M1176.3 5908.14c52.11,-25.31 107.86,-52.67 107.86,-52.67l-2.66 -11.7c0,0 -59.95,-0.23 -116.95,-0.23 -6.71,-17.78 -16.29,-34.41 -28.25,-49.17 -22.82,-27.16 -53.46,-46.7 -87.72,-55.9l-15.8 -110.94 -12.03 -0.98c0,0 -17.43,53.7 -34.73,106.56 -54.72,5.34 -103.82,36.22 -132.3,83.25l-115.42 -20.14 -4.61 10.86c0,0 50.34,36.73 97,70.99 -0.75,4.61 -2.1,8.76 -2.61,13.28 -0.43,4.96 -0.64,9.97 -0.64,14.95 0,40.23 13.95,79.24 39.42,110.34 -28.02,52.67 -59.15,111.55 -59.15,111.55l9.18 7.74c0,0 54.87,-39.76 103.53,-74.77 20.42,10.67 42.98,17.57 66.75,19.58 5.07,0.44 10.16,0.69 15.24,0.69 18.23,0 36.42,-2.92 53.72,-8.65l89.03 92.02 10.4 -6.06 -38.78 -120.12c34.22,-29.62 55.66,-71.45 59.66,-116.53 0.61,-4.57 -0.14,-9.18 -0.14,-13.94l-0.01 -0.01zm0 0l0 0 0 0z"/>
   </g>
   <g>
    <path class="fil4" d="M1081.54 5840.59c-17.41,-21.23 -42.81,-34.41 -70.2,-36.45 -3.03,-0.27 -6.08,-0.41 -9.11,-0.41 -53.46,0 -98.08,40.9 -102.72,94.15 -2.33,27.69 6.2,54.17 23.77,75.47 19.65,23.23 48.58,36.65 79.01,36.65 53.54,0 98.25,-40.86 103.07,-94.17 0.24,-2.9 0.37,-5.84 0.37,-8.75 0,-24.31 -8.58,-47.87 -24.19,-66.49l0 0zm0 0l0 0 0 0z"/>
   </g>
   <g>
    <path class="fil2" d="M1074.5 3402.96c-244.82,-43.26 -479.28,121.1 -522.54,365.97 -43.21,245 120.96,479.42 365.83,522.63 245.05,43.26 479.61,-121.06 522.73,-366.01 43.35,-244.86 -120.92,-479.28 -366.01,-522.59l-0 0zm0 0l0 0 0 0z"/>
   </g>
   <g>
    <path class="fil4" d="M1176.63 3744.18c-6.46,-4.06 -12.87,-8.33 -19.17,-12.51 -37.01,-24.52 -109.59,-72.49 -111.59,-73.93 -10.02,-6.9 -19.81,-13.47 -29.46,-19.95 -28.58,-19.39 -58.55,-38.44 -88.31,-56.1 -9.87,-5.68 -20.31,-11.35 -30.59,-16.5 -43.12,-21.77 -84.46,-34.91 -133.22,-39.2 -37.79,27.37 -70.55,61.16 -96.71,99.73 112.15,40.46 221.7,105.39 449.73,247.01 13.1,-30.02 56.73,-122.92 59.34,-128.56l-0.01 0.01zm-105.16 241.83c4.61,-11.37 24.61,-62.09 32.82,-81.62 -233.72,-145.16 -342.24,-209.39 -454.63,-249.15 -17.63,31.9 -30.83,66.32 -38.99,101.85 64.14,88.1 236.1,174.62 460.83,228.92l-0.02 0zm-25.31 -368.9c87.49,-51.74 186.97,-37.66 263.7,-11.47 -28.6,-37.34 -63.79,-69.34 -103.58,-94.36 -72.53,-14.5 -172.61,-16.69 -252.32,46.66 28.99,16.97 58.92,36.83 92.2,59.15l0.01 0.02zm0 0l0 0 0 0z"/>
   </g>
   <g>
    <path class="fil4" d="M697.02 4035.19c11.7,8.02 23.73,15.66 36.4,22.84 25.82,14.22 53.65,26.52 82.55,37.06 12.21,4.71 24.61,8.9 37.15,12.96 43.77,14.45 144.46,40.55 151.91,42.28l53.51 -132.52c-174.24,-43.21 -365.03,-118.86 -455.65,-217.18 -1.94,15.99 -2.99,32.22 -2.99,48.34 0,28.43 3.11,56.85 9.24,84.61 19.16,41.72 49.83,74.91 87.87,101.62l0 -0.01zm313.9 151.59l-36.36 -9.32c-35.73,-8.81 -72.1,-19 -107.3,-29.47 18.13,38.64 46.61,68.76 77.01,92.06 17.18,2.13 34.71,3.34 52.19,3.34 22.5,0 45.05,-1.93 67.22,-5.75 -27.83,-21.77 -52.77,-50.86 -52.77,-50.86l0.01 -0.01zm364.43 -454.58c-8.13,-26.95 -19.19,-53.05 -32.81,-77.69 -68.76,-30.58 -173.31,-60.55 -264.67,-15.85l125.95 83.21c26.29,-2.33 50.48,-3.08 72.62,-2.52 12.07,0.19 23.31,0.84 33.98,1.91 24.75,2.19 45.77,6.15 64.93,10.96l-0.01 -0.02zm-64.51 23.07c-3.68,207.11 -101.34,366.85 -185.48,466.84 131.68,-45.77 235.54,-159.28 261.46,-305.88 3.85,-22.4 5.84,-45.17 5.84,-67.9 0,-26.27 -2.67,-52.64 -7.82,-78.39 -24.03,-7.34 -48.95,-12.32 -74,-14.67l0 0zm-388.34 -214.94c58.97,-51.97 128.61,-69.55 192.89,-70.99 -16.34,-5.34 -33.28,-9.67 -50.26,-12.65 -22.58,-3.98 -45.64,-6 -68.64,-6 -65.89,0 -130.81,16.56 -188.66,48.08 40.51,7.97 77.15,22.19 114.67,41.58l0.01 -0.01zm0 0l0 0 0 0z"/>
   </g>
   <g>
    <path class="fil4" d="M1208.7 3755.46c-29.97,62.42 -47.59,100.64 -62.23,135.41 -4.52,10.53 -8.86,20.74 -13.28,31.42 -6.99,17.43 -28.53,71.65 -28.53,71.65l-12.77 31.88 -55.66 137.79c15.38,20.42 33.98,37.01 52.25,49.92 82.65,-94.25 185.57,-252.79 188.69,-460.27 -20.88,-0.75 -43.77,0.05 -68.48,2.19l0 0zm-383.26 378.69c-27.76,-9.4 -55.17,-20.54 -81.6,-33.18 9.79,30.16 23.87,57.05 37.99,79.99 29.69,19.07 62.28,34.03 97.05,44.75 -22.47,-25.31 -41.91,-55.38 -53.42,-91.55l-0.02 -0zm-122.46 -55.47c-18.47,-11.01 -36.13,-23.71 -52.51,-37.65 18.32,32.79 41.43,62.88 68.23,89.24 -6.63,-16.69 -11.93,-34.03 -15.7,-51.57l-0.01 -0.02zm0 0l0 0 0 0z"/>
   </g>
   <g>
    <path class="fil2" d="M8324.33 3925.55c43.3,244.95 277.63,409.22 522.54,366.01 245,-43.21 409.08,-277.68 366.11,-522.63 -43.26,-244.82 -277.68,-409.13 -522.68,-365.97 -245,43.3 -409.18,277.73 -365.97,522.59l0 -0zm0 0l0 0 0 0z"/>
   </g>
   <g>
    <path class="fil4" d="M8588.16 3744.18l19.34 -12.49c41.23,-29.18 98.02,-66.09 140.61,-94.48 29.04,-19.11 58.67,-38.03 88.67,-55.53 10.49,-5.92 20.65,-11.51 30.63,-16.5 43.02,-21.77 84.51,-34.91 133.22,-39.2 37.73,27.24 70.43,61.04 96.39,99.73 -112.06,40.46 -221.28,105.39 -449.64,247.01 -13.05,-30.02 -56.5,-122.92 -59.2,-128.56l-0.02 0.02zm105.21 241.83c-4.66,-11.37 -24.8,-62.09 -32.54,-81.62 233.26,-145.16 342.1,-209.39 454.44,-249.15 17.34,31.33 30.49,65.45 39.06,101.85 -64.28,88.1 -236.29,174.62 -460.97,228.92l0 0zm25.31 -368.9c-87.59,-51.74 -186.97,-37.66 -263.74,-11.47 28.74,-37.3 63.92,-69.33 103.82,-94.37 72.44,-14.5 172.43,-16.69 252.04,46.66 -31.05,18.62 -62.31,38.62 -92.19,59.07l0.08 0.1zm0 0l0 0 0 0z"/>
   </g>
   <g>
    <path class="fil4" d="M9067.63 4035.19c-11.64,8.22 -23.85,15.92 -36.3,22.86 -25.68,14.22 -53.47,26.52 -82.32,37.06 -12.35,4.71 -24.84,8.9 -37.34,12.96 -43.63,14.45 -144.32,40.55 -151.87,42.28 -1.72,-3.87 -39.58,-97.1 -53.51,-132.52 174.15,-43.21 364.8,-118.86 455.75,-217.18 1.88,15.71 2.85,31.74 2.85,47.63 0,28.67 -3.11,57.33 -9.23,85.32 -19.11,41.72 -49.74,74.91 -88.01,101.62l-0.01 -0.02zm-313.62 151.59l36.08 -9.32c35.93,-8.87 72.27,-18.88 107.75,-29.47 -18.46,38.64 -46.8,68.76 -77.1,92.06 -17.24,2.14 -34.78,3.34 -52.23,3.34 -22.51,0 -45.02,-1.93 -67.19,-5.74 27.59,-21.77 52.67,-50.86 52.67,-50.86l0.02 -0.02zm-364.48 -454.58c8.06,-26.97 19.22,-53.12 32.99,-77.69 68.52,-30.58 172.89,-60.55 264.3,-15.85l-125.86 83.21c-19.28,-1.76 -38.99,-2.69 -58.47,-2.69 -4.69,0 -9.54,0.08 -14.16,0.16 -11.37,0.16 -22.84,0.86 -34.12,1.92 -21.79,1.92 -43.49,5.6 -64.67,10.95l-0.02 0zm64.52 23.07c3.59,207.11 101.53,366.85 185.66,466.84 -132.06,-45.77 -236.01,-159.28 -261.64,-305.88 -3.91,-22.28 -5.92,-45.09 -5.92,-67.75 0,-26.34 2.72,-52.78 7.97,-78.54 24.06,-7.36 48.91,-12.31 73.94,-14.65l-0.01 -0.01zm388.43 -214.94c-59.01,-51.97 -128.84,-69.55 -192.98,-70.99 16.42,-5.43 33.27,-9.66 50.29,-12.63 22.61,-4 45.64,-6.02 68.62,-6.02 65.87,0 130.74,16.59 188.53,48.08 -40.37,7.97 -77.05,22.19 -114.48,41.58l0.02 -0.01zm0 0l0 0 0 0z"/>
   </g>
   <g>
    <path class="fil4" d="M8556.23 3755.46c21.63,44.39 42.82,90.38 62.66,135.48l12.87 31.42c7.09,17.43 28.62,71.65 28.62,71.65l12.68 31.88 55.75 137.79c-14.89,19.12 -32.52,36 -52.36,49.87 -82.65,-94.25 -185.71,-252.79 -188.65,-460.27 20.79,-0.75 43.77,0.05 68.43,2.19l0 -0zm383.21 378.69c27.76,-9.4 55.2,-20.57 81.66,-33.18 -9.49,27.99 -22.37,54.9 -38.15,79.96 -30.07,19.2 -62.75,34.33 -96.88,44.77 22.42,-25.31 41.86,-55.38 53.37,-91.55l0 -0.01zm122.55 -55.47c18.37,-11.11 36.02,-23.84 52.45,-37.69 -18.4,32.82 -41.41,63.02 -68.28,89.31 6.54,-16.74 11.88,-34.11 15.83,-51.61l-0 -0.01zm0 0l0 0 0 0z"/>
   </g>
  </g>
 </g>
</svg>
