<svg width="24" height="24" viewBox="0 0 24 24" fill="currentColor" xmlns="http://www.w3.org/2000/svg">
<path d="M12.0626 0.00026385C11.9639 -0.000380676 11.8652 0.00015562 11.7665 0.00187276C11.4042 0.00938129 11.0418 0.0343204 10.6815 0.0739548C10.6994 0.0828578 10.7108 0.0911171 10.7068 0.0974457L9.3575 2.2126L13.3361 4.86402L13.3294 4.87411L17.1313 4.88912L18.3055 2.43887L16.7898 0.975676C15.9355 0.610783 15.0419 0.344813 14.1267 0.182989C13.4457 0.0628529 12.7542 0.00278457 12.0626 0.00026385H12.0626ZM8.61068 2.91985L4.64561 4.89245L3.90202 10.1703L6.66599 11.9754L11.7448 9.64567L12.5456 5.5428L8.61073 2.91985H8.61068ZM19.1803 2.9383L18.0364 5.32494L20.0147 9.22509L23.3557 11.3117L23.9647 10.1703C23.9768 10.1779 23.9889 10.1919 24 10.2105C23.9585 9.94478 23.9079 9.67989 23.8487 9.41768C23.5017 7.88433 22.848 6.41631 21.9377 5.1287C21.4494 4.43834 20.8866 3.7998 20.2638 3.22475L19.1804 2.93825L19.1803 2.9383ZM2.88766 4.17184C2.51589 4.60332 2.174 5.06 1.86818 5.53947C1.02431 6.86226 0.444855 8.35485 0.175855 9.90043C0.0448373 10.6546 -0.013209 11.4196 0.00251447 12.1848L1.09262 12.458L2.8707 10.2859L3.64965 4.75837L2.88766 4.17184ZM19.7221 10.2239L16.7175 12.624L16.5307 18.0458L18.6639 19.1789L22.8191 16.519L23.0563 12.2955L23.0512 12.3039L19.722 10.2239L19.7221 10.2239ZM12.1401 10.5675L7.07807 12.8904L7.01251 17L11.8119 20.0772L15.523 18.123L15.708 12.6659L12.14 10.5675H12.1401ZM0.0698049 13.2357C0.118792 13.6882 0.193081 14.1376 0.293532 14.5816C0.640481 16.1149 1.29589 17.5828 2.2063 18.8704C2.4148 19.1654 2.63804 19.4499 2.87242 19.7252L2.3678 17.1425L2.37447 17.1408L0.919387 13.4485L0.0698049 13.2357ZM6.37831 17.7861L3.60422 18.2235L4.14927 21.0175C4.61085 21.4194 5.10239 21.7858 5.61965 22.1135C6.40802 22.6121 7.25132 23.0187 8.13292 23.3253L11.5042 22.5911L11.2704 20.9218L6.37836 17.7859L6.37831 17.7861ZM22.6592 17.8129L19.2021 20.0253L16.9411 22.5661L17.1784 22.8962C17.8259 22.5989 18.4472 22.2449 19.0306 21.8386C20.3209 20.9397 21.4317 19.7843 22.2756 18.4614C22.4107 18.2497 22.5378 18.0329 22.6591 17.8129L22.6592 17.8129ZM16.0497 23.0504L11.7463 23.5667L10.3484 23.8699C11.8015 24.0845 13.2939 24.0332 14.7257 23.7191C15.2323 23.608 15.7315 23.4622 16.2195 23.2867L16.0496 23.0504L16.0497 23.0504Z"/>
</svg>
