
<svg xmlns="http://www.w3.org/2000/svg" xml:space="preserve" version="1.1" style="shape-rendering:geometricPrecision; text-rendering:geometricPrecision; image-rendering:optimizeQuality; fill-rule:evenodd; clip-rule:evenodd"
viewBox="0 0 211.95 222.56"
 xmlns:xlink="http://www.w3.org/1999/xlink"
 xmlns:xodm="http://www.corel.com/coreldraw/odm/2003">
 <defs>
  <style type="text/css">
   <![CDATA[
    .fil1 {fill:#E6E7E8}
    .fil0 {fill:#727376}
   ]]>
  </style>
 </defs>
 <g id="Layer_x0020_1">
  <metadata id="CorelCorpID_0Corel-Layer"/>
  <path class="fil0" d="M66.18 17.78c1.01,1.55 0.79,1.69 2.26,2.66 -11.13,5.29 -9.02,8.3 -11.63,13.53 -1.06,2.11 -2.13,4.81 -2.59,7.48 -1.58,9.22 0.99,1.17 0.8,5.58 -0.15,3.45 -3.21,16.3 1.45,25.45 -1.51,2.51 0.21,-0.31 -1.35,1.66 -1.41,1.78 -2.45,2.2 -1.94,7.47l4.91 21.6c1.95,3.61 3.37,3.13 5.62,3.91 5.99,2.09 0.94,1.57 4.94,14.87 1.34,4.46 10.36,14.17 4.12,25.78 -2.88,5.36 -27.5,13.73 -33.37,16.32 -3.98,1.75 -7.21,3.09 -11.18,4.74 -6.59,2.74 -9.97,3.22 -10.83,7.02 1.26,0.75 5.87,7.22 7.67,9.27 50.56,57.83 135.82,44.19 169.61,-10.35 -1.35,-3.31 -38.69,-17.7 -45.48,-20.57 -4.83,-2.04 -8.37,-2.99 -10.03,-6.84 -5.49,-12.7 2.66,-19.6 4.42,-25.67 1.3,-4.49 1.71,-9.39 2.12,-14.22 10.38,-1.93 8.79,-4.07 10.47,-14.85 0.67,-4.3 2.39,-6.78 2.86,-10.92 0.85,-7.45 -0.9,-6.28 -4.81,-7.99 4.09,-14.19 9.39,-35.87 -3.53,-44.56 1.97,-2.99 0.5,0.7 3.51,-2.49l-2.53 -5.04c-4.9,-2.22 -4.59,-6.09 -15.84,-7.79 1.61,-2.34 7.19,-0.9 1.1,-3.42 -3.04,-1.26 -5.29,-0.58 -7.57,-1.53 2.35,-1.24 5.19,-1.56 7.25,-2.7 -6.31,-1.5 -8.19,-0.85 -14.88,-0.03l2.92 -3.49 -8.62 0.57c-0.12,-0.21 -0.23,-0.53 -0.28,-0.67l-0.5 -1.71c-0.02,-0.07 -0.05,-0.24 -0.06,-0.44 -0.01,-0.19 0,-0.28 -0.04,-0.41 -5.78,-0.14 -10.16,1.25 -14.38,3.34 -5.11,2.53 -2.51,2.16 -5.11,1.64 -7.62,-1.52 -10.35,6.18 -17.12,8.22 -3.58,1.08 -10.86,4.47 -12.33,4.57z"/>
  <path class="fil1" d="M17.38 175.85c0.85,-3.8 4.24,-4.28 10.83,-7.02 3.97,-1.65 7.21,-2.99 11.18,-4.74 5.87,-2.58 30.49,-10.96 33.37,-16.32 6.24,-11.61 -2.78,-21.32 -4.12,-25.78 -4,-13.3 1.05,-12.78 -4.94,-14.87 -2.25,-0.78 -3.67,-0.3 -5.62,-3.91l-4.91 -21.6c-0.5,-5.27 0.53,-5.69 1.94,-7.47 1.56,-1.97 -0.16,0.86 1.35,-1.66 -4.66,-9.16 -1.59,-22 -1.45,-25.45 0.19,-4.41 -2.38,3.65 -0.8,-5.58 0.46,-2.67 1.53,-5.38 2.59,-7.48 2.62,-5.22 0.5,-8.23 11.63,-13.53 -1.47,-0.97 -1.25,-1.11 -2.26,-2.66 -5.49,1.33 -0.48,-0.04 -3.48,1.81 -0.21,0.13 -1.31,0.89 -2.23,1.44 -1.07,0.64 -2.7,1.61 -4.4,2.57 -11.62,6.6 -16.34,9.55 -25.92,19.34 -29.28,29.95 -37.97,71.82 -22.86,112.9 1.52,4.14 7.69,16.84 10.08,20z"/>
  <path class="fil1" d="M194.65 174.77c2.86,-2.87 8.19,-14.49 10.04,-19.5 14.58,-39.37 6.82,-78.66 -20.02,-109.35 -6.02,-6.89 -22.7,-21.16 -33.04,-24.29l2.53 5.04c-3.01,3.19 -1.54,-0.5 -3.51,2.49 12.93,8.7 7.63,30.37 3.53,44.56 3.91,1.71 5.66,0.54 4.81,7.99 -0.47,4.14 -2.19,6.62 -2.86,10.92 -1.68,10.78 -0.08,12.92 -10.47,14.85 -0.41,4.83 -0.82,9.72 -2.12,14.22 -1.76,6.07 -9.9,12.97 -4.42,25.67 1.66,3.85 5.2,4.8 10.03,6.84 6.79,2.86 44.13,17.25 45.48,20.57z"/>
 </g>
</svg>
