<?xml version="1.0" encoding="UTF-8"?>
<!DOCTYPE svg PUBLIC "-//W3C//DTD SVG 1.1//EN" "http://www.w3.org/Graphics/SVG/1.1/DTD/svg11.dtd">
<!-- Creator: CorelDRAW 2021 (64-Bit) -->
<svg xmlns="http://www.w3.org/2000/svg" xml:space="preserve" width="23.7779in" height="23.909in" version="1.1" style="shape-rendering:geometricPrecision; text-rendering:geometricPrecision; image-rendering:optimizeQuality; fill-rule:evenodd; clip-rule:evenodd"
viewBox="0 0 12146.8 12213.74"
 xmlns:xlink="http://www.w3.org/1999/xlink"
 xmlns:xodm="http://www.corel.com/coreldraw/odm/2003">
 <defs>
  <style type="text/css">
   <![CDATA[
    .str1 {stroke:black;stroke-width:255.42;stroke-miterlimit:2.61313}
    .str0 {stroke:black;stroke-width:170.28;stroke-miterlimit:2.61313}
    .fil0 {fill:none}
    .fil1 {fill:#373435}
    .fil2 {fill:black}
    .fil7 {fill:#C23227}
    .fil4 {fill:#FADE2F}
    .fil5 {fill:#FBE02F}
    .fil6 {fill:#FCE22F}
    .fil3 {fill:#FFF22D}
    .fil8 {fill:black;fill-rule:nonzero}
   ]]>
  </style>
 </defs>
 <g id="Layer_x0020_1">
  <metadata id="CorelCorpID_0Corel-Layer"/>
  <g>
   <path class="fil0 str0" d="M4466.27 11589.34c226.58,61.08 387.59,110.42 768.15,156.73 0,0 -11.87,39.34 -94.62,34.92 -31.89,-1.59 -35.96,-9.45 -47.76,-11.59 -23.4,-4.28 -59.56,20.36 -55.14,61.77 3.04,28.85 27.74,65.36 112.01,65.36 84.27,0 182.75,-69.02 232.17,-132.92 0,0 50.87,11.59 103.18,14.56 0,0 -161.98,226.85 -481.45,226.85 -351.57,0.07 -481.39,-314.02 -536.53,-415.68l0 -0zm1612.83 -1868.67c1211.3,0 2553.45,-743.51 3494.48,-1815.46 101.8,-115.81 274.61,-335.49 684.22,-335.49 409.54,0 954.07,373.24 889.96,1052.91 -46.66,495.53 -754.96,1612.28 -1966.26,2300.71 -1211.3,688.43 -2326.73,836.54 -3102.33,836.54 -775.6,0 -1891.03,-148.11 -3102.4,-836.54 -1211.3,-688.43 -1919.54,-1805.18 -1966.33,-2300.71 -64.11,-679.67 480.42,-1052.91 890.03,-1052.91 409.61,0 582.49,219.75 684.22,335.49 941.03,1071.96 2283.11,1815.46 3494.41,1815.46z"/>
   <path id="_1" class="fil1" d="M4466.27 11589.34c226.58,61.08 387.59,110.42 768.15,156.73 0,0 -11.87,39.34 -94.62,34.92 -31.89,-1.59 -35.96,-9.45 -47.76,-11.59 -23.4,-4.28 -59.56,20.36 -55.14,61.77 3.04,28.85 27.74,65.36 112.01,65.36 84.27,0 182.75,-69.02 232.17,-132.92 0,0 50.87,11.59 103.18,14.56 0,0 -161.98,226.85 -481.45,226.85 -351.57,0.07 -481.39,-314.02 -536.53,-415.68l0 -0zm1612.83 -1868.67c1211.3,0 2553.45,-743.51 3494.48,-1815.46 101.8,-115.81 274.61,-335.49 684.22,-335.49 409.54,0 954.07,373.24 889.96,1052.91 -46.66,495.53 -754.96,1612.28 -1966.26,2300.71 -1211.3,688.43 -2326.73,836.54 -3102.33,836.54 -775.6,0 -1891.03,-148.11 -3102.4,-836.54 -1211.3,-688.43 -1919.54,-1805.18 -1966.33,-2300.71 -64.11,-679.67 480.42,-1052.91 890.03,-1052.91 409.61,0 582.49,219.75 684.22,335.49 941.03,1071.96 2283.11,1815.46 3494.41,1815.46z"/>
  </g>
  <path class="fil2" d="M6678.11 11719.03c-47.83,143.41 -203.67,494.71 -579.73,494.71 -427.14,0 -576.21,-462.75 -583.46,-481.73l-12.22 -44.38c0,0 368.13,30.57 570.83,30.57 202.7,0 548.95,-19.67 605.68,-30.57l-1.1 31.4z"/>
  <path class="fil2" d="M7799.34 11490.86l88.27 11.73c-104.77,272.96 -292.77,578.97 -662.14,578.97 -357.5,0 -534.73,-207.19 -610.38,-346.53l-61.77 -37.89c0.07,-0.07 618.38,-20.43 1246.01,-206.29l0 -0zm-3389.23 0l-88.13 11.73c104.56,272.96 292.7,578.97 662.21,578.97 357.43,0 550.54,-218.78 629.77,-346.53l42.17 -37.89c-0.07,-0.07 -618.24,-20.43 -1246.01,-206.29l0 -0z"/>
  <path class="fil3" d="M6398.04 11747.46c-57.84,83.85 -96.49,79.92 -166.33,79.92 -34.92,0 -87.37,28.99 -85.72,81.44 1.1,41.13 34.65,75.5 91.65,75.5 126.16,0 222.3,-176.34 249.35,-250.87 0,0 74.68,-3.24 96.49,-5.38 0,0 -133.82,398.29 -480.56,398.29 -347.49,0 -488.98,-394.01 -488.98,-394.01 0,0 292.35,18.08 459.92,18.08 167.57,0 273.99,-0.76 324.17,-2.97l0 -0zm1355.06 -175.23c-226.72,61.08 -387.66,110.42 -768.22,156.73 0,0 11.87,39.34 94.62,34.92 31.82,-1.59 35.89,-9.45 47.69,-11.59 23.46,-4.28 59.56,20.36 55.28,61.77 -3.11,28.85 -27.88,65.36 -112.15,65.36 -84.27,0 -182.75,-69.02 -232.24,-132.92 0,0 -50.66,11.59 -102.97,14.56 0,0 161.91,226.85 481.39,226.85 351.57,0.07 481.32,-314.02 536.6,-415.68l0 -0z"/>
  <path class="fil4" d="M7517.34 11793.98c0,-55.01 -16.98,-105.94 -45.83,-148.11 -123.05,28.99 -263.78,55.56 -469.93,81.16 -1.46,6.09 -2.85,12.32 -4.04,18.49 12.42,10.08 36.51,20.91 81.99,18.5 31.82,-1.59 35.89,-9.45 47.69,-11.59 23.46,-4.28 59.56,20.36 55.28,61.77 -3.11,28.85 -27.88,65.36 -112.15,65.36 -21.67,0 -44.52,-4.56 -67.02,-12.56 11.04,38.3 30.57,72.95 56.45,101.8 50.49,12.7 102.64,19.26 154.78,19.26 0.62,0 1.23,0 1.85,0 112.7,0 202.49,-32.23 274.48,-79.51 17.39,-35.55 26.44,-74.69 26.44,-114.27 0,-0.09 0,-0.19 0,-0.29l-0 -0.01z"/>
  <path class="fil5" d="M7513.75 11793.98c0,-0.12 0,-0.28 0,-0.4 0,-52.45 -16.09,-103.74 -45.98,-146.8 -121.47,28.3 -260.26,54.45 -462.2,79.64 -1.88,7.04 -3.49,14.25 -4.67,21.46 13.18,9.32 36.92,18.36 78.75,16.01 31.82,-1.59 35.89,-9.45 47.69,-11.59 23.46,-4.28 59.56,20.36 55.28,61.77 -3.11,28.85 -27.88,65.36 -112.15,65.36 -20.36,0 -41.69,-4.07 -62.8,-11.04 11.59,38.58 31.82,73.23 58.66,101.94 45.41,11.04 95.59,17.67 150.32,17.67 109.6,0 197.59,-30.44 268.54,-75.64 18.74,-36.61 28.56,-77.22 28.56,-118.38l0 0.02z"/>
  <path class="fil6" d="M7510.1 11793.98c0,-54.45 -16.98,-104.97 -46.1,-146.38 -119.67,27.88 -256.95,53.62 -454.54,78.47 -2.14,7.8 -4.07,15.87 -5.38,24.02 13.73,8.49 36.92,15.87 75.5,13.87 31.82,-1.59 35.89,-9.45 47.69,-11.59 23.46,-4.28 59.56,20.36 55.28,61.77 -3.11,28.85 -27.88,65.36 -112.15,65.36 -19.89,-0.27 -39.73,-3.56 -58.66,-9.73 12.01,38.72 33.06,73.57 60.8,102.07 43.83,10.08 91.79,16.15 143.97,16.15 106.49,0 192.62,-28.85 262.47,-71.85 20.39,-37.22 31.12,-79.06 31.12,-121.51 0,-0.19 0,-0.46 0,-0.65l-0 0z"/>
  <g>
   <path class="fil0 str1" d="M4436.6 11575.78c226.58,61.08 387.59,110.42 768.15,156.73 0,0 -11.87,39.34 -94.62,34.92 -31.89,-1.59 -35.96,-9.45 -47.76,-11.59 -23.4,-4.28 -59.56,20.36 -55.14,61.77 3.04,28.85 27.74,65.36 112.01,65.36 84.27,0 182.75,-69.02 232.17,-132.92 0,0 50.87,11.59 103.18,14.56 0,0 -161.98,226.85 -481.45,226.85 -351.57,0.07 -481.39,-314.02 -536.53,-415.68l0 -0zm1612.83 -1868.67c1211.3,0 2553.45,-743.51 3494.48,-1815.46 101.8,-115.81 274.61,-335.49 684.22,-335.49 409.54,0 954.07,373.24 889.96,1052.91 -46.66,495.53 -754.96,1612.28 -1966.26,2300.71 -1211.3,688.43 -2326.73,836.54 -3102.33,836.54 -775.6,0 -1891.03,-148.11 -3102.4,-836.54 -1211.3,-688.43 -1919.54,-1805.18 -1966.33,-2300.71 -64.11,-679.67 480.42,-1052.91 890.03,-1052.91 409.61,0 582.49,219.75 684.22,335.49 941.03,1071.96 2283.11,1815.46 3494.41,1815.46z"/>
   <path id="_1_0" class="fil1" d="M4436.6 11575.78c226.58,61.08 387.59,110.42 768.15,156.73 0,0 -11.87,39.34 -94.62,34.92 -31.89,-1.59 -35.96,-9.45 -47.76,-11.59 -23.4,-4.28 -59.56,20.36 -55.14,61.77 3.04,28.85 27.74,65.36 112.01,65.36 84.27,0 182.75,-69.02 232.17,-132.92 0,0 50.87,11.59 103.18,14.56 0,0 -161.98,226.85 -481.45,226.85 -351.57,0.07 -481.39,-314.02 -536.53,-415.68l0 -0zm1612.83 -1868.67c1211.3,0 2553.45,-743.51 3494.48,-1815.46 101.8,-115.81 274.61,-335.49 684.22,-335.49 409.54,0 954.07,373.24 889.96,1052.91 -46.66,495.53 -754.96,1612.28 -1966.26,2300.71 -1211.3,688.43 -2326.73,836.54 -3102.33,836.54 -775.6,0 -1891.03,-148.11 -3102.4,-836.54 -1211.3,-688.43 -1919.54,-1805.18 -1966.33,-2300.71 -64.11,-679.67 480.42,-1052.91 890.03,-1052.91 409.61,0 582.49,219.75 684.22,335.49 941.03,1071.96 2283.11,1815.46 3494.41,1815.46z"/>
  </g>
  <path class="fil3" d="M4456.56 11572.23c226.58,61.08 387.59,110.42 768.15,156.73 0,0 -11.87,39.34 -94.62,34.92 -31.89,-1.59 -35.96,-9.45 -47.76,-11.59 -23.4,-4.28 -59.56,20.36 -55.14,61.77 3.04,28.85 27.74,65.36 112.01,65.36 84.27,0 182.75,-69.02 232.17,-132.92 0,0 50.87,11.59 103.18,14.56 0,0 -161.98,226.85 -481.45,226.85 -351.57,0.07 -481.39,-314.02 -536.53,-415.68l0 -0zm1612.83 -1868.67c1211.3,0 2553.45,-743.51 3494.48,-1815.46 101.8,-115.81 274.61,-335.49 684.22,-335.49 409.54,0 954.07,373.24 889.96,1052.91 -46.66,495.53 -754.96,1612.28 -1966.26,2300.71 -1211.3,688.43 -2326.73,836.54 -3102.33,836.54 -775.6,0 -1891.03,-148.11 -3102.4,-836.54 -1211.3,-688.43 -1919.54,-1805.18 -1966.33,-2300.71 -64.11,-679.67 480.42,-1052.91 890.03,-1052.91 409.61,0 582.49,219.75 684.22,335.49 941.03,1071.96 2283.11,1815.46 3494.41,1815.46z"/>
  <path class="fil7" d="M2438.88 7994.59l-14.15 -16.01c-96.41,-110.7 -228.51,-262.47 -543.98,-262.47 -184,0 -392.36,98.42 -530.8,250.6 -103.52,113.6 -220.92,313.4 -192.07,618.86 39.34,417.34 702.03,1499.71 1882.13,2170.48 951.18,540.53 1967.02,814.73 3019.44,814.73 1052.42,0 2068.2,-274.2 3019.44,-814.73 1180.03,-670.77 1842.79,-1753.14 1882.13,-2170.48 28.71,-305.46 -88.55,-505.2 -192.21,-618.86 -138.31,-152.18 -346.8,-250.6 -530.66,-250.6 -315.4,0 -447.5,151.77 -544.05,262.47l-14.01 16.01c-1014.19,1155.05 -2401.54,1872.47 -3620.64,1872.47 -1219.03,0 -2606.45,-717.35 -3620.57,-1872.47z"/>
  <g>
   <path class="fil0 str0" d="M9957.02 6633.87c0,-581.04 471.17,-1052.22 1052.35,-1052.22 581.11,0 1052.29,471.17 1052.29,1052.22 0,581.25 -471.17,1052.35 -1052.29,1052.35 -581.18,0 -1052.35,-471.1 -1052.35,-1052.35z"/>
   <path id="_1_1" class="fil1" d="M9957.02 6633.87c0,-581.04 471.17,-1052.22 1052.35,-1052.22 581.11,0 1052.29,471.17 1052.29,1052.22 0,581.25 -471.17,1052.35 -1052.29,1052.35 -581.18,0 -1052.35,-471.1 -1052.35,-1052.35z"/>
  </g>
  <path class="fil3" d="M9960.71 6632.22c0,-581.18 470.96,-1052.35 1052.22,-1052.35 581.25,0 1052.35,471.17 1052.35,1052.35 0,581.11 -471.1,1052.22 -1052.35,1052.22 -581.25,0 -1052.22,-471.1 -1052.22,-1052.22z"/>
  <g>
   <path class="fil0 str0" d="M85.14 6633.87c0,-581.04 471.17,-1052.22 1052.35,-1052.22 581.11,0 1052.29,471.17 1052.29,1052.22 0,581.25 -471.17,1052.35 -1052.29,1052.35 -581.18,0 -1052.35,-471.1 -1052.35,-1052.35z"/>
   <path id="_1_2" class="fil1" d="M85.14 6633.87c0,-581.04 471.17,-1052.22 1052.35,-1052.22 581.11,0 1052.29,471.17 1052.29,1052.22 0,581.25 -471.17,1052.35 -1052.29,1052.35 -581.18,0 -1052.35,-471.1 -1052.35,-1052.35z"/>
  </g>
  <path class="fil3" d="M95.72 6633.87c0,-581.04 471.17,-1052.22 1052.35,-1052.22 581.11,0 1052.29,471.17 1052.29,1052.22 0,581.25 -471.17,1052.35 -1052.29,1052.35 -581.18,0 -1052.35,-471.1 -1052.35,-1052.35z"/>
  <path class="fil2" d="M11301 3801.88l5.8 -281.79c85.99,64.94 249.77,67.5 345.63,-34.92 44.1,-46.79 68.74,-118.22 64.81,-192.9 -5.39,-87.27 -42.7,-169.71 -104.65,-231.39 -354.4,-345.35 -667.66,-690.57 -667.66,-690.57 -31.68,-51.07 -83.85,-88.82 -112.29,-101.52 -44.38,-19.74 -197.59,-89.86 -314.5,87.93 -105.94,161.15 -90.2,389.18 -71.16,472l332.52 451.78c113.39,143.76 433.01,450.19 521.48,521.41l0.02 -0.01zm-7085.38 -2930.34c417.82,-140.03 799.13,-255.64 1313.23,-301.32l-1313.23 301.32z"/>
  <path class="fil2" d="M4215.62 872.71c417.82,-140.24 799.13,-255.64 1313.23,-301.39l78.33 -44.24c-287.45,-225.96 -572.62,-379.66 -856.49,-379.66 -178.27,0 -540.6,120.92 -622.04,760l86.96 -34.72 0 -0zm3708.7 0c-417.89,-140.24 -799.07,-255.64 -1313.16,-301.39l-78.33 -44.24c287.38,-225.96 572.49,-379.66 856.35,-379.66 178.34,0 540.81,120.92 622.11,760l-86.96 -34.72 -0 -0zm-2197.26 -365.65c84.96,-4.35 281.03,-8.7 359.5,-8.7 78.33,0 294.97,10.35 342.39,13.94l-701.89 -5.25z"/>
  <path class="fil2" d="M5597.6 549.57c210.15,-402.85 402.71,-549.57 509.2,-549.57 133.2,0 289.18,212.02 411.4,484.84l25.88 61.42 -106.35 -8.76c-72.4,-12.97 -272.82,-15.18 -351.15,-15.18 -78.47,0 -248.39,0 -350.81,8.7l-138.17 18.57 0 -0z"/>
  <path class="fil3" d="M5186.4 10088.39l-188.14 701.89 -350.74 -846.2 -218.3 -58.53 -265.99 992.52 236.79 63.5 189.59 -707.55 356.33 853.79 212.71 57.01 265.92 -992.66 -238.17 -63.77 -0 0zm817.56 125.4l-269.78 -14.15 -53.69 1026.06 269.71 14.15 53.76 -1026.06 0 0zm242.24 -8.77l18.91 135.2 287.8 -40.58 124.02 882.37 267.51 -37.61 -124.09 -882.23 283.45 -39.89 -18.84 -135.06 -838.75 117.81 -0 0zm2783.55 -418.3c130.65,228.99 104.35,395.6 -97.17,511.96l-95.59 55.14 -377.86 -654.2 103.25 -59.7c241.21,-139.2 377.24,-15.32 467.38,146.8zm-525.56 -271.3l-348.18 200.97 515.48 892.93 345.63 -199.52c359.64,-207.74 392.91,-521.14 251.91,-771.46 -170.26,-297.8 -449.78,-304.77 -764.83,-122.92l-0 0zm-652.27 1264.23l-102.56 -315.54 304.5 -98.97 -42.72 -131.27 -304.43 98.9 -87.58 -269.44 312.85 -101.52 -42.17 -129.89 -571.04 185.58 317.47 977.13 629.77 -204.49 -42.72 -131.27 -371.38 120.78 0 0zm-3909.2 -1132.14l-304.29 548.88c-91.79,165.5 -186.41,270.27 -341.21,180.89 -153.63,-85.03 -118.09,-212.02 -24.09,-381.73l304.91 -550.26 -245.7 -136.17 -322.1 580.98c-177.65,320.58 46.38,518.03 220.02,614.24 186.96,103.66 458.47,180.75 634.6,-137.06l323.48 -583.67 -245.63 -136.1 0 -0zm-174.06 -6035.5l0 4811.1 2300.64 1478.87 2300.57 -1478.87 2.97 -4803.5c-72.95,-65.29 -226.16,-208.22 -346.8,-282.07l-3924.03 0c-100.28,70.26 -299.32,237.48 -333.35,274.48l-0 0z"/>
  <polygon class="fil8" points="3812.23,3612.01 3812.23,8399.44 6069.32,9850.36 8326.42,8399.44 8329.25,3619.61 8416.48,3619.61 8413.51,8423.11 8413.51,8446.71 8393.43,8459.69 6092.79,9938.63 6069.32,9953.74 6045.79,9938.63 3745.21,8459.69 3725.06,8446.71 3725.06,3612.01 "/>
  <path class="fil8" d="M8343.81 3652.18c-20.77,-18.63 -5.11,-4.76 -27.12,-24.64l-0.28 0c-78.47,-70.95 -210.02,-189.79 -313.13,-252.87l45.41 -74.19c111.32,68.26 245.97,189.86 326.38,262.4l-0.28 0 27.26 24.29 -58.25 65.01 0 0z"/>
  <polygon class="fil8" points="8026.06,3381.09 4102.02,3381.09 4102.02,3293.99 8026.06,3293.99 "/>
  <path class="fil8" d="M4127.01 3373.29c-47,32.99 -113.32,85.17 -173.99,135.06 -71.02,58.53 -135.13,114.29 -152.39,133.13l-63.98 -58.87c19.19,-21.05 86.96,-80.2 161.22,-141.34 64.53,-53.14 133.34,-107.46 179.03,-139.48l50.1 71.5z"/>
  <path class="fil7" d="M6231.92 5669.86c-16.01,-7.04 -73.29,39.13 -99.45,80.54 -26.16,41.41 -33.82,94.76 3.24,114.36 37.06,19.6 83.72,-5.8 94.9,-70.74 6.42,-38.17 18.84,-116.57 1.31,-124.16zm-440.39 124.09c9.59,65.29 57.7,90.41 94.76,70.74 37.06,-19.6 29.47,-72.95 3.31,-114.36 -26.23,-41.41 -80.13,-87.58 -96.21,-80.54 -17.46,7.66 -7.31,87.17 -1.86,124.16zm230.93 639.98c77.3,-126.85 109.46,-258.67 109.46,-258.67l-221.13 0c0,0 35.41,135.06 111.67,258.67zm38.1 -952.97l178.61 -310.85 139.41 310.85 231.07 0c-139.48,130.79 -196.14,328.24 -196.14,459.03l0 143.76c0,61.08 -30.44,161.22 -30.44,161.22 0,0 200.01,152.87 230.93,178.61 13.04,10.9 26.85,17.25 17.39,43.69 -15.87,45 -151.07,105.25 -165.5,117.53 -30.44,26.16 -38.72,43.27 -29.81,69.84 8.76,26.02 34.09,30.44 86.41,12.97 52.31,-17.39 161.22,-73.99 252.87,-113.25 91.38,-39.2 213.4,-30.57 213.4,-30.57l0 -174.13 -344.12 -0 0 -557.79 -61.08 -97.38 152.59 -270.2 152.32 271.71 -60.94 95.79 0 291.94 176.47 0 0 -291.94 -60.94 -95.79 152.46 -270.27 152.46 270.27 -60.94 95.79 0 291.94 176.47 0 0 -291.94 -60.94 -95.79 152.46 -270.27 152.46 270.27 -61.08 95.79 1.86 557.37 -346.05 0.14 0 256.12c78.47,73.99 152.59,240.86 152.59,341.01 0,100.28 -65.36,143.83 -65.36,143.83 21.67,78.47 17.39,111.05 8.63,183.03 -8.9,73.43 -100.28,187.24 -100.28,187.24l0 1328.56c0,90.48 -209.05,81.85 -209.05,4.42l0 -1302.4c-117.67,-130.65 -440.11,-230.93 -440.11,-230.93 -117.67,117.53 -191.66,322.44 -191.66,322.44 52.31,34.92 130.79,0 161.22,-34.92 30.44,-34.78 91.52,-43.55 126.44,-21.81 34.78,21.81 43.55,30.57 30.44,82.89 -13.04,52.18 -34.92,139 -34.92,199.87 0,61.08 69.84,47.83 122.02,52.31 104.63,8.76 122.02,126.3 113.39,191.66 -8.76,65.36 -39.2,204.91 -39.2,291.94 0,87.03 4.28,174.26 13.04,222.3 8.63,47.83 26.16,100.14 21.67,161.22 -5.94,82.61 -56.59,95.86 -108.91,43.55 -52.18,-52.31 -779.95,-827.91 -779.95,-827.91 -47.9,156.73 152.46,427.07 217.88,509.82 65.36,82.89 60.94,143.83 4.42,200.42 -56.73,56.59 -165.64,87.1 -187.38,139.48 -21.81,52.31 52.31,209.05 204.77,405.05 152.46,196.14 -174.33,326.86 -370.41,366.13 -196.07,39.2 -196.07,-96 -182.96,-169.99 12.97,-74.12 12.97,-117.67 8.7,-183.03 -4.35,-65.22 -65.36,-156.73 -148.18,-265.85 -82.82,-108.77 -82.82,-209.05 -47.9,-461.78 34.85,-252.6 26.16,-413.96 26.16,-413.96 0,0 -87.17,4.42 -213.53,0 -126.37,-4.28 -230.93,-77.92 -239.62,-382.97 -8.7,-305.05 -15.94,-1032.55 -36.3,-1108.19 -20.29,-75.5 -101.66,-90.07 -136.51,-98.69 -34.85,-8.76 -37.41,-61.08 -2.55,-78.47 90.76,-45.41 200.08,-156.87 159.43,-226.58 -40.65,-69.77 -200.42,-55.28 -307.88,-2.97 -107.46,52.31 -220.78,165.5 -249.84,197.59 -29.06,31.95 -52.31,31.95 -49.42,-2.97 2.9,-34.92 -20.29,-200.42 -34.78,-258.53 -14.49,-58.11 -66.88,-168.4 -84.27,-197.46 -17.39,-29.06 0,-40.65 29.06,-29.06 29.06,11.66 92.96,37.82 153.98,55.21 61.01,17.39 119.05,-11.59 148.11,-69.71 29.06,-58.11 84.2,-182.96 113.25,-238.17 29.06,-55.21 75.57,-43.62 113.32,-34.85 37.82,8.7 72.67,31.95 107.46,46.45 34.85,14.56 63.91,11.66 75.5,-5.8 11.66,-17.39 26.23,-23.26 46.52,-66.88 20.29,-43.55 46.45,-23.19 49.35,-5.8 104.15,624.94 374.76,653.65 374.76,653.65 -40.65,104.49 -136.51,270.13 -159.7,310.85 -23.26,40.58 -31.95,95.72 -37.75,139.41 -5.8,43.55 14.49,455.85 43.55,607.13 29.12,151.01 122.09,93.03 151.07,46.52 28.99,-46.52 119.12,-238.17 119.12,-238.17 0,0 23.26,-52.31 23.26,-96 0,-43.55 -75.57,-139.41 -93.03,-168.47 -17.39,-28.99 -81.3,-87.1 -81.3,-232.38 0,-145.21 130.72,-246.94 177.23,-284.69 46.45,-37.75 46.45,-89.93 40.65,-121.88 -20.43,-112.43 -139.48,-348.67 -197.52,-438.73 -58.11,-90 -171.37,-261.43 -171.37,-261.43l235.27 0 151.07 -313.75 165.57 315.19 171.09 1.52 0 0zm928.12 1583.15l0 -178.61c0,0 -47.97,-74.12 -165.64,-74.12 -117.53,0 -187.24,34.92 -187.24,65.36 0,48.04 104.56,187.38 352.88,187.38zm-3039.8 -2252.06l4244.48 0 0 289.52 -4244.48 0 0 -289.52zm0 -148.8l0 -1153.12 4244.48 0 0 1153.12 -4244.48 0z"/>
  <polygon class="fil3" points="7357.92,4697.57 7357.92,4500.73 7049.62,4500.73 7049.62,4373.81 7301.25,4373.81 7301.25,3816.09 7070.26,3816.09 6991.79,3663.64 6913.32,3816.09 6682.46,3816.09 6682.46,4373.81 6933.95,4373.81 6933.95,4500.73 6330.06,4500.73 6330.06,4373.81 6581.62,4373.81 6581.62,3816.09 6350.7,3816.09 6272.23,3663.64 6193.83,3816.09 5962.9,3816.09 5962.9,4373.81 6214.39,4373.81 6214.39,4500.73 5598.7,4500.73 5598.7,4373.81 5850.26,4373.81 5850.26,3816.09 5619.27,3816.09 5540.87,3663.64 5462.46,3816.09 5231.47,3816.09 5231.47,4373.81 5482.96,4373.81 5482.96,4500.73 4996.19,4502.04 4511.15,4388.72 4608.95,4697.56 "/>
  <path class="fil3" d="M4678.65 4363.67l325.27 79.92 174.47 -489.74 0.07 -123.47 -499.81 533.28zm784.92 -3824.58c-503.88,44.79 -813.97,151.9 -1223.51,289.18 30.44,-176.2 71.43,-280.62 142.59,-384.35 -5.73,91.1 68.67,188.14 216.71,188.14 148.04,0 230.44,-85.37 230.44,-136.65 0,-51.14 -31.13,-125.26 -110.84,-125.26 -79.71,0 -96.76,56.94 -91.1,79.71 5.73,22.85 -11.39,28.5 -34.09,34.23 -22.85,5.66 -85.44,-28.57 -62.67,-108.22 24.98,-87.58 130.92,-135.2 256.12,-135.2 -0.07,-0.14 297.94,-12.01 676.35,298.43l-0 -0zm2439.99 292.7c-409.54,-137.41 -733.57,-244.45 -1237.45,-289.31 231.96,-161.64 448.6,-298.91 686.64,-298.91 125.19,0 231.2,47.62 256.12,135.2 22.77,79.71 -39.89,113.81 -62.67,108.08 -22.64,-5.73 -39.75,-11.39 -34.09,-34.16 5.66,-22.71 -11.46,-79.71 -91.1,-79.71 -79.65,0 -110.77,73.99 -110.77,125.26 0,51.28 82.34,136.65 230.37,136.65 148.04,0 222.44,-97.1 216.78,-188.14 71.09,103.8 115.74,208.84 146.18,385.04l0 0zm-2129.48 -386.35c-13.53,21.6 -25.4,37.68 -39.89,61.77 115.27,-5.23 235.81,-8.85 352.73,-8.85 76.95,0 289.11,10.28 335.62,13.67 -75.09,-173.85 -216.78,-413.89 -315.75,-413.89 -19.53,0 -62.74,-10.14 -144.04,83.44 0,0 -12.63,41.34 38.99,33.4 65.43,-10.01 90.2,57.56 85.37,91.17 -11.46,78.2 -102.49,153.7 -193.66,153.7 -91.03,0 -118.91,-14.63 -118.91,-14.63l-0.47 0.22z"/>
  <path class="fil2" d="M1385.15 3280.46l332.52 -451.78c19.12,-82.82 34.85,-310.85 -71.16,-472 -116.91,-177.79 -270.27,-107.67 -314.64,-87.93 -28.43,12.7 -80.47,50.45 -112.29,101.52 0,0 -318.99,352.53 -671.94,699.48 -49.07,48.17 -104.42,139.41 -108.91,222.44 -4.14,74.68 25.19,149.14 69.08,195.94 96,102.28 264.12,96.9 349.98,31.95l5.8 281.79c88.75,-71.22 408.23,-377.65 521.55,-521.41l-0 -0z"/>
  <path class="fil3" d="M6069.39 2622.12c1894,0 2972.51,1778.54 3206.96,2090.97 418.37,557.72 929.3,1009.98 1522.15,859.8 871.32,-220.71 824.95,-1511.86 824.95,-1511.86 -209.05,-151.15 -567.79,-341.42 -1220.06,-1266.58 -639.09,-906.25 -2085.73,-2250.88 -4333.99,-2250.88 -2248.4,0 -3695.04,1344.63 -4334.06,2250.88 -652.27,925.09 -1010.88,1115.44 -1219.99,1266.58 0,0 -46.45,1291.15 825.02,1511.86 592.78,150.18 1103.84,-302.08 1522.15,-859.8 234.31,-312.44 1312.96,-2090.97 3206.89,-2090.97l-0 0z"/>
  <path class="fil8" d="M6069.39 2578.57c1761.15,0 2822.4,1512.55 3167.69,2004.7 31.26,44.58 56.73,80.82 73.99,103.73 206.22,275.1 435.01,523.97 684.36,684.84 244.38,157.77 509.27,230.58 792.44,158.87 773.74,-196.01 793.68,-1281.42 792.23,-1447.19 -16.56,-11.8 -34.92,-24.43 -54.18,-37.68 -219.19,-151.28 -571.52,-394.36 -1158.15,-1226.41 -366.75,-520.24 -1002.11,-1186.17 -1904.56,-1654.86 -656.48,-340.94 -1454.44,-577.46 -2393.88,-577.46 -939.44,0 -1737.54,236.52 -2393.95,577.46 -902.45,468.69 -1537.67,1134.55 -1904.49,1654.86 -586.77,832.19 -939.03,1075.2 -1158.36,1226.48 -19.19,13.25 -37.41,25.81 -54.04,37.54 -1.45,165.71 18.5,1251.12 792.3,1447.19 283.24,71.78 547.99,-1.1 792.44,-158.87 249.29,-160.88 478.07,-409.75 684.43,-684.84 17.19,-22.91 42.65,-59.15 73.92,-103.66 345.42,-492.08 1406.75,-2004.7 3167.83,-2004.7l0 -0zm0 87.17c-1715.94,0 -2757.74,1484.6 -3096.6,1967.64 -24.58,34.61 -50.63,71.66 -75.52,105.81 -211.95,282.62 -447.91,538.81 -706.86,705.96 -263.85,170.26 -551.02,248.53 -860.56,170.05 -905.9,-229.48 -858.14,-1551.48 -858,-1555.34l0.62 -21.33 17.6 -12.77c23.81,-17.19 47.55,-33.61 73.29,-51.28 214.29,-147.9 558.61,-385.31 1136.55,-1205.02 372.89,-528.8 1018.6,-1205.71 1935.83,-1682.06 667.73,-346.8 1479.22,-587.33 2433.78,-587.33 954.49,0 1765.98,240.52 2433.78,587.33 917.15,476.35 1562.93,1153.19 1935.83,1682.06 577.87,819.49 922.12,1057.12 1136.35,1204.88 25.74,17.74 49.62,34.23 73.43,51.42l17.67 12.77 0.55 21.33c0.14,3.8 47.83,1325.86 -858,1555.34 -309.47,78.4 -596.64,0.14 -860.42,-170.05 -259.09,-167.16 -494.98,-423.34 -707,-705.96 -21.33,-28.37 -45.55,-63.15 -75.64,-105.73 -338.94,-483.04 -1380.66,-1967.64 -3096.6,-1967.64l-0.06 -0.08z"/>
  <path class="fil7" d="M6069.39 2454.34c1825.81,0 2912.4,1548.79 3269.76,2057.71 23.11,33.2 47.35,67.68 71.06,100.55 483.11,644.06 923.78,905.07 1346.77,797.89 611.83,-155.01 687.05,-997 695.54,-1251.4l0.28 -9.59 -7.8 -5.38c-215.12,-148.45 -575.59,-396.84 -1178.93,-1252.78 -360.61,-511.34 -1728.92,-2179.73 -4196.92,-2179.73 -2468.01,0 -3836.25,1668.39 -4196.85,2179.73 -599.33,849.86 -975.4,1109.5 -1177.48,1249.05l-7.87 5.38 0.28 9.59c8.76,255.36 84.75,1100.66 694.02,1255.12 423.14,107.25 863.66,-153.84 1346.64,-797.89 17.67,-23.46 42.58,-59.01 71.5,-100.28 357.16,-508.99 1443.81,-2057.78 3269.76,-2057.78l0.24 -0.2z"/>
  <path class="fil3" d="M2141.01 3167.76l-190.62 227.13 357.43 738.81 -766.97 -250.67 -164.19 195.59 787.19 660.48 118.91 -141.69 -555.72 -468.13 745.37 242.18 78.33 -93.31 -355.15 -711.9 558.96 468.89 173.57 -206.91 -787.13 -660.48zm995.14 -154.66l-178.27 191.11 -182.62 -352.95 360.88 161.84 0 -0zm-415.27 -466.41l-175.23 187.86 492.22 978.92 120.16 -128.78 -133.68 -259.15 238.24 -255.5 268.82 114.15 198.28 -212.57 -1008.81 -424.93 0 0zm1201.91 -930.06l385.11 616.24 -858.14 -320.65 -191.8 119.81 544.6 871.39 207.88 -129.82 -388.14 -621.28 867.46 321.75 186.69 -116.77 -544.47 -871.32 -209.19 130.65 0 -0zm3252.03 504.57l108.01 -313.68 302.63 104.28 45 -130.58 -302.63 -104.15 92.07 -267.92 310.99 107.11 44.52 -129.13 -567.79 -195.38 -334.45 971.47 626.04 215.54 44.86 -130.44 -369.24 -127.13 0 0zm1757.63 -64.94l-92.62 100.42 216.09 194.49 -596.16 662.28 200.7 180.68 596.16 -662.14 212.84 191.45 91.31 -101.38 -628.32 -565.79 0 -0zm294.97 1542.85l254.05 -213.05 205.74 245.08 105.66 -88.75 -205.6 -245.14 216.92 -182.06 211.47 251.98 104.49 -87.79 -385.8 -459.99 -787.19 660.55 425.55 507.13 105.66 -88.69 -250.94 -299.25 -0 -0zm1190.66 261.71c71.57,79.57 71.85,174.26 -10.01,247.9 -81.85,73.64 -184.82,57.84 -263.36,-29.47l-46.24 -51.28 259.64 -233.69 59.97 66.53 0 0zm-136.86 506.3c2,2.21 159.08,80.06 332.52,-76.19 145.07,-130.65 96.28,-309.88 -55.01,-477.93l-280 -310.78 -763.59 687.54 180.75 200.7 303.19 -273.1 89.51 99.24 -193.31 432.66 229.55 184.62 156.39 -466.75 0 0zm-3864.61 -3261.48l-7.39 419.69 -403.67 -6.97 7.39 -419.82 -270.06 -4.62 -17.88 1027.3 269.99 4.76 8.21 -469.72 403.54 7.11 -8.21 469.58 270.27 4.76 17.81 -1027.44 -269.99 -4.62 0 -0zm1462.65 1527.04c191.52,115.05 400.91,96.62 498.36,-65.56 71.71,-113.32 72.26,-206.98 -13.04,-374.55 -22.91,-48.59 -51.07,-82.82 -70.4,-125.82 -37.34,-71.09 -72.26,-128.58 -39.2,-183.44 35.34,-58.8 117.81,-63.01 193.18,-17.74 79.09,47.55 111.74,126.3 127.68,181.03l124.43 -53.83c-38.17,-101.25 -94.62,-192.55 -222.3,-269.23 -219.75,-132.03 -398.84,-97.17 -473.24,26.78 -75.23,125.13 -53.9,228.44 2,335 0,0 35.96,61.63 56.87,102.01 49.07,83.37 106.49,187.38 66.6,253.77 -49.07,81.71 -134.65,99.87 -217.05,48.66 -105.66,-67.08 -130.37,-144.45 -152.59,-220.3l-136.31 58.87c30.09,103.11 100.56,211.53 255.01,304.36l0 -0zm-2801.15 -1473.21c-336.45,71.64 -556.82,318.51 -484.15,653.17 41.41,180.62 203.32,514.58 713.83,406.02 141.21,-26.98 218.5,-84.27 292.97,-154.73l-94 -107.25c-34.16,39.06 -87.31,95.86 -204.7,120.78 -246.52,52.45 -393.8,-148.18 -430.45,-320.79 -54.25,-255.15 94.48,-432.31 264.19,-468.34 118.98,-25.33 192.35,6.14 238.72,24.98l1.45 -0.28 31.26 -130.99c-81.23,-32.78 -178.27,-54.52 -329.14,-22.57l0 -0zm5447.21 1708.76c-14.15,-60.94 -34.09,-321.2 64.74,-458.54 91.24,-126.57 174.4,-83.72 219.06,-63.91 20.08,8.9 80.34,47.97 92.21,124.99 6.35,41.34 -6.62,102.49 -38.58,147.35 -62.53,81.23 -204.77,135.13 -204.77,135.13 0,0 182.27,357.09 568.55,711.69l-1.38 241c-528.87,-510.03 -699.82,-837.72 -699.82,-837.72l0 0z"/>
  <path class="fil3" d="M10790.63 2794.52c52.31,90.13 185.1,310.64 517.48,622.11 55.14,51.69 192.62,94.76 270.27,7.59 29.81,-33.54 48.79,-81.37 45.83,-137 -3.52,-63.91 -42.86,-138.52 -80.75,-171.02 -66.33,-56.87 -352.12,-345.49 -556.96,-572.21 -4.42,41.34 -40.58,110.42 -40.58,110.42 -27.47,38.79 -61.84,94.48 -155.29,140.1l0 0zm-9851.39 896.93l-1.38 -227.62c386.42,-354.67 568.9,-710.59 568.9,-710.59 0,0 -142.24,-53.9 -204.77,-135.13 -32.02,-44.86 -45.07,-106.08 -38.65,-147.35 12.01,-77.02 72.12,-116.02 92.14,-124.99 44.65,-19.81 127.82,-62.74 218.92,63.91 98.9,137.34 73.02,395.81 58.94,456.75 0.14,0 -179.99,313.75 -694.09,825.02l-0 0z"/>
  <path class="fil3" d="M1367.48 2794.52c-52.18,90.13 -185.03,310.64 -517.41,622.11 -55.14,51.69 -192.62,94.76 -270.13,7.59 -29.88,-33.54 -48.93,-81.37 -45.96,-137 3.45,-63.91 42.86,-138.52 80.75,-171.02 66.33,-56.87 352.12,-345.49 556.82,-572.21 4.49,41.34 40.65,110.42 40.65,110.42 27.54,38.79 61.98,94.48 155.29,140.1l-0 0z"/>
  <path class="fil7" d="M293.8 6642.64c0,-472.76 383.25,-856 855.93,-856 472.83,0 856,383.25 856,856 0,472.9 -383.25,855.93 -856,855.93 -472.69,0 -855.93,-383.11 -855.93,-855.93z"/>
  <path class="fil3" d="M1610.21 6022.74c14.7,11.73 51.83,42.24 51.83,42.24 74.19,66.39 141,144.04 179.72,236.93 49,116.84 -101.94,292.49 -146.11,333.76 -199.66,186.27 -323.75,183.17 -395.05,193.45 -71.36,10.08 -116.29,-33.96 -114.77,-87.37 4.56,-157.15 115.95,-425 147.35,-474.48 20.57,-32.37 55.97,-53.01 55.97,-53.01 73.64,-20.63 145.07,-52.31 182.13,-94.27 37.2,-41.89 38.92,-97.24 38.92,-97.24l0 0zm-716.25 -112.98c81.09,-27.19 166.21,-41.54 251.81,-41.83 133.75,0 261.16,24.98 369.51,93.58 27.47,17.32 35.75,39.34 35.75,70.4 0,100.69 -158.81,135 -264.54,135 -105.59,0 -235.28,-42.03 -327.07,-70.6 -91.86,-28.78 -112.29,-82.4 -112.29,-106.08 -0.14,-23.54 17.53,-70.67 46.79,-80.47l0.03 0.01zm-338.59 1233.38c-107.8,-106.49 -184.69,-297.87 -184.69,-499.95 0,-78.33 11.53,-153.84 33.06,-225.13 0,0 18.15,-32.51 35.82,-4.69 12.56,19.67 29.61,39.89 44.93,66.88 15.46,26.98 99.18,90.55 91.38,140.72 -29.47,189.24 -2.9,441.84 5.94,483.25 8.9,41.2 -4.07,61.01 -26.43,38.92zm20.57 -649.09c-38.17,-21.05 -83.65,-118.22 -98.49,-147.21 -10.56,-20.77 -9.94,-78.75 4.49,-104.21 63.01,-111.46 152.8,-212.98 269.16,-266.88 13.32,-6.14 33.96,-6.76 33.96,26.23 0,18.36 9.11,47.35 9.45,65.22 0.41,17.53 8.35,55.56 -15.32,85.1 -23.54,29.4 -127.82,212.02 -153.21,315.26 -5.73,23.54 -11.87,47.69 -50.04,26.5l0 0zm586.43 924.05c-5.52,-0.28 -11.04,0.14 -16.56,0.14 -142.66,0 -298.77,-54.04 -391.32,-105.8 -95.59,-53.49 -131.41,-298.15 -131.41,-423.27 0,-403.74 166.4,-646.47 192.9,-693.68 26.5,-47.07 85.44,-53.01 129.68,-41.27 44.24,11.87 61.29,20.77 112.01,36.09 27.47,8.35 82.47,19.81 123.74,28.71 41.27,8.9 85.37,17.67 58.94,94.35 -26.5,76.54 -115.39,262.05 -125.13,481.39 -8.83,198.01 17.67,395.46 62.6,516.52 29.19,78.54 28.71,108.29 -15.46,106.84l0 -0zm203.25 -31.4c-44.31,14.29 -64.74,-17.25 -85.37,-41 -79.57,-90.83 -100.14,-335.35 -100.14,-367.72 0,-32.64 11.73,-67.91 34.37,-68.46 193.45,-4.83 331,-61.36 457.09,-165.02 126.09,-103.66 180.68,-220.78 192.21,-243.69 11.46,-22.91 36.3,-18.84 42.31,14.29 4.9,26.98 14.91,75.92 14.91,128.02 -0.07,351.71 -237,640.33 -555.37,743.58z"/>
  <path class="fil7" d="M11878.45 6642.64c0,-472.76 -383.25,-856 -855.93,-856 -472.9,0 -855.93,383.25 -855.93,856 0,472.9 383.11,855.93 855.93,855.93 472.69,0 855.93,-383.11 855.93,-855.93z"/>
  <path class="fil3" d="M11497.35 6022.74c14.7,11.73 51.83,42.24 51.83,42.24 74.19,66.39 141,144.04 179.72,236.93 49,116.84 -101.94,292.49 -146.11,333.76 -199.66,186.27 -323.75,183.17 -395.05,193.45 -71.36,10.08 -116.29,-33.96 -114.77,-87.37 4.56,-157.15 115.95,-425 147.35,-474.48 20.57,-32.37 55.97,-53.01 55.97,-53.01 73.64,-20.63 145.07,-52.31 182.13,-94.27 37.2,-41.89 38.92,-97.24 38.92,-97.24l0 0zm-716.25 -112.98c81.09,-27.19 166.21,-41.54 251.81,-41.83 133.75,0 261.16,24.98 369.51,93.58 27.47,17.32 35.75,39.34 35.75,70.4 0,100.69 -158.81,135 -264.54,135 -105.59,0 -235.28,-42.03 -327.07,-70.6 -91.86,-28.78 -112.29,-82.4 -112.29,-106.08 -0.14,-23.54 17.53,-70.67 46.79,-80.47l0.03 0.01zm-338.59 1233.38c-107.8,-106.49 -184.69,-297.87 -184.69,-499.95 0,-78.33 11.53,-153.84 33.06,-225.13 0,0 18.15,-32.51 35.82,-4.69 12.56,19.67 29.61,39.89 44.93,66.88 15.46,26.98 99.18,90.55 91.38,140.72 -29.47,189.24 -2.9,441.84 5.94,483.25 8.9,41.2 -4.07,61.01 -26.43,38.92zm20.57 -649.09c-38.17,-21.05 -83.65,-118.22 -98.49,-147.21 -10.56,-20.77 -9.94,-78.75 4.49,-104.21 63.01,-111.46 152.8,-212.98 269.16,-266.88 13.32,-6.14 33.96,-6.76 33.96,26.23 0,18.36 9.11,47.35 9.45,65.22 0.41,17.53 8.35,55.56 -15.32,85.1 -23.54,29.4 -127.82,212.02 -153.21,315.26 -5.73,23.54 -11.87,47.69 -50.04,26.5l0 0zm586.43 924.05c-5.52,-0.28 -11.04,0.14 -16.56,0.14 -142.66,0 -298.77,-54.04 -391.32,-105.8 -95.59,-53.49 -131.41,-298.15 -131.41,-423.27 0,-403.74 166.4,-646.47 192.9,-693.68 26.5,-47.07 85.44,-53.01 129.68,-41.27 44.24,11.87 61.29,20.77 112.01,36.09 27.47,8.35 82.47,19.81 123.74,28.71 41.27,8.9 85.37,17.67 58.94,94.35 -26.5,76.54 -115.39,262.05 -125.13,481.39 -8.83,198.01 17.67,395.46 62.6,516.52 29.19,78.54 28.71,108.29 -15.46,106.84l0 -0zm203.25 -31.4c-44.31,14.29 -64.74,-17.25 -85.37,-41 -79.57,-90.83 -100.14,-335.35 -100.14,-367.72 0,-32.64 11.73,-67.91 34.37,-68.46 193.45,-4.83 331,-61.36 457.09,-165.02 126.09,-103.66 180.68,-220.78 192.21,-243.69 11.46,-22.91 36.3,-18.84 42.31,14.29 4.9,26.98 14.91,75.92 14.91,128.02 -0.07,351.71 -237,640.33 -555.37,743.58z"/>
 </g>
</svg>
