<?xml version="1.0" encoding="UTF-8"?>
<!DOCTYPE svg PUBLIC "-//W3C//DTD SVG 1.1//EN" "http://www.w3.org/Graphics/SVG/1.1/DTD/svg11.dtd">
<!-- Creator: CorelDRAW 2021 (64-Bit) -->
<svg xmlns="http://www.w3.org/2000/svg" xml:space="preserve" width="23.7779in" height="23.909in" version="1.1" style="shape-rendering:geometricPrecision; text-rendering:geometricPrecision; image-rendering:optimizeQuality; fill-rule:evenodd; clip-rule:evenodd"
viewBox="0 0 4461.25 4485.84"
 xmlns:xlink="http://www.w3.org/1999/xlink"
 xmlns:xodm="http://www.corel.com/coreldraw/odm/2003">
 <defs>
  <style type="text/css">
   <![CDATA[
    .str1 {stroke:black;stroke-width:93.81;stroke-miterlimit:2.61313}
    .str0 {stroke:black;stroke-width:62.54;stroke-miterlimit:2.61313}
    .fil0 {fill:none}
    .fil1 {fill:#373435}
    .fil7 {fill:#3E4095}
    .fil2 {fill:black}
    .fil4 {fill:#FADE2F}
    .fil5 {fill:#FBE02F}
    .fil6 {fill:#FCE22F}
    .fil3 {fill:#FFF22D}
    .fil8 {fill:black;fill-rule:nonzero}
   ]]>
  </style>
 </defs>
 <g id="Layer_x0020_1">
  <metadata id="CorelCorpID_0Corel-Layer"/>
  <g>
   <path class="fil0 str0" d="M1640.36 4256.51c83.22,22.43 142.35,40.56 282.12,57.57 0,0 -4.36,14.45 -34.75,12.83 -11.71,-0.58 -13.21,-3.47 -17.54,-4.26 -8.59,-1.57 -21.88,7.48 -20.25,22.69 1.12,10.6 10.19,24 41.14,24 30.95,0 67.12,-25.35 85.27,-48.82 0,0 18.68,4.26 37.9,5.35 0,0 -59.49,83.32 -176.83,83.32 -129.12,0.03 -176.8,-115.33 -197.06,-152.67l0 -0zm592.36 -686.32c444.88,0 937.82,-273.07 1283.45,-666.78 37.39,-42.53 100.86,-123.22 251.3,-123.22 150.41,0 350.41,137.08 326.86,386.71 -17.14,182 -277.28,592.15 -722.16,845 -444.88,252.85 -854.56,307.24 -1139.42,307.24 -284.86,0 -694.54,-54.4 -1139.44,-307.24 -444.88,-252.85 -705,-663 -722.19,-845 -23.55,-249.63 176.45,-386.71 326.89,-386.71 150.44,0 213.94,80.71 251.3,123.22 345.62,393.71 838.54,666.78 1283.42,666.78z"/>
   <path id="_1" class="fil1" d="M1640.36 4256.51c83.22,22.43 142.35,40.56 282.12,57.57 0,0 -4.36,14.45 -34.75,12.83 -11.71,-0.58 -13.21,-3.47 -17.54,-4.26 -8.59,-1.57 -21.88,7.48 -20.25,22.69 1.12,10.6 10.19,24 41.14,24 30.95,0 67.12,-25.35 85.27,-48.82 0,0 18.68,4.26 37.9,5.35 0,0 -59.49,83.32 -176.83,83.32 -129.12,0.03 -176.8,-115.33 -197.06,-152.67l0 -0zm592.36 -686.32c444.88,0 937.82,-273.07 1283.45,-666.78 37.39,-42.53 100.86,-123.22 251.3,-123.22 150.41,0 350.41,137.08 326.86,386.71 -17.14,182 -277.28,592.15 -722.16,845 -444.88,252.85 -854.56,307.24 -1139.42,307.24 -284.86,0 -694.54,-54.4 -1139.44,-307.24 -444.88,-252.85 -705,-663 -722.19,-845 -23.55,-249.63 176.45,-386.71 326.89,-386.71 150.44,0 213.94,80.71 251.3,123.22 345.62,393.71 838.54,666.78 1283.42,666.78z"/>
  </g>
  <path class="fil2" d="M2452.72 4304.14c-17.57,52.67 -74.8,181.69 -212.92,181.69 -156.88,0 -211.63,-169.96 -214.29,-176.93l-4.49 -16.3c0,0 135.21,11.23 209.65,11.23 74.45,0 201.62,-7.22 222.45,-11.23l-0.41 11.53z"/>
  <path class="fil2" d="M2864.53 4220.34l32.42 4.31c-38.48,100.25 -107.53,212.64 -243.19,212.64 -131.3,0 -196.4,-76.09 -224.18,-127.27l-22.69 -13.92c0.03,-0.03 227.12,-7.5 457.63,-75.77l0 -0zm-1244.79 0l-32.37 4.31c38.4,100.25 107.5,212.64 243.21,212.64 131.28,0 202.2,-80.35 231.3,-127.27l15.49 -13.92c-0.03,-0.03 -227.07,-7.5 -457.63,-75.77l0 -0z"/>
  <path class="fil3" d="M2349.86 4314.58c-21.24,30.8 -35.44,29.35 -61.09,29.35 -12.83,0 -32.09,10.65 -31.48,29.91 0.41,15.11 12.73,27.73 33.66,27.73 46.34,0 81.65,-64.76 91.58,-92.14 0,0 27.43,-1.19 35.44,-1.98 0,0 -49.15,146.28 -176.5,146.28 -127.63,0 -179.59,-144.71 -179.59,-144.71 0,0 107.37,6.64 168.92,6.64 61.55,0 100.63,-0.28 119.06,-1.09l0 -0zm497.68 -64.36c-83.27,22.43 -142.38,40.56 -282.15,57.57 0,0 4.36,14.45 34.75,12.83 11.69,-0.58 13.18,-3.47 17.52,-4.26 8.62,-1.57 21.88,7.48 20.3,22.69 -1.14,10.6 -10.24,24 -41.19,24 -30.95,0 -67.12,-25.35 -85.3,-48.82 0,0 -18.61,4.26 -37.82,5.35 0,0 59.47,83.32 176.8,83.32 129.12,0.03 176.78,-115.33 197.08,-152.67l0 -0z"/>
  <path class="fil4" d="M2760.95 4331.67c0,-20.2 -6.24,-38.91 -16.83,-54.4 -45.2,10.65 -96.88,20.4 -172.59,29.81 -0.54,2.24 -1.05,4.52 -1.48,6.79 4.56,3.7 13.41,7.68 30.11,6.79 11.69,-0.58 13.18,-3.47 17.52,-4.26 8.62,-1.57 21.88,7.48 20.3,22.69 -1.14,10.6 -10.24,24 -41.19,24 -7.96,0 -16.35,-1.67 -24.61,-4.61 4.06,14.07 11.23,26.79 20.73,37.39 18.54,4.67 37.7,7.07 56.85,7.07 0.23,0 0.45,0 0.68,0 41.39,0 74.37,-11.84 100.81,-29.2 6.39,-13.06 9.71,-27.43 9.71,-41.97 0,-0.03 0,-0.07 0,-0.1l-0 -0.01z"/>
  <path class="fil5" d="M2759.64 4331.67c0,-0.04 0,-0.1 0,-0.15 0,-19.27 -5.91,-38.1 -16.89,-53.92 -44.61,10.39 -95.59,20 -169.76,29.25 -0.69,2.58 -1.28,5.23 -1.71,7.88 4.84,3.42 13.56,6.74 28.92,5.88 11.69,-0.58 13.18,-3.47 17.52,-4.26 8.62,-1.57 21.88,7.48 20.3,22.69 -1.14,10.6 -10.24,24 -41.19,24 -7.48,0 -15.31,-1.5 -23.07,-4.06 4.26,14.17 11.69,26.89 21.55,37.44 16.68,4.06 35.11,6.49 55.21,6.49 40.25,0 72.57,-11.18 98.63,-27.78 6.88,-13.45 10.49,-28.36 10.49,-43.48l0 0.01z"/>
  <path class="fil6" d="M2758.29 4331.67c0,-20 -6.24,-38.55 -16.93,-53.76 -43.95,10.24 -94.37,19.7 -166.94,28.82 -0.79,2.86 -1.5,5.83 -1.98,8.82 5.04,3.12 13.56,5.83 27.73,5.09 11.69,-0.58 13.18,-3.47 17.52,-4.26 8.62,-1.57 21.88,7.48 20.3,22.69 -1.14,10.6 -10.24,24 -41.19,24 -7.31,-0.1 -14.59,-1.31 -21.54,-3.57 4.41,14.22 12.14,27.02 22.33,37.49 16.1,3.7 33.71,5.93 52.88,5.93 39.11,0 70.75,-10.6 96.4,-26.39 7.49,-13.67 11.43,-29.04 11.43,-44.63 0,-0.07 0,-0.17 0,-0.24l-0 0z"/>
  <g>
   <path class="fil0 str1" d="M1629.47 4251.53c83.22,22.43 142.35,40.56 282.12,57.57 0,0 -4.36,14.45 -34.75,12.83 -11.71,-0.58 -13.21,-3.47 -17.54,-4.26 -8.59,-1.57 -21.88,7.48 -20.25,22.69 1.12,10.6 10.19,24 41.14,24 30.95,0 67.12,-25.35 85.27,-48.82 0,0 18.68,4.26 37.9,5.35 0,0 -59.49,83.32 -176.83,83.32 -129.12,0.03 -176.8,-115.33 -197.06,-152.67l0 -0zm592.36 -686.32c444.88,0 937.82,-273.07 1283.45,-666.78 37.39,-42.53 100.86,-123.22 251.3,-123.22 150.41,0 350.41,137.08 326.86,386.71 -17.14,182 -277.28,592.15 -722.16,845 -444.88,252.85 -854.56,307.24 -1139.42,307.24 -284.86,0 -694.54,-54.4 -1139.44,-307.24 -444.88,-252.85 -705,-663 -722.19,-845 -23.55,-249.63 176.45,-386.71 326.89,-386.71 150.44,0 213.94,80.71 251.3,123.22 345.62,393.71 838.54,666.78 1283.42,666.78z"/>
   <path id="_1_0" class="fil1" d="M1629.47 4251.53c83.22,22.43 142.35,40.56 282.12,57.57 0,0 -4.36,14.45 -34.75,12.83 -11.71,-0.58 -13.21,-3.47 -17.54,-4.26 -8.59,-1.57 -21.88,7.48 -20.25,22.69 1.12,10.6 10.19,24 41.14,24 30.95,0 67.12,-25.35 85.27,-48.82 0,0 18.68,4.26 37.9,5.35 0,0 -59.49,83.32 -176.83,83.32 -129.12,0.03 -176.8,-115.33 -197.06,-152.67l0 -0zm592.36 -686.32c444.88,0 937.82,-273.07 1283.45,-666.78 37.39,-42.53 100.86,-123.22 251.3,-123.22 150.41,0 350.41,137.08 326.86,386.71 -17.14,182 -277.28,592.15 -722.16,845 -444.88,252.85 -854.56,307.24 -1139.42,307.24 -284.86,0 -694.54,-54.4 -1139.44,-307.24 -444.88,-252.85 -705,-663 -722.19,-845 -23.55,-249.63 176.45,-386.71 326.89,-386.71 150.44,0 213.94,80.71 251.3,123.22 345.62,393.71 838.54,666.78 1283.42,666.78z"/>
  </g>
  <path class="fil3" d="M1636.8 4250.23c83.22,22.43 142.35,40.56 282.12,57.57 0,0 -4.36,14.45 -34.75,12.83 -11.71,-0.58 -13.21,-3.47 -17.54,-4.26 -8.59,-1.57 -21.88,7.48 -20.25,22.69 1.12,10.6 10.19,24 41.14,24 30.95,0 67.12,-25.35 85.27,-48.82 0,0 18.68,4.26 37.9,5.35 0,0 -59.49,83.32 -176.83,83.32 -129.12,0.03 -176.8,-115.33 -197.06,-152.67l0 -0zm592.36 -686.32c444.88,0 937.82,-273.07 1283.45,-666.78 37.39,-42.53 100.86,-123.22 251.3,-123.22 150.41,0 350.41,137.08 326.86,386.71 -17.14,182 -277.28,592.15 -722.16,845 -444.88,252.85 -854.56,307.24 -1139.42,307.24 -284.86,0 -694.54,-54.4 -1139.44,-307.24 -444.88,-252.85 -705,-663 -722.19,-845 -23.55,-249.63 176.45,-386.71 326.89,-386.71 150.44,0 213.94,80.71 251.3,123.22 345.62,393.71 838.54,666.78 1283.42,666.78z"/>
  <path class="fil7" d="M895.75 2936.24l-5.2 -5.88c-35.41,-40.66 -83.93,-96.4 -199.79,-96.4 -67.58,0 -144.1,36.15 -194.95,92.04 -38.02,41.72 -81.14,115.11 -70.54,227.3 14.45,153.28 257.84,550.81 691.27,797.17 349.35,198.53 722.44,299.23 1108.97,299.23 386.53,0 759.6,-100.71 1108.97,-299.23 433.4,-246.36 676.82,-643.89 691.27,-797.17 10.54,-112.19 -32.52,-185.55 -70.59,-227.3 -50.8,-55.89 -127.37,-92.04 -194.9,-92.04 -115.84,0 -164.36,55.74 -199.82,96.4l-5.15 5.88c-372.49,424.22 -882.03,687.72 -1329.78,687.72 -447.72,0 -957.29,-263.47 -1329.76,-687.72z"/>
  <g>
   <path class="fil0 str0" d="M3656.99 2436.48c0,-213.4 173.05,-386.46 386.51,-386.46 213.43,0 386.48,173.05 386.48,386.46 0,213.48 -173.05,386.51 -386.48,386.51 -213.46,0 -386.51,-173.03 -386.51,-386.51z"/>
   <path id="_1_1" class="fil1" d="M3656.99 2436.48c0,-213.4 173.05,-386.46 386.51,-386.46 213.43,0 386.48,173.05 386.48,386.46 0,213.48 -173.05,386.51 -386.48,386.51 -213.46,0 -386.51,-173.03 -386.51,-386.51z"/>
  </g>
  <path class="fil3" d="M3658.35 2435.87c0,-213.46 172.97,-386.51 386.46,-386.51 213.48,0 386.51,173.05 386.51,386.51 0,213.43 -173.03,386.46 -386.51,386.46 -213.48,0 -386.46,-173.02 -386.46,-386.46z"/>
  <g>
   <path class="fil0 str0" d="M31.27 2436.48c0,-213.4 173.05,-386.46 386.51,-386.46 213.43,0 386.48,173.05 386.48,386.46 0,213.48 -173.05,386.51 -386.48,386.51 -213.46,0 -386.51,-173.03 -386.51,-386.51z"/>
   <path id="_1_2" class="fil1" d="M31.27 2436.48c0,-213.4 173.05,-386.46 386.51,-386.46 213.43,0 386.48,173.05 386.48,386.46 0,213.48 -173.05,386.51 -386.48,386.51 -213.46,0 -386.51,-173.03 -386.51,-386.51z"/>
  </g>
  <path class="fil3" d="M35.16 2436.48c0,-213.4 173.05,-386.46 386.51,-386.46 213.43,0 386.48,173.05 386.48,386.46 0,213.48 -173.05,386.51 -386.48,386.51 -213.46,0 -386.51,-173.03 -386.51,-386.51z"/>
  <path class="fil2" d="M4150.61 1396.35l2.13 -103.5c31.58,23.85 91.73,24.79 126.94,-12.83 16.2,-17.19 25.25,-43.42 23.8,-70.85 -1.98,-32.05 -15.68,-62.33 -38.44,-84.99 -130.16,-126.84 -245.22,-253.63 -245.22,-253.63 -11.63,-18.76 -30.8,-32.62 -41.24,-37.29 -16.3,-7.25 -72.57,-33 -115.51,32.29 -38.91,59.19 -33.13,142.94 -26.13,173.35l122.13 165.93c41.65,52.8 159.03,165.34 191.53,191.5l0.01 -0zm-2602.3 -1076.25c153.46,-51.43 293.5,-93.89 482.32,-110.67l-482.32 110.67z"/>
  <path class="fil2" d="M1548.31 320.53c153.46,-51.51 293.5,-93.89 482.32,-110.69l28.77 -16.25c-105.57,-82.99 -210.31,-139.44 -314.57,-139.44 -65.47,0 -198.55,44.41 -228.46,279.13l31.94 -12.75 0 -0zm1362.13 0c-153.48,-51.51 -293.48,-93.89 -482.3,-110.69l-28.77 -16.25c105.55,-82.99 210.26,-139.44 314.52,-139.44 65.5,0 198.63,44.41 228.49,279.13l-31.94 -12.75 -0 -0zm-807 -134.29c31.2,-1.6 103.22,-3.19 132.04,-3.19 28.77,0 108.34,3.8 125.75,5.12l-257.79 -1.93z"/>
  <path class="fil2" d="M2055.87 201.85c77.18,-147.96 147.91,-201.85 187.02,-201.85 48.92,0 106.21,77.87 151.1,178.07l9.51 22.56 -39.06 -3.22c-26.59,-4.77 -100.2,-5.58 -128.97,-5.58 -28.82,0 -91.23,0 -128.84,3.19l-50.75 6.82 0 -0z"/>
  <path class="fil3" d="M1904.85 3705.24l-69.1 257.79 -128.82 -310.79 -80.18 -21.5 -97.69 364.53 86.97 23.32 69.63 -259.87 130.87 313.58 78.12 20.94 97.67 -364.58 -87.48 -23.42 -0 0zm300.27 46.06l-99.09 -5.2 -19.72 376.85 99.06 5.2 19.75 -376.85 0 0zm88.97 -3.22l6.95 49.66 105.7 -14.9 45.55 324.07 98.25 -13.81 -45.58 -324.02 104.1 -14.65 -6.92 -49.61 -308.05 43.27 -0 0zm1022.34 -153.63c47.98,84.1 38.33,145.29 -35.69,188.03l-35.11 20.25 -138.78 -240.27 37.92 -21.93c88.59,-51.13 138.55,-5.63 171.66,53.92zm-193.02 -99.64l-127.88 73.81 189.32 327.95 126.94 -73.28c132.09,-76.3 144.31,-191.4 92.52,-283.34 -62.53,-109.38 -165.19,-111.94 -280.91,-45.15l-0 0zm-239.56 464.32l-37.67 -115.89 111.84 -36.35 -15.69 -48.21 -111.81 36.32 -32.17 -98.96 114.9 -37.29 -15.49 -47.7 -209.73 68.16 116.6 358.88 231.3 -75.11 -15.69 -48.21 -136.4 44.36 0 0zm-1435.76 -415.81l-111.76 201.59c-33.71,60.78 -68.46,99.26 -125.32,66.44 -56.42,-31.23 -43.37,-77.87 -8.85,-140.2l111.99 -202.1 -90.24 -50.01 -118.3 213.38c-65.25,117.74 17.03,190.26 80.81,225.6 68.67,38.07 168.39,66.39 233.07,-50.34l118.81 -214.37 -90.21 -49.99 0 -0zm-63.93 -2216.71l0 1767.01 844.98 543.16 844.95 -543.16 1.09 -1764.22c-26.79,-23.98 -83.07,-76.47 -127.37,-103.6l-1441.21 0c-36.83,25.8 -109.93,87.22 -122.43,100.81l-0 0z"/>
  <polygon class="fil8" points="1400.15,1326.61 1400.15,3084.93 2229.13,3617.82 3058.11,3084.93 3059.15,1329.4 3091.19,1329.4 3090.1,3093.62 3090.1,3102.29 3082.72,3107.06 2237.75,3650.24 2229.13,3655.79 2220.48,3650.24 1375.53,3107.06 1368.13,3102.29 1368.13,1326.61 "/>
  <path class="fil8" d="M3064.5 1341.37c-7.63,-6.84 -1.88,-1.75 -9.96,-9.05l-0.1 0c-28.82,-26.06 -77.13,-69.71 -115,-92.87l16.68 -27.25c40.89,25.07 90.34,69.73 119.87,96.37l-0.1 0 10.01 8.92 -21.39 23.88 0 0z"/>
  <polygon class="fil8" points="2947.79,1241.8 1506.58,1241.8 1506.58,1209.81 2947.79,1209.81 "/>
  <path class="fil8" d="M1515.76 1238.93c-17.26,12.12 -41.62,31.28 -63.9,49.61 -26.08,21.5 -49.63,41.98 -55.97,48.9l-23.5 -21.62c7.05,-7.73 31.94,-29.45 59.21,-51.91 23.7,-19.52 48.97,-39.47 65.75,-51.23l18.4 26.26z"/>
  <path class="fil7" d="M2288.85 2082.41c-5.88,-2.59 -26.92,14.37 -36.53,29.58 -9.61,15.21 -12.42,34.8 1.19,42 13.61,7.2 30.75,-2.13 34.85,-25.98 2.36,-14.02 6.92,-42.81 0.48,-45.6zm-161.75 45.58c3.52,23.98 21.19,33.21 34.8,25.98 13.61,-7.2 10.82,-26.79 1.22,-42 -9.63,-15.21 -29.43,-32.17 -35.33,-29.58 -6.41,2.81 -2.69,32.01 -0.68,45.6zm84.81 235.05c28.39,-46.59 40.2,-95 40.2,-95l-81.22 0c0,0 13,49.61 41.01,95zm13.99 -350.01l65.6 -114.17 51.2 114.17 84.87 0c-51.23,48.03 -72.04,120.55 -72.04,168.59l0 52.8c0,22.43 -11.18,59.21 -11.18,59.21 0,0 73.46,56.15 84.81,65.6 4.79,4.01 9.86,6.34 6.39,16.05 -5.83,16.53 -55.49,38.66 -60.78,43.17 -11.18,9.61 -14.22,15.89 -10.95,25.65 3.22,9.56 12.52,11.18 31.74,4.77 19.21,-6.39 59.21,-27.17 92.87,-41.6 33.56,-14.4 78.38,-11.23 78.38,-11.23l0 -63.95 -126.39 -0 0 -204.86 -22.43 -35.77 56.04 -99.24 55.94 99.79 -22.38 35.18 0 107.22 64.82 0 0 -107.22 -22.38 -35.18 55.99 -99.26 55.99 99.26 -22.38 35.18 0 107.22 64.81 0 0 -107.22 -22.38 -35.18 55.99 -99.26 55.99 99.26 -22.43 35.18 0.68 204.71 -127.1 0.05 0 94.07c28.82,27.17 56.04,88.46 56.04,125.24 0,36.83 -24,52.83 -24,52.83 7.96,28.82 6.39,40.78 3.17,67.22 -3.27,26.97 -36.83,68.77 -36.83,68.77l0 487.95c0,33.23 -76.78,30.06 -76.78,1.62l0 -478.34c-43.22,-47.98 -161.64,-84.81 -161.64,-84.81 -43.22,43.17 -70.39,118.43 -70.39,118.43 19.21,12.83 48.03,0 59.21,-12.83 11.18,-12.78 33.61,-15.99 46.44,-8.01 12.78,8.01 15.99,11.23 11.18,30.44 -4.79,19.16 -12.83,51.05 -12.83,73.41 0,22.43 25.65,17.57 44.81,19.21 38.43,3.22 44.81,46.39 41.65,70.39 -3.22,24 -14.4,75.26 -14.4,107.22 0,31.96 1.57,64 4.79,81.65 3.17,17.57 9.61,36.78 7.96,59.21 -2.18,30.34 -20.79,35.21 -40,15.99 -19.16,-19.21 -286.46,-304.07 -286.46,-304.07 -17.59,57.57 55.99,156.85 80.02,187.25 24,30.44 22.38,52.83 1.62,73.61 -20.84,20.79 -60.84,31.99 -68.82,51.23 -8.01,19.21 19.21,76.78 75.21,148.77 55.99,72.04 -64.03,120.05 -136.04,134.47 -72.01,14.4 -72.01,-35.26 -67.2,-62.43 4.77,-27.22 4.77,-43.22 3.19,-67.22 -1.6,-23.95 -24,-57.57 -54.42,-97.64 -30.42,-39.95 -30.42,-76.78 -17.59,-169.6 12.8,-92.77 9.61,-152.04 9.61,-152.04 0,0 -32.01,1.62 -78.43,0 -46.41,-1.57 -84.81,-28.62 -88.01,-140.66 -3.19,-112.04 -5.86,-379.23 -13.33,-407.01 -7.45,-27.73 -37.34,-33.08 -50.14,-36.25 -12.8,-3.22 -13.74,-22.43 -0.94,-28.82 33.33,-16.68 73.48,-57.62 58.55,-83.22 -14.93,-25.63 -73.61,-20.3 -113.08,-1.09 -39.47,19.21 -81.09,60.78 -91.76,72.57 -10.67,11.74 -19.21,11.74 -18.15,-1.09 1.06,-12.83 -7.45,-73.61 -12.78,-94.95 -5.32,-21.34 -24.56,-61.85 -30.95,-72.52 -6.39,-10.67 0,-14.93 10.67,-10.67 10.67,4.28 34.14,13.89 56.55,20.28 22.41,6.39 43.73,-4.26 54.4,-25.6 10.67,-21.34 30.92,-67.2 41.6,-87.48 10.67,-20.28 27.76,-16.02 41.62,-12.8 13.89,3.19 26.69,11.74 39.47,17.06 12.8,5.35 23.47,4.28 27.73,-2.13 4.28,-6.39 9.63,-8.54 17.08,-24.56 7.45,-15.99 17.06,-8.52 18.12,-2.13 38.25,229.53 137.64,240.07 137.64,240.07 -14.93,38.38 -50.14,99.21 -58.66,114.17 -8.54,14.9 -11.74,35.16 -13.87,51.2 -2.13,15.99 5.32,167.42 15.99,222.99 10.7,55.46 44.84,34.17 55.49,17.08 10.65,-17.08 43.75,-87.48 43.75,-87.48 0,0 8.54,-19.21 8.54,-35.26 0,-15.99 -27.76,-51.2 -34.17,-61.87 -6.39,-10.65 -29.86,-31.99 -29.86,-85.35 0,-53.33 48.01,-90.7 65.09,-104.56 17.06,-13.87 17.06,-33.03 14.93,-44.76 -7.5,-41.29 -51.23,-128.06 -72.55,-161.14 -21.34,-33.05 -62.94,-96.02 -62.94,-96.02l86.41 0 55.49 -115.23 60.81 115.76 62.84 0.56 0 0zm340.88 581.46l0 -65.6c0,0 -17.62,-27.22 -60.84,-27.22 -43.17,0 -68.77,12.83 -68.77,24 0,17.64 38.4,68.82 129.6,68.82zm-1116.45 -827.13l1558.9 0 0 106.33 -1558.9 0 0 -106.33zm0 -54.65l0 -423.51 1558.9 0 0 423.51 -1558.9 0z"/>
  <polygon class="fil3" points="2702.4,1725.31 2702.4,1653.02 2589.17,1653.02 2589.17,1606.4 2681.59,1606.4 2681.59,1401.57 2596.75,1401.57 2567.93,1345.57 2539.11,1401.57 2454.32,1401.57 2454.32,1606.4 2546.69,1606.4 2546.69,1653.02 2324.89,1653.02 2324.89,1606.4 2417.29,1606.4 2417.29,1401.57 2332.47,1401.57 2303.65,1345.57 2274.86,1401.57 2190.04,1401.57 2190.04,1606.4 2282.41,1606.4 2282.41,1653.02 2056.28,1653.02 2056.28,1606.4 2148.67,1606.4 2148.67,1401.57 2063.83,1401.57 2035.04,1345.57 2006.24,1401.57 1921.4,1401.57 1921.4,1606.4 2013.77,1606.4 2013.77,1653.02 1834.99,1653.5 1656.85,1611.88 1692.76,1725.31 "/>
  <path class="fil3" d="M1718.37 1602.68l119.47 29.35 64.08 -179.87 0.03 -45.35 -183.57 195.86zm288.28 -1404.69c-185.07,16.45 -298.95,55.79 -449.37,106.21 11.18,-64.71 26.24,-103.06 52.37,-141.16 -2.1,33.46 25.22,69.1 79.59,69.1 54.37,0 84.64,-31.36 84.64,-50.19 0,-18.78 -11.43,-46.01 -40.71,-46.01 -29.28,0 -35.54,20.91 -33.46,29.28 2.1,8.39 -4.18,10.47 -12.52,12.57 -8.39,2.08 -31.38,-10.49 -23.02,-39.75 9.18,-32.17 48.09,-49.66 94.07,-49.66 -0.03,-0.05 109.43,-4.41 248.41,109.6l-0 -0zm896.15 107.5c-150.41,-50.47 -269.42,-89.78 -454.49,-106.26 85.19,-59.37 164.76,-109.78 252.19,-109.78 45.98,0 84.92,17.49 94.07,49.66 8.36,29.28 -14.65,41.8 -23.02,39.7 -8.31,-2.1 -14.6,-4.18 -12.52,-12.55 2.08,-8.34 -4.21,-29.28 -33.46,-29.28 -29.25,0 -40.68,27.17 -40.68,46.01 0,18.83 30.24,50.19 84.61,50.19 54.37,0 81.7,-35.66 79.62,-69.1 26.11,38.12 42.51,76.7 53.69,141.42l0 0zm-782.11 -141.9c-4.97,7.93 -9.33,13.84 -14.65,22.69 42.34,-1.92 86.61,-3.25 129.55,-3.25 28.26,0 106.18,3.78 123.27,5.02 -27.58,-63.85 -79.62,-152.01 -115.97,-152.01 -7.17,0 -23.04,-3.73 -52.9,30.65 0,0 -4.64,15.18 14.32,12.27 24.03,-3.68 33.13,21.14 31.36,33.48 -4.21,28.72 -37.64,56.45 -71.13,56.45 -33.43,0 -43.67,-5.37 -43.67,-5.37l-0.17 0.08z"/>
  <path class="fil2" d="M508.73 1204.84l122.13 -165.93c7.02,-30.42 12.8,-114.17 -26.13,-173.35 -42.94,-65.3 -99.26,-39.54 -115.56,-32.29 -10.44,4.66 -29.56,18.53 -41.24,37.29 0,0 -117.16,129.48 -246.79,256.9 -18.02,17.69 -38.35,51.2 -40,81.7 -1.52,27.43 9.25,54.78 25.37,71.96 35.26,37.57 97.01,35.59 128.54,11.74l2.13 103.5c32.6,-26.16 149.93,-138.7 191.55,-191.5l-0 -0z"/>
  <path class="fil3" d="M2229.15 963.05c695.63,0 1091.74,653.22 1177.85,767.97 153.66,204.84 341.31,370.94 559.05,315.79 320.02,-81.06 302.98,-555.27 302.98,-555.27 -76.78,-55.51 -208.54,-125.4 -448.1,-465.19 -234.72,-332.84 -766.04,-826.7 -1591.78,-826.7 -825.79,0 -1357.11,493.85 -1591.8,826.7 -239.56,339.76 -371.27,409.67 -448.08,465.19 0,0 -17.06,474.21 303.01,555.27 217.71,55.16 405.42,-110.95 559.05,-315.79 86.06,-114.75 482.22,-767.97 1177.82,-767.97l-0 0z"/>
  <path class="fil8" d="M2229.15 947.05c646.83,0 1036.61,555.53 1163.42,736.28 11.48,16.37 20.84,29.68 27.17,38.1 75.74,101.04 159.77,192.44 251.35,251.53 89.76,57.95 187.04,84.69 291.05,58.35 284.18,-71.99 291.5,-470.64 290.97,-531.52 -6.08,-4.33 -12.83,-8.97 -19.9,-13.84 -80.51,-55.56 -209.91,-144.84 -425.36,-450.43 -134.7,-191.07 -368.05,-435.66 -699.5,-607.79 -241.11,-125.22 -534.18,-212.09 -879.22,-212.09 -345.04,0 -638.16,86.87 -879.25,212.09 -331.45,172.14 -564.75,416.7 -699.48,607.79 -215.51,305.65 -344.88,394.9 -425.44,450.46 -7.05,4.87 -13.74,9.48 -19.85,13.79 -0.53,60.86 6.79,459.51 291,531.52 104.03,26.36 201.26,-0.41 291.05,-58.35 91.56,-59.09 175.59,-150.49 251.38,-251.53 6.31,-8.42 15.66,-21.72 27.15,-38.07 126.87,-180.73 516.67,-736.28 1163.47,-736.28l0 -0zm0 32.01c-630.23,0 -1012.86,545.26 -1137.31,722.67 -9.03,12.71 -18.6,26.32 -27.74,38.86 -77.84,103.8 -164.51,197.89 -259.61,259.28 -96.91,62.53 -202.38,91.28 -316.06,62.46 -332.72,-84.28 -315.18,-569.82 -315.13,-571.24l0.23 -7.83 6.46 -4.69c8.75,-6.31 17.47,-12.34 26.92,-18.83 78.71,-54.32 205.17,-141.52 417.43,-442.58 136.95,-194.22 374.11,-442.83 710.99,-617.78 245.24,-127.37 543.28,-215.71 893.87,-215.71 350.56,0 648.6,88.34 893.87,215.71 336.85,174.95 574.03,423.54 710.99,617.78 212.24,300.98 338.67,388.26 417.35,442.53 9.45,6.51 18.23,12.57 26.97,18.88l6.49 4.69 0.2 7.83c0.05,1.39 17.57,486.96 -315.13,571.24 -113.66,28.8 -219.13,0.05 -316.01,-62.46 -95.16,-61.39 -181.8,-155.48 -259.66,-259.28 -7.83,-10.42 -16.73,-23.19 -27.78,-38.83 -124.48,-177.41 -507.09,-722.67 -1137.31,-722.67l-0.02 -0.03z"/>
  <path class="fil7" d="M2229.15 901.43c670.58,0 1069.66,568.83 1200.91,755.75 8.49,12.19 17.39,24.86 26.1,36.93 177.44,236.55 339.28,332.41 494.64,293.05 224.71,-56.93 252.34,-366.18 255.46,-459.61l0.1 -3.52 -2.86 -1.98c-79.01,-54.52 -211.4,-145.75 -432.99,-460.12 -132.44,-187.8 -634.99,-800.57 -1541.44,-800.57 -906.44,0 -1408.97,612.76 -1541.41,800.57 -220.12,312.14 -358.24,407.49 -432.46,458.75l-2.89 1.98 0.1 3.52c3.22,93.79 31.13,404.25 254.9,460.98 155.41,39.39 317.2,-56.5 494.59,-293.05 6.49,-8.62 15.64,-21.67 26.26,-36.83 131.18,-186.94 530.28,-755.78 1200.91,-755.78l0.09 -0.07z"/>
  <path class="fil3" d="M786.34 1163.45l-70.01 83.42 131.28 271.35 -281.69 -92.06 -60.3 71.84 289.12 242.58 43.67 -52.04 -204.1 -171.94 273.76 88.95 28.77 -34.27 -130.44 -261.46 205.29 172.21 63.75 -75.99 -289.09 -242.58zm365.49 -56.81l-65.47 70.19 -67.07 -129.63 132.55 59.44 0 -0zm-152.52 -171.3l-64.36 69 180.78 359.54 44.13 -47.3 -49.1 -95.18 87.5 -93.84 98.73 41.93 72.82 -78.07 -370.51 -156.07 0 0zm441.44 -341.59l141.44 226.33 -315.18 -117.77 -70.44 44 200.02 320.04 76.35 -47.68 -142.56 -228.18 318.6 118.17 68.57 -42.89 -199.97 -320.02 -76.83 47.98 0 -0zm1194.4 185.32l39.67 -115.21 111.15 38.3 16.53 -47.96 -111.15 -38.25 33.81 -98.4 114.22 39.34 16.35 -47.43 -208.54 -71.76 -122.84 356.8 229.93 79.16 16.48 -47.91 -135.61 -46.69 0 0zm645.54 -23.85l-34.02 36.88 79.36 71.43 -218.96 243.24 73.71 66.36 218.96 -243.19 78.17 70.32 33.54 -37.24 -230.77 -207.8 0 -0zm108.34 566.65l93.31 -78.25 75.56 90.01 38.81 -32.6 -75.51 -90.04 79.67 -66.87 77.67 92.55 38.38 -32.24 -141.7 -168.94 -289.12 242.61 156.3 186.26 38.81 -32.57 -92.17 -109.91 -0 -0zm437.3 96.12c26.29,29.23 26.39,64 -3.68,91.05 -30.06,27.05 -67.88,21.24 -96.73,-10.82l-16.98 -18.83 95.36 -85.83 22.03 24.44 0 0zm-50.26 185.95c0.73,0.81 58.43,29.4 122.13,-27.98 53.28,-47.98 35.36,-113.81 -20.2,-175.53l-102.84 -114.14 -280.45 252.52 66.39 73.71 111.35 -100.3 32.88 36.45 -71 158.91 84.31 67.81 57.44 -171.43 0 0zm-1419.39 -1197.87l-2.71 154.14 -148.26 -2.56 2.71 -154.19 -99.19 -1.7 -6.57 377.3 99.16 1.75 3.02 -172.52 148.21 2.61 -3.02 172.47 99.26 1.75 6.54 -377.36 -99.16 -1.7 0 -0zm537.2 560.85c70.34,42.26 147.25,35.49 183.04,-24.08 26.34,-41.62 26.54,-76.02 -4.79,-137.56 -8.42,-17.84 -18.76,-30.42 -25.85,-46.21 -13.71,-26.11 -26.54,-47.22 -14.4,-67.37 12.98,-21.6 43.27,-23.14 70.95,-6.51 29.05,17.47 41.04,46.39 46.89,66.49l45.7 -19.77c-14.02,-37.19 -34.75,-70.72 -81.65,-98.88 -80.71,-48.49 -146.49,-35.69 -173.81,9.84 -27.63,45.96 -19.8,83.9 0.73,123.04 0,0 13.21,22.64 20.89,37.46 18.02,30.62 39.11,68.82 24.46,93.2 -18.02,30.01 -49.45,36.68 -79.72,17.87 -38.81,-24.64 -47.88,-53.05 -56.04,-80.91l-50.06 21.62c11.05,37.87 36.93,77.69 93.66,111.78l0 -0zm-1028.8 -541.08c-123.57,26.31 -204.51,116.98 -177.82,239.89 15.21,66.34 74.67,188.99 262.17,149.12 51.86,-9.91 80.25,-30.95 107.6,-56.83l-34.52 -39.39c-12.55,14.35 -32.07,35.21 -75.18,44.36 -90.54,19.26 -144.64,-54.42 -158.1,-117.82 -19.92,-93.71 34.7,-158.78 97.03,-172.01 43.7,-9.3 70.64,2.26 87.68,9.18l0.53 -0.1 11.48 -48.11c-29.83,-12.04 -65.47,-20.03 -120.88,-8.29l0 -0zm2000.64 627.59c-5.2,-22.38 -12.52,-117.97 23.78,-168.41 33.51,-46.49 64.05,-30.75 80.45,-23.47 7.38,3.27 29.51,17.62 33.86,45.91 2.33,15.18 -2.43,37.64 -14.17,54.12 -22.97,29.83 -75.21,49.63 -75.21,49.63 0,0 66.94,131.15 208.82,261.39l-0.51 88.52c-194.24,-187.32 -257.03,-307.67 -257.03,-307.67l0 0z"/>
  <path class="fil3" d="M3963.16 1026.37c19.21,33.1 67.98,114.09 190.06,228.49 20.25,18.99 70.75,34.8 99.26,2.79 10.95,-12.32 17.92,-29.89 16.83,-50.32 -1.29,-23.47 -15.74,-50.87 -29.66,-62.81 -24.36,-20.89 -129.33,-126.89 -204.56,-210.16 -1.62,15.18 -14.9,40.56 -14.9,40.56 -10.09,14.25 -22.71,34.7 -57.03,51.46l0 0zm-3618.2 329.42l-0.51 -83.6c141.92,-130.26 208.94,-260.98 208.94,-260.98 0,0 -52.24,-19.8 -75.21,-49.63 -11.76,-16.48 -16.55,-38.96 -14.19,-54.12 4.41,-28.29 26.49,-42.61 33.84,-45.91 16.4,-7.28 46.94,-23.04 80.4,23.47 36.32,50.44 26.82,145.37 21.65,167.75 0.05,0 -66.11,115.23 -254.92,303.01l-0 0z"/>
  <path class="fil3" d="M502.24 1026.37c-19.16,33.1 -67.96,114.09 -190.03,228.49 -20.25,18.99 -70.75,34.8 -99.21,2.79 -10.98,-12.32 -17.97,-29.89 -16.88,-50.32 1.27,-23.47 15.74,-50.87 29.66,-62.81 24.36,-20.89 129.33,-126.89 204.51,-210.16 1.65,15.18 14.93,40.56 14.93,40.56 10.11,14.25 22.76,34.7 57.03,51.46l-0 0z"/>
  <path class="fil7" d="M107.91 2439.69c0,-173.63 140.76,-314.39 314.37,-314.39 173.66,0 314.39,140.76 314.39,314.39 0,173.68 -140.76,314.37 -314.39,314.37 -173.61,0 -314.37,-140.71 -314.37,-314.37z"/>
  <path class="fil3" d="M591.39 2212.02c5.4,4.31 19.04,15.51 19.04,15.51 27.25,24.38 51.79,52.9 66.01,87.02 18,42.91 -37.44,107.43 -53.66,122.58 -73.33,68.41 -118.91,67.27 -145.09,71.05 -26.21,3.7 -42.71,-12.47 -42.15,-32.09 1.67,-57.72 42.58,-156.09 54.12,-174.27 7.55,-11.89 20.56,-19.47 20.56,-19.47 27.05,-7.58 53.28,-19.21 66.89,-34.63 13.66,-15.39 14.3,-35.72 14.3,-35.72l0 0zm-263.06 -41.49c29.78,-9.99 61.04,-15.26 92.49,-15.36 49.12,0 95.92,9.18 135.71,34.37 10.09,6.36 13.13,14.45 13.13,25.85 0,36.98 -58.33,49.58 -97.16,49.58 -38.78,0 -86.41,-15.44 -120.12,-25.93 -33.74,-10.57 -41.24,-30.27 -41.24,-38.96 -0.05,-8.64 6.44,-25.96 17.19,-29.56l0.01 0zm-124.36 452.99c-39.59,-39.11 -67.83,-109.4 -67.83,-183.62 0,-28.77 4.23,-56.5 12.14,-82.68 0,0 6.67,-11.94 13.16,-1.72 4.61,7.22 10.87,14.65 16.5,24.56 5.68,9.91 36.43,33.26 33.56,51.68 -10.82,69.5 -1.06,162.28 2.18,177.49 3.27,15.13 -1.5,22.41 -9.71,14.3zm7.55 -238.4c-14.02,-7.73 -30.72,-43.42 -36.17,-54.07 -3.88,-7.63 -3.65,-28.92 1.65,-38.28 23.14,-40.94 56.12,-78.22 98.86,-98.02 4.89,-2.26 12.47,-2.48 12.47,9.63 0,6.74 3.35,17.39 3.47,23.95 0.15,6.44 3.07,20.4 -5.63,31.25 -8.64,10.8 -46.94,77.87 -56.27,115.79 -2.1,8.64 -4.36,17.52 -18.38,9.73l0 0zm215.38 339.38c-2.03,-0.1 -4.06,0.05 -6.08,0.05 -52.39,0 -109.73,-19.85 -143.72,-38.86 -35.11,-19.64 -48.26,-109.5 -48.26,-155.46 0,-148.29 61.11,-237.43 70.85,-254.77 9.73,-17.29 31.38,-19.47 47.63,-15.16 16.25,4.36 22.51,7.63 41.14,13.26 10.09,3.07 30.29,7.28 45.45,10.54 15.16,3.27 31.36,6.49 21.65,34.65 -9.73,28.11 -42.38,96.25 -45.96,176.8 -3.24,72.72 6.49,145.24 22.99,189.7 10.72,28.85 10.54,39.77 -5.68,39.24l0 -0zm74.65 -11.53c-16.27,5.25 -23.78,-6.34 -31.36,-15.06 -29.23,-33.36 -36.78,-123.17 -36.78,-135.05 0,-11.99 4.31,-24.94 12.62,-25.14 71.05,-1.77 121.57,-22.53 167.88,-60.61 46.31,-38.07 66.36,-81.09 70.59,-89.5 4.21,-8.42 13.33,-6.92 15.54,5.25 1.8,9.91 5.48,27.88 5.48,47.02 -0.03,129.17 -87.05,235.18 -203.98,273.1z"/>
  <path class="fil7" d="M4362.69 2439.69c0,-173.63 -140.76,-314.39 -314.37,-314.39 -173.68,0 -314.37,140.76 -314.37,314.39 0,173.68 140.71,314.37 314.37,314.37 173.61,0 314.37,-140.71 314.37,-314.37z"/>
  <path class="fil3" d="M4222.72 2212.02c5.4,4.31 19.04,15.51 19.04,15.51 27.25,24.38 51.79,52.9 66.01,87.02 18,42.91 -37.44,107.43 -53.66,122.58 -73.33,68.41 -118.91,67.27 -145.09,71.05 -26.21,3.7 -42.71,-12.47 -42.15,-32.09 1.67,-57.72 42.58,-156.09 54.12,-174.27 7.55,-11.89 20.56,-19.47 20.56,-19.47 27.05,-7.58 53.28,-19.21 66.89,-34.63 13.66,-15.39 14.3,-35.72 14.3,-35.72l0 0zm-263.06 -41.49c29.78,-9.99 61.04,-15.26 92.49,-15.36 49.12,0 95.92,9.18 135.71,34.37 10.09,6.36 13.13,14.45 13.13,25.85 0,36.98 -58.33,49.58 -97.16,49.58 -38.78,0 -86.41,-15.44 -120.12,-25.93 -33.74,-10.57 -41.24,-30.27 -41.24,-38.96 -0.05,-8.64 6.44,-25.96 17.19,-29.56l0.01 0zm-124.36 452.99c-39.59,-39.11 -67.83,-109.4 -67.83,-183.62 0,-28.77 4.23,-56.5 12.14,-82.68 0,0 6.67,-11.94 13.16,-1.72 4.61,7.22 10.87,14.65 16.5,24.56 5.68,9.91 36.43,33.26 33.56,51.68 -10.82,69.5 -1.06,162.28 2.18,177.49 3.27,15.13 -1.5,22.41 -9.71,14.3zm7.55 -238.4c-14.02,-7.73 -30.72,-43.42 -36.17,-54.07 -3.88,-7.63 -3.65,-28.92 1.65,-38.28 23.14,-40.94 56.12,-78.22 98.86,-98.02 4.89,-2.26 12.47,-2.48 12.47,9.63 0,6.74 3.35,17.39 3.47,23.95 0.15,6.44 3.07,20.4 -5.63,31.25 -8.64,10.8 -46.94,77.87 -56.27,115.79 -2.1,8.64 -4.36,17.52 -18.38,9.73l0 0zm215.38 339.38c-2.03,-0.1 -4.06,0.05 -6.08,0.05 -52.39,0 -109.73,-19.85 -143.72,-38.86 -35.11,-19.64 -48.26,-109.5 -48.26,-155.46 0,-148.29 61.11,-237.43 70.85,-254.77 9.73,-17.29 31.38,-19.47 47.63,-15.16 16.25,4.36 22.51,7.63 41.14,13.26 10.09,3.07 30.29,7.28 45.45,10.54 15.16,3.27 31.36,6.49 21.65,34.65 -9.73,28.11 -42.38,96.25 -45.96,176.8 -3.24,72.72 6.49,145.24 22.99,189.7 10.72,28.85 10.54,39.77 -5.68,39.24l0 -0zm74.65 -11.53c-16.27,5.25 -23.78,-6.34 -31.36,-15.06 -29.23,-33.36 -36.78,-123.17 -36.78,-135.05 0,-11.99 4.31,-24.94 12.62,-25.14 71.05,-1.77 121.57,-22.53 167.88,-60.61 46.31,-38.07 66.36,-81.09 70.59,-89.5 4.21,-8.42 13.33,-6.92 15.54,5.25 1.8,9.91 5.48,27.88 5.48,47.02 -0.03,129.17 -87.05,235.18 -203.98,273.1z"/>
 </g>
</svg>
