<?xml version="1.0" encoding="UTF-8"?>
<!DOCTYPE svg PUBLIC "-//W3C//DTD SVG 1.1//EN" "http://www.w3.org/Graphics/SVG/1.1/DTD/svg11.dtd">
<!-- Creator: CorelDRAW 2021 (64-Bit) -->
<svg xmlns="http://www.w3.org/2000/svg" xml:space="preserve" width="26.0417in" height="26.0417in" version="1.1" style="shape-rendering:geometricPrecision; text-rendering:geometricPrecision; image-rendering:optimizeQuality; fill-rule:evenodd; clip-rule:evenodd"
viewBox="0 0 5447.25 5447.25"
 xmlns:xlink="http://www.w3.org/1999/xlink"
 xmlns:xodm="http://www.corel.com/coreldraw/odm/2003">
 <defs>
  <style type="text/css">
   <![CDATA[
    .str1 {stroke:black;stroke-width:104.59;stroke-miterlimit:2.61313}
    .str0 {stroke:black;stroke-width:69.73;stroke-miterlimit:2.61313}
    .fil0 {fill:none}
    .fil1 {fill:#373435}
    .fil8 {fill:#3E4095}
    .fil3 {fill:black}
    .fil5 {fill:#FADE2F}
    .fil6 {fill:#FBE02F}
    .fil7 {fill:#FCE22F}
    .fil4 {fill:#FFF22D}
    .fil2 {fill:white}
    .fil9 {fill:black;fill-rule:nonzero}
   ]]>
  </style>
 </defs>
 <g id="Layer_x0020_1">
  <metadata id="CorelCorpID_0Corel-Layer"/>
  <g>
   <path class="fil0 str0" d="M2062.65 4968.52c92.78,25.01 158.71,45.22 314.53,64.18 0,0 -4.86,16.11 -38.74,14.3 -13.06,-0.65 -14.72,-3.87 -19.56,-4.75 -9.58,-1.75 -24.39,8.34 -22.58,25.29 1.24,11.81 11.36,26.76 45.87,26.76 34.51,0 74.83,-28.26 95.07,-54.43 0,0 20.83,4.75 42.25,5.96 0,0 -66.33,92.89 -197.14,92.89 -143.96,0.03 -197.11,-128.58 -219.69,-170.21l0 -0zm660.4 -765.16c495.99,0 1045.56,-304.44 1430.88,-743.37 41.68,-47.42 112.45,-137.37 280.17,-137.37 167.69,0 390.66,152.83 364.41,431.13 -19.1,202.91 -309.13,660.18 -805.12,942.07 -495.99,281.89 -952.72,342.54 -1270.31,342.54 -317.58,0 -774.32,-60.65 -1270.33,-342.54 -495.99,-281.89 -785.99,-739.16 -805.15,-942.07 -26.25,-278.3 196.72,-431.13 364.44,-431.13 167.72,0 238.51,89.98 280.17,137.37 385.32,438.93 934.86,743.37 1430.85,743.37z"/>
   <path id="_1" class="fil1" d="M2062.65 4968.52c92.78,25.01 158.71,45.22 314.53,64.18 0,0 -4.86,16.11 -38.74,14.3 -13.06,-0.65 -14.72,-3.87 -19.56,-4.75 -9.58,-1.75 -24.39,8.34 -22.58,25.29 1.24,11.81 11.36,26.76 45.87,26.76 34.51,0 74.83,-28.26 95.07,-54.43 0,0 20.83,4.75 42.25,5.96 0,0 -66.33,92.89 -197.14,92.89 -143.96,0.03 -197.11,-128.58 -219.69,-170.21l0 -0zm660.4 -765.16c495.99,0 1045.56,-304.44 1430.88,-743.37 41.68,-47.42 112.45,-137.37 280.17,-137.37 167.69,0 390.66,152.83 364.41,431.13 -19.1,202.91 -309.13,660.18 -805.12,942.07 -495.99,281.89 -952.72,342.54 -1270.31,342.54 -317.58,0 -774.32,-60.65 -1270.33,-342.54 -495.99,-281.89 -785.99,-739.16 -805.15,-942.07 -26.25,-278.3 196.72,-431.13 364.44,-431.13 167.72,0 238.51,89.98 280.17,137.37 385.32,438.93 934.86,743.37 1430.85,743.37z"/>
  </g>
  <polygon class="fil2" points="-0,0 5447.25,0 5447.25,5447.25 -0,5447.25 "/>
  <path class="fil3" d="M2968.32 5021.63c-19.58,58.72 -83.39,202.57 -237.38,202.57 -174.9,0 -235.94,-189.48 -238.91,-197.25l-5 -18.17c0,0 150.74,12.52 233.74,12.52 83,0 224.78,-8.05 248.01,-12.52l-0.45 12.86z"/>
  <path class="fil3" d="M3427.43 4928.2l36.14 4.8c-42.9,111.77 -119.88,237.07 -271.12,237.07 -146.39,0 -218.96,-84.84 -249.93,-141.89l-25.29 -15.51c0.03,-0.03 253.21,-8.36 510.2,-84.47l0 -0zm-1387.78 0l-36.09 4.8c42.81,111.77 119.85,237.07 271.15,237.07 146.36,0 225.43,-89.58 257.87,-141.89l17.27 -15.51c-0.03,-0.03 -253.15,-8.36 -510.2,-84.47l0 -0z"/>
  <path class="fil4" d="M2853.65 5033.27c-23.68,34.34 -39.51,32.73 -68.11,32.73 -14.3,0 -35.78,11.87 -35.1,33.35 0.45,16.84 14.19,30.92 37.53,30.92 51.66,0 91.02,-72.2 102.1,-102.72 0,0 30.58,-1.33 39.51,-2.2 0,0 -54.8,163.09 -196.77,163.09 -142.29,0 -200.22,-161.34 -200.22,-161.34 0,0 119.71,7.4 188.32,7.4 68.61,0 112.19,-0.31 132.74,-1.22l0 -0zm554.85 -71.75c-92.83,25.01 -158.74,45.22 -314.56,64.18 0,0 4.86,16.11 38.74,14.3 13.03,-0.65 14.69,-3.87 19.53,-4.75 9.61,-1.75 24.39,8.34 22.64,25.29 -1.27,11.81 -11.42,26.76 -45.92,26.76 -34.5,0 -74.83,-28.26 -95.09,-54.43 0,0 -20.74,4.75 -42.16,5.96 0,0 66.3,92.89 197.11,92.89 143.96,0.03 197.08,-128.58 219.72,-170.21l0 -0z"/>
  <path class="fil5" d="M3311.96 5052.32c0,-22.52 -6.95,-43.38 -18.76,-60.65 -50.39,11.87 -108.01,22.75 -192.42,33.23 -0.6,2.49 -1.17,5.04 -1.66,7.57 5.09,4.13 14.95,8.56 33.57,7.57 13.03,-0.65 14.69,-3.87 19.53,-4.75 9.61,-1.75 24.39,8.34 22.64,25.29 -1.27,11.81 -11.42,26.76 -45.92,26.76 -8.87,0 -18.23,-1.87 -27.44,-5.14 4.52,15.68 12.52,29.87 23.12,41.68 20.67,5.2 42.03,7.89 63.38,7.89 0.25,0 0.51,0 0.76,0 46.15,0 82.91,-13.2 112.39,-32.56 7.12,-14.56 10.83,-30.58 10.83,-46.79 0,-0.04 0,-0.08 0,-0.12l-0 -0.01z"/>
  <path class="fil6" d="M3310.49 5052.32c0,-0.05 0,-0.11 0,-0.17 0,-21.48 -6.59,-42.48 -18.83,-60.11 -49.74,11.59 -106.57,22.3 -189.26,32.61 -0.77,2.88 -1.43,5.83 -1.91,8.79 5.4,3.82 15.12,7.52 32.24,6.56 13.03,-0.65 14.69,-3.87 19.53,-4.75 9.61,-1.75 24.39,8.34 22.64,25.29 -1.27,11.81 -11.42,26.76 -45.92,26.76 -8.34,0 -17.07,-1.67 -25.72,-4.52 4.75,15.8 13.03,29.98 24.02,41.74 18.6,4.52 39.14,7.23 61.55,7.23 44.88,0 80.91,-12.46 109.96,-30.97 7.67,-14.99 11.69,-31.62 11.69,-48.47l0 0.01z"/>
  <path class="fil7" d="M3309 5052.32c0,-22.3 -6.95,-42.98 -18.88,-59.94 -49,11.42 -105.21,21.96 -186.12,32.13 -0.88,3.19 -1.67,6.5 -2.2,9.83 5.62,3.48 15.12,6.5 30.92,5.68 13.03,-0.65 14.69,-3.87 19.53,-4.75 9.61,-1.75 24.39,8.34 22.64,25.29 -1.27,11.81 -11.42,26.76 -45.92,26.76 -8.15,-0.11 -16.27,-1.46 -24.02,-3.98 4.92,15.85 13.54,30.13 24.9,41.8 17.95,4.13 37.59,6.61 58.95,6.61 43.6,0 78.87,-11.81 107.47,-29.42 8.35,-15.24 12.74,-32.37 12.74,-49.76 0,-0.08 0,-0.19 0,-0.27l-0 0z"/>
  <g>
   <path class="fil0 str1" d="M2050.5 4962.97c92.78,25.01 158.71,45.22 314.53,64.18 0,0 -4.86,16.11 -38.74,14.3 -13.06,-0.65 -14.72,-3.87 -19.56,-4.75 -9.58,-1.75 -24.39,8.34 -22.58,25.29 1.24,11.81 11.36,26.76 45.87,26.76 34.51,0 74.83,-28.26 95.07,-54.43 0,0 20.83,4.75 42.25,5.96 0,0 -66.33,92.89 -197.14,92.89 -143.96,0.03 -197.11,-128.58 -219.69,-170.21l0 -0zm660.4 -765.16c495.99,0 1045.56,-304.44 1430.88,-743.37 41.68,-47.42 112.45,-137.37 280.17,-137.37 167.69,0 390.66,152.83 364.41,431.13 -19.1,202.91 -309.13,660.18 -805.12,942.07 -495.99,281.89 -952.72,342.54 -1270.31,342.54 -317.58,0 -774.32,-60.65 -1270.33,-342.54 -495.99,-281.89 -785.99,-739.16 -805.15,-942.07 -26.25,-278.3 196.72,-431.13 364.44,-431.13 167.72,0 238.51,89.98 280.17,137.37 385.32,438.93 934.86,743.37 1430.85,743.37z"/>
   <path id="_1_0" class="fil1" d="M2050.5 4962.97c92.78,25.01 158.71,45.22 314.53,64.18 0,0 -4.86,16.11 -38.74,14.3 -13.06,-0.65 -14.72,-3.87 -19.56,-4.75 -9.58,-1.75 -24.39,8.34 -22.58,25.29 1.24,11.81 11.36,26.76 45.87,26.76 34.51,0 74.83,-28.26 95.07,-54.43 0,0 20.83,4.75 42.25,5.96 0,0 -66.33,92.89 -197.14,92.89 -143.96,0.03 -197.11,-128.58 -219.69,-170.21l0 -0zm660.4 -765.16c495.99,0 1045.56,-304.44 1430.88,-743.37 41.68,-47.42 112.45,-137.37 280.17,-137.37 167.69,0 390.66,152.83 364.41,431.13 -19.1,202.91 -309.13,660.18 -805.12,942.07 -495.99,281.89 -952.72,342.54 -1270.31,342.54 -317.58,0 -774.32,-60.65 -1270.33,-342.54 -495.99,-281.89 -785.99,-739.16 -805.15,-942.07 -26.25,-278.3 196.72,-431.13 364.44,-431.13 167.72,0 238.51,89.98 280.17,137.37 385.32,438.93 934.86,743.37 1430.85,743.37z"/>
  </g>
  <path class="fil4" d="M2058.67 4961.52c92.78,25.01 158.71,45.22 314.53,64.18 0,0 -4.86,16.11 -38.74,14.3 -13.06,-0.65 -14.72,-3.87 -19.56,-4.75 -9.58,-1.75 -24.39,8.34 -22.58,25.29 1.24,11.81 11.36,26.76 45.87,26.76 34.51,0 74.83,-28.26 95.07,-54.43 0,0 20.83,4.75 42.25,5.96 0,0 -66.33,92.89 -197.14,92.89 -143.96,0.03 -197.11,-128.58 -219.69,-170.21l0 -0zm660.4 -765.16c495.99,0 1045.56,-304.44 1430.88,-743.37 41.68,-47.42 112.45,-137.37 280.17,-137.37 167.69,0 390.66,152.83 364.41,431.13 -19.1,202.91 -309.13,660.18 -805.12,942.07 -495.99,281.89 -952.72,342.54 -1270.31,342.54 -317.58,0 -774.32,-60.65 -1270.33,-342.54 -495.99,-281.89 -785.99,-739.16 -805.15,-942.07 -26.25,-278.3 196.72,-431.13 364.44,-431.13 167.72,0 238.51,89.98 280.17,137.37 385.32,438.93 934.86,743.37 1430.85,743.37z"/>
  <path class="fil8" d="M1232.49 3496.59l-5.79 -6.56c-39.48,-45.33 -93.57,-107.47 -222.74,-107.47 -75.34,0 -160.66,40.3 -217.35,102.61 -42.39,46.52 -90.46,128.33 -78.65,253.41 16.11,170.89 287.46,614.09 770.67,888.74 389.48,221.33 805.43,333.61 1236.37,333.61 430.93,0 846.86,-112.28 1236.37,-333.61 483.19,-274.66 754.56,-717.86 770.67,-888.74 11.76,-125.08 -36.26,-206.86 -78.7,-253.41 -56.63,-62.31 -142.01,-102.61 -217.29,-102.61 -129.15,0 -183.24,62.14 -222.77,107.47l-5.74 6.56c-415.28,472.96 -983.36,766.72 -1482.54,766.72 -499.15,0 -1067.26,-293.73 -1482.51,-766.72z"/>
  <g>
   <path class="fil0 str0" d="M4310.94 2939.42c0,-237.92 192.93,-430.85 430.91,-430.85 237.95,0 430.88,192.93 430.88,430.85 0,238 -192.93,430.91 -430.88,430.91 -237.98,0 -430.91,-192.9 -430.91,-430.91z"/>
   <path id="_1_1" class="fil1" d="M4310.94 2939.42c0,-237.92 192.93,-430.85 430.91,-430.85 237.95,0 430.88,192.93 430.88,430.85 0,238 -192.93,430.91 -430.88,430.91 -237.98,0 -430.91,-192.9 -430.91,-430.91z"/>
  </g>
  <path class="fil4" d="M4312.45 2938.74c0,-237.98 192.84,-430.91 430.85,-430.91 238,0 430.91,192.93 430.91,430.91 0,237.95 -192.9,430.85 -430.91,430.85 -238,0 -430.85,-192.9 -430.85,-430.85z"/>
  <g>
   <path class="fil0 str0" d="M268.71 2939.42c0,-237.92 192.93,-430.85 430.91,-430.85 237.95,0 430.88,192.93 430.88,430.85 0,238 -192.93,430.91 -430.88,430.91 -237.98,0 -430.91,-192.9 -430.91,-430.91z"/>
   <path id="_1_2" class="fil1" d="M268.71 2939.42c0,-237.92 192.93,-430.85 430.91,-430.85 237.95,0 430.88,192.93 430.88,430.85 0,238 -192.93,430.91 -430.88,430.91 -237.98,0 -430.91,-192.9 -430.91,-430.91z"/>
  </g>
  <path class="fil4" d="M273.05 2939.42c0,-237.92 192.93,-430.85 430.91,-430.85 237.95,0 430.88,192.93 430.88,430.85 0,238 -192.93,430.91 -430.88,430.91 -237.98,0 -430.91,-192.9 -430.91,-430.91z"/>
  <path class="fil3" d="M4861.25 1779.8l2.37 -115.39c35.21,26.59 102.27,27.64 141.53,-14.3 18.06,-19.16 28.15,-48.41 26.54,-78.99 -2.21,-35.73 -17.48,-69.49 -42.85,-94.75 -145.11,-141.41 -273.38,-282.77 -273.38,-282.77 -12.97,-20.91 -34.34,-36.37 -45.98,-41.57 -18.17,-8.08 -80.91,-36.79 -128.78,36 -43.38,65.99 -36.94,159.36 -29.14,193.27l136.16 184.99c46.43,58.87 177.3,184.34 213.53,213.5l0.01 -0zm-2901.24 -1199.88c171.08,-57.34 327.22,-104.67 537.73,-123.38l-537.73 123.38z"/>
  <path class="fil3" d="M1960.02 580.4c171.08,-57.42 327.22,-104.67 537.73,-123.41l32.07 -18.11c-117.7,-92.52 -234.47,-155.46 -350.7,-155.46 -73,0 -221.36,49.51 -254.71,311.2l35.61 -14.21 0 -0zm1518.6 0c-171.11,-57.42 -327.19,-104.67 -537.7,-123.41l-32.07 -18.11c117.67,-92.52 234.42,-155.46 350.65,-155.46 73.02,0 221.44,49.51 254.73,311.2l-35.61 -14.21 -0 -0zm-899.71 -149.72c34.79,-1.78 115.07,-3.56 147.21,-3.56 32.07,0 120.78,4.24 140.2,5.71l-287.4 -2.15z"/>
  <path class="fil3" d="M2525.89 448.09c86.05,-164.95 164.9,-225.03 208.5,-225.03 54.54,0 118.41,86.81 168.46,198.53l10.6 25.15 -43.55 -3.59c-29.64,-5.31 -111.71,-6.22 -143.79,-6.22 -32.13,0 -101.71,0 -143.64,3.56l-56.58 7.6 0 -0z"/>
  <path class="fil4" d="M2357.52 4353.93l-77.04 287.4 -143.62 -346.49 -89.39 -23.96 -108.91 406.4 96.96 26 77.63 -289.72 145.91 349.6 87.1 23.34 108.89 -406.46 -97.52 -26.11 -0 0zm334.77 51.35l-110.47 -5.79 -21.99 420.14 110.44 5.79 22.01 -420.14 0 0zm99.19 -3.59l7.74 55.36 117.84 -16.62 50.78 361.3 109.53 -15.4 -50.81 -361.24 116.06 -16.33 -7.71 -55.3 -343.44 48.24 -0 0zm1139.77 -171.28c53.5,93.77 42.73,161.98 -39.79,209.63l-39.14 22.58 -154.72 -267.87 42.28 -24.44c98.77,-57 154.47,-6.27 191.38,60.11zm-215.2 -111.09l-142.57 82.29 211.07 365.63 141.53 -81.7c147.26,-85.06 160.88,-213.39 103.15,-315.89 -69.72,-121.94 -184.17,-124.8 -313.17,-50.33l-0 0zm-267.08 517.66l-41.99 -129.2 124.68 -40.52 -17.49 -53.75 -124.65 40.5 -35.86 -110.33 128.1 -41.57 -17.27 -53.18 -233.82 75.99 130 400.1 257.87 -83.73 -17.49 -53.75 -152.07 49.45 0 0zm-1600.69 -463.57l-124.6 224.75c-37.59,67.77 -76.33,110.67 -139.72,74.07 -62.91,-34.82 -48.35,-86.81 -9.86,-156.31l124.85 -225.32 -100.6 -55.76 -131.89 237.89c-72.74,131.27 18.99,212.12 90.09,251.51 76.56,42.45 187.73,74.01 259.85,-56.12l132.45 -238.99 -100.58 -55.73 0 -0zm-71.27 -2471.35l0 1969.99 942.04 605.55 942.01 -605.55 1.22 -1966.88c-29.87,-26.73 -92.61,-85.26 -142.01,-115.5l-1606.77 0c-41.06,28.77 -122.56,97.24 -136.49,112.39l-0 0z"/>
  <polygon class="fil9" points="1794.84,1702.06 1794.84,3662.36 2719.05,4256.46 3643.25,3662.36 3644.41,1705.17 3680.13,1705.17 3678.92,3672.05 3678.92,3681.72 3670.69,3687.03 2728.65,4292.61 2719.05,4298.8 2709.41,4292.61 1767.4,3687.03 1759.14,3681.72 1759.14,1702.06 "/>
  <path class="fil9" d="M3650.38 1718.51c-8.51,-7.63 -2.09,-1.95 -11.11,-10.09l-0.11 0c-32.13,-29.05 -85.99,-77.71 -128.21,-103.54l18.6 -30.38c45.58,27.95 100.72,77.74 133.64,107.44l-0.11 0 11.16 9.95 -23.85 26.62 0 0z"/>
  <polygon class="fil9" points="3520.27,1607.5 1913.5,1607.5 1913.5,1571.84 3520.27,1571.84 "/>
  <path class="fil9" d="M1923.73 1604.31c-19.24,13.51 -46.4,34.87 -71.24,55.3 -29.08,23.96 -55.33,46.8 -62.4,54.51l-26.2 -24.11c7.86,-8.62 35.61,-32.84 66.02,-57.88 26.42,-21.76 54.6,-44 73.31,-57.11l20.52 29.28z"/>
  <path class="fil8" d="M2785.63 2544.68c-6.56,-2.88 -30.01,16.02 -40.72,32.98 -10.71,16.96 -13.85,38.8 1.33,46.83 15.18,8.03 34.28,-2.37 38.86,-28.97 2.63,-15.63 7.71,-47.73 0.54,-50.84zm-180.33 50.81c3.93,26.73 23.63,37.02 38.8,28.97 15.18,-8.03 12.07,-29.87 1.36,-46.83 -10.74,-16.96 -32.81,-35.86 -39.39,-32.98 -7.15,3.14 -3,35.69 -0.76,50.84zm94.56 262.05c31.65,-51.94 44.82,-105.92 44.82,-105.92l-90.54 0c0,0 14.5,55.3 45.72,105.92zm15.6 -390.21l73.14 -127.28 57.08 127.28 94.61 0c-57.11,53.55 -80.31,134.4 -80.31,187.96l0 58.87c0,25.01 -12.46,66.02 -12.46,66.02 0,0 81.9,62.6 94.56,73.14 5.34,4.47 10.99,7.06 7.12,17.89 -6.5,18.43 -61.86,43.1 -67.77,48.13 -12.46,10.71 -15.85,17.72 -12.21,28.6 3.59,10.65 13.96,12.46 35.38,5.31 21.42,-7.12 66.02,-30.29 103.54,-46.37 37.42,-16.05 87.38,-12.52 87.38,-12.52l0 -71.3 -140.9 -0 0 -228.4 -25.01 -39.87 62.48 -110.64 62.37 111.26 -24.95 39.22 0 119.54 72.26 0 0 -119.54 -24.95 -39.22 62.43 -110.67 62.43 110.67 -24.95 39.22 0 119.54 72.26 0 0 -119.54 -24.95 -39.22 62.43 -110.67 62.43 110.67 -25.01 39.22 0.76 228.23 -141.69 0.06 0 104.87c32.13,30.29 62.48,98.63 62.48,139.63 0,41.06 -26.76,58.89 -26.76,58.89 8.87,32.13 7.12,45.47 3.53,74.95 -3.65,30.07 -41.06,76.67 -41.06,76.67l0 544c0,37.05 -85.6,33.52 -85.6,1.81l0 -533.29c-48.18,-53.5 -180.21,-94.56 -180.21,-94.56 -48.18,48.13 -78.48,132.03 -78.48,132.03 21.42,14.3 53.55,0 66.02,-14.3 12.46,-14.24 37.47,-17.83 51.77,-8.93 14.24,8.93 17.83,12.52 12.46,33.94 -5.34,21.36 -14.3,56.92 -14.3,81.84 0,25.01 28.6,19.58 49.96,21.42 42.84,3.59 49.96,51.72 46.43,78.48 -3.59,26.76 -16.05,83.9 -16.05,119.54 0,35.64 1.75,71.36 5.34,91.02 3.53,19.58 10.71,41 8.87,66.02 -2.43,33.83 -23.17,39.25 -44.59,17.83 -21.36,-21.42 -319.36,-339 -319.36,-339 -19.61,64.18 62.43,174.87 89.22,208.76 26.76,33.94 24.95,58.89 1.81,82.07 -23.23,23.17 -67.82,35.66 -76.72,57.11 -8.93,21.42 21.42,85.6 83.85,165.86 62.43,80.31 -71.38,133.84 -151.67,149.92 -80.29,16.05 -80.29,-39.31 -74.92,-69.6 5.31,-30.35 5.31,-48.18 3.56,-74.95 -1.78,-26.71 -26.76,-64.18 -60.67,-108.86 -33.91,-44.54 -33.91,-85.6 -19.61,-189.09 14.27,-103.43 10.71,-169.5 10.71,-169.5 0,0 -35.69,1.81 -87.44,0 -51.74,-1.75 -94.56,-31.91 -98.12,-156.81 -3.56,-124.91 -6.53,-422.79 -14.86,-453.77 -8.31,-30.92 -41.63,-36.88 -55.9,-40.41 -14.27,-3.59 -15.32,-25.01 -1.05,-32.13 37.16,-18.6 81.93,-64.23 65.28,-92.78 -16.64,-28.57 -82.07,-22.64 -126.07,-1.22 -44,21.42 -90.4,67.77 -102.3,80.91 -11.9,13.08 -21.42,13.08 -20.23,-1.22 1.19,-14.3 -8.31,-82.07 -14.24,-105.86 -5.93,-23.79 -27.38,-68.95 -34.51,-80.85 -7.12,-11.9 0,-16.64 11.9,-11.9 11.9,4.78 38.07,15.49 63.05,22.61 24.98,7.12 48.75,-4.75 60.65,-28.54 11.9,-23.79 34.48,-74.92 46.37,-97.52 11.9,-22.61 30.94,-17.86 46.4,-14.27 15.49,3.56 29.76,13.08 44,19.02 14.27,5.96 26.17,4.78 30.92,-2.37 4.78,-7.12 10.74,-9.52 19.05,-27.38 8.31,-17.83 19.02,-9.5 20.21,-2.37 42.64,255.89 153.45,267.65 153.45,267.65 -16.64,42.79 -55.9,110.61 -65.39,127.28 -9.52,16.62 -13.08,39.2 -15.46,57.08 -2.37,17.83 5.93,186.66 17.83,248.6 11.93,61.83 49.99,38.09 61.86,19.05 11.87,-19.05 48.78,-97.52 48.78,-97.52 0,0 9.52,-21.42 9.52,-39.31 0,-17.83 -30.94,-57.08 -38.09,-68.98 -7.12,-11.87 -33.29,-35.66 -33.29,-95.15 0,-59.46 53.52,-101.11 72.57,-116.57 19.02,-15.46 19.02,-36.82 16.64,-49.91 -8.36,-46.03 -57.11,-142.77 -80.88,-179.65 -23.79,-36.85 -70.17,-107.05 -70.17,-107.05l96.34 0 61.86 -128.47 67.8 129.06 70.06 0.62 0 0zm380.04 648.25l0 -73.14c0,0 -19.64,-30.35 -67.82,-30.35 -48.13,0 -76.67,14.3 -76.67,26.76 0,19.67 42.81,76.72 144.49,76.72zm-1244.7 -922.15l1737.98 0 0 118.55 -1737.98 0 0 -118.55zm0 -60.93l0 -472.16 1737.98 0 0 472.16 -1737.98 0z"/>
  <polygon class="fil4" points="3246.68,2146.56 3246.68,2065.96 3120.45,2065.96 3120.45,2013.99 3223.48,2013.99 3223.48,1785.62 3128.9,1785.62 3096.77,1723.2 3064.63,1785.62 2970.11,1785.62 2970.11,2013.99 3073.08,2013.99 3073.08,2065.96 2825.81,2065.96 2825.81,2013.99 2928.82,2013.99 2928.82,1785.62 2834.26,1785.62 2802.13,1723.2 2770.03,1785.62 2675.47,1785.62 2675.47,2013.99 2778.45,2013.99 2778.45,2065.96 2526.34,2065.96 2526.34,2013.99 2629.35,2013.99 2629.35,1785.62 2534.76,1785.62 2502.66,1723.2 2470.56,1785.62 2375.97,1785.62 2375.97,2013.99 2478.95,2013.99 2478.95,2065.96 2279.63,2066.5 2081.02,2020.1 2121.07,2146.56 "/>
  <path class="fil4" d="M2149.61 2009.84l133.19 32.73 71.44 -200.53 0.03 -50.56 -204.66 218.36zm321.4 -1566.05c-206.32,18.34 -333.3,62.2 -500.99,118.41 12.46,-72.15 29.25,-114.9 58.39,-157.38 -2.35,37.3 28.12,77.04 88.74,77.04 60.62,0 94.36,-34.96 94.36,-55.95 0,-20.94 -12.74,-51.29 -45.39,-51.29 -32.64,0 -39.62,23.31 -37.3,32.64 2.35,9.35 -4.66,11.67 -13.96,14.02 -9.35,2.32 -34.99,-11.7 -25.66,-44.31 10.23,-35.86 53.61,-55.36 104.87,-55.36 -0.03,-0.06 122,-4.92 276.95,122.2l-0 -0zm999.1 119.85c-167.69,-56.27 -300.37,-100.1 -506.7,-118.47 94.98,-66.18 183.69,-122.39 281.16,-122.39 51.26,0 94.67,19.5 104.87,55.36 9.33,32.64 -16.33,46.6 -25.66,44.26 -9.27,-2.35 -16.28,-4.66 -13.96,-13.99 2.32,-9.3 -4.69,-32.64 -37.3,-32.64 -32.61,0 -45.36,30.29 -45.36,51.29 0,21 33.71,55.95 94.33,55.95 60.62,0 91.08,-39.76 88.76,-77.04 29.11,42.5 47.39,85.51 59.85,157.66l0 0zm-871.96 -158.2c-5.54,8.85 -10.4,15.43 -16.33,25.29 47.2,-2.14 96.56,-3.62 144.43,-3.62 31.51,0 118.38,4.21 137.43,5.6 -30.75,-71.19 -88.76,-169.47 -129.29,-169.47 -8,0 -25.69,-4.15 -58.98,34.17 0,0 -5.17,16.93 15.97,13.68 26.79,-4.1 36.94,23.57 34.96,37.33 -4.69,32.02 -41.97,62.93 -79.3,62.93 -37.28,0 -48.69,-5.99 -48.69,-5.99l-0.19 0.09z"/>
  <path class="fil3" d="M801.02 1566.3l136.16 -184.99c7.83,-33.91 14.27,-127.28 -29.14,-193.27 -47.87,-72.8 -110.67,-44.09 -128.84,-36 -11.64,5.2 -32.95,20.66 -45.98,41.57 0,0 -130.62,144.35 -275.14,286.41 -20.09,19.72 -42.76,57.08 -44.59,91.08 -1.7,30.58 10.31,61.07 28.29,80.23 39.31,41.88 108.15,39.68 143.31,13.08l2.37 115.39c36.34,-29.16 167.16,-154.64 213.56,-213.5l-0 -0z"/>
  <path class="fil4" d="M2719.07 1296.73c775.53,0 1217.15,728.25 1313.15,856.19 171.31,228.37 380.52,413.55 623.27,352.06 356.78,-90.37 337.79,-619.06 337.79,-619.06 -85.6,-61.89 -232.49,-139.8 -499.58,-518.62 -261.69,-371.08 -854.04,-921.67 -1774.63,-921.67 -920.65,0 -1513,550.59 -1774.66,921.67 -267.08,378.79 -413.92,456.74 -499.55,518.62 0,0 -19.02,528.68 337.82,619.06 242.72,61.49 451.99,-123.69 623.27,-352.06 95.94,-127.93 537.61,-856.19 1313.12,-856.19l-0 0z"/>
  <path class="fil9" d="M2719.07 1278.9c721.13,0 1155.68,619.34 1297.07,820.86 12.8,18.26 23.23,33.09 30.29,42.47 84.44,112.64 178.12,214.55 280.22,280.42 100.07,64.6 208.53,94.42 324.48,65.05 316.82,-80.26 324.99,-524.7 324.39,-592.58 -6.78,-4.83 -14.3,-10 -22.18,-15.43 -89.75,-61.95 -234.02,-161.48 -474.23,-502.18 -150.17,-213.02 -410.33,-485.7 -779.86,-677.61 -268.81,-139.6 -595.55,-236.45 -980.22,-236.45 -384.67,0 -711.47,96.85 -980.25,236.45 -369.53,191.91 -629.63,464.56 -779.83,677.61 -240.26,340.76 -384.5,440.26 -474.31,502.21 -7.86,5.43 -15.32,10.57 -22.13,15.37 -0.59,67.85 7.57,512.29 324.42,592.58 115.98,29.39 224.38,-0.45 324.48,-65.05 102.07,-65.87 195.76,-167.78 280.25,-280.42 7.04,-9.38 17.46,-24.22 30.27,-42.45 141.44,-201.49 576.02,-820.86 1297.12,-820.86l0 -0zm0 35.69c-702.62,0 -1129.2,607.9 -1267.96,805.69 -10.07,14.17 -20.73,29.34 -30.92,43.33 -86.79,115.72 -183.41,220.62 -289.44,289.07 -108.04,69.72 -225.63,101.76 -352.37,69.63 -370.94,-93.96 -351.38,-635.28 -351.33,-636.86l0.25 -8.73 7.21 -5.23c9.75,-7.04 19.47,-13.76 30.01,-21 87.75,-60.56 228.73,-157.77 465.38,-493.42 152.69,-216.53 417.09,-493.7 792.66,-688.75 273.41,-142.01 605.69,-240.49 996.55,-240.49 390.83,0 723.11,98.49 996.55,240.49 375.54,195.05 639.97,472.19 792.66,688.75 236.62,335.56 377.58,432.86 465.3,493.36 10.54,7.26 20.32,14.02 30.07,21.05l7.23 5.23 0.23 8.73c0.06,1.55 19.58,542.9 -351.33,636.86 -126.72,32.1 -244.31,0.06 -352.32,-69.63 -106.09,-68.45 -202.68,-173.35 -289.49,-289.07 -8.73,-11.61 -18.65,-25.86 -30.97,-43.29 -138.78,-197.79 -565.34,-805.69 -1267.96,-805.69l-0.02 -0.03z"/>
  <path class="fil8" d="M2719.07 1228.03c747.61,0 1192.54,634.18 1338.86,842.57 9.46,13.6 19.39,27.71 29.09,41.17 197.82,263.72 378.26,370.6 551.46,326.71 250.52,-63.47 281.33,-408.24 284.8,-512.41l0.11 -3.93 -3.19 -2.2c-88.09,-60.79 -235.69,-162.49 -482.73,-512.97 -147.66,-209.38 -707.94,-892.53 -1718.51,-892.53 -1010.57,0 -1570.82,683.15 -1718.48,892.53 -245.41,347.99 -399.4,454.3 -482.14,511.45l-3.22 2.2 0.11 3.93c3.59,104.56 34.7,450.69 284.18,513.93 173.26,43.92 353.64,-62.99 551.41,-326.71 7.23,-9.61 17.44,-24.16 29.28,-41.06 146.24,-208.42 591.19,-842.59 1338.86,-842.59l0.1 -0.08z"/>
  <path class="fil4" d="M1110.53 1520.15l-78.05 93 146.36 302.52 -314.05 -102.64 -67.23 80.09 322.33 270.45 48.69 -58.02 -227.55 -191.69 305.21 99.16 32.07 -38.21 -145.42 -291.5 228.88 192 71.07 -84.72 -322.3 -270.45zm407.48 -63.33l-73 78.25 -74.78 -144.52 147.77 66.27 0 -0zm-170.04 -190.98l-71.75 76.92 201.55 400.84 49.2 -52.73 -54.74 -106.12 97.55 -104.62 110.07 46.74 81.19 -87.04 -413.07 -174 0 0zm492.14 -380.83l157.69 252.33 -351.38 -131.29 -78.53 49.06 223 356.81 85.12 -53.16 -158.93 -254.39 355.2 131.75 76.44 -47.82 -222.94 -356.78 -85.66 53.5 0 -0zm1331.6 206.61l44.23 -128.44 123.92 42.7 18.43 -53.47 -123.92 -42.64 37.7 -109.7 127.34 43.86 18.23 -52.87 -232.49 -80 -136.95 397.79 256.34 88.26 18.37 -53.41 -151.19 -52.05 0 0zm719.69 -26.59l-37.92 41.12 88.48 79.64 -244.11 271.18 82.18 73.98 244.11 -271.12 87.15 78.39 37.39 -41.51 -257.28 -231.67 0 -0zm120.78 631.75l104.02 -87.24 84.24 100.35 43.27 -36.34 -84.19 -100.38 88.82 -74.55 86.59 103.18 42.79 -35.95 -157.97 -188.35 -322.33 270.47 174.25 207.65 43.27 -36.31 -102.75 -122.53 -0 -0zm487.54 107.16c29.31,32.58 29.42,71.36 -4.1,101.51 -33.52,30.15 -75.68,23.68 -107.84,-12.07l-18.93 -21 106.31 -95.69 24.56 27.24 0 0zm-56.04 207.31c0.82,0.9 65.14,32.78 136.16,-31.2 59.4,-53.5 39.42,-126.89 -22.52,-195.7l-114.65 -127.25 -312.67 281.52 74.01 82.18 124.14 -111.82 36.65 40.64 -79.16 177.16 93.99 75.6 64.04 -191.12 0 0zm-1582.44 -1335.47l-3.02 171.85 -165.29 -2.85 3.02 -171.9 -110.58 -1.89 -7.32 420.65 110.55 1.95 3.36 -192.34 165.24 2.91 -3.36 192.28 110.67 1.95 7.29 -420.7 -110.55 -1.89 0 -0zm598.91 625.28c78.42,47.11 164.16,39.56 204.06,-26.85 29.36,-46.4 29.59,-84.75 -5.34,-153.37 -9.38,-19.89 -20.91,-33.91 -28.82,-51.52 -15.29,-29.11 -29.59,-52.65 -16.05,-75.11 14.47,-24.08 48.24,-25.8 79.1,-7.26 32.39,19.47 45.75,51.72 52.28,74.13l50.95 -22.04c-15.63,-41.46 -38.74,-78.84 -91.02,-110.24 -89.98,-54.06 -163.31,-39.79 -193.78,10.97 -30.8,51.24 -22.07,93.54 0.82,137.17 0,0 14.72,25.24 23.29,41.77 20.09,34.14 43.6,76.72 27.27,103.91 -20.09,33.46 -55.13,40.89 -88.88,19.92 -43.27,-27.47 -53.38,-59.15 -62.48,-90.21l-55.81 24.11c12.32,42.22 41.17,86.62 104.42,124.63l0 -0zm-1146.98 -603.23c-137.77,29.33 -228,130.42 -198.24,267.45 16.96,73.96 83.25,210.71 292.29,166.25 57.82,-11.05 89.47,-34.51 119.96,-63.36l-38.49 -43.92c-13.99,16 -35.75,39.25 -83.82,49.45 -100.94,21.48 -161.25,-60.67 -176.26,-131.35 -22.21,-104.48 38.69,-177.02 108.18,-191.77 48.72,-10.37 78.76,2.52 97.75,10.23l0.59 -0.11 12.8 -53.64c-33.26,-13.42 -73,-22.33 -134.77,-9.24l0 -0zm2230.46 699.68c-5.79,-24.95 -13.96,-131.52 26.51,-187.76 37.36,-51.83 71.41,-34.28 89.7,-26.17 8.22,3.65 32.89,19.64 37.76,51.18 2.6,16.93 -2.71,41.97 -15.8,60.33 -25.6,33.26 -83.85,55.33 -83.85,55.33 0,0 74.63,146.22 232.8,291.42l-0.56 98.68c-216.55,-208.84 -286.55,-343.02 -286.55,-343.02l0 0z"/>
  <path class="fil4" d="M4652.27 1367.32c21.42,36.91 75.79,127.2 211.89,254.73 22.58,21.17 78.87,38.8 110.67,3.11 12.21,-13.73 19.98,-33.32 18.76,-56.1 -1.44,-26.17 -17.55,-56.72 -33.06,-70.03 -27.16,-23.29 -144.18,-141.47 -228.06,-234.3 -1.81,16.93 -16.62,45.22 -16.62,45.22 -11.25,15.88 -25.32,38.69 -63.58,57.37l0 0zm-4033.83 367.26l-0.56 -93.2c158.23,-145.23 232.95,-290.96 232.95,-290.96 0,0 -58.24,-22.07 -83.85,-55.33 -13.11,-18.37 -18.45,-43.43 -15.83,-60.33 4.92,-31.54 29.53,-47.5 37.73,-51.18 18.28,-8.11 52.34,-25.69 89.64,26.17 40.5,56.24 29.9,162.07 24.13,187.02 0.06,0 -73.7,128.47 -284.21,337.82l-0 0z"/>
  <path class="fil4" d="M793.79 1367.32c-21.36,36.91 -75.76,127.2 -211.86,254.73 -22.58,21.17 -78.87,38.8 -110.61,3.11 -12.24,-13.73 -20.04,-33.32 -18.82,-56.1 1.41,-26.17 17.55,-56.72 33.06,-70.03 27.16,-23.29 144.18,-141.47 228,-234.3 1.84,16.93 16.64,45.22 16.64,45.22 11.28,15.88 25.38,38.69 63.58,57.37l-0 0z"/>
  <path class="fil8" d="M354.15 2943c0,-193.58 156.93,-350.51 350.48,-350.51 193.61,0 350.51,156.93 350.51,350.51 0,193.64 -156.93,350.48 -350.51,350.48 -193.55,0 -350.48,-156.87 -350.48,-350.48z"/>
  <path class="fil4" d="M893.18 2689.17c6.02,4.8 21.22,17.29 21.22,17.29 30.38,27.19 57.73,58.98 73.59,97.02 20.06,47.84 -41.74,119.77 -59.83,136.66 -81.76,76.27 -132.57,75 -161.76,79.21 -29.22,4.13 -47.62,-13.9 -47,-35.78 1.87,-64.35 47.48,-174.02 60.33,-194.29 8.42,-13.25 22.92,-21.7 22.92,-21.7 30.15,-8.45 59.4,-21.42 74.58,-38.6 15.23,-17.15 15.94,-39.82 15.94,-39.82l0 0zm-293.28 -46.26c33.2,-11.13 68.06,-17.01 103.11,-17.13 54.77,0 106.93,10.23 151.3,38.32 11.25,7.09 14.64,16.11 14.64,28.82 0,41.23 -65.03,55.28 -108.32,55.28 -43.24,0 -96.34,-17.21 -133.92,-28.91 -37.61,-11.78 -45.98,-33.74 -45.98,-43.43 -0.06,-9.64 7.18,-28.94 19.16,-32.95l0.01 0zm-138.64 505.03c-44.14,-43.6 -75.62,-121.97 -75.62,-204.71 0,-32.07 4.72,-62.99 13.54,-92.18 0,0 7.43,-13.31 14.67,-1.92 5.14,8.05 12.12,16.33 18.4,27.38 6.33,11.05 40.61,37.08 37.42,57.62 -12.07,77.49 -1.19,180.92 2.43,197.87 3.65,16.87 -1.67,24.98 -10.82,15.94zm8.42 -265.78c-15.63,-8.62 -34.25,-48.41 -40.33,-60.28 -4.32,-8.51 -4.07,-32.24 1.84,-42.67 25.8,-45.64 62.57,-87.21 110.21,-109.28 5.45,-2.52 13.9,-2.77 13.9,10.74 0,7.52 3.73,19.39 3.87,26.71 0.17,7.18 3.42,22.75 -6.27,34.84 -9.64,12.04 -52.34,86.81 -62.74,129.09 -2.35,9.64 -4.86,19.53 -20.49,10.85l0 0zm240.12 378.37c-2.26,-0.11 -4.52,0.06 -6.78,0.06 -58.41,0 -122.34,-22.13 -160.23,-43.32 -39.14,-21.9 -53.81,-122.08 -53.81,-173.32 0,-165.32 68.13,-264.71 78.99,-284.04 10.85,-19.27 34.99,-21.7 53.1,-16.9 18.11,4.86 25.09,8.51 45.87,14.78 11.25,3.42 33.77,8.11 50.67,11.76 16.9,3.65 34.96,7.23 24.13,38.63 -10.85,31.34 -47.25,107.3 -51.24,197.11 -3.62,81.08 7.23,161.93 25.63,211.5 11.95,32.16 11.76,44.34 -6.33,43.75l0 -0zm83.22 -12.86c-18.14,5.85 -26.51,-7.06 -34.96,-16.79 -32.58,-37.19 -41,-137.31 -41,-150.57 0,-13.37 4.8,-27.81 14.07,-28.03 79.21,-1.98 135.53,-25.12 187.16,-67.57 51.63,-42.45 73.98,-90.4 78.7,-99.79 4.69,-9.38 14.86,-7.71 17.32,5.85 2.01,11.05 6.1,31.09 6.1,52.42 -0.03,144.01 -97.04,262.19 -227.41,304.47z"/>
  <path class="fil8" d="M5097.7 2943c0,-193.58 -156.93,-350.51 -350.48,-350.51 -193.64,0 -350.48,156.93 -350.48,350.51 0,193.64 156.87,350.48 350.48,350.48 193.55,0 350.48,-156.87 350.48,-350.48z"/>
  <path class="fil4" d="M4941.65 2689.17c6.02,4.8 21.22,17.29 21.22,17.29 30.38,27.19 57.73,58.98 73.59,97.02 20.06,47.84 -41.74,119.77 -59.83,136.66 -81.76,76.27 -132.57,75 -161.76,79.21 -29.22,4.13 -47.62,-13.9 -47,-35.78 1.87,-64.35 47.48,-174.02 60.33,-194.29 8.42,-13.25 22.92,-21.7 22.92,-21.7 30.15,-8.45 59.4,-21.42 74.58,-38.6 15.23,-17.15 15.94,-39.82 15.94,-39.82l0 0zm-293.28 -46.26c33.2,-11.13 68.06,-17.01 103.11,-17.13 54.77,0 106.93,10.23 151.3,38.32 11.25,7.09 14.64,16.11 14.64,28.82 0,41.23 -65.03,55.28 -108.32,55.28 -43.24,0 -96.34,-17.21 -133.92,-28.91 -37.61,-11.78 -45.98,-33.74 -45.98,-43.43 -0.06,-9.64 7.18,-28.94 19.16,-32.95l0.01 0zm-138.64 505.03c-44.14,-43.6 -75.62,-121.97 -75.62,-204.71 0,-32.07 4.72,-62.99 13.54,-92.18 0,0 7.43,-13.31 14.67,-1.92 5.14,8.05 12.12,16.33 18.4,27.38 6.33,11.05 40.61,37.08 37.42,57.62 -12.07,77.49 -1.19,180.92 2.43,197.87 3.65,16.87 -1.67,24.98 -10.82,15.94zm8.42 -265.78c-15.63,-8.62 -34.25,-48.41 -40.33,-60.28 -4.32,-8.51 -4.07,-32.24 1.84,-42.67 25.8,-45.64 62.57,-87.21 110.21,-109.28 5.45,-2.52 13.9,-2.77 13.9,10.74 0,7.52 3.73,19.39 3.87,26.71 0.17,7.18 3.42,22.75 -6.27,34.84 -9.64,12.04 -52.34,86.81 -62.74,129.09 -2.35,9.64 -4.86,19.53 -20.49,10.85l0 0zm240.12 378.37c-2.26,-0.11 -4.52,0.06 -6.78,0.06 -58.41,0 -122.34,-22.13 -160.23,-43.32 -39.14,-21.9 -53.81,-122.08 -53.81,-173.32 0,-165.32 68.13,-264.71 78.99,-284.04 10.85,-19.27 34.99,-21.7 53.1,-16.9 18.11,4.86 25.09,8.51 45.87,14.78 11.25,3.42 33.77,8.11 50.67,11.76 16.9,3.65 34.96,7.23 24.13,38.63 -10.85,31.34 -47.25,107.3 -51.24,197.11 -3.62,81.08 7.23,161.93 25.63,211.5 11.95,32.16 11.76,44.34 -6.33,43.75l0 -0zm83.22 -12.86c-18.14,5.85 -26.51,-7.06 -34.96,-16.79 -32.58,-37.19 -41,-137.31 -41,-150.57 0,-13.37 4.8,-27.81 14.07,-28.03 79.21,-1.98 135.53,-25.12 187.16,-67.57 51.63,-42.45 73.98,-90.4 78.7,-99.79 4.69,-9.38 14.86,-7.71 17.32,5.85 2.01,11.05 6.1,31.09 6.1,52.42 -0.03,144.01 -97.04,262.19 -227.41,304.47z"/>
 </g>
</svg>
