<?xml version="1.0" encoding="UTF-8"?>
<!DOCTYPE svg PUBLIC "-//W3C//DTD SVG 1.1//EN" "http://www.w3.org/Graphics/SVG/1.1/DTD/svg11.dtd">
<!-- Creator: CorelDRAW 2021 (64-Bit) -->
<svg xmlns="http://www.w3.org/2000/svg" xml:space="preserve" width="26.0417in" height="26.0417in" version="1.1" style="shape-rendering:geometricPrecision; text-rendering:geometricPrecision; image-rendering:optimizeQuality; fill-rule:evenodd; clip-rule:evenodd"
viewBox="0 0 10239.53 10239.53"
 xmlns:xlink="http://www.w3.org/1999/xlink"
 xmlns:xodm="http://www.corel.com/coreldraw/odm/2003">
 <defs>
  <style type="text/css">
   <![CDATA[
    .str1 {stroke:black;stroke-width:196.6;stroke-miterlimit:2.61313}
    .str0 {stroke:black;stroke-width:131.07;stroke-miterlimit:2.61313}
    .fil0 {fill:none}
    .fil1 {fill:#373435}
    .fil3 {fill:black}
    .fil8 {fill:#C23227}
    .fil5 {fill:#FADE2F}
    .fil6 {fill:#FBE02F}
    .fil7 {fill:#FCE22F}
    .fil4 {fill:#FFF22D}
    .fil2 {fill:white}
    .fil9 {fill:black;fill-rule:nonzero}
   ]]>
  </style>
 </defs>
 <g id="Layer_x0020_1">
  <metadata id="CorelCorpID_0Corel-Layer"/>
  <g>
   <path class="fil0 str0" d="M3877.29 9339.64c174.4,47.01 298.33,84.99 591.24,120.64 0,0 -9.14,30.28 -72.83,26.88 -24.54,-1.22 -27.68,-7.28 -36.76,-8.92 -18.01,-3.29 -45.84,15.67 -42.44,47.54 2.34,22.2 21.35,50.31 86.22,50.31 64.86,0 140.67,-53.12 178.7,-102.31 0,0 39.15,8.92 79.42,11.21 0,0 -124.68,174.61 -370.58,174.61 -270.6,0.05 -370.52,-241.7 -412.97,-319.95l0 -0zm1241.4 -1438.32c932.34,0 1965.4,-572.28 2689.71,-1397.37 78.35,-89.14 211.37,-258.22 526.65,-258.22 315.22,0 734.35,287.28 685,810.42 -35.91,381.41 -581.1,1240.98 -1513.44,1770.87 -932.34,529.89 -1790.89,643.89 -2387.87,643.89 -596.98,0 -1455.53,-114 -2387.93,-643.89 -932.34,-529.89 -1477.47,-1389.45 -1513.49,-1770.87 -49.35,-523.14 369.78,-810.42 685.06,-810.42 315.28,0 448.35,169.14 526.65,258.22 724.31,825.09 1757.32,1397.37 2689.66,1397.37z"/>
   <path id="_1" class="fil1" d="M3877.29 9339.64c174.4,47.01 298.33,84.99 591.24,120.64 0,0 -9.14,30.28 -72.83,26.88 -24.54,-1.22 -27.68,-7.28 -36.76,-8.92 -18.01,-3.29 -45.84,15.67 -42.44,47.54 2.34,22.2 21.35,50.31 86.22,50.31 64.86,0 140.67,-53.12 178.7,-102.31 0,0 39.15,8.92 79.42,11.21 0,0 -124.68,174.61 -370.58,174.61 -270.6,0.05 -370.52,-241.7 -412.97,-319.95l0 -0zm1241.4 -1438.32c932.34,0 1965.4,-572.28 2689.71,-1397.37 78.35,-89.14 211.37,-258.22 526.65,-258.22 315.22,0 734.35,287.28 685,810.42 -35.91,381.41 -581.1,1240.98 -1513.44,1770.87 -932.34,529.89 -1790.89,643.89 -2387.87,643.89 -596.98,0 -1455.53,-114 -2387.93,-643.89 -932.34,-529.89 -1477.47,-1389.45 -1513.49,-1770.87 -49.35,-523.14 369.78,-810.42 685.06,-810.42 315.28,0 448.35,169.14 526.65,258.22 724.31,825.09 1757.32,1397.37 2689.66,1397.37z"/>
  </g>
  <polygon class="fil2" points="-0,0 10239.53,0 10239.53,10239.53 -0,10239.53 "/>
  <path class="fil3" d="M5579.75 9439.46c-36.81,110.39 -156.76,380.78 -446.22,380.78 -328.77,0 -443.51,-356.18 -449.09,-370.79l-9.4 -34.16c0,0 283.35,23.53 439.37,23.53 156.02,0 422.53,-15.14 466.2,-23.53l-0.85 24.17z"/>
  <path class="fil3" d="M6442.76 9263.84l67.94 9.03c-80.64,210.1 -225.34,445.64 -509.65,445.64 -275.17,0 -411.59,-159.47 -469.81,-266.72l-47.54 -29.16c0.05,-0.05 475.97,-15.72 959.06,-158.78l0 -0zm-2608.7 0l-67.84 9.03c80.48,210.1 225.29,445.64 509.7,445.64 275.12,0 423.75,-168.4 484.74,-266.72l32.46 -29.16c-0.05,-0.05 -475.86,-15.72 -959.06,-158.78l0 -0z"/>
  <path class="fil4" d="M5364.18 9461.35c-44.52,64.54 -74.26,61.52 -128.02,61.52 -26.88,0 -67.25,22.31 -65.98,62.68 0.85,31.66 26.67,58.12 70.54,58.12 97.11,0 171.1,-135.73 191.93,-193.1 0,0 57.48,-2.5 74.26,-4.14 0,0 -103,306.57 -369.89,306.57 -267.47,0 -376.37,-303.27 -376.37,-303.27 0,0 225.02,13.92 354,13.92 128.98,0 210.89,-0.58 249.51,-2.28l0 -0zm1042.99 -134.88c-174.51,47.01 -298.38,84.99 -591.3,120.64 0,0 9.14,30.28 72.83,26.88 24.49,-1.22 27.62,-7.28 36.71,-8.92 18.06,-3.29 45.84,15.67 42.55,47.54 -2.39,22.2 -21.46,50.31 -86.32,50.31 -64.86,0 -140.67,-53.12 -178.75,-102.31 0,0 -38.99,8.92 -79.26,11.21 0,0 124.62,174.61 370.52,174.61 270.6,0.05 370.47,-241.7 413.02,-319.95l0 -0z"/>
  <path class="fil5" d="M6225.7 9497.15c0,-42.34 -13.07,-81.54 -35.27,-114 -94.72,22.31 -203.03,42.76 -361.71,62.47 -1.13,4.68 -2.19,9.48 -3.11,14.23 9.56,7.76 28.1,16.1 63.11,14.24 24.49,-1.22 27.62,-7.28 36.71,-8.92 18.06,-3.29 45.84,15.67 42.55,47.54 -2.39,22.2 -21.46,50.31 -86.32,50.31 -16.68,0 -34.26,-3.51 -51.58,-9.67 8.5,29.48 23.53,56.15 43.45,78.35 38.86,9.78 79,14.83 119.14,14.83 0.48,0 0.95,0 1.43,0 86.75,0 155.86,-24.81 211.26,-61.2 13.38,-27.36 20.35,-57.49 20.35,-87.95 0,-0.07 0,-0.15 0,-0.22l-0 -0.01z"/>
  <path class="fil6" d="M6222.94 9497.15c0,-0.09 0,-0.21 0,-0.31 0,-40.37 -12.39,-79.85 -35.39,-112.99 -93.49,21.78 -200.32,41.91 -355.76,61.3 -1.45,5.42 -2.68,10.97 -3.59,16.52 10.15,7.17 28.42,14.13 60.61,12.32 24.49,-1.22 27.62,-7.28 36.71,-8.92 18.06,-3.29 45.84,15.67 42.55,47.54 -2.39,22.2 -21.46,50.31 -86.32,50.31 -15.67,0 -32.09,-3.13 -48.34,-8.5 8.92,29.7 24.49,56.36 45.15,78.46 34.95,8.5 73.57,13.6 115.7,13.6 84.36,0 152.09,-23.43 206.7,-58.22 14.42,-28.18 21.98,-59.44 21.98,-91.12l0 0.01z"/>
  <path class="fil7" d="M6220.13 9497.15c0,-41.91 -13.07,-80.8 -35.49,-112.67 -92.11,21.46 -197.77,41.27 -349.86,60.4 -1.65,6 -3.13,12.22 -4.14,18.49 10.57,6.53 28.42,12.22 58.12,10.68 24.49,-1.22 27.62,-7.28 36.71,-8.92 18.06,-3.29 45.84,15.67 42.55,47.54 -2.39,22.2 -21.46,50.31 -86.32,50.31 -15.31,-0.21 -30.58,-2.74 -45.15,-7.49 9.24,29.8 25.44,56.63 46.8,78.57 33.73,7.76 70.65,12.43 110.81,12.43 81.97,0 148.26,-22.2 202.02,-55.3 15.69,-28.65 23.96,-60.85 23.96,-93.53 0,-0.14 0,-0.36 0,-0.5l-0 0z"/>
  <g>
   <path class="fil0 str1" d="M3854.45 9329.2c174.4,47.01 298.33,84.99 591.24,120.64 0,0 -9.14,30.28 -72.83,26.88 -24.54,-1.22 -27.68,-7.28 -36.76,-8.92 -18.01,-3.29 -45.84,15.67 -42.44,47.54 2.34,22.2 21.35,50.31 86.22,50.31 64.86,0 140.67,-53.12 178.7,-102.31 0,0 39.15,8.92 79.42,11.21 0,0 -124.68,174.61 -370.58,174.61 -270.6,0.05 -370.52,-241.7 -412.97,-319.95l0 -0zm1241.4 -1438.32c932.34,0 1965.4,-572.28 2689.71,-1397.37 78.35,-89.14 211.37,-258.22 526.65,-258.22 315.22,0 734.35,287.28 685,810.42 -35.91,381.41 -581.1,1240.98 -1513.44,1770.87 -932.34,529.89 -1790.89,643.89 -2387.87,643.89 -596.98,0 -1455.53,-114 -2387.93,-643.89 -932.34,-529.89 -1477.47,-1389.45 -1513.49,-1770.87 -49.35,-523.14 369.78,-810.42 685.06,-810.42 315.28,0 448.35,169.14 526.65,258.22 724.31,825.09 1757.32,1397.37 2689.66,1397.37z"/>
   <path id="_1_0" class="fil1" d="M3854.45 9329.2c174.4,47.01 298.33,84.99 591.24,120.64 0,0 -9.14,30.28 -72.83,26.88 -24.54,-1.22 -27.68,-7.28 -36.76,-8.92 -18.01,-3.29 -45.84,15.67 -42.44,47.54 2.34,22.2 21.35,50.31 86.22,50.31 64.86,0 140.67,-53.12 178.7,-102.31 0,0 39.15,8.92 79.42,11.21 0,0 -124.68,174.61 -370.58,174.61 -270.6,0.05 -370.52,-241.7 -412.97,-319.95l0 -0zm1241.4 -1438.32c932.34,0 1965.4,-572.28 2689.71,-1397.37 78.35,-89.14 211.37,-258.22 526.65,-258.22 315.22,0 734.35,287.28 685,810.42 -35.91,381.41 -581.1,1240.98 -1513.44,1770.87 -932.34,529.89 -1790.89,643.89 -2387.87,643.89 -596.98,0 -1455.53,-114 -2387.93,-643.89 -932.34,-529.89 -1477.47,-1389.45 -1513.49,-1770.87 -49.35,-523.14 369.78,-810.42 685.06,-810.42 315.28,0 448.35,169.14 526.65,258.22 724.31,825.09 1757.32,1397.37 2689.66,1397.37z"/>
  </g>
  <path class="fil4" d="M3869.81 9326.47c174.4,47.01 298.33,84.99 591.24,120.64 0,0 -9.14,30.28 -72.83,26.88 -24.54,-1.22 -27.68,-7.28 -36.76,-8.92 -18.01,-3.29 -45.84,15.67 -42.44,47.54 2.34,22.2 21.35,50.31 86.22,50.31 64.86,0 140.67,-53.12 178.7,-102.31 0,0 39.15,8.92 79.42,11.21 0,0 -124.68,174.61 -370.58,174.61 -270.6,0.05 -370.52,-241.7 -412.97,-319.95l0 -0zm1241.4 -1438.32c932.34,0 1965.4,-572.28 2689.71,-1397.37 78.35,-89.14 211.37,-258.22 526.65,-258.22 315.22,0 734.35,287.28 685,810.42 -35.91,381.41 -581.1,1240.98 -1513.44,1770.87 -932.34,529.89 -1790.89,643.89 -2387.87,643.89 -596.98,0 -1455.53,-114 -2387.93,-643.89 -932.34,-529.89 -1477.47,-1389.45 -1513.49,-1770.87 -49.35,-523.14 369.78,-810.42 685.06,-810.42 315.28,0 448.35,169.14 526.65,258.22 724.31,825.09 1757.32,1397.37 2689.66,1397.37z"/>
  <path class="fil8" d="M2316.8 6572.75l-10.89 -12.32c-74.21,-85.21 -175.89,-202.02 -418.7,-202.02 -141.62,0 -302,75.75 -408.56,192.89 -79.68,87.44 -170.04,241.23 -147.84,476.34 30.28,321.23 540.35,1154.33 1448.68,1670.62 732.12,416.05 1514.02,627.1 2324.07,627.1 810.05,0 1591.9,-211.05 2324.07,-627.1 908.27,-516.29 1418.4,-1349.4 1448.68,-1670.62 22.1,-235.12 -68.15,-388.85 -147.94,-476.34 -106.46,-117.13 -266.94,-192.89 -408.45,-192.89 -242.77,0 -344.44,116.82 -418.76,202.02l-10.78 12.32c-780.62,889.05 -1848.48,1441.25 -2786.82,1441.25 -938.29,0 -2006.19,-552.15 -2786.76,-1441.25z"/>
  <g>
   <path class="fil0 str0" d="M8103.53 5525.4c0,-447.23 362.66,-809.89 810,-809.89 447.28,0 809.95,362.66 809.95,809.89 0,447.39 -362.66,810 -809.95,810 -447.34,0 -810,-362.61 -810,-810z"/>
   <path id="_1_1" class="fil1" d="M8103.53 5525.4c0,-447.23 362.66,-809.89 810,-809.89 447.28,0 809.95,362.66 809.95,809.89 0,447.39 -362.66,810 -809.95,810 -447.34,0 -810,-362.61 -810,-810z"/>
  </g>
  <path class="fil4" d="M8106.37 5524.13c0,-447.34 362.5,-810 809.89,-810 447.39,0 810,362.66 810,810 0,447.28 -362.61,809.89 -810,809.89 -447.39,0 -809.89,-362.61 -809.89,-809.89z"/>
  <g>
   <path class="fil0 str0" d="M505.12 5525.4c0,-447.23 362.66,-809.89 810,-809.89 447.28,0 809.95,362.66 809.95,809.89 0,447.39 -362.66,810 -809.95,810 -447.34,0 -810,-362.61 -810,-810z"/>
   <path id="_1_2" class="fil1" d="M505.12 5525.4c0,-447.23 362.66,-809.89 810,-809.89 447.28,0 809.95,362.66 809.95,809.89 0,447.39 -362.66,810 -809.95,810 -447.34,0 -810,-362.61 -810,-810z"/>
  </g>
  <path class="fil4" d="M513.26 5525.4c0,-447.23 362.66,-809.89 810,-809.89 447.28,0 809.95,362.66 809.95,809.89 0,447.39 -362.66,810 -809.95,810 -447.34,0 -810,-362.61 -810,-810z"/>
  <path class="fil3" d="M9138 3345.61l4.46 -216.9c66.19,49.99 192.25,51.95 266.03,-26.88 33.95,-36.02 52.91,-91 49.88,-148.48 -4.15,-67.17 -32.87,-130.62 -80.55,-178.1 -272.78,-265.82 -513.9,-531.54 -513.9,-531.54 -24.38,-39.31 -64.54,-68.37 -86.43,-78.14 -34.16,-15.19 -152.09,-69.16 -242.08,67.68 -81.54,124.04 -69.43,299.55 -54.77,363.3l255.94 347.73c87.28,110.65 333.29,346.51 401.39,401.33l0.02 -0.01zm-5453.63 -2255.49c321.6,-107.78 615.1,-196.76 1010.8,-231.93l-1010.8 231.93z"/>
  <path class="fil3" d="M3684.36 1091.01c321.6,-107.94 615.1,-196.76 1010.8,-231.98l60.29 -34.05c-221.25,-173.92 -440.75,-292.22 -659.24,-292.22 -137.21,0 -416.1,93.07 -478.79,584.98l66.93 -26.72 0 -0zm2854.6 0c-321.65,-107.94 -615.04,-196.76 -1010.75,-231.98l-60.29 -34.05c221.2,-173.92 440.64,-292.22 659.13,-292.22 137.27,0 416.26,93.07 478.84,584.98l-66.93 -26.72 -0 -0zm-1691.24 -281.44c65.39,-3.35 216.31,-6.69 276.71,-6.69 60.29,0 227.04,7.97 263.54,10.73l-540.25 -4.04z"/>
  <path class="fil3" d="M4748.07 842.3c161.76,-310.07 309.97,-423.01 391.93,-423.01 102.53,0 222.58,163.19 316.66,373.18l19.92 47.28 -81.86 -6.75c-55.72,-9.99 -209.99,-11.69 -270.28,-11.69 -60.4,0 -191.19,0 -270.02,6.69l-106.35 14.29 0 -0z"/>
  <path class="fil4" d="M4431.57 8184.36l-144.81 540.25 -269.96 -651.32 -168.02 -45.05 -204.73 763.94 182.26 48.87 145.93 -544.6 274.27 657.17 163.72 43.88 204.68 -764.05 -183.32 -49.08 -0 0zm629.28 96.52l-207.65 -10.89 -41.33 789.76 207.6 10.89 41.38 -789.76 0 0zm186.46 -6.75l14.56 104.07 221.52 -31.24 95.46 679.16 205.9 -28.95 -95.51 -679.05 218.17 -30.71 -14.5 -103.96 -645.59 90.68 -0 0zm2142.51 -321.97c100.56,176.26 80.32,304.49 -74.8,394.06l-73.57 42.44 -290.84 -503.54 79.47 -45.95c185.66,-107.15 290.36,-11.79 359.74,112.99zm-404.52 -208.82l-268 154.69 396.77 687.29 266.03 -153.57c276.82,-159.9 302.42,-401.12 193.89,-593.79 -131.05,-229.22 -346.19,-234.59 -588.69,-94.61l-0 0zm-502.05 973.08l-78.94 -242.87 234.37 -76.18 -32.88 -101.04 -234.32 76.12 -67.41 -207.39 240.8 -78.14 -32.46 -99.97 -439.53 142.84 244.36 752.1 484.74 -157.4 -32.88 -101.04 -285.85 92.96 0 0zm-3008.92 -871.41l-234.21 422.48c-70.65,127.39 -143.48,208.02 -262.63,139.23 -118.25,-65.45 -90.89,-163.19 -18.54,-293.82l234.69 -423.54 -189.11 -104.81 -247.92 447.18c-136.74,246.75 35.7,398.73 169.35,472.78 143.91,79.79 352.89,139.13 488.45,-105.5l248.98 -449.25 -189.06 -104.76 0 -0zm-133.97 -4645.55l0 3703.11 1770.81 1138.29 1770.76 -1138.29 2.28 -3697.27c-56.15,-50.25 -174.08,-160.27 -266.94,-217.11l-3020.34 0c-77.19,54.08 -230.39,182.79 -256.58,211.26l-0 0z"/>
  <polygon class="fil9" points="3373.87,3199.47 3373.87,6884.36 5111.16,8001.14 6848.45,6884.36 6850.63,3205.31 6917.77,3205.31 6915.49,6902.58 6915.49,6920.75 6900.03,6930.74 5129.22,8069.08 5111.16,8080.71 5093.04,8069.08 3322.28,6930.74 3306.77,6920.75 3306.77,3199.47 "/>
  <path class="fil9" d="M6861.84 3230.38c-15.99,-14.34 -3.93,-3.67 -20.88,-18.96l-0.21 0c-60.4,-54.61 -161.65,-146.09 -241.01,-194.64l34.95 -57.11c85.68,52.54 189.33,146.14 251.21,201.97l-0.21 0 20.98 18.7 -44.84 50.04 0 0z"/>
  <polygon class="fil9" points="6617.26,3021.72 3596.92,3021.72 3596.92,2954.68 6617.26,2954.68 "/>
  <path class="fil9" d="M3616.15 3015.72c-36.18,25.39 -87.23,65.55 -133.92,103.96 -54.66,45.05 -104.01,87.97 -117.29,102.47l-49.24 -45.31c14.77,-16.2 66.93,-61.73 124.09,-108.79 49.67,-40.9 102.63,-82.71 137.8,-107.36l38.57 55.03z"/>
  <path class="fil8" d="M5236.31 4783.4c-12.32,-5.42 -56.41,30.12 -76.55,61.99 -20.13,31.87 -26.03,72.94 2.5,88.02 28.53,15.09 64.44,-4.46 73.04,-54.45 4.94,-29.38 14.5,-89.72 1.01,-95.57zm-338.97 95.51c7.38,50.25 44.41,69.59 72.94,54.45 28.53,-15.09 22.68,-56.15 2.55,-88.02 -20.19,-31.87 -61.67,-67.41 -74.05,-61.99 -13.44,5.9 -5.63,67.09 -1.44,95.57zm177.74 492.6c59.5,-97.64 84.25,-199.1 84.25,-199.1l-170.2 0c0,0 27.25,103.96 85.95,199.1zm29.32 -733.5l137.48 -239.26 107.31 239.26 177.85 0c-107.36,100.67 -150.97,252.65 -150.97,353.31l0 110.65c0,47.01 -23.43,124.09 -23.43,124.09 0,0 153.95,117.67 177.75,137.48 10.04,8.39 20.66,13.28 13.39,33.63 -12.22,34.64 -116.28,81.01 -127.39,90.47 -23.43,20.13 -29.8,33.31 -22.95,53.76 6.75,20.03 26.24,23.43 66.51,9.99 40.27,-13.39 124.09,-56.95 194.64,-87.17 70.33,-30.17 164.25,-23.53 164.25,-23.53l0 -134.03 -264.87 -0 0 -429.33 -47.01 -74.96 117.45 -207.97 117.24 209.14 -46.91 73.73 0 224.7 135.83 0 0 -224.7 -46.91 -73.73 117.35 -208.02 117.35 208.02 -46.91 73.73 0 224.7 135.83 0 0 -224.7 -46.91 -73.73 117.35 -208.02 117.35 208.02 -47.01 73.73 1.44 429.01 -266.35 0.11 0 197.13c60.4,56.95 117.45,185.39 117.45,262.48 0,77.19 -50.31,110.71 -50.31,110.71 16.68,60.4 13.39,85.47 6.64,140.88 -6.85,56.52 -77.19,144.12 -77.19,144.12l0 1022.59c0,69.64 -160.91,63 -160.91,3.4l0 -1002.46c-90.57,-100.56 -338.76,-177.75 -338.76,-177.75 -90.57,90.47 -147.52,248.19 -147.52,248.19 40.27,26.88 100.67,0 124.09,-26.88 23.43,-26.77 70.44,-33.52 97.32,-16.79 26.77,16.79 33.52,23.53 23.43,63.8 -10.04,40.16 -26.88,106.99 -26.88,153.84 0,47.01 53.76,36.81 93.92,40.27 80.53,6.75 93.92,97.21 87.28,147.52 -6.75,50.31 -30.17,157.72 -30.17,224.7 0,66.99 3.29,134.13 10.04,171.1 6.64,36.81 20.13,77.08 16.68,124.09 -4.57,63.59 -43.56,73.79 -83.83,33.52 -40.16,-40.27 -600.33,-637.25 -600.33,-637.25 -36.87,120.64 117.35,328.72 167.71,392.41 50.31,63.8 46.91,110.71 3.4,154.27 -43.67,43.56 -127.49,67.04 -144.22,107.36 -16.79,40.27 40.27,160.91 157.61,311.77 117.35,150.97 -134.19,251.58 -285.1,281.81 -150.92,30.17 -150.92,-73.89 -140.83,-130.84 9.99,-57.05 9.99,-90.57 6.69,-140.88 -3.35,-50.2 -50.31,-120.64 -114.05,-204.63 -63.75,-83.72 -63.75,-160.91 -36.87,-355.44 26.83,-194.43 20.13,-318.62 20.13,-318.62 0,0 -67.09,3.4 -164.36,0 -97.27,-3.29 -177.75,-59.98 -184.44,-294.77 -6.69,-234.8 -12.27,-794.75 -27.94,-852.97 -15.62,-58.12 -78.25,-69.32 -105.08,-75.96 -26.83,-6.75 -28.79,-47.01 -1.97,-60.4 69.85,-34.95 154,-120.75 122.71,-174.4 -31.29,-53.71 -154.27,-42.55 -236.98,-2.28 -82.71,40.27 -169.94,127.39 -192.3,152.09 -22.36,24.59 -40.27,24.59 -38.03,-2.28 2.23,-26.88 -15.62,-154.27 -26.77,-198.99 -11.16,-44.73 -51.47,-129.62 -64.86,-151.98 -13.39,-22.36 0,-31.29 22.36,-22.36 22.36,8.98 71.55,29.11 118.52,42.5 46.96,13.39 91.64,-8.92 114,-53.65 22.36,-44.73 64.81,-140.83 87.17,-183.32 22.36,-42.5 58.17,-33.57 87.23,-26.83 29.11,6.69 55.94,24.59 82.71,35.75 26.83,11.21 49.19,8.98 58.12,-4.46 8.98,-13.39 20.19,-17.9 35.8,-51.47 15.62,-33.52 35.75,-17.85 37.98,-4.46 80.16,481.02 288.45,503.12 288.45,503.12 -31.29,80.43 -105.08,207.92 -122.92,239.26 -17.9,31.24 -24.59,73.68 -29.06,107.31 -4.46,33.52 11.16,350.87 33.52,467.31 22.42,116.23 93.97,71.61 116.28,35.8 22.31,-35.8 91.69,-183.32 91.69,-183.32 0,0 17.9,-40.27 17.9,-73.89 0,-33.52 -58.17,-107.31 -71.61,-129.67 -13.39,-22.31 -62.58,-67.04 -62.58,-178.86 0,-111.77 100.61,-190.07 136.42,-219.13 35.75,-29.06 35.75,-69.22 31.29,-93.81 -15.72,-86.53 -107.36,-268.37 -152.03,-337.7 -44.73,-69.27 -131.9,-201.22 -131.9,-201.22l181.09 0 116.28 -241.49 127.44 242.61 131.69 1.17 0 0zm714.38 1218.56l0 -137.48c0,0 -36.92,-57.05 -127.49,-57.05 -90.47,0 -144.12,26.88 -144.12,50.31 0,36.97 80.48,144.22 271.61,144.22zm-2339.75 -1733.41l3266.98 0 0 222.85 -3266.98 0 0 -222.85zm0 -114.53l0 -887.56 3266.98 0 0 887.56 -3266.98 0z"/>
  <polygon class="fil4" points="6102.99,4035.02 6102.99,3883.52 5865.7,3883.52 5865.7,3785.82 6059.38,3785.82 6059.38,3356.55 5881.58,3356.55 5821.18,3239.2 5760.78,3356.55 5583.09,3356.55 5583.09,3785.82 5776.67,3785.82 5776.67,3883.52 5311.85,3883.52 5311.85,3785.82 5505.48,3785.82 5505.48,3356.55 5327.74,3356.55 5267.34,3239.2 5206.99,3356.55 5029.24,3356.55 5029.24,3785.82 5222.82,3785.82 5222.82,3883.52 4748.92,3883.52 4748.92,3785.82 4942.55,3785.82 4942.55,3356.55 4764.75,3356.55 4704.4,3239.2 4644.06,3356.55 4466.26,3356.55 4466.26,3785.82 4659.84,3785.82 4659.84,3883.52 4285.17,3884.53 3911.83,3797.3 3987.1,4035.02 "/>
  <path class="fil4" d="M4040.76 3778.02l250.36 61.52 134.29 -376.95 0.05 -95.03 -384.71 410.47zm604.15 -2943.79c-387.84,34.48 -626.52,116.92 -941.74,222.58 23.43,-135.62 54.98,-215.99 109.75,-295.83 -4.41,70.12 52.86,144.81 166.8,144.81 113.95,0 177.37,-65.71 177.37,-105.18 0,-39.36 -23.96,-96.42 -85.31,-96.42 -61.36,0 -74.48,43.83 -70.12,61.36 4.41,17.58 -8.76,21.94 -26.24,26.35 -17.58,4.36 -65.76,-21.99 -48.23,-83.29 19.23,-67.41 100.77,-104.07 197.13,-104.07 -0.05,-0.11 229.33,-9.24 520.59,229.7l-0 -0zm1878.06 225.29c-315.22,-105.77 -564.63,-188.16 -952.47,-222.69 178.54,-124.41 345.29,-230.07 528.51,-230.07 96.36,0 177.96,36.65 197.13,104.07 17.53,61.36 -30.71,87.6 -48.23,83.19 -17.42,-4.41 -30.6,-8.76 -26.24,-26.29 4.36,-17.48 -8.82,-61.36 -70.12,-61.36 -61.3,0 -85.26,56.95 -85.26,96.42 0,39.47 63.37,105.18 177.32,105.18 113.95,0 171.21,-74.74 166.86,-144.81 54.71,79.9 89.09,160.75 112.51,296.37l0 0zm-1639.07 -297.38c-10.41,16.63 -19.55,29 -30.71,47.54 88.72,-4.03 181.5,-6.81 271.5,-6.81 59.23,0 222.53,7.92 258.33,10.52 -57.8,-133.81 -166.86,-318.57 -243.03,-318.57 -15.03,0 -48.29,-7.81 -110.86,64.22 0,0 -9.72,31.82 30.01,25.71 50.36,-7.7 69.43,44.3 65.71,70.17 -8.82,60.19 -78.89,118.3 -149.06,118.3 -70.07,0 -91.53,-11.26 -91.53,-11.26l-0.37 0.17z"/>
  <path class="fil3" d="M1505.74 2944.27l255.94 -347.73c14.71,-63.75 26.83,-239.26 -54.77,-363.3 -89.99,-136.84 -208.02,-82.87 -242.18,-67.68 -21.89,9.77 -61.94,38.83 -86.43,78.14 0,0 -245.53,271.35 -517.19,538.39 -37.77,37.08 -80.37,107.31 -83.83,171.21 -3.19,57.48 19.39,114.8 53.17,150.81 73.89,78.73 203.3,74.58 269.38,24.59l4.46 216.9c68.31,-54.82 314.21,-290.68 401.44,-401.33l-0 -0z"/>
  <path class="fil4" d="M5111.21 2437.54c1457.82,0 2287.95,1368.95 2468.41,1609.43 322.02,429.28 715.28,777.38 1171.6,661.79 670.66,-169.88 634.96,-1163.68 634.96,-1163.68 -160.91,-116.34 -437.03,-262.79 -939.08,-974.89 -491.91,-697.54 -1605.39,-1732.51 -3335.88,-1732.51 -1730.6,0 -2844.08,1034.97 -3335.94,1732.51 -502.05,712.04 -778.07,858.55 -939.03,974.89 0,0 -35.75,993.8 635.02,1163.68 456.26,115.59 849.63,-232.51 1171.6,-661.79 180.35,-240.48 1010.59,-1609.43 2468.35,-1609.43l-0 0z"/>
  <path class="fil9" d="M5111.21 2404.02c1355.56,0 2172.41,1164.22 2438.18,1543.03 24.06,34.32 43.67,62.21 56.95,79.84 158.73,211.74 334.83,403.3 526.76,527.13 188.1,121.44 391.99,177.48 609.94,122.29 595.55,-150.87 610.9,-986.31 609.78,-1113.91 -12.75,-9.08 -26.88,-18.81 -41.7,-29 -168.71,-116.44 -439.9,-303.54 -891.44,-943.97 -282.29,-400.43 -771.33,-913 -1465.95,-1273.75 -505.29,-262.42 -1119.49,-444.47 -1842.58,-444.47 -723.09,0 -1337.39,182.05 -1842.63,444.47 -694.62,360.75 -1183.55,873.27 -1465.89,1273.75 -451.64,640.54 -722.77,827.58 -891.59,944.03 -14.77,10.2 -28.79,19.87 -41.59,28.9 -1.12,127.54 14.24,962.99 609.84,1113.91 218.01,55.25 421.79,-0.85 609.94,-122.29 191.88,-123.83 367.97,-315.38 526.81,-527.13 13.23,-17.64 32.83,-45.53 56.89,-79.79 265.87,-378.76 1082.78,-1543.03 2438.29,-1543.03l0 -0zm0 67.09c-1320.77,0 -2122.64,1142.7 -2383.46,1514.5 -18.92,26.64 -38.97,55.16 -58.13,81.44 -163.14,217.53 -344.76,414.72 -544.07,543.38 -203.08,131.05 -424.12,191.29 -662.37,130.89 -697.28,-176.63 -660.52,-1194.18 -660.41,-1197.15l0.48 -16.42 13.55 -9.83c18.33,-13.23 36.6,-25.87 56.41,-39.47 164.94,-113.84 429.97,-296.58 874.81,-927.51 287.02,-407.02 784.02,-928.04 1490.01,-1294.68 513.95,-266.94 1138.56,-452.07 1873.28,-452.07 734.67,0 1359.28,185.13 1873.28,452.07 705.93,366.65 1202.99,887.61 1490.01,1294.68 444.79,630.77 709.76,813.67 874.65,927.4 19.81,13.65 38.19,26.35 56.52,39.58l13.6 9.83 0.43 16.42c0.11,2.92 36.81,1020.52 -660.41,1197.15 -238.2,60.35 -459.24,0.11 -662.27,-130.89 -199.42,-128.66 -380.99,-325.85 -544.18,-543.38 -16.42,-21.83 -35.06,-48.61 -58.22,-81.38 -260.88,-371.8 -1062.7,-1514.5 -2383.46,-1514.5l-0.04 -0.06z"/>
  <path class="fil8" d="M5111.21 2308.4c1405.33,0 2241.68,1192.1 2516.75,1583.82 17.79,25.56 36.45,52.1 54.69,77.39 371.85,495.73 711.03,696.64 1036.62,614.14 470.92,-119.31 528.83,-767.4 535.36,-963.2l0.21 -7.38 -6 -4.14c-165.58,-114.26 -443.03,-305.45 -907.42,-964.27 -277.56,-393.58 -1330.75,-1677.74 -3230.38,-1677.74 -1899.63,0 -2952.77,1284.16 -3230.33,1677.74 -461.31,654.14 -750.77,853.98 -906.31,961.4l-6.06 4.14 0.21 7.38c6.75,196.55 65.23,847.18 534.19,966.07 325.69,82.55 664.76,-118.41 1036.51,-614.14 13.6,-18.06 32.78,-45.42 55.03,-77.19 274.9,-391.77 1111.31,-1583.88 2516.75,-1583.88l0.18 -0.15z"/>
  <path class="fil4" d="M2087.52 2857.52l-146.72 174.82 275.12 568.67 -590.34 -192.94 -126.38 150.55 605.91 508.38 91.53 -109.06 -427.74 -360.32 573.71 186.4 60.29 -71.82 -273.36 -547.95 430.23 360.91 133.6 -159.26 -605.85 -508.38zm765.96 -119.05l-137.21 147.09 -140.56 -271.66 277.77 124.57 0 -0zm-319.63 -359l-134.88 144.6 378.86 753.48 92.49 -99.12 -102.9 -199.47 183.38 -196.66 206.91 87.86 152.62 -163.62 -776.48 -327.07 0 0zm925.12 -715.87l296.42 474.32 -660.52 -246.8 -147.63 92.22 419.18 670.72 160 -99.92 -298.76 -478.2 667.69 247.65 143.69 -89.88 -419.08 -670.66 -161.01 100.56 0 -0zm2503.09 388.37l83.14 -241.44 232.94 80.27 34.64 -100.51 -232.94 -80.16 70.86 -206.22 239.37 82.44 34.26 -99.39 -437.03 -150.39 -257.43 747.74 481.87 165.9 34.53 -100.4 -284.2 -97.85 0 0zm1352.85 -49.99l-71.29 77.29 166.32 149.7 -458.86 509.76 154.48 139.07 458.86 -509.65 163.83 147.36 70.28 -78.04 -483.62 -435.49 0 -0zm227.04 1187.54l195.54 -163.99 158.36 188.64 81.33 -68.31 -158.25 -188.69 166.96 -140.13 162.77 193.95 80.43 -67.57 -296.95 -354.06 -605.91 508.43 327.55 390.34 81.33 -68.26 -193.15 -230.33 -0 -0zm916.46 201.44c55.09,61.25 55.3,134.13 -7.7,190.81 -63,56.68 -142.26,44.52 -202.71,-22.68l-35.59 -39.47 199.84 -179.87 46.16 51.21 0 0zm-105.34 389.7c1.54,1.7 122.45,61.62 255.94,-58.65 111.66,-100.56 74.11,-238.52 -42.34,-367.87l-215.51 -239.21 -587.74 529.2 139.13 154.48 233.36 -210.2 68.9 76.39 -148.79 333.02 176.68 142.1 120.37 -359.26 0 0zm-2974.6 -2510.37l-5.68 323.03 -310.71 -5.37 5.68 -323.14 -207.87 -3.56 -13.76 790.72 207.81 3.67 6.32 -361.55 310.6 5.47 -6.32 361.44 208.02 3.67 13.7 -790.82 -207.81 -3.56 0 -0zm1125.81 1175.37c147.41,88.55 308.58,74.37 383.59,-50.47 55.19,-87.23 55.62,-159.31 -10.04,-288.29 -17.64,-37.4 -39.31,-63.75 -54.18,-96.84 -28.74,-54.71 -55.62,-98.97 -30.17,-141.2 27.2,-45.26 90.68,-48.5 148.69,-13.65 60.88,36.6 86,97.21 98.27,139.34l95.78 -41.43c-29.38,-77.93 -72.83,-148.21 -171.1,-207.23 -169.14,-101.62 -306.99,-74.8 -364.26,20.61 -57.9,96.31 -41.49,175.83 1.54,257.85 0,0 27.68,47.44 43.77,78.51 37.77,64.17 81.97,144.22 51.26,195.33 -37.77,62.9 -103.64,76.87 -167.07,37.45 -81.33,-51.63 -100.35,-111.18 -117.45,-169.56l-104.92 45.31c23.16,79.36 77.4,162.82 196.28,234.27l0 -0zm-2156.05 -1133.94c-258.97,55.14 -428.59,245.16 -372.65,502.74 31.87,139.02 156.5,396.08 549.44,312.51 108.69,-20.77 168.18,-64.86 225.5,-119.1l-72.35 -82.55c-26.29,30.07 -67.2,73.79 -157.56,92.96 -189.75,40.37 -303.11,-114.05 -331.32,-246.91 -41.75,-196.39 72.72,-332.75 203.35,-360.48 91.58,-19.5 148.05,4.73 183.75,19.23l1.12 -0.21 24.06 -100.82c-62.52,-25.23 -137.21,-41.97 -253.34,-17.37l0 -0zm4192.74 1315.24c-10.89,-46.91 -26.24,-247.23 49.83,-352.94 70.23,-97.42 134.24,-64.44 168.61,-49.19 15.46,6.85 61.83,36.92 70.97,96.2 4.89,31.82 -5.1,78.89 -29.7,113.41 -48.13,62.52 -157.61,104.01 -157.61,104.01 0,0 140.29,274.85 437.62,547.79l-1.06 185.5c-407.07,-392.57 -538.65,-644.79 -538.65,-644.79l0 0z"/>
  <path class="fil4" d="M8745.16 2570.24c40.27,69.38 142.47,239.1 398.31,478.84 42.44,39.79 148.26,72.94 208.02,5.84 22.95,-25.82 37.56,-62.63 35.27,-105.45 -2.71,-49.19 -32.99,-106.62 -62.15,-131.64 -51.05,-43.77 -271.03,-265.93 -428.69,-440.43 -3.4,31.82 -31.24,84.99 -31.24,84.99 -21.14,29.86 -47.6,72.72 -119.52,107.84l0 0zm-7582.65 690.37l-1.06 -175.2c297.43,-272.99 437.88,-546.94 437.88,-546.94 0,0 -109.48,-41.49 -157.61,-104.01 -24.65,-34.53 -34.69,-81.65 -29.75,-113.41 9.24,-59.28 55.51,-89.3 70.92,-96.2 34.37,-15.25 98.38,-48.29 168.5,49.19 76.12,105.71 56.2,304.65 45.37,351.56 0.11,0 -138.54,241.49 -534.24,635.02l-0 0z"/>
  <path class="fil4" d="M1492.14 2570.24c-40.16,69.38 -142.42,239.1 -398.25,478.84 -42.44,39.79 -148.26,72.94 -207.92,5.84 -23,-25.82 -37.66,-62.63 -35.38,-105.45 2.66,-49.19 32.99,-106.62 62.15,-131.64 51.05,-43.77 271.03,-265.93 428.59,-440.43 3.45,31.82 31.29,84.99 31.29,84.99 21.2,29.86 47.7,72.72 119.52,107.84l-0 0z"/>
  <path class="fil8" d="M665.72 5532.15c0,-363.88 294.99,-658.87 658.82,-658.87 363.94,0 658.87,294.99 658.87,658.87 0,363.99 -294.99,658.82 -658.87,658.82 -363.83,0 -658.82,-294.88 -658.82,-658.82z"/>
  <path class="fil4" d="M1678.97 5055.01c11.31,9.03 39.89,32.51 39.89,32.51 57.11,51.1 108.53,110.86 138.33,182.37 37.72,89.94 -78.46,225.13 -112.46,256.9 -153.68,143.37 -249.19,140.98 -304.07,148.9 -54.93,7.76 -89.51,-26.14 -88.34,-67.25 3.51,-120.96 89.25,-327.12 113.41,-365.21 15.83,-24.91 43.08,-40.8 43.08,-40.8 56.68,-15.88 111.66,-40.27 140.19,-72.56 28.63,-32.25 29.96,-74.85 29.96,-74.85l0 0zm-551.3 -86.96c62.41,-20.93 127.93,-31.97 193.82,-32.2 102.95,0 201.01,19.23 284.41,72.03 21.14,13.33 27.52,30.28 27.52,54.18 0,77.5 -122.23,103.91 -203.62,103.91 -81.28,0 -181.09,-32.35 -251.74,-54.34 -70.7,-22.15 -86.43,-63.43 -86.43,-81.65 -0.11,-18.11 13.49,-54.4 36.02,-61.94l0.02 0zm-260.62 949.34c-82.98,-81.97 -142.15,-229.27 -142.15,-384.81 0,-60.29 8.87,-118.41 25.44,-173.28 0,0 13.97,-25.02 27.57,-3.61 9.67,15.14 22.79,30.71 34.58,51.47 11.9,20.77 76.34,69.7 70.33,108.32 -22.68,145.66 -2.23,340.09 4.57,371.96 6.85,31.71 -3.13,46.96 -20.35,29.96zm15.83 -499.61c-29.38,-16.2 -64.38,-91 -75.81,-113.31 -8.13,-15.99 -7.65,-60.61 3.45,-80.21 48.5,-85.79 117.61,-163.93 207.18,-205.42 10.25,-4.73 26.14,-5.21 26.14,20.19 0,14.13 7.01,36.44 7.28,50.2 0.32,13.49 6.43,42.76 -11.79,65.5 -18.11,22.63 -98.38,163.19 -117.93,242.66 -4.41,18.11 -9.14,36.71 -38.51,20.4l0 0zm451.37 711.25c-4.25,-0.21 -8.5,0.11 -12.75,0.11 -109.8,0 -229.96,-41.59 -301.2,-81.44 -73.57,-41.17 -101.14,-229.49 -101.14,-325.8 0,-310.76 128.08,-497.59 148.48,-533.93 20.4,-36.23 65.76,-40.8 99.81,-31.77 34.05,9.14 47.17,15.99 86.22,27.78 21.14,6.43 63.48,15.25 95.25,22.1 31.77,6.85 65.71,13.6 45.37,72.62 -20.4,58.91 -88.82,201.7 -96.31,370.52 -6.8,152.41 13.6,304.39 48.18,397.56 22.47,60.45 22.1,83.35 -11.9,82.23l0 -0zm156.44 -24.17c-34.1,11 -49.83,-13.28 -65.71,-31.55 -61.25,-69.91 -77.08,-258.12 -77.08,-283.03 0,-25.13 9.03,-52.27 26.45,-52.7 148.9,-3.72 254.77,-47.23 351.83,-127.01 97.05,-79.79 139.07,-169.94 147.94,-187.57 8.82,-17.64 27.94,-14.5 32.56,11 3.77,20.77 11.47,58.43 11.47,98.54 -0.05,270.71 -182.42,492.86 -427.47,572.33z"/>
  <path class="fil8" d="M9582.47 5532.15c0,-363.88 -294.99,-658.87 -658.82,-658.87 -363.99,0 -658.82,294.99 -658.82,658.87 0,363.99 294.88,658.82 658.82,658.82 363.83,0 658.82,-294.88 658.82,-658.82z"/>
  <path class="fil4" d="M9289.13 5055.01c11.31,9.03 39.89,32.51 39.89,32.51 57.11,51.1 108.53,110.86 138.33,182.37 37.72,89.94 -78.46,225.13 -112.46,256.9 -153.68,143.37 -249.19,140.98 -304.07,148.9 -54.93,7.76 -89.51,-26.14 -88.34,-67.25 3.51,-120.96 89.25,-327.12 113.41,-365.21 15.83,-24.91 43.08,-40.8 43.08,-40.8 56.68,-15.88 111.66,-40.27 140.19,-72.56 28.63,-32.25 29.96,-74.85 29.96,-74.85l0 0zm-551.3 -86.96c62.41,-20.93 127.93,-31.97 193.82,-32.2 102.95,0 201.01,19.23 284.41,72.03 21.14,13.33 27.52,30.28 27.52,54.18 0,77.5 -122.23,103.91 -203.62,103.91 -81.28,0 -181.09,-32.35 -251.74,-54.34 -70.7,-22.15 -86.43,-63.43 -86.43,-81.65 -0.11,-18.11 13.49,-54.4 36.02,-61.94l0.02 0zm-260.62 949.34c-82.98,-81.97 -142.15,-229.27 -142.15,-384.81 0,-60.29 8.87,-118.41 25.44,-173.28 0,0 13.97,-25.02 27.57,-3.61 9.67,15.14 22.79,30.71 34.58,51.47 11.9,20.77 76.34,69.7 70.33,108.32 -22.68,145.66 -2.23,340.09 4.57,371.96 6.85,31.71 -3.13,46.96 -20.35,29.96zm15.83 -499.61c-29.38,-16.2 -64.38,-91 -75.81,-113.31 -8.13,-15.99 -7.65,-60.61 3.45,-80.21 48.5,-85.79 117.61,-163.93 207.18,-205.42 10.25,-4.73 26.14,-5.21 26.14,20.19 0,14.13 7.01,36.44 7.28,50.2 0.32,13.49 6.43,42.76 -11.79,65.5 -18.11,22.63 -98.38,163.19 -117.93,242.66 -4.41,18.11 -9.14,36.71 -38.51,20.4l0 0zm451.37 711.25c-4.25,-0.21 -8.5,0.11 -12.75,0.11 -109.8,0 -229.96,-41.59 -301.2,-81.44 -73.57,-41.17 -101.14,-229.49 -101.14,-325.8 0,-310.76 128.08,-497.59 148.48,-533.93 20.4,-36.23 65.76,-40.8 99.81,-31.77 34.05,9.14 47.17,15.99 86.22,27.78 21.14,6.43 63.48,15.25 95.25,22.1 31.77,6.85 65.71,13.6 45.37,72.62 -20.4,58.91 -88.82,201.7 -96.31,370.52 -6.8,152.41 13.6,304.39 48.18,397.56 22.47,60.45 22.1,83.35 -11.9,82.23l0 -0zm156.44 -24.17c-34.1,11 -49.83,-13.28 -65.71,-31.55 -61.25,-69.91 -77.08,-258.12 -77.08,-283.03 0,-25.13 9.03,-52.27 26.45,-52.7 148.9,-3.72 254.77,-47.23 351.83,-127.01 97.05,-79.79 139.07,-169.94 147.94,-187.57 8.82,-17.64 27.94,-14.5 32.56,11 3.77,20.77 11.47,58.43 11.47,98.54 -0.05,270.71 -182.42,492.86 -427.47,572.33z"/>
 </g>
</svg>
