<?xml version="1.0" encoding="UTF-8"?>
<!DOCTYPE svg PUBLIC "-//W3C//DTD SVG 1.1//EN" "http://www.w3.org/Graphics/SVG/1.1/DTD/svg11.dtd">
<!-- Creator: CorelDRAW 2021 (64-Bit) -->
<svg xmlns="http://www.w3.org/2000/svg" xml:space="preserve" width="12.1666in" height="16.9384in" version="1.1" style="shape-rendering:geometricPrecision; text-rendering:geometricPrecision; image-rendering:optimizeQuality; fill-rule:evenodd; clip-rule:evenodd"
viewBox="0 0 479 666.86"
 xmlns:xlink="http://www.w3.org/1999/xlink"
 xmlns:xodm="http://www.corel.com/coreldraw/odm/2003">
 <defs>
  <style type="text/css">
   <![CDATA[
    .fil1 {fill:#004696;fill-rule:nonzero}
    .fil0 {fill:#E5213F;fill-rule:nonzero}
    .fil2 {fill:#F8BB00;fill-rule:nonzero}
    .fil3 {fill:white;fill-rule:nonzero}
   ]]>
  </style>
 </defs>
 <g id="Layer_x0020_1">
  <metadata id="CorelCorpID_0Corel-Layer"/>
  <path class="fil0" d="M372.18 124.79c0,0 -5.38,-8.7 -17.17,-13.28 -11.22,-4.46 -28.39,-7.1 -29.99,-7.33 0,-0.11 -1.26,-1.26 -12.36,-8.7 -21.41,-14.42 -52.78,-15.34 -73.27,-10.3 -20.49,-5.04 -51.86,-4.12 -73.27,10.3 -11.1,7.56 -12.36,8.59 -12.36,8.7 -1.6,0.23 -18.66,2.86 -29.99,7.33 -11.79,4.58 -17.17,13.28 -17.17,13.28l-4.58 19.23 3.09 25.53 20.61 4.92 61.25 -16.03 52.2 -6.07 52.32 6.07 61.25 16.03 20.61 -4.92 3.09 -25.53 -4.24 -19.23z"/>
  <path class="fil1" d="M153.87 104.87c0,0.11 0.34,-0.23 0.57,-0.57l-0.57 0.57zm138.07 52.66l60.9 16.14 20.03 -4.24 3.21 -25.3 -4.46 -19.12c-0.46,-0.8 -5.72,-8.59 -16.71,-12.94 -11.1,-4.35 -28.28,-6.98 -30.45,-8.01l-0.11 0.11c-0.23,-0.23 -0.8,-0.57 -1.6,-1.26 -1.72,-1.26 -4.81,-3.32 -10.3,-7.1 -13.85,-9.27 -32.06,-13.05 -48.54,-13.05 -8.7,0 -17.06,1.03 -24.38,2.75 -6.98,-1.72 -15.34,-2.75 -24.04,-2.75 -16.6,0 -34.8,3.66 -48.54,13.05 -8.24,5.61 -11.1,7.67 -11.91,8.36l-0.11 -0.11 0 0.11c0,0.34 -0.34,0.57 -0.57,0.57 -1.49,0.23 -18.66,2.86 -29.77,7.33 -11.45,4.46 -16.6,12.82 -16.71,12.82l-4.46 19 2.52 24.84 20.26 4.92 61.36 -16.14 52.43 -6.07 51.97 6.07zm-0.23 1.49l-52.09 -6.07 -52.09 6.07 -61.71 16.14 -21.18 -5.5 -3.09 -25.76 4.69 -19.46c0,0 5.5,-8.82 17.52,-13.51 10.99,-4.35 27.25,-6.98 29.88,-7.33 0.8,-1.03 3.21,-2.29 12.25,-8.7 14.2,-9.62 32.63,-13.28 49.46,-13.28 8.82,0 17.29,1.03 24.04,2.75 7.1,-1.72 15.57,-2.75 24.38,-2.75 16.83,0 35.26,3.66 49.46,13.28 9.04,6.3 11.45,7.67 12.25,8.7 2.4,0.34 18.89,2.98 29.99,7.33 12.02,4.69 17.4,13.51 17.52,13.51l-0.57 0.46 0.69 -0.23 4.58 19.46 -3.66 26.1 -20.95 4.92 -61.36 -16.14z"/>
  <g>
   <path class="fil2" d="M353.87 183.86c-34.69,-16.37 -73.38,-25.42 -114.37,-25.42 -40.98,0 -79.57,9.16 -114.25,25.42 -1.26,0.57 -1.6,2.06 -1.03,3.32 0.57,1.26 2.06,1.83 3.32,1.26l5.61 12.02c-1.49,0.69 -2.06,2.4 -1.37,3.89 0.69,1.49 2.29,2.18 3.66,1.49 31.6,-14.88 66.86,-23.13 104.07,-23.13 37.32,0 72.47,8.24 104.07,23.13 1.49,0.69 2.98,0 3.66,-1.49 0.69,-1.49 0,-3.21 -1.37,-3.89l5.61 -12.02c1.26,0.57 2.75,0 3.32,-1.26 0.69,-1.26 0.34,-2.75 -0.92,-3.32l0 0zm0 0l0 0 0 0z"/>
  </g>
  <g>
   <path class="fil1" d="M343.11 206.76c-31.48,-14.88 -66.51,-23.01 -103.61,-23.01 -37.09,0 -72.12,8.13 -103.72,23.01 -0.46,0.23 -1.03,0.34 -1.6,0.34 -1.6,0 -2.86,-0.92 -3.55,-2.29 -0.34,-0.57 -0.46,-1.14 -0.46,-1.72 0,-1.14 0.46,-2.29 1.37,-2.98l-4.81 -10.3 -0.46 0c-1.37,0 -2.63,-0.8 -3.21,-2.06 -0.34,-0.57 -0.46,-1.14 -0.46,-1.72 0,-1.26 0.69,-2.52 1.95,-3.09 34.92,-16.49 73.73,-25.64 114.83,-25.64 41.1,0 79.91,9.16 114.71,25.64l-0.46 1.03 -0.46 1.03c-34.57,-16.26 -73.04,-25.3 -113.8,-25.3 -40.76,0 -79.22,9.04 -113.8,25.3 -0.46,0.23 -0.69,0.57 -0.69,1.14 0,0.23 0.11,0.46 0.23,0.8 0.23,0.57 0.69,0.8 1.26,0.8 0.23,0 0.46,0 0.69,-0.11l1.37 0.57 5.61 12.02 -0.57 1.49c-0.69,0.34 -1.03,1.03 -1.03,1.6 0,0.23 0,0.46 0.11,0.8 0.34,0.69 1.03,1.14 1.6,1.14 0.23,0 0.46,0 0.69,-0.11 31.71,-15 67.09,-23.24 104.52,-23.24 37.44,0 72.81,8.24 104.52,23.24 0.23,0.11 0.46,0.11 0.69,0.11 0.57,0 1.14,-0.34 1.6,-1.03 0.11,-0.23 0.11,-0.57 0.11,-0.8 0,-0.69 -0.46,-1.37 -1.03,-1.6l-0.46 -1.49 5.61 -12.02 1.49 -0.57c0.11,0.11 0.34,0.11 0.57,0.11 0.46,0 1.03,-0.34 1.26,-0.8 0.11,-0.23 0.11,-0.57 0.11,-0.8 0,-0.46 -0.23,-0.92 -0.69,-1.14l0.46 -1.03 0.46 -1.03c1.26,0.57 1.95,1.83 1.95,3.09 0,0.57 -0.11,1.14 -0.34,1.72 -0.69,1.26 -1.95,2.06 -3.32,2.06l-0.46 0 -4.81 10.3c0.8,0.8 1.37,1.83 1.37,2.98 0,0.57 -0.11,1.14 -0.34,1.72 -0.69,1.37 -2.06,2.29 -3.55,2.29 -0.34,-0.11 -0.92,-0.23 -1.49,-0.46l0 -0zm0 0l0 0 0 0z"/>
  </g>
  <g>
   <path class="fil2" d="M370.81 166.69c-2.63,0.92 -5.61,0.8 -8.24,-0.57 -3.66,-1.95 -5.5,-5.84 -5.15,-9.73 1.03,-1.14 1.83,-2.63 2.29,-4.24 1.37,-5.5 -1.95,-11.1 -7.44,-12.48 -5.5,-1.37 -11.1,1.95 -12.48,7.33 -0.23,0.69 -0.23,1.37 -0.34,2.18 -2.4,3.09 -6.41,4.69 -10.53,3.66 -4.81,-1.26 -7.9,-5.84 -7.44,-10.53 9.73,2.4 13.51,-2.06 15.11,-8.24 1.37,-5.27 0.69,-10.19 -5.38,-13.17 0.11,-2.4 -0.23,-4.24 -1.03,-5.84 4.24,-1.26 7.33,-5.15 7.33,-9.73 0,-4.92 -3.43,-9.04 -8.13,-9.96 2.4,-1.83 3.89,-4.81 3.89,-8.01 0,-0.46 0,-0.8 -0.11,-1.26l0 0.11c27.7,14.08 36.52,28.51 38.81,58.27 -3.32,1.03 -5.5,4.24 -6.75,7.78 -2.06,5.38 -1.72,10.76 5.61,14.42l0 -0zm-37.78 -5.27c3.78,-0.23 7.44,-1.6 10.53,-3.78 1.03,0.8 2.29,1.37 3.55,1.72 0.46,0.11 0.92,0.23 1.37,0.23 0.69,3.66 2.4,7.21 5.04,9.96 -6.64,-2.86 -13.51,-5.61 -20.49,-8.13l0 0zm-103.84 -15.68c5.5,-2.63 9.39,-7.78 10.3,-14.08 0.92,6.18 4.81,11.45 10.3,14.08 -3.43,-0.11 -6.87,-0.23 -10.3,-0.23 -3.43,0.11 -6.87,0.11 -10.3,0.23zm-83.23 15.68c-6.98,2.4 -13.74,5.15 -20.49,8.13 2.63,-2.75 4.35,-6.3 5.04,-9.96 0.46,0 0.92,-0.11 1.37,-0.23 1.37,-0.34 2.52,-0.92 3.55,-1.72 2.98,2.29 6.75,3.55 10.53,3.78l0 -0zm-37.66 5.27c7.33,-3.66 7.56,-9.04 5.5,-14.54 -1.37,-3.55 -3.43,-6.75 -6.75,-7.78 2.29,-29.77 10.99,-44.19 38.81,-58.27l0 -0.11c0,0.34 -0.11,0.8 -0.11,1.26 0,3.32 1.6,6.18 3.89,8.01 -4.69,0.92 -8.13,5.04 -8.13,9.96 0,4.58 3.09,8.47 7.33,9.73 -0.8,1.6 -1.14,3.43 -1.03,5.84 -6.18,2.98 -6.75,7.9 -5.38,13.17 1.6,6.3 5.38,10.65 15.11,8.24 0.46,4.81 -2.63,9.39 -7.44,10.53 -4.01,1.03 -8.13,-0.57 -10.53,-3.66 0,-0.69 -0.11,-1.37 -0.34,-2.18 -1.37,-5.5 -6.98,-8.82 -12.48,-7.33 -5.5,1.37 -8.82,6.98 -7.33,12.48 0.46,1.6 1.26,3.09 2.29,4.24 0.34,3.89 -1.49,7.78 -5.15,9.73 -2.63,1.49 -5.61,1.6 -8.24,0.69l0 0zm57.58 -25.64c2.4,5.72 7.44,9.73 13.39,10.99 -6.64,1.49 -13.17,3.09 -19.69,5.04 4.58,-3.89 6.98,-9.85 6.3,-16.03l0 0zm49.34 5.61c-7.44,0.69 -14.77,1.6 -21.98,2.75 3.78,-2.4 6.64,-5.95 8.13,-10.07l0.57 0c1.03,0 2.06,-0.11 2.98,-0.46 2.29,3.55 6.07,6.41 10.3,7.78l0 -0zm15.46 -93.42c0,0.34 -0.11,0.69 -0.11,1.03 0,1.83 0.57,3.55 1.6,5.04l0 8.24c-1.03,1.49 -1.6,3.21 -1.6,5.04 0,1.83 0.57,3.55 1.6,5.04l0 8.24c-1.03,1.49 -1.6,3.21 -1.6,5.04 0,3.66 2.18,6.75 5.27,8.13 -4.46,0.69 -7.9,3.09 -8.93,8.7 -6.64,1.37 -8.47,5.95 -8.47,11.33 0,6.41 2.52,11.68 12.59,11.79 -0.8,4.81 -4.92,8.36 -9.85,8.36 -4.58,0 -8.36,-2.98 -9.62,-7.1 0.23,-0.92 0.46,-1.95 0.46,-2.98 0,-5.61 -4.58,-10.3 -10.19,-10.3 -5.61,0 -10.3,4.58 -10.3,10.3 0,1.83 0.57,3.55 1.37,5.15 -0.11,4.35 -3.09,8.36 -7.56,9.5 -4.81,1.26 -9.73,-1.26 -11.68,-5.61 9.73,-2.63 10.88,-8.24 9.27,-14.54 -1.37,-5.27 -4.24,-9.27 -11.1,-8.93 -1.37,-2.98 -3.32,-4.69 -5.5,-5.5 3.43,-32.06 28.16,-58.62 64.34,-55.98l0 0zm55.18 96.17c-7.21,-1.14 -14.54,-2.18 -21.98,-2.75 4.24,-1.37 8.01,-4.12 10.42,-7.78 0.92,0.34 1.95,0.46 2.98,0.46l0.57 0c1.37,4.01 4.24,7.67 8.01,10.07zm-37.44 -58.62c0,-1.83 -0.57,-3.55 -1.6,-5.04l0 -8.24c1.03,-1.37 1.6,-3.21 1.6,-5.04 0,-1.83 -0.57,-3.55 -1.6,-5.04l0 -8.24c1.03,-1.37 1.6,-3.21 1.6,-5.04 0,-0.34 0,-0.69 -0.11,-1.03 36.18,-2.63 60.9,23.93 64.11,55.75 -2.18,0.92 -4.12,2.63 -5.5,5.5 -6.75,-0.34 -9.73,3.66 -11.1,8.93 -1.6,6.3 -0.46,11.91 9.27,14.54 -1.95,4.46 -6.87,6.87 -11.68,5.61 -4.46,-1.14 -7.44,-5.15 -7.56,-9.5 0.92,-1.49 1.37,-3.21 1.37,-5.15 0,-5.61 -4.58,-10.3 -10.19,-10.3 -5.72,0 -10.3,4.58 -10.3,10.3 0,1.03 0.11,1.95 0.46,2.98 -1.26,4.12 -5.04,7.1 -9.62,7.1 -4.92,0 -9.04,-3.66 -9.85,-8.36 10.07,-0.11 12.59,-5.27 12.59,-11.79 0,-5.5 -1.83,-10.07 -8.47,-11.33 -1.03,-5.61 -4.46,-7.9 -8.93,-8.7 3.32,-1.14 5.5,-4.24 5.5,-7.9l0 -0zm64.68 50.26c-0.69,6.18 1.83,12.14 6.3,16.03 -6.41,-1.95 -13.05,-3.55 -19.69,-5.04 5.95,-1.26 10.99,-5.27 13.39,-10.99l0 0zm-188.55 41.56c34.92,-16.49 73.73,-25.64 114.94,-25.64 41.21,0 80.14,9.16 115.17,25.64l-0.34 -0.11c2.86,1.37 6.3,0.11 7.67,-2.75 0.8,-1.6 0.69,-3.43 0,-4.92 5.72,1.83 12.02,0.57 16.71,-2.98 5.27,3.55 10.65,1.83 14.77,-1.37 4.35,-3.32 8.01,-11.33 2.75,-15.68 4.01,-5.27 2.98,-12.02 -1.95,-15.11 0.92,-1.49 1.37,-3.21 1.37,-5.15 0,-4.92 -3.43,-9.04 -8.13,-9.96 2.4,-1.83 3.89,-4.81 3.89,-8.01 0,-5.27 -4.01,-9.62 -9.16,-10.19 1.03,-1.6 1.72,-3.55 1.72,-5.61 0,-5.61 -4.58,-10.19 -10.19,-10.19 -0.92,0 -1.83,0.11 -2.63,0.34 0.57,-1.26 0.92,-2.75 0.92,-4.24 0,-5.61 -4.58,-10.19 -10.19,-10.19 -1.72,0 -3.21,0.46 -4.58,1.14 0.11,-0.57 0.11,-1.03 0.11,-1.6 0,-5.61 -4.58,-10.19 -10.19,-10.19 -2.18,0 -4.24,0.69 -5.84,1.83 -1.03,-4.58 -5.04,-8.01 -9.96,-8.01 -3.66,0 -6.75,1.83 -8.59,4.69 -1.83,-2.06 -4.58,-3.32 -7.56,-3.32 -0.8,0 -1.6,0.11 -2.29,0.23 0.46,-1.14 0.69,-2.4 0.69,-3.66 0,-5.61 -4.58,-10.19 -10.19,-10.19 -1.95,0 -3.89,0.57 -5.38,1.6 0.11,-0.57 0.11,-1.03 0.11,-1.6 0,-5.61 -4.58,-10.19 -10.19,-10.19 -2.29,0 -4.35,0.8 -6.07,2.06 -1.03,-4.58 -5.04,-8.01 -9.96,-8.01 -2.86,0 -5.38,1.14 -7.21,2.98 -1.6,-3.43 -5.15,-5.84 -9.27,-5.84 -1.14,0 -2.29,0.23 -3.32,0.57 -1.83,-2.06 -4.12,-3.66 -6.75,-4.69 -0.57,-0.23 -1.26,-0.46 -1.83,-0.57l0 -7.78 7.67 -0 0 -7.78 -7.67 0 0 -6.98 -8.24 0 0 6.98 -7.67 0 0 7.78 7.67 0 0 7.78c-0.57,0.11 -1.26,0.34 -1.83,0.57 -2.63,1.03 -4.92,2.63 -6.64,4.69 -1.03,-0.34 -2.18,-0.57 -3.32,-0.57 -4.12,0 -7.56,2.4 -9.27,5.84 -1.83,-1.83 -4.35,-2.98 -7.21,-2.98 -4.92,0 -8.93,3.43 -9.96,8.01 -1.72,-1.26 -3.78,-2.06 -6.07,-2.06 -5.61,0 -10.19,4.58 -10.19,10.19 0,0.57 0,1.14 0.11,1.6 -1.6,-1.03 -3.43,-1.6 -5.38,-1.6 -5.61,0 -10.19,4.58 -10.19,10.19 0,1.26 0.23,2.52 0.69,3.66 -0.8,-0.23 -1.49,-0.23 -2.29,-0.23 -2.98,0 -5.72,1.26 -7.56,3.32 -1.83,-2.86 -4.92,-4.69 -8.59,-4.69 -4.92,0 -8.93,3.43 -9.96,8.01 -1.6,-1.14 -3.66,-1.83 -5.84,-1.83 -5.61,0 -10.19,4.58 -10.19,10.19 0,0.57 0,1.03 0.11,1.6 -1.37,-0.69 -2.98,-1.14 -4.58,-1.14 -5.61,0 -10.19,4.58 -10.19,10.19 0,1.49 0.34,2.98 0.92,4.24 -0.8,-0.23 -1.72,-0.34 -2.63,-0.34 -5.61,0 -10.19,4.58 -10.19,10.19 0,2.06 0.69,4.01 1.72,5.61 -5.15,0.46 -9.27,4.81 -9.27,10.19 0,3.21 1.49,6.18 3.89,8.01 -4.58,1.03 -8.13,5.04 -8.13,9.96 0,1.83 0.46,3.66 1.37,5.15 -4.92,3.09 -5.95,9.85 -1.83,15.11 -5.27,4.35 -1.6,12.36 2.75,15.68 4.12,3.21 9.5,4.92 14.77,1.37 4.69,3.55 10.88,4.81 16.71,2.98 -0.69,1.49 -0.8,3.32 0,4.92 1.37,2.98 4.58,4.24 7.44,2.86l0 0z"/>
  </g>
  <g>
   <g>
    <path class="fil1" d="M117.92 174.24c0.23,0.34 0.34,0.8 0.11,1.14 -0.34,0.57 -0.46,1.26 -0.46,1.95 0,0.69 0.11,1.37 0.46,1.95 0.8,1.72 2.4,2.75 4.12,2.75 0.57,0 1.26,-0.11 1.95,-0.46 35.15,-16.6 74.07,-25.76 115.4,-25.76 41.21,0 80.37,9.16 115.4,25.64 35.03,16.49 0.11,0 0.11,0.11 0,0 0.11,0 0.11,0.11 0.46,0.11 0.92,0.23 1.49,0.23 1.72,0 3.43,-1.03 4.24,-2.63 0.34,-0.69 0.46,-1.37 0.46,-2.06 0,-0.69 -0.11,-1.37 -0.46,-1.95 -0.23,-0.46 -0.11,-0.92 0.11,-1.14 0.23,-0.34 0.69,-0.46 1.14,-0.34 1.6,0.57 3.32,0.8 5.04,0.8 3.78,0 7.56,-1.26 10.65,-3.66l1.26 0c1.95,1.26 3.78,1.83 5.61,1.83 2.75,0 5.5,-1.26 7.9,-3.09 2.52,-1.95 4.92,-5.95 4.92,-9.27 0,-1.83 -0.69,-3.43 -2.18,-4.69l-0.23 -1.49c1.6,-2.06 2.29,-4.24 2.29,-6.3 0,-2.86 -1.37,-5.61 -3.89,-7.1l-0.34 -1.49c0.8,-1.37 1.26,-2.86 1.26,-4.58 0,-4.35 -3.09,-8.01 -7.21,-8.93 -0.46,-0.11 -0.69,-0.46 -0.8,-0.8 -0.11,-0.46 0,-0.92 0.46,-1.14 2.18,-1.6 3.43,-4.24 3.43,-7.1 0,-4.69 -3.55,-8.59 -8.24,-9.04 -0.34,0 -0.69,-0.23 -0.92,-0.57 -0.11,-0.34 -0.11,-0.8 0.11,-1.14 0.92,-1.49 1.49,-3.21 1.49,-5.04 0,-5.04 -4.12,-9.04 -9.04,-9.04 -0.8,0 -1.6,0.11 -2.4,0.34 -0.46,0.11 -0.92,0 -1.14,-0.34 -0.34,-0.34 -0.34,-0.8 -0.11,-1.14 0.46,-1.14 0.8,-2.4 0.8,-3.78 0,-5.04 -4.12,-9.04 -9.04,-9.04 -1.49,0 -2.98,0.34 -4.12,1.03 -0.34,0.23 -0.8,0.11 -1.14,0 -0.34,-0.23 -0.57,-0.69 -0.46,-1.03 0.11,-0.57 0.11,-1.03 0.11,-1.49 0,-5.04 -4.12,-9.04 -9.16,-9.04 -1.95,0 -3.78,0.57 -5.15,1.6 -0.34,0.23 -0.69,0.23 -1.03,0.11 -0.34,-0.11 -0.57,-0.46 -0.69,-0.8 -0.92,-4.12 -4.58,-7.1 -8.93,-7.1 -3.21,0 -5.95,1.72 -7.67,4.24 -0.23,0.23 -0.46,0.46 -0.8,0.46 -0.34,0 -0.69,-0.11 -0.92,-0.34 -1.72,-1.83 -4.01,-2.98 -6.64,-2.98 -0.69,0 -1.37,0.11 -2.06,0.23 -0.34,0.11 -0.8,0 -1.03,-0.34 -0.23,-0.34 -0.34,-0.8 -0.23,-1.14 0.34,-1.03 0.57,-2.18 0.57,-3.21 0,-5.04 -4.12,-9.16 -9.04,-9.16 -1.83,0 -3.43,0.57 -4.81,1.37 -0.34,0.23 -0.8,0.23 -1.14,0 -0.34,-0.23 -0.57,-0.69 -0.46,-1.14 0.11,-0.46 0.11,-1.03 0.11,-1.49 0,-5.04 -4.12,-9.04 -9.04,-9.04 -2.06,0 -3.89,0.69 -5.5,1.83 -0.34,0.23 -0.69,0.23 -1.03,0.11 -0.34,-0.11 -0.69,-0.46 -0.69,-0.8 -0.92,-4.12 -4.58,-7.1 -8.82,-7.1 -2.52,0 -4.81,1.03 -6.53,2.63 -0.23,0.23 -0.57,0.34 -0.92,0.34 -0.34,-0.11 -0.69,-0.34 -0.8,-0.57 -1.49,-3.09 -4.58,-5.27 -8.24,-5.27 -1.03,0 -2.06,0.11 -2.98,0.46l-1.14 -0.34c-1.72,-1.95 -3.78,-3.43 -6.3,-4.35 -0.57,-0.23 -1.14,-0.46 -1.72,-0.57l-0.8 -1.03 0 -7.78 1.14 -1.14 6.64 0 0 -5.61 -6.64 -0 -1.14 -1.14 0 -6.07 -6.07 0 0 5.84 -1.03 1.14 -6.64 0 0 5.61 6.64 0 1.03 1.14 0 7.78 -0.8 1.03c-0.57,0.11 -1.14,0.34 -1.72,0.57 -2.4,0.92 -4.58,2.4 -6.3,4.35l-1.14 0.34c-0.92,-0.34 -1.95,-0.46 -2.98,-0.46 -3.66,0 -6.75,2.18 -8.24,5.27 -0.11,0.34 -0.46,0.57 -0.8,0.57 -0.34,0 -0.69,-0.11 -1.03,-0.34 -1.6,-1.6 -3.89,-2.63 -6.41,-2.63 -4.35,0 -7.9,3.09 -8.82,7.1 -0.11,0.34 -0.34,0.69 -0.69,0.8 -0.34,0.11 -0.69,0.11 -1.03,-0.11 -1.49,-1.14 -3.32,-1.83 -5.38,-1.83 -5.04,0 -9.04,4.12 -9.16,9.04 0,0.46 0,0.92 0.11,1.49 0.11,0.46 -0.11,0.92 -0.46,1.14 -0.34,0.23 -0.8,0.23 -1.14,0 -1.37,-0.92 -3.09,-1.37 -4.81,-1.37 -5.04,0 -9.04,4.01 -9.04,9.16 0,1.14 0.23,2.18 0.57,3.21 0.11,0.34 0.11,0.8 -0.23,1.14 -0.23,0.34 -0.69,0.46 -1.03,0.34 -0.69,-0.11 -1.37,-0.23 -2.06,-0.23 -2.63,0 -5.04,1.14 -6.75,2.98 -0.23,0.23 -0.57,0.34 -0.92,0.34 -0.34,0 -0.69,-0.23 -0.8,-0.57 -1.6,-2.52 -4.46,-4.24 -7.67,-4.24 -4.35,0 -8.01,3.09 -8.82,7.1 -0.11,0.34 -0.34,0.69 -0.69,0.8 -0.34,0.11 -0.69,0.11 -1.03,-0.11 -1.49,-1.03 -3.32,-1.6 -5.15,-1.6 -5.04,0 -9.16,4.01 -9.16,9.04 0,0.46 0,0.92 0.11,1.37 0.11,0.46 -0.11,0.8 -0.46,1.03 -0.34,0.23 -0.8,0.23 -1.14,0.11 -1.26,-0.57 -2.63,-1.03 -4.12,-1.03 -5.04,0 -9.04,4.01 -9.04,9.04 0,1.37 0.34,2.63 0.8,3.78 0.11,0.34 0.11,0.8 -0.23,1.14 -0.23,0.34 -0.69,0.46 -1.14,0.34 -0.8,-0.23 -1.6,-0.34 -2.4,-0.34 -5.04,0 -9.16,4.01 -9.16,9.04 0,1.83 0.57,3.55 1.49,5.04 0.23,0.34 0.23,0.69 0.11,1.14 -0.11,0.34 -0.46,0.57 -0.92,0.57 -4.58,0.46 -8.24,4.35 -8.24,9.04 0,2.86 1.37,5.5 3.43,7.1 0.34,0.23 0.46,0.69 0.34,1.14 -0.11,0.46 -0.46,0.69 -0.8,0.8 -4.12,0.92 -7.21,4.58 -7.21,8.93 0,1.72 0.46,3.21 1.26,4.58l-0.34 1.49c-2.52,1.6 -3.89,4.24 -3.89,7.1 0,2.06 0.69,4.35 2.29,6.3l-0.11 1.83c-1.6,1.37 -2.18,2.98 -2.18,4.69 0,3.32 2.29,7.33 4.92,9.27 2.29,1.83 5.04,3.09 7.9,3.09 1.83,0 3.66,-0.57 5.61,-1.83l1.26 0.11c3.09,2.29 6.75,3.55 10.65,3.55 1.72,0 3.43,-0.23 5.15,-0.8l0.34 -0c0.23,0 0.57,0.11 0.69,0.46l0 0zm-1.83 6.07c-0.46,-0.92 -0.69,-1.95 -0.69,-2.98 0,-0.34 0,-0.57 0.11,-0.92 -1.26,0.23 -2.52,0.34 -3.78,0.34 -4.01,0 -8.01,-1.26 -11.33,-3.55 -2.06,1.26 -4.12,1.72 -6.18,1.72 -3.43,0 -6.64,-1.49 -9.27,-3.55 -3.09,-2.4 -5.72,-6.75 -5.84,-10.99 0,-2.06 0.69,-4.12 2.29,-5.72 -1.49,-2.18 -2.18,-4.58 -2.18,-6.87 0,-3.21 1.49,-6.41 4.12,-8.47 -0.69,-1.49 -1.03,-3.09 -1.03,-4.81 0,-4.69 2.98,-8.82 7.1,-10.42 -1.83,-1.95 -2.86,-4.58 -2.86,-7.56 0,-5.27 3.66,-9.73 8.59,-10.99 -0.69,-1.49 -1.03,-3.09 -1.03,-4.81 0,-6.3 5.04,-11.33 11.33,-11.33l1.03 0c-0.23,-0.92 -0.34,-1.83 -0.34,-2.75 0,-6.18 5.04,-11.33 11.33,-11.33 1.14,0 2.29,0.23 3.43,0.57 0,-6.18 5.04,-11.22 11.33,-11.22 1.83,0 3.66,0.46 5.15,1.26 1.6,-4.35 5.72,-7.44 10.65,-7.44 3.55,0 6.64,1.6 8.7,4.12 1.95,-1.72 4.58,-2.75 7.44,-2.75l0.69 -0c-0.11,-0.8 -0.23,-1.49 -0.23,-2.29 0,-6.3 5.04,-11.33 11.33,-11.33 1.49,0 2.86,0.34 4.12,0.8 0.11,-6.07 5.15,-11.1 11.33,-11.1 1.95,0 3.78,0.46 5.38,1.37 1.6,-4.35 5.72,-7.33 10.53,-7.33 2.63,0 5.04,0.92 6.87,2.4 1.95,-3.21 5.5,-5.27 9.5,-5.27 1.03,0 2.06,0.11 2.98,0.46 1.83,-1.95 4.12,-3.43 6.64,-4.46 0.34,-0.11 0.8,-0.23 1.14,-0.34l0 -5.84 -6.53 0 -1.14 -1.14 0 -7.78 1.14 -1.14 6.53 0 0 -5.72 1.14 -1.14 8.24 0 1.14 1.14 0 5.84 6.53 0 1.03 1.14 0 7.78 -1.03 1.14 -6.53 0 0 5.84c0.34,0.11 0.8,0.23 1.14,0.34 2.52,1.03 4.81,2.52 6.64,4.46 0.92,-0.23 1.95,-0.46 2.98,-0.46 4.01,0 7.44,2.06 9.5,5.27 1.95,-1.49 4.35,-2.4 6.98,-2.4 4.81,0 8.93,3.09 10.53,7.33 1.6,-0.92 3.43,-1.37 5.5,-1.37 6.18,0 11.1,4.92 11.22,11.1 1.26,-0.46 2.75,-0.8 4.12,-0.8 6.18,0 11.33,5.04 11.33,11.33 0,0.8 -0.11,1.6 -0.23,2.29l0.8 -0c2.86,0 5.38,1.03 7.44,2.75 2.06,-2.52 5.15,-4.12 8.7,-4.12 4.92,0 9.04,3.09 10.65,7.44 1.6,-0.8 3.32,-1.26 5.15,-1.26 6.18,0 11.22,5.04 11.33,11.22 1.03,-0.34 2.18,-0.57 3.43,-0.57 6.18,0 11.22,5.04 11.33,11.33 0,0.92 -0.11,1.95 -0.34,2.75 0.34,0 0.69,-0.11 1.03,-0.11 6.18,0 11.33,5.04 11.33,11.33 0,1.72 -0.34,3.32 -1.03,4.81 4.92,1.26 8.59,5.72 8.59,10.99 0,2.86 -1.03,5.5 -2.86,7.56 4.12,1.72 7.1,5.72 7.1,10.42 0,1.72 -0.34,3.32 -1.03,4.81 2.63,2.06 4.01,5.15 4.01,8.47 0,2.29 -0.69,4.69 -2.18,6.87 1.6,1.6 2.29,3.66 2.18,5.72 0,4.35 -2.63,8.59 -5.72,10.99 -2.63,2.06 -5.84,3.55 -9.27,3.55 -2.06,0 -4.12,-0.57 -6.18,-1.72 -3.32,2.29 -7.33,3.55 -11.33,3.55 -1.26,0 -2.52,-0.11 -3.78,-0.34 0,0.34 0.11,0.57 0.11,0.92 0,1.03 -0.23,1.95 -0.69,2.98 -1.26,2.4 -3.66,3.89 -6.18,3.89 -0.92,0 -1.83,-0.11 -2.63,-0.57 -0.8,-0.46 -0.11,0 -0.11,-0.11 -0.11,0 -0.23,-0.11 -0.23,-0.23 -34.69,-16.26 -73.27,-25.3 -114.03,-25.3 -40.98,0 -79.68,9.16 -114.48,25.53l-0.46 -1.03 0.46 1.03c-0.92,0.46 -1.83,0.57 -2.86,0.57 -3.32,0.11 -5.72,-1.37 -6.87,-3.78l0 0z"/>
   </g>
   <g>
    <path class="fil1" d="M315.86 154.9c-2.06,-2.75 -3.43,-6.07 -3.89,-9.62 -2.06,2.86 -4.81,5.15 -8.01,6.53 4.01,0.92 8.01,1.95 11.91,3.09l-0 0zm3.32 3.21c-6.41,-1.95 -12.94,-3.55 -19.58,-5.04 -0.57,-0.11 -0.92,-0.57 -0.92,-1.14 0,-0.57 0.34,-0.92 0.92,-1.03 5.5,-1.14 10.3,-4.92 12.48,-10.3 0.23,-0.46 0.8,-0.8 1.26,-0.69 0.57,0.11 0.92,0.69 0.8,1.14 0,0.57 -0.11,1.26 -0.11,1.83 0,5.15 2.29,9.96 6.07,13.28 0.34,0.34 0.46,0.92 0.23,1.37 -0.23,0.34 -0.57,0.57 -0.92,0.57 -0.11,0.11 -0.23,0.11 -0.23,0l0 -0zm-30.68 -29.08c0,2.06 -0.57,4.01 -1.37,5.04 0.11,3.89 2.75,7.44 6.64,8.47 0.69,0.23 1.49,0.34 2.29,0.23 3.09,0 5.95,-1.6 7.56,-4.12 -6.87,-2.06 -9.5,-6.3 -9.39,-10.99 0,-1.49 0.23,-2.98 0.69,-4.46 1.26,-5.27 4.46,-9.85 11.22,-9.85l0.23 0c1.26,-2.52 2.98,-4.12 4.92,-5.04 -3.43,-29.54 -25.53,-54.15 -58.04,-54.15 -1.26,0 -2.4,0 -3.78,0.11 0,2.06 -0.69,4.01 -1.6,5.04l-0.23 7.56c1.14,1.6 1.83,3.55 1.83,5.72 0,2.06 -0.69,4.01 -1.6,5.04l-0.23 7.56c1.14,1.6 1.83,3.55 1.83,5.61 0,3.09 -1.37,5.84 -3.66,7.67 3.32,1.14 6.07,3.78 7.1,8.13 6.64,1.6 8.82,6.87 8.7,12.25 0,6.41 -2.86,12.25 -12.36,12.82 1.14,3.66 4.46,6.18 8.47,6.18 4.01,0 7.44,-2.63 8.59,-5.72 -0.34,-1.03 -0.46,-2.18 -0.46,-3.21 0,-6.3 5.04,-11.33 11.33,-11.33 6.3,0.11 11.33,5.27 11.33,11.45l-0 0zm4.81 15.68c-4.92,-1.26 -8.24,-5.61 -8.24,-11.1 0.8,-1.37 1.26,-2.86 1.26,-4.58 0,-5.04 -4.12,-9.16 -9.16,-9.16 -5.04,0 -9.16,4.12 -9.16,9.16 0,0.92 0.11,1.72 0.34,3.21 -1.37,4.58 -5.61,7.9 -10.65,7.9 -5.5,0 -10.07,-4.01 -10.99,-9.27 0,-0.34 0.11,-0.69 0.23,-0.92 0.23,-0.23 0.46,-0.46 0.8,-0.46 9.62,-0.23 11.33,-4.46 11.56,-10.65 -0.11,-5.27 -1.49,-9.04 -7.67,-10.3l-0.92 -0.92c-1.03,-5.15 -3.89,-6.98 -8.01,-7.78 -0.46,-0.11 -0.8,-0.46 -0.92,-0.92 -0.11,-0.46 0.23,-0.92 0.69,-1.14 2.75,-1.26 4.69,-4.01 4.69,-7.1 0,-1.6 -0.46,-3.09 -1.6,-5.04l0.23 -8.82c0.92,-1.26 1.37,-2.75 1.37,-4.35 0,-1.6 -0.46,-3.09 -1.6,-5.04l0.23 -8.82c0.92,-1.26 1.37,-2.75 1.37,-4.35 0,-0.34 0,-0.57 -0.11,-0.92 0,-0.34 0,-0.57 0.23,-0.8 0.23,-0.23 0.46,-0.46 0.8,-0.46 1.72,-0.11 3.32,-0.23 5.04,-0.23 34.12,0 57.13,26.1 60.33,57.01l-0.69 1.14c-1.95,0.8 -3.55,2.18 -4.92,4.92l-1.03 0.69 -0.8 -0c-5.61,0.11 -7.78,3.21 -9.16,8.13 -0.34,1.37 -0.57,2.75 -0.57,4.01 0.11,4.01 1.83,7.21 9.04,9.27 0.34,0.11 0.57,0.34 0.69,0.57 0.11,0.23 0.11,0.57 0,0.92 -1.72,4.12 -5.72,6.64 -10.19,6.64 -0.69,-0.11 -1.6,-0.23 -2.52,-0.46l0 -0z"/>
   </g>
   <g>
    <path class="fil1" d="M281.86 147.57c-2.06,-2.06 -3.78,-4.46 -4.92,-7.21 -0.8,0 -1.49,-0.11 -2.29,-0.23 -1.72,2.4 -4.01,4.35 -6.53,5.72 4.58,0.46 9.16,1.03 13.74,1.72l0 0zm3.78 2.86c-7.21,-1.14 -14.54,-2.18 -21.98,-2.75 -0.46,-0.11 -0.92,-0.46 -0.92,-1.03 -0.11,-0.57 0.23,-1.03 0.69,-1.14 4.01,-1.26 7.56,-3.89 9.85,-7.33l1.26 -0.46c0.8,0.23 1.72,0.34 2.63,0.34l0.46 -0 1.03 0.69c1.37,3.78 4.12,7.21 7.67,9.5l-0.57 0.92 0.11 -1.14 -0.11 1.14 0.57 -0.92c0.46,0.23 0.57,0.8 0.34,1.26 -0.11,0.46 -0.57,0.69 -1.03,0.69 0.11,0.23 0,0.23 0,0.23l0 -0zm-102.69 -7.56c0.69,0 1.49,-0.11 2.18,-0.23 4.01,-1.03 6.64,-4.58 6.87,-7.9 -1.03,-1.6 -1.6,-3.55 -1.6,-5.72 0,-6.3 5.04,-11.33 11.33,-11.33 6.3,0 11.33,5.04 11.33,11.33 0,1.14 -0.23,2.18 -0.46,2.63 1.14,3.66 4.46,6.3 8.47,6.3 4.01,0 7.33,-2.63 8.47,-6.18 -9.39,-0.57 -12.36,-6.41 -12.36,-12.82 -0.11,-5.5 2.06,-10.76 8.7,-12.36 1.03,-4.46 3.66,-6.98 7.1,-8.13 -2.18,-1.83 -3.66,-4.58 -3.66,-7.67 0,-2.06 0.69,-4.01 1.6,-5.04l0.23 -7.56c-1.14,-1.6 -1.72,-3.55 -1.72,-5.61 0,-2.18 0.69,-4.01 1.6,-5.04l0.23 -7.56c-1.14,-1.6 -1.72,-3.55 -1.72,-5.61 -1.26,-0.11 -2.52,-0.11 -3.78,-0.11 -32.51,0 -54.61,24.61 -58.04,54.15 1.95,1.03 3.66,2.63 4.92,5.15l0.23 -0c6.75,-0.11 10.07,4.46 11.33,9.73 0.34,1.49 0.57,2.98 0.57,4.46 0.11,4.69 -2.63,8.82 -9.39,10.99 1.6,2.52 4.46,4.12 7.56,4.12l-0 0zm-10.19 -4.46c-0.11,-0.34 -0.11,-0.69 0,-0.92 0.11,-0.34 0.46,-0.57 0.69,-0.57 7.21,-2.06 8.93,-5.15 9.04,-9.27 0,-1.26 -0.23,-2.63 -0.57,-4.01 -1.37,-4.92 -3.55,-8.01 -9.16,-8.13l-0.8 0 -1.14 -0.57c-1.26,-2.75 -2.98,-4.24 -4.81,-5.04l-0.69 -1.14c3.09,-30.8 26.22,-57.01 60.33,-57.01 1.6,0 3.32,0.11 5.04,0.23l-0.11 1.14 0.11 -1.14c0.34,0 0.57,0.11 0.8,0.34 0.11,0.23 0.23,0.57 0.23,0.8l0 0.92c0,1.6 0.57,3.21 1.6,5.04l-0.23 8.82c-0.92,1.26 -1.37,2.75 -1.37,4.35 0,1.6 0.57,3.09 1.6,5.04l-0.23 8.82c-0.92,1.26 -1.37,2.75 -1.37,4.35 0,3.21 1.95,5.95 4.69,7.1 0.46,0.23 0.69,0.69 0.69,1.14 0,0.46 -0.46,0.92 -0.92,0.92 -4.12,0.69 -6.98,2.63 -8.01,7.78l-0.92 0.92c-6.18,1.26 -7.56,5.04 -7.67,10.3 0.23,6.18 1.95,10.42 11.56,10.65 0.34,0 0.69,0.11 0.8,0.46 0.23,0.23 0.34,0.57 0.23,0.92 -0.92,5.27 -5.38,9.27 -10.99,9.27 -5.04,0 -9.27,-3.32 -10.65,-8.59 0.23,-0.92 0.34,-1.72 0.34,-2.63 0,-5.04 -4.12,-9.16 -9.16,-9.16 -5.04,0 -9.16,4.12 -9.16,9.16 0,1.72 0.46,3.21 1.37,5.15 -0.11,4.81 -3.43,9.27 -8.36,10.53 -0.92,0.23 -1.83,0.34 -2.75,0.34 -4.24,0.34 -8.24,-2.29 -10.07,-6.3l0 0z"/>
   </g>
   <g>
    <path class="fil1" d="M197.14 147.68c4.58,-0.69 9.16,-1.26 13.74,-1.72 -2.52,-1.49 -4.81,-3.43 -6.53,-5.84 -0.69,0.11 -1.49,0.23 -2.29,0.23 -1.14,2.75 -2.75,5.27 -4.92,7.33l0 0zm-5.04 2.06c-0.23,-0.46 0,-1.03 0.46,-1.37 3.55,-2.29 6.3,-5.72 7.67,-9.5l1.14 -0.69 0.46 0c0.92,0 1.83,-0.11 2.63,-0.34l1.26 0.46c2.29,3.43 5.84,5.95 9.85,7.33l-0.34 1.03 0.34 -1.03c0.57,0.11 0.8,0.69 0.8,1.14 -0.11,0.57 -0.46,0.92 -1.03,1.03 -7.33,0.57 -14.65,1.6 -21.87,2.75l-0.23 0c-0.46,-0.11 -0.92,-0.34 -1.14,-0.8l0 -0zm-28.96 5.15c4.01,-1.14 7.9,-2.18 11.91,-3.09 -3.21,-1.37 -5.95,-3.66 -8.01,-6.64 -0.46,3.66 -1.83,6.98 -3.89,9.73l-0 0zm-4.58 2.75c-0.23,-0.46 -0.11,-1.03 0.23,-1.37 3.78,-3.21 6.07,-8.13 6.07,-13.17 0,-0.57 0,-1.26 -0.11,-1.95l1.03 -0.11 -1.03 0.11c-0.11,-0.57 0.34,-1.03 0.8,-1.14 0.57,-0.11 1.03,0.11 1.26,0.57 2.18,5.38 6.98,9.16 12.59,10.3 0.57,0.11 0.92,0.57 0.92,1.14 0,0.57 -0.34,0.92 -0.92,1.03 -6.64,1.37 -13.17,3.09 -19.58,5.04l-0.34 0c-0.34,0.11 -0.69,-0.11 -0.92,-0.46zm-46.82 8.47c1.49,0 2.98,-0.34 4.24,-1.03 2.98,-1.6 4.58,-4.69 4.58,-7.9 0,-0.23 0,-0.46 0.11,-0.34 -1.14,-1.26 -1.95,-2.86 -2.4,-4.46 -0.23,-1.03 -0.34,-1.95 -0.34,-2.86 0,-5.04 3.43,-9.73 8.47,-10.99 0.92,-0.34 1.95,-0.34 2.86,-0.46 5.04,0 9.73,3.43 10.99,8.59 0.23,0.8 0.34,1.6 0.11,1.72 1.6,2.18 4.35,3.55 7.1,3.55 0.8,0 1.49,-0.11 2.29,-0.23 3.89,-1.03 6.53,-4.35 6.64,-8.13 -1.37,0.23 -2.63,0.46 -3.89,0.46 -6.75,0.11 -9.96,-4.46 -11.22,-9.73 -0.46,-1.6 -0.69,-3.09 -0.69,-4.58 0,-3.66 1.72,-7.33 5.95,-9.5l0 -0.34c0,-1.6 0.23,-2.98 0.69,-4.24 -4.01,-1.72 -6.87,-5.72 -6.87,-10.42 0,-4.69 2.98,-8.82 7.1,-10.53 -1.6,-1.83 -2.75,-4.24 -2.86,-6.87 -25.99,13.62 -34.12,27.25 -36.52,55.75 3.32,1.49 5.38,4.81 6.64,8.13 0.69,1.95 1.14,3.89 1.14,5.84 0,3.21 -1.37,6.18 -4.69,8.59l0.57 -0zm-3.89 1.6l0.34 -1.03 0.46 1.03 -0.46 -1.03 -0.34 1.03c-0.46,-0.11 -0.69,-0.57 -0.69,-1.03 0,-0.46 0.23,-0.8 0.57,-1.03 4.58,-2.4 5.95,-5.04 5.95,-8.13 0,-1.6 -0.34,-3.32 -1.03,-5.04 -1.26,-3.43 -3.32,-6.3 -6.07,-7.1l-0.8 -1.14c2.29,-29.88 11.45,-45.11 38.92,-58.62l0 -0.11c0.23,-0.57 0.69,-0.8 1.26,-0.69 0.57,0.11 0.92,0.57 0.8,1.14l0 1.14c0,2.86 1.37,5.5 3.55,7.21 0.34,0.23 0.46,0.69 0.46,1.14 -0.11,0.46 -0.46,0.8 -0.92,0.8 -4.12,0.92 -7.21,4.46 -7.21,8.93 0,4.12 2.75,7.56 6.53,8.7 0.34,0.11 0.57,0.34 0.69,0.57 0.11,0.34 0.11,0.57 0,0.92 -0.57,1.14 -0.92,2.63 -0.92,4.35l0 0.92 -0.57 1.14c-4.12,2.06 -5.38,4.58 -5.38,7.9 0,1.26 0.23,2.63 0.57,4.01 1.37,4.92 3.55,8.01 9.04,8.13 1.37,0 2.86,-0.23 4.69,-0.57 0.34,-0.11 0.57,0 0.92,0.23 0.23,0.23 0.46,0.46 0.46,0.8l0 1.03c0,4.92 -3.32,9.39 -8.36,10.76 -0.92,0.23 -1.83,0.34 -2.75,0.34 -3.55,0 -6.75,-1.72 -9.04,-5.04 0,-0.57 -0.11,-1.26 -0.23,-1.83 -1.03,-4.12 -4.81,-6.87 -8.82,-6.87 -0.8,0 -1.49,0.11 -2.29,0.34 -4.12,1.03 -6.87,4.81 -6.87,8.82 0,0.8 0.11,1.49 0.34,2.29 0.34,1.49 1.03,2.75 2.29,4.46l0 1.03c0,3.89 -2.06,7.78 -5.72,9.85 -1.72,0.92 -3.55,1.37 -5.38,1.37 -1.49,-0.46 -2.75,-0.69 -4.01,-1.14l-0 -0z"/>
   </g>
   <g>
    <path class="fil1" d="M128.91 166.92c4.12,-1.83 8.47,-3.43 12.71,-5.04 -2.18,-0.57 -4.35,-1.6 -6.18,-2.86 -1.03,0.69 -2.06,1.14 -3.32,1.49 -0.23,0.11 -0.46,0.11 -0.69,0.11 -0.46,2.18 -1.37,4.35 -2.52,6.3l0 -0zm-4.35 3.32c-0.34,-0.46 -0.23,-1.03 0.11,-1.37 2.52,-2.63 4.12,-5.95 4.81,-9.39l0.92 -0.92c0.46,-0.11 0.8,-0.11 1.14,-0.23 1.26,-0.34 2.29,-0.8 3.21,-1.6l1.26 -0c2.86,2.06 6.3,3.32 9.96,3.55l-0.11 1.14 0.11 -1.14c0.46,0 0.92,0.46 1.03,0.92 0.11,0.57 -0.23,1.03 -0.69,1.14 -6.98,2.4 -13.74,5.15 -20.38,8.13 -0.11,0.11 -0.34,0.11 -0.46,0.11 -0.34,0.11 -0.69,0 -0.92,-0.34l0 -0zm108.64 -25.64c2.06,0 4.12,-0.11 6.3,-0.11 2.06,0 4.24,0 6.3,0.11 -2.8,-2.22 -4.98,-5.15 -6.3,-8.47 -1.26,3.32 -3.43,6.3 -6.3,8.47l-0 -0zm-3.55 2.18l-0.46 -1.03 0.46 1.03zm9.85 -0.11c-3.43,0 -6.87,0.11 -10.3,0.23 -0.57,0 -1.03,-0.34 -1.14,-0.8 -0.11,-0.57 0.11,-1.03 0.57,-1.26 5.15,-2.52 8.82,-7.33 9.73,-13.17 0.11,-0.57 0.57,-0.92 1.03,-0.92 0.57,0 1.03,0.46 1.03,0.92 0.8,5.84 4.58,10.76 9.73,13.17 0.46,0.23 0.69,0.69 0.57,1.26 -0.11,0.46 -0.57,0.8 -1.14,0.8 -3.21,-0.11 -6.64,-0.23 -10.07,-0.23l0 0zm110.59 20.26c-1.14,-1.95 -2.06,-4.12 -2.52,-6.3 -0.23,0 -0.46,-0.11 -0.69,-0.11 -1.14,-0.34 -2.29,-0.8 -3.32,-1.49 -1.95,1.26 -4.01,2.18 -6.18,2.86 4.24,1.6 8.47,3.21 12.71,5.04l0 0zm2.98 3.66c-6.64,-2.98 -13.51,-5.61 -20.38,-8.13l0.34 -1.03 0 1.14 0 -1.14 -0.34 1.03c-0.46,-0.23 -0.8,-0.69 -0.69,-1.14 0.11,-0.57 0.46,-0.92 1.03,-0.92 3.66,-0.23 7.1,-1.49 9.96,-3.55l1.37 0c0.92,0.69 1.95,1.26 3.09,1.6 0.46,0.11 0.8,0.11 1.26,0.23l0.92 0.92c0.69,3.43 2.29,6.75 4.81,9.39 0.34,0.34 0.34,0.92 0.11,1.37 -0.23,0.34 -0.57,0.46 -0.92,0.46 -0.23,-0.11 -0.46,-0.11 -0.57,-0.23l0 0z"/>
   </g>
   <g>
    <path class="fil1" d="M352.49 138.52c5.15,1.26 8.59,5.84 8.59,10.99 0,0.92 -0.11,1.95 -0.34,2.86 -0.46,1.83 -1.37,3.43 -2.29,4.24l0 0.69c0,3.21 1.72,6.18 4.69,7.9 1.26,0.69 2.75,1.14 4.24,1.14l0.46 0c-3.32,-2.4 -4.81,-5.5 -4.69,-8.59 0,-1.95 0.46,-3.89 1.26,-5.84 1.26,-3.32 3.32,-6.75 6.64,-8.13 -2.4,-28.28 -10.42,-41.9 -36.52,-55.87 -0.11,2.75 -1.14,5.15 -2.86,6.98 4.12,1.72 7.1,5.72 7.1,10.42 0,4.69 -2.86,8.7 -6.87,10.42 0.46,1.26 0.69,2.63 0.69,4.24l0 0.34c4.24,2.29 6.07,5.84 5.95,9.62 0,1.49 -0.23,2.98 -0.57,4.58 -1.26,5.27 -4.58,9.73 -11.22,9.73 -1.14,0 -2.52,-0.11 -3.89,-0.46 0.23,3.78 2.86,7.21 6.64,8.13 0.69,0.11 1.49,0.23 2.18,0.23 2.75,0 5.5,-1.37 6.87,-2.98 0,-0.8 0.11,-1.6 0.34,-2.4 1.26,-5.15 5.84,-8.59 10.99,-8.59 0.69,0 1.72,0.11 2.63,0.34l0 -0zm9.5 28.51c-3.66,-2.06 -5.84,-5.84 -5.84,-9.73 0,-0.34 0,-0.69 0.34,-1.72 0.92,-1.03 1.72,-2.29 2.06,-3.78 0.23,-0.8 0.23,-1.49 0.23,-2.29 0,-4.12 -2.75,-7.78 -6.87,-8.82 -0.8,-0.23 -1.6,-0.34 -2.29,-0.34 -4.12,0 -7.78,2.75 -8.82,6.87 -0.11,0.57 -0.23,1.26 -0.46,2.52 -2.06,2.75 -5.38,4.46 -8.93,4.46 -0.92,0 -1.95,-0.11 -2.75,-0.34 -5.04,-1.26 -8.36,-5.84 -8.36,-10.76l0 -1.14c0.11,-0.34 0.23,-0.57 0.46,-0.69 0.23,-0.11 0.57,-0.23 0.92,-0.11 1.83,0.46 3.32,0.69 4.69,0.69 5.61,0 7.78,-3.21 9.16,-8.13 0.34,-1.37 0.57,-2.75 0.57,-4.01 -0.11,-3.32 -1.26,-5.95 -5.38,-7.9l-0.69 -1.03 0 -0.92c0,-1.72 -0.34,-3.21 -0.92,-4.35 -0.11,-0.34 -0.11,-0.57 0,-0.92 0.11,-0.34 0.34,-0.57 0.69,-0.57 3.78,-1.14 6.53,-4.58 6.53,-8.7 0,-4.35 -3.09,-8.01 -7.21,-8.93 -0.46,-0.11 -0.69,-0.46 -0.8,-0.8 -0.11,-0.46 0,-0.92 0.34,-1.14 2.18,-1.72 3.55,-4.24 3.55,-7.21 0,-0.34 0,-0.69 -0.11,-1.03 -0.11,-0.57 0.23,-1.03 0.8,-1.14 0.46,-0.11 0.8,0 1.14,0.34 27.7,13.85 36.86,28.96 39.15,58.84l-0.8 1.14c-2.75,0.8 -4.81,3.66 -6.07,7.1 -0.69,1.72 -1.03,3.43 -1.03,5.04 0,3.09 1.37,5.72 6.07,8.13l-0.46 1.03 0.46 -1.03c0.46,0.23 0.57,0.57 0.57,1.03 0,0.46 -0.34,0.8 -0.69,0.92 -1.26,0.46 -2.52,0.69 -3.89,0.69 -1.95,0.11 -3.78,-0.34 -5.38,-1.26l-0 0z"/>
   </g>
  </g>
  <path class="fil3" d="M229.31 38.58c0,3.21 -2.63,5.72 -5.72,5.72 -3.21,0 -5.72,-2.52 -5.72,-5.72 0,-3.21 2.52,-5.72 5.72,-5.72 3.09,0 5.72,2.52 5.72,5.72z"/>
  <g>
   <path class="fil1" d="M218.55 38.58c0,2.75 2.29,5.04 5.04,5.04 2.75,0 5.04,-2.29 5.04,-5.04 0,-2.75 -2.29,-5.04 -5.04,-5.04 -2.86,0 -5.04,2.29 -5.04,5.04l0 0zm-1.49 0c0,-3.55 2.86,-6.53 6.53,-6.53 3.55,0 6.53,2.86 6.53,6.53 0,3.55 -2.98,6.53 -6.53,6.53 -3.66,0 -6.53,-2.98 -6.53,-6.53z"/>
  </g>
  <path class="fil3" d="M245.22 54.26c0,3.21 -2.63,5.72 -5.72,5.72 -3.21,0 -5.72,-2.52 -5.72,-5.72 0,-3.21 2.52,-5.72 5.72,-5.72 3.21,0 5.72,2.52 5.72,5.72z"/>
  <g>
   <path class="fil1" d="M234.46 54.26c0,2.75 2.18,5.04 5.04,5.04 2.75,0 5.04,-2.29 5.04,-5.04 0,-2.75 -2.29,-5.04 -5.04,-5.04 -2.75,0 -5.04,2.29 -5.04,5.04l0 0zm-1.49 0c0,-3.55 2.86,-6.53 6.53,-6.53 3.66,0 6.53,2.86 6.53,6.53 0,3.55 -2.86,6.53 -6.53,6.53 -3.55,0 -6.53,-2.98 -6.53,-6.53z"/>
  </g>
  <path class="fil3" d="M245.22 72.47c0,3.21 -2.63,5.72 -5.72,5.72 -3.21,0 -5.72,-2.63 -5.72,-5.72 0,-3.21 2.52,-5.72 5.72,-5.72 3.21,0 5.72,2.63 5.72,5.72z"/>
  <g>
   <path class="fil1" d="M234.46 72.47c0,2.75 2.18,5.04 5.04,5.04 2.75,0 5.04,-2.29 5.04,-5.04 0,-2.75 -2.29,-5.04 -5.04,-5.04 -2.75,0.11 -5.04,2.29 -5.04,5.04l0 0zm-1.49 0c0,-3.66 2.86,-6.53 6.53,-6.53 3.66,0 6.53,2.86 6.53,6.53 0,3.55 -2.86,6.53 -6.53,6.53 -3.55,0 -6.53,-2.86 -6.53,-6.53z"/>
  </g>
  <path class="fil3" d="M245.22 90.78c0,3.21 -2.63,5.72 -5.72,5.72 -3.21,0 -5.72,-2.52 -5.72,-5.72 0,-3.21 2.52,-5.72 5.72,-5.72 3.21,0 5.72,2.52 5.72,5.72z"/>
  <g>
   <path class="fil1" d="M234.46 90.78c0,2.75 2.18,5.04 5.04,5.04 2.75,0 5.04,-2.29 5.04,-5.04 0,-2.75 -2.29,-5.04 -5.04,-5.04 -2.75,0 -5.04,2.29 -5.04,5.04l0 0zm-1.49 0c0,-3.55 2.86,-6.53 6.53,-6.53 3.66,0 6.53,2.86 6.53,6.53 0,3.66 -2.86,6.53 -6.53,6.53 -3.55,0 -6.53,-2.98 -6.53,-6.53z"/>
  </g>
  <path class="fil3" d="M212.82 41.44c0,3.21 -2.63,5.72 -5.72,5.72 -3.21,0 -5.72,-2.63 -5.72,-5.72 0,-3.21 2.63,-5.72 5.72,-5.72 3.21,0 5.72,2.52 5.72,5.72z"/>
  <g>
   <path class="fil1" d="M202.06 41.44c0,2.75 2.29,5.04 5.04,5.04 2.75,0 5.04,-2.29 5.04,-5.04 0,-2.75 -2.29,-5.04 -5.04,-5.04 -2.75,0 -5.04,2.29 -5.04,5.04l0 0zm-1.49 0c0,-3.66 2.86,-6.53 6.53,-6.53 3.55,0 6.53,2.86 6.53,6.53 0,3.55 -2.98,6.53 -6.53,6.53 -3.55,0 -6.53,-2.86 -6.53,-6.53z"/>
  </g>
  <path class="fil3" d="M196.8 47.4c0,3.21 -2.63,5.72 -5.72,5.72 -3.21,0 -5.72,-2.52 -5.72,-5.72 0,-3.21 2.52,-5.72 5.72,-5.72 3.21,0 5.72,2.52 5.72,5.72z"/>
  <g>
   <path class="fil1" d="M186.03 47.4c0,2.75 2.29,5.04 5.04,5.04 2.75,0 5.04,-2.29 5.04,-5.04 0,-2.75 -2.29,-5.04 -5.04,-5.04 -2.75,0 -5.04,2.29 -5.04,5.04l0 0zm-1.49 0c0,-3.66 2.86,-6.53 6.53,-6.53 3.55,0 6.53,2.86 6.53,6.53 0,3.55 -2.98,6.53 -6.53,6.53 -3.55,0 -6.53,-2.86 -6.53,-6.53z"/>
  </g>
  <path class="fil3" d="M181.34 57.7c0,3.21 -2.52,5.72 -5.72,5.72 -3.21,0 -5.72,-2.63 -5.72,-5.72 0,-3.21 2.63,-5.72 5.72,-5.72 3.21,0 5.72,2.52 5.72,5.72z"/>
  <g>
   <path class="fil1" d="M170.58 57.7c0,2.75 2.29,5.04 5.04,5.04 2.75,0 5.04,-2.29 5.04,-5.04 0,-2.75 -2.18,-5.04 -5.04,-5.04 -2.75,0 -5.04,2.29 -5.04,5.04l0 0zm-1.49 0c0,-3.55 2.86,-6.53 6.53,-6.53 3.66,0 6.53,2.86 6.53,6.53 0,3.55 -2.86,6.53 -6.53,6.53 -3.55,0 -6.53,-2.98 -6.53,-6.53z"/>
  </g>
  <path class="fil3" d="M169.55 71.32c0,3.21 -2.63,5.72 -5.72,5.72 -3.21,0 -5.72,-2.52 -5.72,-5.72 0,-3.21 2.63,-5.72 5.72,-5.72 3.21,-0.11 5.72,2.52 5.72,5.72z"/>
  <g>
   <path class="fil1" d="M158.79 71.32c0,2.75 2.29,5.04 5.04,5.04 2.75,0 5.04,-2.18 5.04,-5.04 0,-2.75 -2.29,-5.04 -5.04,-5.04 -2.75,0 -5.04,2.18 -5.04,5.04l0 0zm-1.49 0c0,-3.55 2.98,-6.53 6.53,-6.53 3.55,0 6.53,2.86 6.53,6.53 0,3.66 -2.86,6.53 -6.53,6.53 -3.55,-0.11 -6.53,-2.98 -6.53,-6.53z"/>
  </g>
  <path class="fil3" d="M153.52 69.95c0,3.21 -2.63,5.72 -5.72,5.72 -3.21,0 -5.72,-2.52 -5.72,-5.72 0,-3.21 2.63,-5.72 5.72,-5.72 3.09,0 5.72,2.52 5.72,5.72z"/>
  <g>
   <path class="fil1" d="M142.65 69.95c0,2.75 2.29,5.04 5.04,5.04 2.75,0 5.04,-2.29 5.04,-5.04 0,-2.75 -2.29,-5.04 -5.04,-5.04 -2.75,0 -5.04,2.29 -5.04,5.04l0 0zm-1.49 0c0,-3.55 2.86,-6.53 6.53,-6.53 3.55,0 6.53,2.86 6.53,6.53 0,3.55 -2.86,6.53 -6.53,6.53 -3.55,0 -6.53,-2.98 -6.53,-6.53z"/>
  </g>
  <path class="fil3" d="M137.72 76.13c0,3.21 -2.63,5.72 -5.72,5.72 -3.21,0 -5.72,-2.63 -5.72,-5.72 0,-3.21 2.63,-5.72 5.72,-5.72 3.09,0 5.72,2.52 5.72,5.72z"/>
  <g>
   <path class="fil1" d="M126.85 76.13c0,2.75 2.29,5.04 5.04,5.04 2.75,0 5.04,-2.29 5.04,-5.04 0,-2.75 -2.29,-5.04 -5.04,-5.04 -2.75,0 -5.04,2.29 -5.04,5.04l0 0zm-1.37 0c0,-3.55 2.86,-6.53 6.53,-6.53 3.55,0 6.53,2.86 6.53,6.53 0,3.55 -2.98,6.53 -6.53,6.53 -3.66,0 -6.53,-2.98 -6.53,-6.53z"/>
  </g>
  <path class="fil3" d="M122.95 86.78c0,3.21 -2.52,5.72 -5.72,5.72 -3.21,0 -5.72,-2.52 -5.72,-5.72 0,-3.21 2.63,-5.72 5.72,-5.72 3.21,0 5.72,2.52 5.72,5.72z"/>
  <g>
   <path class="fil1" d="M112.19 86.78c0,2.75 2.29,5.04 5.04,5.04 2.75,0 5.04,-2.29 5.04,-5.04 0,-2.75 -2.29,-5.04 -5.04,-5.04 -2.75,0 -5.04,2.29 -5.04,5.04l0 0zm-1.49 0c0,-3.55 2.86,-6.53 6.53,-6.53 3.55,0 6.53,2.86 6.53,6.53 0,3.55 -2.86,6.53 -6.53,6.53 -3.66,0 -6.53,-2.98 -6.53,-6.53z"/>
  </g>
  <path class="fil3" d="M111.05 100.86c0,3.21 -2.63,5.72 -5.72,5.72 -3.21,0 -5.72,-2.63 -5.72,-5.72 0,-3.21 2.52,-5.72 5.72,-5.72 3.21,0 5.72,2.52 5.72,5.72z"/>
  <g>
   <path class="fil1" d="M100.29 100.86c0,2.75 2.18,5.04 5.04,5.04 2.75,0 5.04,-2.29 5.04,-5.04 0,-2.75 -2.29,-5.04 -5.04,-5.04 -2.86,0 -5.04,2.18 -5.04,5.04l0 0zm-1.49 0c0,-3.55 2.86,-6.53 6.53,-6.53 3.55,0 6.53,2.86 6.53,6.53 0,3.55 -2.98,6.53 -6.53,6.53 -3.66,-0.11 -6.53,-2.98 -6.53,-6.53z"/>
  </g>
  <path class="fil3" d="M103.49 116.66c0,3.21 -2.63,5.72 -5.72,5.72 -3.21,0 -5.72,-2.52 -5.72,-5.72 0,-3.21 2.63,-5.72 5.72,-5.72 3.21,-0.11 5.72,2.52 5.72,5.72z"/>
  <g>
   <path class="fil1" d="M92.73 116.66c0,2.75 2.29,5.04 5.04,5.04 2.75,0 5.04,-2.29 5.04,-5.04 0,-2.75 -2.29,-5.04 -5.04,-5.04 -2.75,0 -5.04,2.18 -5.04,5.04l0 0zm-1.49 0c0,-3.55 2.86,-6.53 6.53,-6.53 3.55,0 6.53,2.86 6.53,6.53 0,3.55 -2.86,6.53 -6.53,6.53 -3.55,-0.11 -6.53,-2.98 -6.53,-6.53z"/>
  </g>
  <path class="fil3" d="M99.37 134.63c0,3.21 -2.52,5.72 -5.72,5.72 -3.21,0 -5.72,-2.52 -5.72,-5.72 0,-3.21 2.52,-5.72 5.72,-5.72 3.21,0 5.72,2.52 5.72,5.72z"/>
  <g>
   <path class="fil1" d="M88.61 134.63c0,2.75 2.29,5.04 5.04,5.04 2.75,0 5.04,-2.18 5.04,-5.04 0,-2.75 -2.29,-5.04 -5.04,-5.04 -2.86,0 -5.04,2.29 -5.04,5.04l0 0zm-1.49 0c0,-3.55 2.86,-6.53 6.53,-6.53 3.55,0 6.53,2.86 6.53,6.53 0,3.55 -2.86,6.53 -6.53,6.53 -3.66,0 -6.53,-2.98 -6.53,-6.53z"/>
  </g>
  <path class="fil3" d="M212.94 171.61c0,3.21 -2.63,5.72 -5.72,5.72 -3.21,0 -5.72,-2.63 -5.72,-5.72 0,-3.21 2.63,-5.72 5.72,-5.72 3.21,0 5.72,2.52 5.72,5.72z"/>
  <g>
   <path class="fil1" d="M202.18 171.61c0,2.75 2.29,5.04 5.04,5.04 2.75,0 5.04,-2.29 5.04,-5.04 0,-2.75 -2.29,-5.04 -5.04,-5.04 -2.75,0 -5.04,2.29 -5.04,5.04l0 0zm-1.49 0c0,-3.55 2.86,-6.53 6.53,-6.53 3.55,0 6.53,2.86 6.53,6.53 0,3.55 -2.98,6.53 -6.53,6.53 -3.55,0 -6.53,-2.98 -6.53,-6.53z"/>
  </g>
  <path class="fil3" d="M150.66 188.44c0,3.21 -2.63,5.72 -5.72,5.72 -3.21,0 -5.72,-2.63 -5.72,-5.72 0,-3.21 2.52,-5.72 5.72,-5.72 3.21,0 5.72,2.52 5.72,5.72z"/>
  <g>
   <path class="fil1" d="M139.9 188.44c0,2.75 2.18,5.04 5.04,5.04 2.75,0 5.04,-2.29 5.04,-5.04 0,-2.75 -2.29,-5.04 -5.04,-5.04 -2.75,0 -5.04,2.29 -5.04,5.04l0 0zm-1.49 0c0,-3.55 2.86,-6.53 6.53,-6.53 3.55,0 6.53,2.86 6.53,6.53 0,3.66 -2.98,6.53 -6.53,6.53 -3.66,0 -6.53,-2.98 -6.53,-6.53z"/>
  </g>
  <path class="fil3" d="M161.65 87.12c0,3.21 -2.63,5.72 -5.72,5.72 -3.21,0 -5.72,-2.63 -5.72,-5.72 0,-3.21 2.63,-5.72 5.72,-5.72 3.21,0 5.72,2.52 5.72,5.72z"/>
  <g>
   <path class="fil1" d="M150.89 87.12c0,2.75 2.29,5.04 5.04,5.04 2.75,0 5.04,-2.29 5.04,-5.04 0,-2.75 -2.29,-5.04 -5.04,-5.04 -2.75,0 -5.04,2.29 -5.04,5.04l0 0zm-1.49 0c0,-3.66 2.86,-6.53 6.53,-6.53 3.55,0 6.53,2.86 6.53,6.53 0,3.55 -2.86,6.53 -6.53,6.53 -3.55,0 -6.53,-2.98 -6.53,-6.53z"/>
  </g>
  <path class="fil3" d="M157.53 105.21c0,3.21 -2.63,5.72 -5.72,5.72 -3.21,0 -5.72,-2.52 -5.72,-5.72 0,-3.21 2.63,-5.72 5.72,-5.72 3.09,-0.11 5.72,2.52 5.72,5.72z"/>
  <g>
   <path class="fil1" d="M146.77 105.1c0,2.75 2.29,5.04 5.04,5.04 2.75,0 5.04,-2.17 5.04,-5.04 0,-2.75 -2.29,-5.04 -5.04,-5.04 -2.86,0.11 -5.04,2.29 -5.04,5.04l0 0zm-1.49 0c0,-3.55 2.86,-6.53 6.53,-6.53 3.55,0 6.53,2.86 6.53,6.53 0,3.55 -2.98,6.53 -6.53,6.53 -3.66,0 -6.53,-2.86 -6.53,-6.53z"/>
  </g>
  <path class="fil3" d="M249.23 116.89c0,5.38 -4.35,9.73 -9.73,9.73 -5.38,0 -9.73,-4.35 -9.73,-9.73 0,-5.38 4.35,-9.73 9.73,-9.73 5.38,0 9.73,4.35 9.73,9.73z"/>
  <g>
   <path class="fil1" d="M230.45 116.89c0,5.04 4.01,9.04 9.04,9.04 4.92,0 9.04,-4.01 9.04,-9.04 0,-4.92 -4.01,-9.04 -9.04,-9.04 -4.92,0 -9.04,4.01 -9.04,9.04l0 0zm-1.49 0c0,-5.84 4.69,-10.53 10.53,-10.53 5.84,0 10.53,4.69 10.53,10.53 0,5.84 -4.69,10.53 -10.53,10.53 -5.84,0 -10.53,-4.69 -10.53,-10.53z"/>
  </g>
  <path class="fil3" d="M171.72 124.21c1.37,5.27 -1.83,10.53 -6.98,11.91 -5.27,1.37 -10.53,-1.83 -11.91,-6.98 -1.37,-5.27 1.83,-10.53 6.98,-11.91 5.15,-1.37 10.53,1.72 11.91,6.98z"/>
  <g>
   <path class="fil1" d="M152.03 129.25c-0.23,-0.92 -0.34,-1.72 -0.34,-2.63 0,-4.69 3.09,-8.93 7.9,-10.19 0.92,-0.23 1.72,-0.34 2.63,-0.34 4.69,0 8.93,3.21 10.19,7.9l-0.69 0.23 -0.69 0.23c-1.14,-4.12 -4.81,-6.75 -8.82,-6.75 -0.69,0 -1.49,0.11 -2.29,0.34 -4.12,1.03 -6.75,4.69 -6.75,8.7 0,0.69 0.11,1.49 0.34,2.29 1.03,4.12 4.69,6.75 8.7,6.75 0.69,0 1.49,-0.11 2.29,-0.23 4.12,-1.03 6.75,-4.69 6.75,-8.7 0,-0.8 -0.11,-1.49 -0.23,-2.29l0.69 -0.23 0.69 -0.23c0.23,0.92 0.34,1.72 0.34,2.63 0,4.69 -3.21,8.93 -7.9,10.19 -0.92,0.23 -1.72,0.34 -2.63,0.34 -4.69,-0.11 -8.93,-3.32 -10.19,-8.01l-0 -0zm0 0l0 0 0 0z"/>
  </g>
  <path class="fil3" d="M104.07 153.41c2.63,4.69 0.92,10.65 -3.89,13.28 -4.69,2.63 -10.65,0.92 -13.28,-3.89 -2.63,-4.69 -0.92,-10.65 3.89,-13.28 4.81,-2.52 10.76,-0.8 13.28,3.89z"/>
  <g>
   <path class="fil1" d="M86.32 163.14c-0.92,-1.6 -1.26,-3.32 -1.26,-5.04 0,-3.66 1.95,-7.33 5.5,-9.27 1.6,-0.92 3.32,-1.37 5.04,-1.37 3.66,0 7.21,1.95 9.16,5.5l-0.57 0.34 -0.69 0.34c-1.72,-2.98 -4.69,-4.69 -7.9,-4.69 -1.49,0 -2.98,0.34 -4.35,1.14 -2.98,1.6 -4.69,4.69 -4.69,7.9 0,1.49 0.34,2.98 1.14,4.35 1.6,2.98 4.69,4.69 7.9,4.69 1.49,0 2.98,-0.34 4.35,-1.14 2.98,-1.6 4.69,-4.69 4.69,-7.9 0,-1.49 -0.34,-2.98 -1.14,-4.35l0.69 -0.34 0.57 -0.34c0.92,1.6 1.26,3.32 1.26,5.04 0,3.66 -1.95,7.33 -5.38,9.27 -1.6,0.92 -3.32,1.26 -5.04,1.26 -3.78,0.11 -7.33,-1.83 -9.27,-5.38l0 -0zm0 0l0 0 0 0z"/>
  </g>
  <path class="fil3" d="M249.69 38.58c0,3.21 2.63,5.72 5.72,5.72 3.21,0 5.72,-2.52 5.72,-5.72 0,-3.21 -2.63,-5.72 -5.72,-5.72 -3.09,0 -5.72,2.52 -5.72,5.72z"/>
  <g>
   <path class="fil1" d="M255.41 43.62c2.75,0 5.04,-2.29 5.04,-5.04 0,-2.75 -2.18,-5.04 -5.04,-5.04 -2.75,0 -5.04,2.18 -5.04,5.04 0.11,2.75 2.29,5.04 5.04,5.04l0 0zm-6.41 -5.04c0,-3.55 2.86,-6.53 6.53,-6.53 3.55,0 6.53,2.86 6.53,6.53 0,3.66 -2.98,6.53 -6.53,6.53 -3.66,0 -6.53,-2.86 -6.53,-6.53z"/>
  </g>
  <path class="fil3" d="M266.17 41.44c0,3.21 2.52,5.72 5.72,5.72 3.21,0 5.72,-2.63 5.72,-5.72 0,-3.21 -2.63,-5.72 -5.72,-5.72 -3.21,0 -5.72,2.52 -5.72,5.72z"/>
  <g>
   <path class="fil1" d="M271.9 46.48c2.75,0 5.04,-2.29 5.04,-5.04 0,-2.75 -2.29,-5.04 -5.04,-5.04 -2.75,0 -5.04,2.29 -5.04,5.04 0,2.75 2.29,5.04 5.04,5.04l0 0zm-6.53 -5.04c0,-3.55 2.86,-6.53 6.53,-6.53 3.55,0 6.53,2.86 6.53,6.53 0,3.55 -2.86,6.53 -6.53,6.53 -3.55,0 -6.53,-2.86 -6.53,-6.53z"/>
  </g>
  <path class="fil3" d="M282.2 47.4c0,3.21 2.52,5.72 5.72,5.72 3.21,0 5.72,-2.52 5.72,-5.72 0,-3.21 -2.63,-5.72 -5.72,-5.72 -3.21,0 -5.72,2.52 -5.72,5.72z"/>
  <g>
   <path class="fil1" d="M287.92 52.43c2.75,0 5.04,-2.29 5.04,-5.04 0,-2.75 -2.29,-5.04 -5.04,-5.04 -2.75,0 -5.04,2.18 -5.04,5.04 0,2.75 2.29,5.04 5.04,5.04l0 0zm-6.53 -5.04c0,-3.55 2.86,-6.53 6.53,-6.53 3.55,0 6.53,2.86 6.53,6.53 0,3.55 -2.98,6.53 -6.53,6.53 -3.55,0 -6.53,-2.86 -6.53,-6.53z"/>
  </g>
  <path class="fil3" d="M297.66 57.7c0,3.21 2.52,5.72 5.72,5.72 3.21,0 5.72,-2.63 5.72,-5.72 0,-3.21 -2.63,-5.72 -5.72,-5.72 -3.21,0 -5.72,2.52 -5.72,5.72z"/>
  <g>
   <path class="fil1" d="M303.38 62.74c2.75,0 5.04,-2.18 5.04,-5.04 0,-2.75 -2.29,-5.04 -5.04,-5.04 -2.75,0 -5.04,2.18 -5.04,5.04 0,2.75 2.29,5.04 5.04,5.04l0 0zm-6.53 -5.04c0,-3.66 2.86,-6.53 6.53,-6.53 3.55,0 6.53,2.86 6.53,6.53 0,3.55 -2.98,6.53 -6.53,6.53 -3.55,0 -6.53,-2.98 -6.53,-6.53z"/>
  </g>
  <path class="fil3" d="M309.45 71.32c0,3.21 2.63,5.72 5.72,5.72 3.21,0 5.72,-2.52 5.72,-5.72 0,-3.21 -2.63,-5.72 -5.72,-5.72 -3.21,-0.11 -5.72,2.52 -5.72,5.72z"/>
  <g>
   <path class="fil1" d="M315.17 76.36c2.75,0 5.04,-2.29 5.04,-5.04 0,-2.75 -2.29,-5.04 -5.04,-5.04 -2.75,0 -5.04,2.29 -5.04,5.04 0,2.75 2.29,5.04 5.04,5.04l0 0zm-6.53 -5.04c0,-3.55 2.98,-6.53 6.53,-6.53 3.55,0 6.53,2.86 6.53,6.53 0,3.55 -2.86,6.53 -6.53,6.53 -3.55,-0.11 -6.53,-2.98 -6.53,-6.53z"/>
  </g>
  <path class="fil3" d="M325.59 69.95c0,3.21 2.63,5.72 5.72,5.72 3.09,0 5.72,-2.52 5.72,-5.72 0,-3.21 -2.63,-5.72 -5.72,-5.72 -3.09,0 -5.72,2.52 -5.72,5.72z"/>
  <g>
   <path class="fil1" d="M331.31 74.99c2.75,0 5.04,-2.29 5.04,-5.04 0,-2.75 -2.29,-5.04 -5.04,-5.04 -2.75,0 -5.04,2.18 -5.04,5.04 0,2.75 2.29,5.04 5.04,5.04l0 0zm-6.53 -5.04c0,-3.55 2.86,-6.53 6.53,-6.53 3.55,0 6.53,2.86 6.53,6.53 0,3.66 -2.98,6.53 -6.53,6.53 -3.66,0 -6.53,-2.98 -6.53,-6.53z"/>
  </g>
  <path class="fil3" d="M341.39 76.13c0,3.21 2.52,5.72 5.72,5.72 3.21,0 5.72,-2.63 5.72,-5.72 0,-3.21 -2.63,-5.72 -5.72,-5.72 -3.21,0 -5.72,2.52 -5.72,5.72z"/>
  <g>
   <path class="fil1" d="M347.11 81.17c2.75,0 5.04,-2.29 5.04,-5.04 0,-2.75 -2.29,-5.04 -5.04,-5.04 -2.75,0 -5.04,2.18 -5.04,5.04 0,2.75 2.18,5.04 5.04,5.04l0 0zm-6.53 -5.04c0,-3.55 2.86,-6.53 6.53,-6.53 3.55,0 6.53,2.86 6.53,6.53 0,3.55 -2.98,6.53 -6.53,6.53 -3.66,0 -6.53,-2.98 -6.53,-6.53z"/>
  </g>
  <path class="fil3" d="M356.04 86.78c0,3.21 2.63,5.72 5.72,5.72 3.21,0 5.72,-2.52 5.72,-5.72 0,-3.21 -2.52,-5.72 -5.72,-5.72 -3.21,0 -5.72,2.52 -5.72,5.72z"/>
  <g>
   <path class="fil1" d="M361.77 91.82c2.75,0 5.04,-2.29 5.04,-5.04 0,-2.75 -2.18,-5.04 -5.04,-5.04 -2.75,0 -5.04,2.18 -5.04,5.04 0,2.75 2.29,5.04 5.04,5.04l0 0zm-6.53 -5.04c0,-3.66 2.98,-6.53 6.53,-6.53 3.55,0 6.53,2.86 6.53,6.53 0,3.55 -2.86,6.41 -6.53,6.41 -3.55,0.11 -6.53,-2.86 -6.53,-6.41z"/>
  </g>
  <path class="fil3" d="M367.95 100.86c0,3.21 2.63,5.72 5.72,5.72 3.21,0 5.72,-2.63 5.72,-5.72 0,-3.21 -2.63,-5.72 -5.72,-5.72 -3.09,0 -5.72,2.52 -5.72,5.72z"/>
  <g>
   <path class="fil1" d="M373.79 105.9c2.75,0 5.04,-2.29 5.04,-5.04 0,-2.75 -2.29,-5.04 -5.04,-5.04 -2.75,0 -5.04,2.29 -5.04,5.04 0,2.75 2.17,4.92 5.04,5.04l0 0zm-6.53 -5.04c0,-3.55 2.98,-6.53 6.53,-6.53 3.55,0 6.53,2.86 6.53,6.53 0,3.55 -2.98,6.53 -6.53,6.53 -3.66,-0.11 -6.53,-2.98 -6.53,-6.53z"/>
  </g>
  <path class="fil3" d="M375.5 116.66c0,3.21 2.52,5.72 5.72,5.72 3.21,0 5.72,-2.52 5.72,-5.72 0,-3.21 -2.63,-5.72 -5.72,-5.72 -3.21,-0.11 -5.72,2.52 -5.72,5.72z"/>
  <g>
   <path class="fil1" d="M381.23 121.58c2.75,0 5.04,-2.18 5.04,-5.04 0,-2.75 -2.29,-5.04 -5.04,-5.04 -2.86,0 -5.04,2.29 -5.04,5.04 0,2.86 2.29,5.04 5.04,5.04l0 0zm-6.53 -4.92c0,-3.55 2.86,-6.53 6.53,-6.53 3.55,0 6.53,2.86 6.53,6.53 0,3.55 -2.98,6.53 -6.53,6.53 -3.55,-0.11 -6.53,-2.98 -6.53,-6.53z"/>
  </g>
  <path class="fil3" d="M379.63 134.63c0,3.21 2.52,5.72 5.72,5.72 3.21,0 5.72,-2.52 5.72,-5.72 0,-3.21 -2.63,-5.72 -5.72,-5.72 -3.09,0 -5.72,2.52 -5.72,5.72z"/>
  <g>
   <path class="fil1" d="M385.46 139.67c2.75,0 5.04,-2.29 5.04,-5.04 0,-2.75 -2.29,-5.04 -5.04,-5.04 -2.86,0 -5.04,2.18 -5.04,5.04 0,2.75 2.18,5.04 5.04,5.04l0 0zm-6.53 -5.04c0,-3.55 2.86,-6.53 6.53,-6.53 3.55,0 6.53,2.86 6.53,6.53 0,3.55 -2.98,6.53 -6.53,6.53 -3.66,0 -6.53,-2.98 -6.53,-6.53z"/>
  </g>
  <path class="fil3" d="M317.35 87.12c0,3.21 2.63,5.72 5.72,5.72 3.21,0 5.72,-2.63 5.72,-5.72 0,-3.21 -2.63,-5.72 -5.72,-5.72 -3.09,0 -5.72,2.52 -5.72,5.72z"/>
  <g>
   <path class="fil1" d="M323.07 92.16c2.75,0 5.04,-2.29 5.04,-5.04 0,-2.75 -2.29,-5.04 -5.04,-5.04 -2.75,0 -5.04,2.29 -5.04,5.04 0,2.75 2.29,5.04 5.04,5.04l0 0zm-6.53 -5.04c0,-3.55 2.98,-6.53 6.53,-6.53 3.55,0 6.53,2.86 6.53,6.53 0,3.55 -2.98,6.53 -6.53,6.53 -3.55,0 -6.53,-2.98 -6.53,-6.53z"/>
  </g>
  <path class="fil3" d="M321.47 105.21c0,3.21 2.63,5.72 5.72,5.72 3.21,0 5.72,-2.52 5.72,-5.72 0,-3.21 -2.63,-5.72 -5.72,-5.72 -3.09,-0.11 -5.72,2.52 -5.72,5.72z"/>
  <g>
   <path class="fil1" d="M327.31 110.13c2.75,0 5.04,-2.17 5.04,-5.04 0,-2.75 -2.29,-5.04 -5.04,-5.04 -2.75,0 -5.04,2.29 -5.04,5.04 0,2.86 2.18,5.04 5.04,5.04l0 0zm-6.53 -4.92c0,-3.55 2.86,-6.53 6.53,-6.53 3.55,0 6.53,2.86 6.53,6.53 0,3.55 -2.98,6.53 -6.53,6.53 -3.66,-0.11 -6.53,-2.98 -6.53,-6.53z"/>
  </g>
  <path class="fil3" d="M307.39 124.21c-1.37,5.27 1.83,10.53 6.98,11.91 5.27,1.37 10.53,-1.83 11.91,-6.98 1.37,-5.27 -1.83,-10.53 -6.98,-11.91 -5.27,-1.37 -10.65,1.72 -11.91,6.98z"/>
  <g>
   <path class="fil1" d="M307.73 126.62c0,4.01 2.63,7.67 6.75,8.7 0.8,0.23 1.49,0.34 2.29,0.34 4.01,0 7.67,-2.75 8.7,-6.75 0.23,-0.69 0.23,-1.49 0.23,-2.29 0,-4.01 -2.75,-7.67 -6.75,-8.7 -0.69,-0.23 -1.49,-0.23 -2.18,-0.23 -4.01,0 -7.78,2.63 -8.7,6.75 -0.23,0.69 -0.34,1.49 -0.34,2.18l0 0zm6.41 10.19c-4.81,-1.26 -7.9,-5.5 -7.9,-10.19 0,-0.92 0.11,-1.72 0.34,-2.63 1.14,-4.81 5.5,-7.9 10.19,-7.9 0.8,0 1.72,0.11 2.63,0.34 4.69,1.14 7.9,5.5 7.9,10.19 0,0.8 -0.11,1.72 -0.34,2.63 -1.26,4.69 -5.5,7.9 -10.19,7.9 -0.8,0 -1.72,-0.11 -2.63,-0.34z"/>
  </g>
  <path class="fil3" d="M374.93 153.41c-2.63,4.69 -0.92,10.65 3.89,13.28 4.69,2.63 10.65,0.92 13.28,-3.89 2.63,-4.69 0.92,-10.65 -3.89,-13.28 -4.69,-2.52 -10.65,-0.8 -13.28,3.89z"/>
  <path class="fil1" d="M375.62 153.75c-0.8,1.37 -1.14,2.86 -1.14,4.35 0,3.21 1.72,6.3 4.69,7.9 1.37,0.8 2.86,1.14 4.35,1.14 3.21,0 6.3,-1.72 7.9,-4.69 0.8,-1.37 1.14,-2.86 1.14,-4.35 0,-3.21 -1.72,-6.3 -4.69,-7.9 -1.37,-0.8 -2.86,-1.14 -4.35,-1.14 -3.32,0 -6.41,1.72 -7.9,4.69l-0.69 -0.34 0.69 0.34zm2.75 13.62c-3.55,-1.95 -5.5,-5.5 -5.5,-9.27 0,-1.72 0.46,-3.43 1.37,-5.04 1.83,-3.55 5.5,-5.5 9.16,-5.5 1.72,0 3.43,0.46 5.04,1.26 3.43,1.95 5.38,5.5 5.38,9.27 0,1.72 -0.46,3.43 -1.26,5.04 -1.95,3.43 -5.5,5.38 -9.27,5.38 -1.6,0.11 -3.32,-0.34 -4.92,-1.14l0 0z"/>
  <polygon class="fil0" points="239.5,176.76 257.7,170.01 239.5,163.25 221.3,170.01 "/>
  <path class="fil1" d="M223.47 170.01l16.03 5.95 16.03 -5.95 -15.8 -6.07 -16.26 6.07zm16.03 6.75l-0.23 0.69 -18.2 -6.75c-0.34,-0.11 -0.46,-0.34 -0.46,-0.69 0,-0.34 0.23,-0.57 0.46,-0.69l18.66 -6.75 18.2 6.75c0.34,0.11 0.46,0.34 0.46,0.69 0,0.34 -0.23,0.57 -0.46,0.69l-18.2 6.75 -0.23 -0.69zm-62.16 7.78l15.91 -11.1 -19.23 -1.95 -15.91 11.1 19.23 1.95z"/>
  <path class="fil1" d="M160.16 182.03l17.06 1.83 13.97 -9.85 -16.83 -1.95 -14.2 9.96zm-2.18 1.26c-0.34,0 -0.57,-0.23 -0.69,-0.57 -0.11,-0.34 0,-0.57 0.34,-0.8l16.37 -11.22 19.35 2.06c0.34,0 0.57,0.23 0.57,0.57 0.11,0.34 0,0.57 -0.34,0.8l-15.91 11.1 -0.46 -0.57 -0.11 0.69 -19.12 -2.06z"/>
  <polygon class="fil0" points="132.8,200.57 135.2,191.3 127.08,188.32 125.13,196.34 "/>
  <path class="fil1" d="M125.93 195.88l6.41 3.55 1.95 -7.67 -6.75 -2.52 -1.6 6.64zm6.87 4.69l0.34 -0.69 -0.34 0.69zm-8.13 -3.66l-0.34 -0.8 1.95 -8.01 1.03 -0.57 8.13 2.98 0.46 0.92 -2.4 9.27 -1.03 0.46 -7.78 -4.24z"/>
  <path class="fil3" d="M266.06 171.61c0,3.21 2.63,5.72 5.72,5.72 3.21,0 5.72,-2.63 5.72,-5.72 0,-3.21 -2.63,-5.72 -5.72,-5.72 -3.21,0 -5.72,2.52 -5.72,5.72z"/>
  <g>
   <path class="fil1" d="M271.78 176.65c2.75,0 5.04,-2.29 5.04,-5.04 0,-2.75 -2.29,-5.04 -5.04,-5.04 -2.75,0 -5.04,2.29 -5.04,5.04 0,2.75 2.29,5.04 5.04,5.04l0 0zm-6.53 -5.04c0,-3.55 2.98,-6.53 6.53,-6.53 3.55,0 6.53,2.86 6.53,6.53 0,3.55 -2.86,6.53 -6.53,6.53 -3.55,0 -6.53,-2.98 -6.53,-6.53z"/>
  </g>
  <path class="fil3" d="M328.34 188.44c0,3.21 2.63,5.72 5.72,5.72 3.21,0 5.72,-2.63 5.72,-5.72 0,-3.21 -2.52,-5.72 -5.72,-5.72 -3.09,0 -5.72,2.52 -5.72,5.72z"/>
  <g>
   <path class="fil1" d="M334.06 193.48c2.75,0 5.04,-2.29 5.04,-5.04 0,-2.75 -2.18,-5.04 -5.04,-5.04 -2.75,0 -5.04,2.18 -5.04,5.04 0,2.75 2.29,5.04 5.04,5.04l0 0zm-6.41 -5.04c0,-3.55 2.86,-6.53 6.53,-6.53 3.55,0 6.53,2.86 6.53,6.53 0,3.55 -2.86,6.53 -6.53,6.53 -3.66,-0.11 -6.53,-2.98 -6.53,-6.53zm-25.99 -3.89l-15.91 -11.1 19.23 -1.95 15.91 11.1 -19.23 1.95z"/>
  </g>
  <path class="fil1" d="M287.81 174.01l14.08 9.85 17.06 -1.83 -13.85 -9.85 -17.29 1.83zm13.85 10.53l-0.46 0.57 -15.91 -11.1c-0.23,-0.23 -0.34,-0.46 -0.34,-0.8 0.11,-0.34 0.34,-0.57 0.69,-0.57l19.81 -1.95 15.91 11.1c0.23,0.11 0.34,0.46 0.34,0.8 -0.11,0.34 -0.34,0.57 -0.69,0.57l-19.23 2.06 -0.11 -0.69z"/>
  <polygon class="fil0" points="346.2,200.57 343.79,191.3 352.04,188.32 353.98,196.34 "/>
  <path class="fil1" d="M344.71 191.76l1.95 7.67 6.41 -3.55 -1.6 -6.64 -6.75 2.52zm1.49 8.82l0.69 -0.23 -0.69 0.23zm-0.69 0.23l-2.4 -9.27 0.46 -0.92 8.13 -2.98 1.03 0.46 1.95 8.01 -0.34 0.8 -7.78 4.35 -1.03 -0.46z"/>
  <path class="fil2" d="M239.5 191.19c130.05,0 235.95,106.13 235.95,236.18 0,129.82 -105.9,235.95 -235.95,235.95 -130.05,0 -235.95,-106.13 -235.95,-235.95 0,-130.05 105.9,-236.18 235.95,-236.18z"/>
  <path class="fil1" d="M-0 427.36c0,-132 107.5,-239.73 239.5,-239.73l0 6.87c-128.11,0.23 -232.29,104.64 -232.51,232.74 0.23,127.99 104.41,232.29 232.51,232.51 128.22,-0.23 232.29,-104.52 232.51,-232.51 -0.23,-128.11 -104.41,-232.51 -232.51,-232.74l0 -6.87c132,0 239.5,107.73 239.5,239.73 0,131.77 -107.39,239.5 -239.5,239.5 -132,0 -239.5,-107.61 -239.5,-239.5z"/>
  <path class="fil3" d="M239.5 221.18c113.45,0 206.3,92.5 206.3,206.18 0,113.45 -92.73,206.3 -206.3,206.3 -113.45,0 -206.3,-92.73 -206.3,-206.3 0.11,-113.68 92.85,-206.18 206.3,-206.18z"/>
  <path class="fil1" d="M29.77 427.36c0,-115.63 94.33,-209.73 209.73,-209.73l0 6.87c-111.51,0.23 -202.52,91.01 -202.75,202.75 0.23,111.51 91.24,202.52 202.75,202.75 111.51,-0.23 202.52,-91.24 202.75,-202.75 -0.23,-111.74 -91.24,-202.52 -202.75,-202.75l0 -6.87c115.4,0 209.73,94.11 209.73,209.73 0,115.4 -94.33,209.73 -209.73,209.73 -115.4,0 -209.73,-94.33 -209.73,-209.73z"/>
  <path class="fil1" d="M60.56 344.02c87.58,89.3 171.27,174.47 258.73,263.88 36.98,-16.49 68.12,-43.85 88.95,-78.19l-266.06 -274.3c-35.49,20.26 -64.22,51.29 -81.63,88.61z"/>
  <path class="fil2" d="M243.67 354.55l-0.8 -0.46 -22.67 -23.47c7.78,-1.83 16.37,-2.75 21.98,-2.52l0.8 -0c7.78,0.23 15.34,1.49 22.67,3.32l-21.98 23.13zm93.53 -98.11l-45.11 46.94 -0.23 0 -1.03 1.03c-13.85,-5.27 -29.54,-8.59 -46.94,-8.82l-1.03 0c-15.91,0 -33.31,2.98 -47.85,8.82l-45.34 -47.4c-59.53,33.31 -100.06,97.08 -100.06,169.66 0,48.66 17.86,91.01 48.2,125.02l23.24 -23.7c-14.88,-14.08 -42.13,-53.46 -40.64,-103.15 1.72,-50.72 22.44,-93.3 62.74,-126.27l22.21 23.01c-30.8,23.24 -52.43,59.53 -52.89,100.06 -0.8,59.3 40.07,113.68 98.8,128.34l0 33.09 32.28 0 0 -29.31c40.87,-0.23 78.19,-20.38 100.4,-47.62l-24.38 -24.73c-22.44,26.67 -56.44,39.38 -75.9,38.35l0 -25.19 39.61 -0 0 -29.19 -39.61 0 0 -18.43 40.07 0 0 -26.45 -72.35 0 0 93.53c-43.16,-14.42 -66.29,-51.17 -65.6,-89.53 0.8,-34.8 18.2,-62.74 42.36,-79.68l54.95 56.67 0.8 0.8 53.69 -56.78c13.39,9.04 23.7,20.95 30.57,34.34l25.99 -22.44c-7.78,-13.17 -18.89,-25.76 -33.09,-36.29l21.98 -22.44c30.22,20.95 62.05,71.09 62.05,126.27 0,45.68 -15.68,73.61 -39.84,102.58l25.76 25.76c29.54,-34 47.17,-78.19 47.17,-126.62 -0.34,-73.15 -40.98,-136.92 -100.97,-170.24l-0 0z"/>
  <g>
   <path class="fil1" d="M331.08 259.53l1.72 -3.09 -1.72 3.09zm-164.97 62.39l-3.21 2.4c-29.99,22.67 -51.06,58.04 -51.52,97.42l0 1.49c0,57.01 39.61,109.22 96.28,123.41l2.63 0.69 0 32.28 25.3 -0 0 -29.19 3.43 0c38.47,-0.23 73.96,-18.78 95.71,-43.96l-19.58 -19.81c-22.32,24.61 -53.58,36.63 -73.84,36.75l-5.72 0 0 -32.17 39.61 0 0 -22.32 -39.61 -0 0 -25.3 40.07 0 0 -19.46 -65.37 0 0 94.91 -4.58 -1.49c-43.85,-14.54 -68,-51.86 -68,-91.01l0 -1.83c0.8,-35.95 18.78,-65.03 43.85,-82.43l2.4 -1.72 55.18 57.01 53.23 -56.21 2.4 1.6c12.48,8.47 22.55,19.35 29.54,31.71l20.49 -17.63c-7.44,-11.79 -17.74,-23.13 -30.57,-32.86l-3.21 -2.4 26.79 -27.36 2.4 1.72c31.25,21.75 63.42,72.58 63.54,129.14 0.11,45.22 -15.34,73.96 -38.58,102.35l20.84 20.84c27.48,-33.09 43.85,-75.22 43.85,-121.47 0,-70.86 -38.81,-132.8 -96.51,-165.77l-44.19 45.56 -0.23 0 -1.6 1.6 -2.06 -0.8c-13.51,-5.15 -28.74,-8.36 -45.68,-8.59 -15.68,0 -32.97,2.98 -47.62,8.59l-2.18 0.8 -45.11 -47.05c-57.13,33.09 -95.94,95.02 -95.94,165.31 0,46.48 16.6,87.01 44.88,119.98l18.2 -18.55c-15.34,-16.03 -39.15,-52.66 -39.27,-99.14 0,-1.37 0,-2.75 0.11,-4.12 1.72,-51.52 23.01,-95.36 64.11,-128.91l2.4 -2.06 26.9 28.05zm37.21 264.46l0 -33.77c-58.39,-15.91 -98.91,-70.06 -98.91,-129.37l0 -1.6c0.46,-40.41 21.29,-76.59 51.17,-100.4l-17.29 -17.86c-38.01,32.17 -57.36,72.93 -59.07,121.7l0 3.78c-0.11,46.48 25.76,83.46 39.61,96.62l2.52 2.4 -28.28 28.96 -2.52 -2.75c-30.8,-34.57 -49,-77.85 -49,-127.31 0,-73.96 41.33,-138.87 101.89,-172.75l2.29 -1.37 45.68 47.74c15.11,-5.5 32.17,-8.24 47.97,-8.24 16.94,0.23 32.28,3.32 45.91,8.24l0.46 -0.46 0.23 -0 44.08 -45.91 1.83 -1.95 2.4 1.26c61.02,33.89 102.35,98.8 102.35,173.21 0,49.34 -17.97,94.22 -47.97,128.91l-2.4 2.86 -30.57 -30.68 2.06 -2.4c23.93,-28.74 38.92,-55.52 39.04,-100.29 0.11,-52.43 -29.65,-100.74 -58.16,-121.81l-17.17 17.52c13.05,10.3 23.35,22.32 30.8,34.8l1.49 2.52 -31.6 27.25 -2.06 -3.89c-6.07,-12.02 -15.23,-22.78 -26.9,-31.25l-54.15 57.24 -56.1 -57.93c-22.1,16.49 -37.78,42.7 -38.47,75.33l0 1.6c0,34.92 20.49,68 58.62,82.77l0 -92.04 79.34 -0 0 33.43 -40.07 -0 0 11.45 39.61 0 0 36.18 -39.61 0 0 18.32c18.55,-0.46 49.46,-12.82 69.72,-37.09l2.4 -2.86 29.31 29.65 -1.95 2.4c-22.21,27.25 -58.96,47.51 -99.6,48.88l0 29.31 -38.92 0 0 -0.34z"/>
   <path class="fil1" d="M239.15 349.52l15.34 -16.14c-5.5,-1.03 -11.1,-1.6 -16.94,-1.83l-1.6 0c-3.55,0 -8.36,0.46 -13.17,1.26l16.37 16.71zm0.11 5.04l2.52 -2.4 -2.52 2.4zm-30.22 -25.99l6.07 -1.37c7.21,-1.6 15,-2.63 20.95,-2.63 0.69,0 1.37,0 1.95,0.11 8.36,0.23 16.37,1.26 24.27,3.43l5.61 1.49 -25.99 27.48 -2.52 2.63 -30.34 -31.14z"/>
  </g>
 </g>
</svg>
